%TF.GenerationSoftware,KiCad,Pcbnew,7.0.11+dfsg-1build4*%
%TF.CreationDate,2026-02-12T23:01:59+09:00*%
%TF.ProjectId,actuator_board_v3,61637475-6174-46f7-925f-626f6172645f,rev?*%
%TF.SameCoordinates,Original*%
%TF.FileFunction,AssemblyDrawing,Top*%
%FSLAX46Y46*%
G04 Gerber Fmt 4.6, Leading zero omitted, Abs format (unit mm)*
G04 Created by KiCad (PCBNEW 7.0.11+dfsg-1build4) date 2026-02-12 23:01:59*
%MOMM*%
%LPD*%
G01*
G04 APERTURE LIST*
%ADD10C,0.150000*%
%ADD11C,0.080000*%
%ADD12C,0.050000*%
%ADD13C,0.100000*%
G04 APERTURE END LIST*
D10*
X50719524Y-50344819D02*
X50719524Y-49344819D01*
X50719524Y-49344819D02*
X51100476Y-49344819D01*
X51100476Y-49344819D02*
X51195714Y-49392438D01*
X51195714Y-49392438D02*
X51243333Y-49440057D01*
X51243333Y-49440057D02*
X51290952Y-49535295D01*
X51290952Y-49535295D02*
X51290952Y-49678152D01*
X51290952Y-49678152D02*
X51243333Y-49773390D01*
X51243333Y-49773390D02*
X51195714Y-49821009D01*
X51195714Y-49821009D02*
X51100476Y-49868628D01*
X51100476Y-49868628D02*
X50719524Y-49868628D01*
X52290952Y-50249580D02*
X52243333Y-50297200D01*
X52243333Y-50297200D02*
X52100476Y-50344819D01*
X52100476Y-50344819D02*
X52005238Y-50344819D01*
X52005238Y-50344819D02*
X51862381Y-50297200D01*
X51862381Y-50297200D02*
X51767143Y-50201961D01*
X51767143Y-50201961D02*
X51719524Y-50106723D01*
X51719524Y-50106723D02*
X51671905Y-49916247D01*
X51671905Y-49916247D02*
X51671905Y-49773390D01*
X51671905Y-49773390D02*
X51719524Y-49582914D01*
X51719524Y-49582914D02*
X51767143Y-49487676D01*
X51767143Y-49487676D02*
X51862381Y-49392438D01*
X51862381Y-49392438D02*
X52005238Y-49344819D01*
X52005238Y-49344819D02*
X52100476Y-49344819D01*
X52100476Y-49344819D02*
X52243333Y-49392438D01*
X52243333Y-49392438D02*
X52290952Y-49440057D01*
X52862381Y-49773390D02*
X52767143Y-49725771D01*
X52767143Y-49725771D02*
X52719524Y-49678152D01*
X52719524Y-49678152D02*
X52671905Y-49582914D01*
X52671905Y-49582914D02*
X52671905Y-49535295D01*
X52671905Y-49535295D02*
X52719524Y-49440057D01*
X52719524Y-49440057D02*
X52767143Y-49392438D01*
X52767143Y-49392438D02*
X52862381Y-49344819D01*
X52862381Y-49344819D02*
X53052857Y-49344819D01*
X53052857Y-49344819D02*
X53148095Y-49392438D01*
X53148095Y-49392438D02*
X53195714Y-49440057D01*
X53195714Y-49440057D02*
X53243333Y-49535295D01*
X53243333Y-49535295D02*
X53243333Y-49582914D01*
X53243333Y-49582914D02*
X53195714Y-49678152D01*
X53195714Y-49678152D02*
X53148095Y-49725771D01*
X53148095Y-49725771D02*
X53052857Y-49773390D01*
X53052857Y-49773390D02*
X52862381Y-49773390D01*
X52862381Y-49773390D02*
X52767143Y-49821009D01*
X52767143Y-49821009D02*
X52719524Y-49868628D01*
X52719524Y-49868628D02*
X52671905Y-49963866D01*
X52671905Y-49963866D02*
X52671905Y-50154342D01*
X52671905Y-50154342D02*
X52719524Y-50249580D01*
X52719524Y-50249580D02*
X52767143Y-50297200D01*
X52767143Y-50297200D02*
X52862381Y-50344819D01*
X52862381Y-50344819D02*
X53052857Y-50344819D01*
X53052857Y-50344819D02*
X53148095Y-50297200D01*
X53148095Y-50297200D02*
X53195714Y-50249580D01*
X53195714Y-50249580D02*
X53243333Y-50154342D01*
X53243333Y-50154342D02*
X53243333Y-49963866D01*
X53243333Y-49963866D02*
X53195714Y-49868628D01*
X53195714Y-49868628D02*
X53148095Y-49821009D01*
X53148095Y-49821009D02*
X53052857Y-49773390D01*
X54195714Y-50344819D02*
X53624286Y-50344819D01*
X53910000Y-50344819D02*
X53910000Y-49344819D01*
X53910000Y-49344819D02*
X53814762Y-49487676D01*
X53814762Y-49487676D02*
X53719524Y-49582914D01*
X53719524Y-49582914D02*
X53624286Y-49630533D01*
X54529048Y-49344819D02*
X55195714Y-49344819D01*
X55195714Y-49344819D02*
X54767143Y-50344819D01*
X52148095Y-45744819D02*
X52148095Y-46554342D01*
X52148095Y-46554342D02*
X52195714Y-46649580D01*
X52195714Y-46649580D02*
X52243333Y-46697200D01*
X52243333Y-46697200D02*
X52338571Y-46744819D01*
X52338571Y-46744819D02*
X52529047Y-46744819D01*
X52529047Y-46744819D02*
X52624285Y-46697200D01*
X52624285Y-46697200D02*
X52671904Y-46649580D01*
X52671904Y-46649580D02*
X52719523Y-46554342D01*
X52719523Y-46554342D02*
X52719523Y-45744819D01*
X53148095Y-45840057D02*
X53195714Y-45792438D01*
X53195714Y-45792438D02*
X53290952Y-45744819D01*
X53290952Y-45744819D02*
X53529047Y-45744819D01*
X53529047Y-45744819D02*
X53624285Y-45792438D01*
X53624285Y-45792438D02*
X53671904Y-45840057D01*
X53671904Y-45840057D02*
X53719523Y-45935295D01*
X53719523Y-45935295D02*
X53719523Y-46030533D01*
X53719523Y-46030533D02*
X53671904Y-46173390D01*
X53671904Y-46173390D02*
X53100476Y-46744819D01*
X53100476Y-46744819D02*
X53719523Y-46744819D01*
X89204819Y-57305713D02*
X89204819Y-56686666D01*
X89204819Y-56686666D02*
X89585771Y-57019999D01*
X89585771Y-57019999D02*
X89585771Y-56877142D01*
X89585771Y-56877142D02*
X89633390Y-56781904D01*
X89633390Y-56781904D02*
X89681009Y-56734285D01*
X89681009Y-56734285D02*
X89776247Y-56686666D01*
X89776247Y-56686666D02*
X90014342Y-56686666D01*
X90014342Y-56686666D02*
X90109580Y-56734285D01*
X90109580Y-56734285D02*
X90157200Y-56781904D01*
X90157200Y-56781904D02*
X90204819Y-56877142D01*
X90204819Y-56877142D02*
X90204819Y-57162856D01*
X90204819Y-57162856D02*
X90157200Y-57258094D01*
X90157200Y-57258094D02*
X90109580Y-57305713D01*
X89204819Y-56353332D02*
X89204819Y-55734285D01*
X89204819Y-55734285D02*
X89585771Y-56067618D01*
X89585771Y-56067618D02*
X89585771Y-55924761D01*
X89585771Y-55924761D02*
X89633390Y-55829523D01*
X89633390Y-55829523D02*
X89681009Y-55781904D01*
X89681009Y-55781904D02*
X89776247Y-55734285D01*
X89776247Y-55734285D02*
X90014342Y-55734285D01*
X90014342Y-55734285D02*
X90109580Y-55781904D01*
X90109580Y-55781904D02*
X90157200Y-55829523D01*
X90157200Y-55829523D02*
X90204819Y-55924761D01*
X90204819Y-55924761D02*
X90204819Y-56210475D01*
X90204819Y-56210475D02*
X90157200Y-56305713D01*
X90157200Y-56305713D02*
X90109580Y-56353332D01*
X89204819Y-55115237D02*
X89204819Y-55019999D01*
X89204819Y-55019999D02*
X89252438Y-54924761D01*
X89252438Y-54924761D02*
X89300057Y-54877142D01*
X89300057Y-54877142D02*
X89395295Y-54829523D01*
X89395295Y-54829523D02*
X89585771Y-54781904D01*
X89585771Y-54781904D02*
X89823866Y-54781904D01*
X89823866Y-54781904D02*
X90014342Y-54829523D01*
X90014342Y-54829523D02*
X90109580Y-54877142D01*
X90109580Y-54877142D02*
X90157200Y-54924761D01*
X90157200Y-54924761D02*
X90204819Y-55019999D01*
X90204819Y-55019999D02*
X90204819Y-55115237D01*
X90204819Y-55115237D02*
X90157200Y-55210475D01*
X90157200Y-55210475D02*
X90109580Y-55258094D01*
X90109580Y-55258094D02*
X90014342Y-55305713D01*
X90014342Y-55305713D02*
X89823866Y-55353332D01*
X89823866Y-55353332D02*
X89585771Y-55353332D01*
X89585771Y-55353332D02*
X89395295Y-55305713D01*
X89395295Y-55305713D02*
X89300057Y-55258094D01*
X89300057Y-55258094D02*
X89252438Y-55210475D01*
X89252438Y-55210475D02*
X89204819Y-55115237D01*
D11*
X88327149Y-56341428D02*
X88089054Y-56508094D01*
X88327149Y-56627142D02*
X87827149Y-56627142D01*
X87827149Y-56627142D02*
X87827149Y-56436666D01*
X87827149Y-56436666D02*
X87850959Y-56389047D01*
X87850959Y-56389047D02*
X87874768Y-56365237D01*
X87874768Y-56365237D02*
X87922387Y-56341428D01*
X87922387Y-56341428D02*
X87993816Y-56341428D01*
X87993816Y-56341428D02*
X88041435Y-56365237D01*
X88041435Y-56365237D02*
X88065244Y-56389047D01*
X88065244Y-56389047D02*
X88089054Y-56436666D01*
X88089054Y-56436666D02*
X88089054Y-56627142D01*
X88327149Y-55865237D02*
X88327149Y-56150951D01*
X88327149Y-56008094D02*
X87827149Y-56008094D01*
X87827149Y-56008094D02*
X87898578Y-56055713D01*
X87898578Y-56055713D02*
X87946197Y-56103332D01*
X87946197Y-56103332D02*
X87970006Y-56150951D01*
X88327149Y-55389047D02*
X88327149Y-55674761D01*
X88327149Y-55531904D02*
X87827149Y-55531904D01*
X87827149Y-55531904D02*
X87898578Y-55579523D01*
X87898578Y-55579523D02*
X87946197Y-55627142D01*
X87946197Y-55627142D02*
X87970006Y-55674761D01*
D10*
X70204819Y-48686666D02*
X70204819Y-49258094D01*
X70204819Y-48972380D02*
X69204819Y-48972380D01*
X69204819Y-48972380D02*
X69347676Y-49067618D01*
X69347676Y-49067618D02*
X69442914Y-49162856D01*
X69442914Y-49162856D02*
X69490533Y-49258094D01*
X69204819Y-48067618D02*
X69204819Y-47972380D01*
X69204819Y-47972380D02*
X69252438Y-47877142D01*
X69252438Y-47877142D02*
X69300057Y-47829523D01*
X69300057Y-47829523D02*
X69395295Y-47781904D01*
X69395295Y-47781904D02*
X69585771Y-47734285D01*
X69585771Y-47734285D02*
X69823866Y-47734285D01*
X69823866Y-47734285D02*
X70014342Y-47781904D01*
X70014342Y-47781904D02*
X70109580Y-47829523D01*
X70109580Y-47829523D02*
X70157200Y-47877142D01*
X70157200Y-47877142D02*
X70204819Y-47972380D01*
X70204819Y-47972380D02*
X70204819Y-48067618D01*
X70204819Y-48067618D02*
X70157200Y-48162856D01*
X70157200Y-48162856D02*
X70109580Y-48210475D01*
X70109580Y-48210475D02*
X70014342Y-48258094D01*
X70014342Y-48258094D02*
X69823866Y-48305713D01*
X69823866Y-48305713D02*
X69585771Y-48305713D01*
X69585771Y-48305713D02*
X69395295Y-48258094D01*
X69395295Y-48258094D02*
X69300057Y-48210475D01*
X69300057Y-48210475D02*
X69252438Y-48162856D01*
X69252438Y-48162856D02*
X69204819Y-48067618D01*
X69204819Y-47115237D02*
X69204819Y-47019999D01*
X69204819Y-47019999D02*
X69252438Y-46924761D01*
X69252438Y-46924761D02*
X69300057Y-46877142D01*
X69300057Y-46877142D02*
X69395295Y-46829523D01*
X69395295Y-46829523D02*
X69585771Y-46781904D01*
X69585771Y-46781904D02*
X69823866Y-46781904D01*
X69823866Y-46781904D02*
X70014342Y-46829523D01*
X70014342Y-46829523D02*
X70109580Y-46877142D01*
X70109580Y-46877142D02*
X70157200Y-46924761D01*
X70157200Y-46924761D02*
X70204819Y-47019999D01*
X70204819Y-47019999D02*
X70204819Y-47115237D01*
X70204819Y-47115237D02*
X70157200Y-47210475D01*
X70157200Y-47210475D02*
X70109580Y-47258094D01*
X70109580Y-47258094D02*
X70014342Y-47305713D01*
X70014342Y-47305713D02*
X69823866Y-47353332D01*
X69823866Y-47353332D02*
X69585771Y-47353332D01*
X69585771Y-47353332D02*
X69395295Y-47305713D01*
X69395295Y-47305713D02*
X69300057Y-47258094D01*
X69300057Y-47258094D02*
X69252438Y-47210475D01*
X69252438Y-47210475D02*
X69204819Y-47115237D01*
D11*
X68327149Y-48103333D02*
X68089054Y-48269999D01*
X68327149Y-48389047D02*
X67827149Y-48389047D01*
X67827149Y-48389047D02*
X67827149Y-48198571D01*
X67827149Y-48198571D02*
X67850959Y-48150952D01*
X67850959Y-48150952D02*
X67874768Y-48127142D01*
X67874768Y-48127142D02*
X67922387Y-48103333D01*
X67922387Y-48103333D02*
X67993816Y-48103333D01*
X67993816Y-48103333D02*
X68041435Y-48127142D01*
X68041435Y-48127142D02*
X68065244Y-48150952D01*
X68065244Y-48150952D02*
X68089054Y-48198571D01*
X68089054Y-48198571D02*
X68089054Y-48389047D01*
X67874768Y-47912856D02*
X67850959Y-47889047D01*
X67850959Y-47889047D02*
X67827149Y-47841428D01*
X67827149Y-47841428D02*
X67827149Y-47722380D01*
X67827149Y-47722380D02*
X67850959Y-47674761D01*
X67850959Y-47674761D02*
X67874768Y-47650952D01*
X67874768Y-47650952D02*
X67922387Y-47627142D01*
X67922387Y-47627142D02*
X67970006Y-47627142D01*
X67970006Y-47627142D02*
X68041435Y-47650952D01*
X68041435Y-47650952D02*
X68327149Y-47936666D01*
X68327149Y-47936666D02*
X68327149Y-47627142D01*
D10*
X86204819Y-48686666D02*
X86204819Y-49258094D01*
X86204819Y-48972380D02*
X85204819Y-48972380D01*
X85204819Y-48972380D02*
X85347676Y-49067618D01*
X85347676Y-49067618D02*
X85442914Y-49162856D01*
X85442914Y-49162856D02*
X85490533Y-49258094D01*
X85204819Y-48067618D02*
X85204819Y-47972380D01*
X85204819Y-47972380D02*
X85252438Y-47877142D01*
X85252438Y-47877142D02*
X85300057Y-47829523D01*
X85300057Y-47829523D02*
X85395295Y-47781904D01*
X85395295Y-47781904D02*
X85585771Y-47734285D01*
X85585771Y-47734285D02*
X85823866Y-47734285D01*
X85823866Y-47734285D02*
X86014342Y-47781904D01*
X86014342Y-47781904D02*
X86109580Y-47829523D01*
X86109580Y-47829523D02*
X86157200Y-47877142D01*
X86157200Y-47877142D02*
X86204819Y-47972380D01*
X86204819Y-47972380D02*
X86204819Y-48067618D01*
X86204819Y-48067618D02*
X86157200Y-48162856D01*
X86157200Y-48162856D02*
X86109580Y-48210475D01*
X86109580Y-48210475D02*
X86014342Y-48258094D01*
X86014342Y-48258094D02*
X85823866Y-48305713D01*
X85823866Y-48305713D02*
X85585771Y-48305713D01*
X85585771Y-48305713D02*
X85395295Y-48258094D01*
X85395295Y-48258094D02*
X85300057Y-48210475D01*
X85300057Y-48210475D02*
X85252438Y-48162856D01*
X85252438Y-48162856D02*
X85204819Y-48067618D01*
X85204819Y-47115237D02*
X85204819Y-47019999D01*
X85204819Y-47019999D02*
X85252438Y-46924761D01*
X85252438Y-46924761D02*
X85300057Y-46877142D01*
X85300057Y-46877142D02*
X85395295Y-46829523D01*
X85395295Y-46829523D02*
X85585771Y-46781904D01*
X85585771Y-46781904D02*
X85823866Y-46781904D01*
X85823866Y-46781904D02*
X86014342Y-46829523D01*
X86014342Y-46829523D02*
X86109580Y-46877142D01*
X86109580Y-46877142D02*
X86157200Y-46924761D01*
X86157200Y-46924761D02*
X86204819Y-47019999D01*
X86204819Y-47019999D02*
X86204819Y-47115237D01*
X86204819Y-47115237D02*
X86157200Y-47210475D01*
X86157200Y-47210475D02*
X86109580Y-47258094D01*
X86109580Y-47258094D02*
X86014342Y-47305713D01*
X86014342Y-47305713D02*
X85823866Y-47353332D01*
X85823866Y-47353332D02*
X85585771Y-47353332D01*
X85585771Y-47353332D02*
X85395295Y-47305713D01*
X85395295Y-47305713D02*
X85300057Y-47258094D01*
X85300057Y-47258094D02*
X85252438Y-47210475D01*
X85252438Y-47210475D02*
X85204819Y-47115237D01*
D11*
X84327149Y-48103333D02*
X84089054Y-48269999D01*
X84327149Y-48389047D02*
X83827149Y-48389047D01*
X83827149Y-48389047D02*
X83827149Y-48198571D01*
X83827149Y-48198571D02*
X83850959Y-48150952D01*
X83850959Y-48150952D02*
X83874768Y-48127142D01*
X83874768Y-48127142D02*
X83922387Y-48103333D01*
X83922387Y-48103333D02*
X83993816Y-48103333D01*
X83993816Y-48103333D02*
X84041435Y-48127142D01*
X84041435Y-48127142D02*
X84065244Y-48150952D01*
X84065244Y-48150952D02*
X84089054Y-48198571D01*
X84089054Y-48198571D02*
X84089054Y-48389047D01*
X83827149Y-47936666D02*
X83827149Y-47627142D01*
X83827149Y-47627142D02*
X84017625Y-47793809D01*
X84017625Y-47793809D02*
X84017625Y-47722380D01*
X84017625Y-47722380D02*
X84041435Y-47674761D01*
X84041435Y-47674761D02*
X84065244Y-47650952D01*
X84065244Y-47650952D02*
X84112863Y-47627142D01*
X84112863Y-47627142D02*
X84231911Y-47627142D01*
X84231911Y-47627142D02*
X84279530Y-47650952D01*
X84279530Y-47650952D02*
X84303340Y-47674761D01*
X84303340Y-47674761D02*
X84327149Y-47722380D01*
X84327149Y-47722380D02*
X84327149Y-47865237D01*
X84327149Y-47865237D02*
X84303340Y-47912856D01*
X84303340Y-47912856D02*
X84279530Y-47936666D01*
D10*
X66719524Y-50344819D02*
X66719524Y-49344819D01*
X66719524Y-49344819D02*
X67100476Y-49344819D01*
X67100476Y-49344819D02*
X67195714Y-49392438D01*
X67195714Y-49392438D02*
X67243333Y-49440057D01*
X67243333Y-49440057D02*
X67290952Y-49535295D01*
X67290952Y-49535295D02*
X67290952Y-49678152D01*
X67290952Y-49678152D02*
X67243333Y-49773390D01*
X67243333Y-49773390D02*
X67195714Y-49821009D01*
X67195714Y-49821009D02*
X67100476Y-49868628D01*
X67100476Y-49868628D02*
X66719524Y-49868628D01*
X68290952Y-50249580D02*
X68243333Y-50297200D01*
X68243333Y-50297200D02*
X68100476Y-50344819D01*
X68100476Y-50344819D02*
X68005238Y-50344819D01*
X68005238Y-50344819D02*
X67862381Y-50297200D01*
X67862381Y-50297200D02*
X67767143Y-50201961D01*
X67767143Y-50201961D02*
X67719524Y-50106723D01*
X67719524Y-50106723D02*
X67671905Y-49916247D01*
X67671905Y-49916247D02*
X67671905Y-49773390D01*
X67671905Y-49773390D02*
X67719524Y-49582914D01*
X67719524Y-49582914D02*
X67767143Y-49487676D01*
X67767143Y-49487676D02*
X67862381Y-49392438D01*
X67862381Y-49392438D02*
X68005238Y-49344819D01*
X68005238Y-49344819D02*
X68100476Y-49344819D01*
X68100476Y-49344819D02*
X68243333Y-49392438D01*
X68243333Y-49392438D02*
X68290952Y-49440057D01*
X68862381Y-49773390D02*
X68767143Y-49725771D01*
X68767143Y-49725771D02*
X68719524Y-49678152D01*
X68719524Y-49678152D02*
X68671905Y-49582914D01*
X68671905Y-49582914D02*
X68671905Y-49535295D01*
X68671905Y-49535295D02*
X68719524Y-49440057D01*
X68719524Y-49440057D02*
X68767143Y-49392438D01*
X68767143Y-49392438D02*
X68862381Y-49344819D01*
X68862381Y-49344819D02*
X69052857Y-49344819D01*
X69052857Y-49344819D02*
X69148095Y-49392438D01*
X69148095Y-49392438D02*
X69195714Y-49440057D01*
X69195714Y-49440057D02*
X69243333Y-49535295D01*
X69243333Y-49535295D02*
X69243333Y-49582914D01*
X69243333Y-49582914D02*
X69195714Y-49678152D01*
X69195714Y-49678152D02*
X69148095Y-49725771D01*
X69148095Y-49725771D02*
X69052857Y-49773390D01*
X69052857Y-49773390D02*
X68862381Y-49773390D01*
X68862381Y-49773390D02*
X68767143Y-49821009D01*
X68767143Y-49821009D02*
X68719524Y-49868628D01*
X68719524Y-49868628D02*
X68671905Y-49963866D01*
X68671905Y-49963866D02*
X68671905Y-50154342D01*
X68671905Y-50154342D02*
X68719524Y-50249580D01*
X68719524Y-50249580D02*
X68767143Y-50297200D01*
X68767143Y-50297200D02*
X68862381Y-50344819D01*
X68862381Y-50344819D02*
X69052857Y-50344819D01*
X69052857Y-50344819D02*
X69148095Y-50297200D01*
X69148095Y-50297200D02*
X69195714Y-50249580D01*
X69195714Y-50249580D02*
X69243333Y-50154342D01*
X69243333Y-50154342D02*
X69243333Y-49963866D01*
X69243333Y-49963866D02*
X69195714Y-49868628D01*
X69195714Y-49868628D02*
X69148095Y-49821009D01*
X69148095Y-49821009D02*
X69052857Y-49773390D01*
X70195714Y-50344819D02*
X69624286Y-50344819D01*
X69910000Y-50344819D02*
X69910000Y-49344819D01*
X69910000Y-49344819D02*
X69814762Y-49487676D01*
X69814762Y-49487676D02*
X69719524Y-49582914D01*
X69719524Y-49582914D02*
X69624286Y-49630533D01*
X70529048Y-49344819D02*
X71195714Y-49344819D01*
X71195714Y-49344819D02*
X70767143Y-50344819D01*
X68148095Y-45744819D02*
X68148095Y-46554342D01*
X68148095Y-46554342D02*
X68195714Y-46649580D01*
X68195714Y-46649580D02*
X68243333Y-46697200D01*
X68243333Y-46697200D02*
X68338571Y-46744819D01*
X68338571Y-46744819D02*
X68529047Y-46744819D01*
X68529047Y-46744819D02*
X68624285Y-46697200D01*
X68624285Y-46697200D02*
X68671904Y-46649580D01*
X68671904Y-46649580D02*
X68719523Y-46554342D01*
X68719523Y-46554342D02*
X68719523Y-45744819D01*
X69100476Y-45744819D02*
X69719523Y-45744819D01*
X69719523Y-45744819D02*
X69386190Y-46125771D01*
X69386190Y-46125771D02*
X69529047Y-46125771D01*
X69529047Y-46125771D02*
X69624285Y-46173390D01*
X69624285Y-46173390D02*
X69671904Y-46221009D01*
X69671904Y-46221009D02*
X69719523Y-46316247D01*
X69719523Y-46316247D02*
X69719523Y-46554342D01*
X69719523Y-46554342D02*
X69671904Y-46649580D01*
X69671904Y-46649580D02*
X69624285Y-46697200D01*
X69624285Y-46697200D02*
X69529047Y-46744819D01*
X69529047Y-46744819D02*
X69243333Y-46744819D01*
X69243333Y-46744819D02*
X69148095Y-46697200D01*
X69148095Y-46697200D02*
X69100476Y-46649580D01*
X50204819Y-43305713D02*
X50204819Y-42686666D01*
X50204819Y-42686666D02*
X50585771Y-43019999D01*
X50585771Y-43019999D02*
X50585771Y-42877142D01*
X50585771Y-42877142D02*
X50633390Y-42781904D01*
X50633390Y-42781904D02*
X50681009Y-42734285D01*
X50681009Y-42734285D02*
X50776247Y-42686666D01*
X50776247Y-42686666D02*
X51014342Y-42686666D01*
X51014342Y-42686666D02*
X51109580Y-42734285D01*
X51109580Y-42734285D02*
X51157200Y-42781904D01*
X51157200Y-42781904D02*
X51204819Y-42877142D01*
X51204819Y-42877142D02*
X51204819Y-43162856D01*
X51204819Y-43162856D02*
X51157200Y-43258094D01*
X51157200Y-43258094D02*
X51109580Y-43305713D01*
X50204819Y-42353332D02*
X50204819Y-41734285D01*
X50204819Y-41734285D02*
X50585771Y-42067618D01*
X50585771Y-42067618D02*
X50585771Y-41924761D01*
X50585771Y-41924761D02*
X50633390Y-41829523D01*
X50633390Y-41829523D02*
X50681009Y-41781904D01*
X50681009Y-41781904D02*
X50776247Y-41734285D01*
X50776247Y-41734285D02*
X51014342Y-41734285D01*
X51014342Y-41734285D02*
X51109580Y-41781904D01*
X51109580Y-41781904D02*
X51157200Y-41829523D01*
X51157200Y-41829523D02*
X51204819Y-41924761D01*
X51204819Y-41924761D02*
X51204819Y-42210475D01*
X51204819Y-42210475D02*
X51157200Y-42305713D01*
X51157200Y-42305713D02*
X51109580Y-42353332D01*
X50204819Y-41115237D02*
X50204819Y-41019999D01*
X50204819Y-41019999D02*
X50252438Y-40924761D01*
X50252438Y-40924761D02*
X50300057Y-40877142D01*
X50300057Y-40877142D02*
X50395295Y-40829523D01*
X50395295Y-40829523D02*
X50585771Y-40781904D01*
X50585771Y-40781904D02*
X50823866Y-40781904D01*
X50823866Y-40781904D02*
X51014342Y-40829523D01*
X51014342Y-40829523D02*
X51109580Y-40877142D01*
X51109580Y-40877142D02*
X51157200Y-40924761D01*
X51157200Y-40924761D02*
X51204819Y-41019999D01*
X51204819Y-41019999D02*
X51204819Y-41115237D01*
X51204819Y-41115237D02*
X51157200Y-41210475D01*
X51157200Y-41210475D02*
X51109580Y-41258094D01*
X51109580Y-41258094D02*
X51014342Y-41305713D01*
X51014342Y-41305713D02*
X50823866Y-41353332D01*
X50823866Y-41353332D02*
X50585771Y-41353332D01*
X50585771Y-41353332D02*
X50395295Y-41305713D01*
X50395295Y-41305713D02*
X50300057Y-41258094D01*
X50300057Y-41258094D02*
X50252438Y-41210475D01*
X50252438Y-41210475D02*
X50204819Y-41115237D01*
D11*
X49327149Y-42341428D02*
X49089054Y-42508094D01*
X49327149Y-42627142D02*
X48827149Y-42627142D01*
X48827149Y-42627142D02*
X48827149Y-42436666D01*
X48827149Y-42436666D02*
X48850959Y-42389047D01*
X48850959Y-42389047D02*
X48874768Y-42365237D01*
X48874768Y-42365237D02*
X48922387Y-42341428D01*
X48922387Y-42341428D02*
X48993816Y-42341428D01*
X48993816Y-42341428D02*
X49041435Y-42365237D01*
X49041435Y-42365237D02*
X49065244Y-42389047D01*
X49065244Y-42389047D02*
X49089054Y-42436666D01*
X49089054Y-42436666D02*
X49089054Y-42627142D01*
X49327149Y-41865237D02*
X49327149Y-42150951D01*
X49327149Y-42008094D02*
X48827149Y-42008094D01*
X48827149Y-42008094D02*
X48898578Y-42055713D01*
X48898578Y-42055713D02*
X48946197Y-42103332D01*
X48946197Y-42103332D02*
X48970006Y-42150951D01*
X48827149Y-41698571D02*
X48827149Y-41389047D01*
X48827149Y-41389047D02*
X49017625Y-41555714D01*
X49017625Y-41555714D02*
X49017625Y-41484285D01*
X49017625Y-41484285D02*
X49041435Y-41436666D01*
X49041435Y-41436666D02*
X49065244Y-41412857D01*
X49065244Y-41412857D02*
X49112863Y-41389047D01*
X49112863Y-41389047D02*
X49231911Y-41389047D01*
X49231911Y-41389047D02*
X49279530Y-41412857D01*
X49279530Y-41412857D02*
X49303340Y-41436666D01*
X49303340Y-41436666D02*
X49327149Y-41484285D01*
X49327149Y-41484285D02*
X49327149Y-41627142D01*
X49327149Y-41627142D02*
X49303340Y-41674761D01*
X49303340Y-41674761D02*
X49279530Y-41698571D01*
D10*
X86385714Y-52970057D02*
X86433333Y-52922438D01*
X86433333Y-52922438D02*
X86528571Y-52874819D01*
X86528571Y-52874819D02*
X86766666Y-52874819D01*
X86766666Y-52874819D02*
X86861904Y-52922438D01*
X86861904Y-52922438D02*
X86909523Y-52970057D01*
X86909523Y-52970057D02*
X86957142Y-53065295D01*
X86957142Y-53065295D02*
X86957142Y-53160533D01*
X86957142Y-53160533D02*
X86909523Y-53303390D01*
X86909523Y-53303390D02*
X86338095Y-53874819D01*
X86338095Y-53874819D02*
X86957142Y-53874819D01*
X87385714Y-53874819D02*
X87385714Y-52874819D01*
X87385714Y-52874819D02*
X87957142Y-53874819D01*
X87957142Y-53874819D02*
X87957142Y-52874819D01*
X88338095Y-52874819D02*
X89004761Y-52874819D01*
X89004761Y-52874819D02*
X88576190Y-53874819D01*
X89576190Y-52874819D02*
X89671428Y-52874819D01*
X89671428Y-52874819D02*
X89766666Y-52922438D01*
X89766666Y-52922438D02*
X89814285Y-52970057D01*
X89814285Y-52970057D02*
X89861904Y-53065295D01*
X89861904Y-53065295D02*
X89909523Y-53255771D01*
X89909523Y-53255771D02*
X89909523Y-53493866D01*
X89909523Y-53493866D02*
X89861904Y-53684342D01*
X89861904Y-53684342D02*
X89814285Y-53779580D01*
X89814285Y-53779580D02*
X89766666Y-53827200D01*
X89766666Y-53827200D02*
X89671428Y-53874819D01*
X89671428Y-53874819D02*
X89576190Y-53874819D01*
X89576190Y-53874819D02*
X89480952Y-53827200D01*
X89480952Y-53827200D02*
X89433333Y-53779580D01*
X89433333Y-53779580D02*
X89385714Y-53684342D01*
X89385714Y-53684342D02*
X89338095Y-53493866D01*
X89338095Y-53493866D02*
X89338095Y-53255771D01*
X89338095Y-53255771D02*
X89385714Y-53065295D01*
X89385714Y-53065295D02*
X89433333Y-52970057D01*
X89433333Y-52970057D02*
X89480952Y-52922438D01*
X89480952Y-52922438D02*
X89576190Y-52874819D01*
X90528571Y-52874819D02*
X90623809Y-52874819D01*
X90623809Y-52874819D02*
X90719047Y-52922438D01*
X90719047Y-52922438D02*
X90766666Y-52970057D01*
X90766666Y-52970057D02*
X90814285Y-53065295D01*
X90814285Y-53065295D02*
X90861904Y-53255771D01*
X90861904Y-53255771D02*
X90861904Y-53493866D01*
X90861904Y-53493866D02*
X90814285Y-53684342D01*
X90814285Y-53684342D02*
X90766666Y-53779580D01*
X90766666Y-53779580D02*
X90719047Y-53827200D01*
X90719047Y-53827200D02*
X90623809Y-53874819D01*
X90623809Y-53874819D02*
X90528571Y-53874819D01*
X90528571Y-53874819D02*
X90433333Y-53827200D01*
X90433333Y-53827200D02*
X90385714Y-53779580D01*
X90385714Y-53779580D02*
X90338095Y-53684342D01*
X90338095Y-53684342D02*
X90290476Y-53493866D01*
X90290476Y-53493866D02*
X90290476Y-53255771D01*
X90290476Y-53255771D02*
X90338095Y-53065295D01*
X90338095Y-53065295D02*
X90385714Y-52970057D01*
X90385714Y-52970057D02*
X90433333Y-52922438D01*
X90433333Y-52922438D02*
X90528571Y-52874819D01*
X91242857Y-52970057D02*
X91290476Y-52922438D01*
X91290476Y-52922438D02*
X91385714Y-52874819D01*
X91385714Y-52874819D02*
X91623809Y-52874819D01*
X91623809Y-52874819D02*
X91719047Y-52922438D01*
X91719047Y-52922438D02*
X91766666Y-52970057D01*
X91766666Y-52970057D02*
X91814285Y-53065295D01*
X91814285Y-53065295D02*
X91814285Y-53160533D01*
X91814285Y-53160533D02*
X91766666Y-53303390D01*
X91766666Y-53303390D02*
X91195238Y-53874819D01*
X91195238Y-53874819D02*
X91814285Y-53874819D01*
D12*
X89069523Y-51195914D02*
X89039047Y-51180676D01*
X89039047Y-51180676D02*
X89008571Y-51150200D01*
X89008571Y-51150200D02*
X88962857Y-51104485D01*
X88962857Y-51104485D02*
X88932380Y-51089247D01*
X88932380Y-51089247D02*
X88901904Y-51089247D01*
X88917142Y-51165438D02*
X88886666Y-51150200D01*
X88886666Y-51150200D02*
X88856190Y-51119723D01*
X88856190Y-51119723D02*
X88840952Y-51058771D01*
X88840952Y-51058771D02*
X88840952Y-50952104D01*
X88840952Y-50952104D02*
X88856190Y-50891152D01*
X88856190Y-50891152D02*
X88886666Y-50860676D01*
X88886666Y-50860676D02*
X88917142Y-50845438D01*
X88917142Y-50845438D02*
X88978095Y-50845438D01*
X88978095Y-50845438D02*
X89008571Y-50860676D01*
X89008571Y-50860676D02*
X89039047Y-50891152D01*
X89039047Y-50891152D02*
X89054285Y-50952104D01*
X89054285Y-50952104D02*
X89054285Y-51058771D01*
X89054285Y-51058771D02*
X89039047Y-51119723D01*
X89039047Y-51119723D02*
X89008571Y-51150200D01*
X89008571Y-51150200D02*
X88978095Y-51165438D01*
X88978095Y-51165438D02*
X88917142Y-51165438D01*
X89160952Y-50845438D02*
X89359047Y-50845438D01*
X89359047Y-50845438D02*
X89252380Y-50967342D01*
X89252380Y-50967342D02*
X89298095Y-50967342D01*
X89298095Y-50967342D02*
X89328571Y-50982580D01*
X89328571Y-50982580D02*
X89343809Y-50997819D01*
X89343809Y-50997819D02*
X89359047Y-51028295D01*
X89359047Y-51028295D02*
X89359047Y-51104485D01*
X89359047Y-51104485D02*
X89343809Y-51134961D01*
X89343809Y-51134961D02*
X89328571Y-51150200D01*
X89328571Y-51150200D02*
X89298095Y-51165438D01*
X89298095Y-51165438D02*
X89206666Y-51165438D01*
X89206666Y-51165438D02*
X89176190Y-51150200D01*
X89176190Y-51150200D02*
X89160952Y-51134961D01*
D10*
X111890952Y-50574819D02*
X111319524Y-50574819D01*
X111605238Y-50574819D02*
X111605238Y-49574819D01*
X111605238Y-49574819D02*
X111510000Y-49717676D01*
X111510000Y-49717676D02*
X111414762Y-49812914D01*
X111414762Y-49812914D02*
X111319524Y-49860533D01*
X112510000Y-49574819D02*
X112605238Y-49574819D01*
X112605238Y-49574819D02*
X112700476Y-49622438D01*
X112700476Y-49622438D02*
X112748095Y-49670057D01*
X112748095Y-49670057D02*
X112795714Y-49765295D01*
X112795714Y-49765295D02*
X112843333Y-49955771D01*
X112843333Y-49955771D02*
X112843333Y-50193866D01*
X112843333Y-50193866D02*
X112795714Y-50384342D01*
X112795714Y-50384342D02*
X112748095Y-50479580D01*
X112748095Y-50479580D02*
X112700476Y-50527200D01*
X112700476Y-50527200D02*
X112605238Y-50574819D01*
X112605238Y-50574819D02*
X112510000Y-50574819D01*
X112510000Y-50574819D02*
X112414762Y-50527200D01*
X112414762Y-50527200D02*
X112367143Y-50479580D01*
X112367143Y-50479580D02*
X112319524Y-50384342D01*
X112319524Y-50384342D02*
X112271905Y-50193866D01*
X112271905Y-50193866D02*
X112271905Y-49955771D01*
X112271905Y-49955771D02*
X112319524Y-49765295D01*
X112319524Y-49765295D02*
X112367143Y-49670057D01*
X112367143Y-49670057D02*
X112414762Y-49622438D01*
X112414762Y-49622438D02*
X112510000Y-49574819D01*
X113462381Y-49574819D02*
X113557619Y-49574819D01*
X113557619Y-49574819D02*
X113652857Y-49622438D01*
X113652857Y-49622438D02*
X113700476Y-49670057D01*
X113700476Y-49670057D02*
X113748095Y-49765295D01*
X113748095Y-49765295D02*
X113795714Y-49955771D01*
X113795714Y-49955771D02*
X113795714Y-50193866D01*
X113795714Y-50193866D02*
X113748095Y-50384342D01*
X113748095Y-50384342D02*
X113700476Y-50479580D01*
X113700476Y-50479580D02*
X113652857Y-50527200D01*
X113652857Y-50527200D02*
X113557619Y-50574819D01*
X113557619Y-50574819D02*
X113462381Y-50574819D01*
X113462381Y-50574819D02*
X113367143Y-50527200D01*
X113367143Y-50527200D02*
X113319524Y-50479580D01*
X113319524Y-50479580D02*
X113271905Y-50384342D01*
X113271905Y-50384342D02*
X113224286Y-50193866D01*
X113224286Y-50193866D02*
X113224286Y-49955771D01*
X113224286Y-49955771D02*
X113271905Y-49765295D01*
X113271905Y-49765295D02*
X113319524Y-49670057D01*
X113319524Y-49670057D02*
X113367143Y-49622438D01*
X113367143Y-49622438D02*
X113462381Y-49574819D01*
X114652857Y-49908152D02*
X114652857Y-50574819D01*
X114224286Y-49908152D02*
X114224286Y-50431961D01*
X114224286Y-50431961D02*
X114271905Y-50527200D01*
X114271905Y-50527200D02*
X114367143Y-50574819D01*
X114367143Y-50574819D02*
X114510000Y-50574819D01*
X114510000Y-50574819D02*
X114605238Y-50527200D01*
X114605238Y-50527200D02*
X114652857Y-50479580D01*
X112843333Y-46079580D02*
X112795714Y-46127200D01*
X112795714Y-46127200D02*
X112652857Y-46174819D01*
X112652857Y-46174819D02*
X112557619Y-46174819D01*
X112557619Y-46174819D02*
X112414762Y-46127200D01*
X112414762Y-46127200D02*
X112319524Y-46031961D01*
X112319524Y-46031961D02*
X112271905Y-45936723D01*
X112271905Y-45936723D02*
X112224286Y-45746247D01*
X112224286Y-45746247D02*
X112224286Y-45603390D01*
X112224286Y-45603390D02*
X112271905Y-45412914D01*
X112271905Y-45412914D02*
X112319524Y-45317676D01*
X112319524Y-45317676D02*
X112414762Y-45222438D01*
X112414762Y-45222438D02*
X112557619Y-45174819D01*
X112557619Y-45174819D02*
X112652857Y-45174819D01*
X112652857Y-45174819D02*
X112795714Y-45222438D01*
X112795714Y-45222438D02*
X112843333Y-45270057D01*
X113795714Y-46174819D02*
X113224286Y-46174819D01*
X113510000Y-46174819D02*
X113510000Y-45174819D01*
X113510000Y-45174819D02*
X113414762Y-45317676D01*
X113414762Y-45317676D02*
X113319524Y-45412914D01*
X113319524Y-45412914D02*
X113224286Y-45460533D01*
X88204819Y-56591428D02*
X87728628Y-56924761D01*
X88204819Y-57162856D02*
X87204819Y-57162856D01*
X87204819Y-57162856D02*
X87204819Y-56781904D01*
X87204819Y-56781904D02*
X87252438Y-56686666D01*
X87252438Y-56686666D02*
X87300057Y-56639047D01*
X87300057Y-56639047D02*
X87395295Y-56591428D01*
X87395295Y-56591428D02*
X87538152Y-56591428D01*
X87538152Y-56591428D02*
X87633390Y-56639047D01*
X87633390Y-56639047D02*
X87681009Y-56686666D01*
X87681009Y-56686666D02*
X87728628Y-56781904D01*
X87728628Y-56781904D02*
X87728628Y-57162856D01*
X88157200Y-55781904D02*
X88204819Y-55877142D01*
X88204819Y-55877142D02*
X88204819Y-56067618D01*
X88204819Y-56067618D02*
X88157200Y-56162856D01*
X88157200Y-56162856D02*
X88061961Y-56210475D01*
X88061961Y-56210475D02*
X87681009Y-56210475D01*
X87681009Y-56210475D02*
X87585771Y-56162856D01*
X87585771Y-56162856D02*
X87538152Y-56067618D01*
X87538152Y-56067618D02*
X87538152Y-55877142D01*
X87538152Y-55877142D02*
X87585771Y-55781904D01*
X87585771Y-55781904D02*
X87681009Y-55734285D01*
X87681009Y-55734285D02*
X87776247Y-55734285D01*
X87776247Y-55734285D02*
X87871485Y-56210475D01*
X88204819Y-54877142D02*
X87204819Y-54877142D01*
X88157200Y-54877142D02*
X88204819Y-54972380D01*
X88204819Y-54972380D02*
X88204819Y-55162856D01*
X88204819Y-55162856D02*
X88157200Y-55258094D01*
X88157200Y-55258094D02*
X88109580Y-55305713D01*
X88109580Y-55305713D02*
X88014342Y-55353332D01*
X88014342Y-55353332D02*
X87728628Y-55353332D01*
X87728628Y-55353332D02*
X87633390Y-55305713D01*
X87633390Y-55305713D02*
X87585771Y-55258094D01*
X87585771Y-55258094D02*
X87538152Y-55162856D01*
X87538152Y-55162856D02*
X87538152Y-54972380D01*
X87538152Y-54972380D02*
X87585771Y-54877142D01*
D11*
X86327149Y-56579523D02*
X86327149Y-56817618D01*
X86327149Y-56817618D02*
X85827149Y-56817618D01*
X86065244Y-56412856D02*
X86065244Y-56246189D01*
X86327149Y-56174761D02*
X86327149Y-56412856D01*
X86327149Y-56412856D02*
X85827149Y-56412856D01*
X85827149Y-56412856D02*
X85827149Y-56174761D01*
X86327149Y-55960475D02*
X85827149Y-55960475D01*
X85827149Y-55960475D02*
X85827149Y-55841427D01*
X85827149Y-55841427D02*
X85850959Y-55769999D01*
X85850959Y-55769999D02*
X85898578Y-55722380D01*
X85898578Y-55722380D02*
X85946197Y-55698570D01*
X85946197Y-55698570D02*
X86041435Y-55674761D01*
X86041435Y-55674761D02*
X86112863Y-55674761D01*
X86112863Y-55674761D02*
X86208101Y-55698570D01*
X86208101Y-55698570D02*
X86255720Y-55722380D01*
X86255720Y-55722380D02*
X86303340Y-55769999D01*
X86303340Y-55769999D02*
X86327149Y-55841427D01*
X86327149Y-55841427D02*
X86327149Y-55960475D01*
X85827149Y-55508094D02*
X85827149Y-55198570D01*
X85827149Y-55198570D02*
X86017625Y-55365237D01*
X86017625Y-55365237D02*
X86017625Y-55293808D01*
X86017625Y-55293808D02*
X86041435Y-55246189D01*
X86041435Y-55246189D02*
X86065244Y-55222380D01*
X86065244Y-55222380D02*
X86112863Y-55198570D01*
X86112863Y-55198570D02*
X86231911Y-55198570D01*
X86231911Y-55198570D02*
X86279530Y-55222380D01*
X86279530Y-55222380D02*
X86303340Y-55246189D01*
X86303340Y-55246189D02*
X86327149Y-55293808D01*
X86327149Y-55293808D02*
X86327149Y-55436665D01*
X86327149Y-55436665D02*
X86303340Y-55484284D01*
X86303340Y-55484284D02*
X86279530Y-55508094D01*
D10*
X104204819Y-56591428D02*
X103728628Y-56924761D01*
X104204819Y-57162856D02*
X103204819Y-57162856D01*
X103204819Y-57162856D02*
X103204819Y-56781904D01*
X103204819Y-56781904D02*
X103252438Y-56686666D01*
X103252438Y-56686666D02*
X103300057Y-56639047D01*
X103300057Y-56639047D02*
X103395295Y-56591428D01*
X103395295Y-56591428D02*
X103538152Y-56591428D01*
X103538152Y-56591428D02*
X103633390Y-56639047D01*
X103633390Y-56639047D02*
X103681009Y-56686666D01*
X103681009Y-56686666D02*
X103728628Y-56781904D01*
X103728628Y-56781904D02*
X103728628Y-57162856D01*
X104157200Y-55781904D02*
X104204819Y-55877142D01*
X104204819Y-55877142D02*
X104204819Y-56067618D01*
X104204819Y-56067618D02*
X104157200Y-56162856D01*
X104157200Y-56162856D02*
X104061961Y-56210475D01*
X104061961Y-56210475D02*
X103681009Y-56210475D01*
X103681009Y-56210475D02*
X103585771Y-56162856D01*
X103585771Y-56162856D02*
X103538152Y-56067618D01*
X103538152Y-56067618D02*
X103538152Y-55877142D01*
X103538152Y-55877142D02*
X103585771Y-55781904D01*
X103585771Y-55781904D02*
X103681009Y-55734285D01*
X103681009Y-55734285D02*
X103776247Y-55734285D01*
X103776247Y-55734285D02*
X103871485Y-56210475D01*
X104204819Y-54877142D02*
X103204819Y-54877142D01*
X104157200Y-54877142D02*
X104204819Y-54972380D01*
X104204819Y-54972380D02*
X104204819Y-55162856D01*
X104204819Y-55162856D02*
X104157200Y-55258094D01*
X104157200Y-55258094D02*
X104109580Y-55305713D01*
X104109580Y-55305713D02*
X104014342Y-55353332D01*
X104014342Y-55353332D02*
X103728628Y-55353332D01*
X103728628Y-55353332D02*
X103633390Y-55305713D01*
X103633390Y-55305713D02*
X103585771Y-55258094D01*
X103585771Y-55258094D02*
X103538152Y-55162856D01*
X103538152Y-55162856D02*
X103538152Y-54972380D01*
X103538152Y-54972380D02*
X103585771Y-54877142D01*
D11*
X102327149Y-56579523D02*
X102327149Y-56817618D01*
X102327149Y-56817618D02*
X101827149Y-56817618D01*
X102065244Y-56412856D02*
X102065244Y-56246189D01*
X102327149Y-56174761D02*
X102327149Y-56412856D01*
X102327149Y-56412856D02*
X101827149Y-56412856D01*
X101827149Y-56412856D02*
X101827149Y-56174761D01*
X102327149Y-55960475D02*
X101827149Y-55960475D01*
X101827149Y-55960475D02*
X101827149Y-55841427D01*
X101827149Y-55841427D02*
X101850959Y-55769999D01*
X101850959Y-55769999D02*
X101898578Y-55722380D01*
X101898578Y-55722380D02*
X101946197Y-55698570D01*
X101946197Y-55698570D02*
X102041435Y-55674761D01*
X102041435Y-55674761D02*
X102112863Y-55674761D01*
X102112863Y-55674761D02*
X102208101Y-55698570D01*
X102208101Y-55698570D02*
X102255720Y-55722380D01*
X102255720Y-55722380D02*
X102303340Y-55769999D01*
X102303340Y-55769999D02*
X102327149Y-55841427D01*
X102327149Y-55841427D02*
X102327149Y-55960475D01*
X101993816Y-55246189D02*
X102327149Y-55246189D01*
X101803340Y-55365237D02*
X102160482Y-55484284D01*
X102160482Y-55484284D02*
X102160482Y-55174761D01*
D10*
X76980952Y-75784818D02*
X76409524Y-75784818D01*
X76695238Y-75784818D02*
X76695238Y-74784818D01*
X76695238Y-74784818D02*
X76600000Y-74927675D01*
X76600000Y-74927675D02*
X76504762Y-75022913D01*
X76504762Y-75022913D02*
X76409524Y-75070532D01*
X77600000Y-74784818D02*
X77695238Y-74784818D01*
X77695238Y-74784818D02*
X77790476Y-74832437D01*
X77790476Y-74832437D02*
X77838095Y-74880056D01*
X77838095Y-74880056D02*
X77885714Y-74975294D01*
X77885714Y-74975294D02*
X77933333Y-75165770D01*
X77933333Y-75165770D02*
X77933333Y-75403865D01*
X77933333Y-75403865D02*
X77885714Y-75594341D01*
X77885714Y-75594341D02*
X77838095Y-75689579D01*
X77838095Y-75689579D02*
X77790476Y-75737199D01*
X77790476Y-75737199D02*
X77695238Y-75784818D01*
X77695238Y-75784818D02*
X77600000Y-75784818D01*
X77600000Y-75784818D02*
X77504762Y-75737199D01*
X77504762Y-75737199D02*
X77457143Y-75689579D01*
X77457143Y-75689579D02*
X77409524Y-75594341D01*
X77409524Y-75594341D02*
X77361905Y-75403865D01*
X77361905Y-75403865D02*
X77361905Y-75165770D01*
X77361905Y-75165770D02*
X77409524Y-74975294D01*
X77409524Y-74975294D02*
X77457143Y-74880056D01*
X77457143Y-74880056D02*
X77504762Y-74832437D01*
X77504762Y-74832437D02*
X77600000Y-74784818D01*
X78552381Y-74784818D02*
X78647619Y-74784818D01*
X78647619Y-74784818D02*
X78742857Y-74832437D01*
X78742857Y-74832437D02*
X78790476Y-74880056D01*
X78790476Y-74880056D02*
X78838095Y-74975294D01*
X78838095Y-74975294D02*
X78885714Y-75165770D01*
X78885714Y-75165770D02*
X78885714Y-75403865D01*
X78885714Y-75403865D02*
X78838095Y-75594341D01*
X78838095Y-75594341D02*
X78790476Y-75689579D01*
X78790476Y-75689579D02*
X78742857Y-75737199D01*
X78742857Y-75737199D02*
X78647619Y-75784818D01*
X78647619Y-75784818D02*
X78552381Y-75784818D01*
X78552381Y-75784818D02*
X78457143Y-75737199D01*
X78457143Y-75737199D02*
X78409524Y-75689579D01*
X78409524Y-75689579D02*
X78361905Y-75594341D01*
X78361905Y-75594341D02*
X78314286Y-75403865D01*
X78314286Y-75403865D02*
X78314286Y-75165770D01*
X78314286Y-75165770D02*
X78361905Y-74975294D01*
X78361905Y-74975294D02*
X78409524Y-74880056D01*
X78409524Y-74880056D02*
X78457143Y-74832437D01*
X78457143Y-74832437D02*
X78552381Y-74784818D01*
X79314286Y-75118151D02*
X79314286Y-75784818D01*
X79314286Y-75213389D02*
X79361905Y-75165770D01*
X79361905Y-75165770D02*
X79457143Y-75118151D01*
X79457143Y-75118151D02*
X79600000Y-75118151D01*
X79600000Y-75118151D02*
X79695238Y-75165770D01*
X79695238Y-75165770D02*
X79742857Y-75261008D01*
X79742857Y-75261008D02*
X79742857Y-75784818D01*
D11*
X78016666Y-73829529D02*
X77992857Y-73853339D01*
X77992857Y-73853339D02*
X77921428Y-73877148D01*
X77921428Y-73877148D02*
X77873809Y-73877148D01*
X77873809Y-73877148D02*
X77802381Y-73853339D01*
X77802381Y-73853339D02*
X77754762Y-73805719D01*
X77754762Y-73805719D02*
X77730952Y-73758100D01*
X77730952Y-73758100D02*
X77707143Y-73662862D01*
X77707143Y-73662862D02*
X77707143Y-73591434D01*
X77707143Y-73591434D02*
X77730952Y-73496196D01*
X77730952Y-73496196D02*
X77754762Y-73448577D01*
X77754762Y-73448577D02*
X77802381Y-73400958D01*
X77802381Y-73400958D02*
X77873809Y-73377148D01*
X77873809Y-73377148D02*
X77921428Y-73377148D01*
X77921428Y-73377148D02*
X77992857Y-73400958D01*
X77992857Y-73400958D02*
X78016666Y-73424767D01*
X78207143Y-73424767D02*
X78230952Y-73400958D01*
X78230952Y-73400958D02*
X78278571Y-73377148D01*
X78278571Y-73377148D02*
X78397619Y-73377148D01*
X78397619Y-73377148D02*
X78445238Y-73400958D01*
X78445238Y-73400958D02*
X78469047Y-73424767D01*
X78469047Y-73424767D02*
X78492857Y-73472386D01*
X78492857Y-73472386D02*
X78492857Y-73520005D01*
X78492857Y-73520005D02*
X78469047Y-73591434D01*
X78469047Y-73591434D02*
X78183333Y-73877148D01*
X78183333Y-73877148D02*
X78492857Y-73877148D01*
D10*
X72204819Y-56591428D02*
X71728628Y-56924761D01*
X72204819Y-57162856D02*
X71204819Y-57162856D01*
X71204819Y-57162856D02*
X71204819Y-56781904D01*
X71204819Y-56781904D02*
X71252438Y-56686666D01*
X71252438Y-56686666D02*
X71300057Y-56639047D01*
X71300057Y-56639047D02*
X71395295Y-56591428D01*
X71395295Y-56591428D02*
X71538152Y-56591428D01*
X71538152Y-56591428D02*
X71633390Y-56639047D01*
X71633390Y-56639047D02*
X71681009Y-56686666D01*
X71681009Y-56686666D02*
X71728628Y-56781904D01*
X71728628Y-56781904D02*
X71728628Y-57162856D01*
X72157200Y-55781904D02*
X72204819Y-55877142D01*
X72204819Y-55877142D02*
X72204819Y-56067618D01*
X72204819Y-56067618D02*
X72157200Y-56162856D01*
X72157200Y-56162856D02*
X72061961Y-56210475D01*
X72061961Y-56210475D02*
X71681009Y-56210475D01*
X71681009Y-56210475D02*
X71585771Y-56162856D01*
X71585771Y-56162856D02*
X71538152Y-56067618D01*
X71538152Y-56067618D02*
X71538152Y-55877142D01*
X71538152Y-55877142D02*
X71585771Y-55781904D01*
X71585771Y-55781904D02*
X71681009Y-55734285D01*
X71681009Y-55734285D02*
X71776247Y-55734285D01*
X71776247Y-55734285D02*
X71871485Y-56210475D01*
X72204819Y-54877142D02*
X71204819Y-54877142D01*
X72157200Y-54877142D02*
X72204819Y-54972380D01*
X72204819Y-54972380D02*
X72204819Y-55162856D01*
X72204819Y-55162856D02*
X72157200Y-55258094D01*
X72157200Y-55258094D02*
X72109580Y-55305713D01*
X72109580Y-55305713D02*
X72014342Y-55353332D01*
X72014342Y-55353332D02*
X71728628Y-55353332D01*
X71728628Y-55353332D02*
X71633390Y-55305713D01*
X71633390Y-55305713D02*
X71585771Y-55258094D01*
X71585771Y-55258094D02*
X71538152Y-55162856D01*
X71538152Y-55162856D02*
X71538152Y-54972380D01*
X71538152Y-54972380D02*
X71585771Y-54877142D01*
D11*
X70327149Y-56579523D02*
X70327149Y-56817618D01*
X70327149Y-56817618D02*
X69827149Y-56817618D01*
X70065244Y-56412856D02*
X70065244Y-56246189D01*
X70327149Y-56174761D02*
X70327149Y-56412856D01*
X70327149Y-56412856D02*
X69827149Y-56412856D01*
X69827149Y-56412856D02*
X69827149Y-56174761D01*
X70327149Y-55960475D02*
X69827149Y-55960475D01*
X69827149Y-55960475D02*
X69827149Y-55841427D01*
X69827149Y-55841427D02*
X69850959Y-55769999D01*
X69850959Y-55769999D02*
X69898578Y-55722380D01*
X69898578Y-55722380D02*
X69946197Y-55698570D01*
X69946197Y-55698570D02*
X70041435Y-55674761D01*
X70041435Y-55674761D02*
X70112863Y-55674761D01*
X70112863Y-55674761D02*
X70208101Y-55698570D01*
X70208101Y-55698570D02*
X70255720Y-55722380D01*
X70255720Y-55722380D02*
X70303340Y-55769999D01*
X70303340Y-55769999D02*
X70327149Y-55841427D01*
X70327149Y-55841427D02*
X70327149Y-55960475D01*
X69874768Y-55484284D02*
X69850959Y-55460475D01*
X69850959Y-55460475D02*
X69827149Y-55412856D01*
X69827149Y-55412856D02*
X69827149Y-55293808D01*
X69827149Y-55293808D02*
X69850959Y-55246189D01*
X69850959Y-55246189D02*
X69874768Y-55222380D01*
X69874768Y-55222380D02*
X69922387Y-55198570D01*
X69922387Y-55198570D02*
X69970006Y-55198570D01*
X69970006Y-55198570D02*
X70041435Y-55222380D01*
X70041435Y-55222380D02*
X70327149Y-55508094D01*
X70327149Y-55508094D02*
X70327149Y-55198570D01*
D10*
X73204819Y-57305713D02*
X73204819Y-56686666D01*
X73204819Y-56686666D02*
X73585771Y-57019999D01*
X73585771Y-57019999D02*
X73585771Y-56877142D01*
X73585771Y-56877142D02*
X73633390Y-56781904D01*
X73633390Y-56781904D02*
X73681009Y-56734285D01*
X73681009Y-56734285D02*
X73776247Y-56686666D01*
X73776247Y-56686666D02*
X74014342Y-56686666D01*
X74014342Y-56686666D02*
X74109580Y-56734285D01*
X74109580Y-56734285D02*
X74157200Y-56781904D01*
X74157200Y-56781904D02*
X74204819Y-56877142D01*
X74204819Y-56877142D02*
X74204819Y-57162856D01*
X74204819Y-57162856D02*
X74157200Y-57258094D01*
X74157200Y-57258094D02*
X74109580Y-57305713D01*
X73204819Y-56353332D02*
X73204819Y-55734285D01*
X73204819Y-55734285D02*
X73585771Y-56067618D01*
X73585771Y-56067618D02*
X73585771Y-55924761D01*
X73585771Y-55924761D02*
X73633390Y-55829523D01*
X73633390Y-55829523D02*
X73681009Y-55781904D01*
X73681009Y-55781904D02*
X73776247Y-55734285D01*
X73776247Y-55734285D02*
X74014342Y-55734285D01*
X74014342Y-55734285D02*
X74109580Y-55781904D01*
X74109580Y-55781904D02*
X74157200Y-55829523D01*
X74157200Y-55829523D02*
X74204819Y-55924761D01*
X74204819Y-55924761D02*
X74204819Y-56210475D01*
X74204819Y-56210475D02*
X74157200Y-56305713D01*
X74157200Y-56305713D02*
X74109580Y-56353332D01*
X73204819Y-55115237D02*
X73204819Y-55019999D01*
X73204819Y-55019999D02*
X73252438Y-54924761D01*
X73252438Y-54924761D02*
X73300057Y-54877142D01*
X73300057Y-54877142D02*
X73395295Y-54829523D01*
X73395295Y-54829523D02*
X73585771Y-54781904D01*
X73585771Y-54781904D02*
X73823866Y-54781904D01*
X73823866Y-54781904D02*
X74014342Y-54829523D01*
X74014342Y-54829523D02*
X74109580Y-54877142D01*
X74109580Y-54877142D02*
X74157200Y-54924761D01*
X74157200Y-54924761D02*
X74204819Y-55019999D01*
X74204819Y-55019999D02*
X74204819Y-55115237D01*
X74204819Y-55115237D02*
X74157200Y-55210475D01*
X74157200Y-55210475D02*
X74109580Y-55258094D01*
X74109580Y-55258094D02*
X74014342Y-55305713D01*
X74014342Y-55305713D02*
X73823866Y-55353332D01*
X73823866Y-55353332D02*
X73585771Y-55353332D01*
X73585771Y-55353332D02*
X73395295Y-55305713D01*
X73395295Y-55305713D02*
X73300057Y-55258094D01*
X73300057Y-55258094D02*
X73252438Y-55210475D01*
X73252438Y-55210475D02*
X73204819Y-55115237D01*
D11*
X72327149Y-56341428D02*
X72089054Y-56508094D01*
X72327149Y-56627142D02*
X71827149Y-56627142D01*
X71827149Y-56627142D02*
X71827149Y-56436666D01*
X71827149Y-56436666D02*
X71850959Y-56389047D01*
X71850959Y-56389047D02*
X71874768Y-56365237D01*
X71874768Y-56365237D02*
X71922387Y-56341428D01*
X71922387Y-56341428D02*
X71993816Y-56341428D01*
X71993816Y-56341428D02*
X72041435Y-56365237D01*
X72041435Y-56365237D02*
X72065244Y-56389047D01*
X72065244Y-56389047D02*
X72089054Y-56436666D01*
X72089054Y-56436666D02*
X72089054Y-56627142D01*
X72327149Y-55865237D02*
X72327149Y-56150951D01*
X72327149Y-56008094D02*
X71827149Y-56008094D01*
X71827149Y-56008094D02*
X71898578Y-56055713D01*
X71898578Y-56055713D02*
X71946197Y-56103332D01*
X71946197Y-56103332D02*
X71970006Y-56150951D01*
X71827149Y-55555714D02*
X71827149Y-55508095D01*
X71827149Y-55508095D02*
X71850959Y-55460476D01*
X71850959Y-55460476D02*
X71874768Y-55436666D01*
X71874768Y-55436666D02*
X71922387Y-55412857D01*
X71922387Y-55412857D02*
X72017625Y-55389047D01*
X72017625Y-55389047D02*
X72136673Y-55389047D01*
X72136673Y-55389047D02*
X72231911Y-55412857D01*
X72231911Y-55412857D02*
X72279530Y-55436666D01*
X72279530Y-55436666D02*
X72303340Y-55460476D01*
X72303340Y-55460476D02*
X72327149Y-55508095D01*
X72327149Y-55508095D02*
X72327149Y-55555714D01*
X72327149Y-55555714D02*
X72303340Y-55603333D01*
X72303340Y-55603333D02*
X72279530Y-55627142D01*
X72279530Y-55627142D02*
X72231911Y-55650952D01*
X72231911Y-55650952D02*
X72136673Y-55674761D01*
X72136673Y-55674761D02*
X72017625Y-55674761D01*
X72017625Y-55674761D02*
X71922387Y-55650952D01*
X71922387Y-55650952D02*
X71874768Y-55627142D01*
X71874768Y-55627142D02*
X71850959Y-55603333D01*
X71850959Y-55603333D02*
X71827149Y-55555714D01*
D10*
X32480952Y-84804818D02*
X32480952Y-83804818D01*
X32480952Y-83804818D02*
X32814285Y-84519103D01*
X32814285Y-84519103D02*
X33147618Y-83804818D01*
X33147618Y-83804818D02*
X33147618Y-84804818D01*
X33766666Y-84804818D02*
X33671428Y-84757199D01*
X33671428Y-84757199D02*
X33623809Y-84709579D01*
X33623809Y-84709579D02*
X33576190Y-84614341D01*
X33576190Y-84614341D02*
X33576190Y-84328627D01*
X33576190Y-84328627D02*
X33623809Y-84233389D01*
X33623809Y-84233389D02*
X33671428Y-84185770D01*
X33671428Y-84185770D02*
X33766666Y-84138151D01*
X33766666Y-84138151D02*
X33909523Y-84138151D01*
X33909523Y-84138151D02*
X34004761Y-84185770D01*
X34004761Y-84185770D02*
X34052380Y-84233389D01*
X34052380Y-84233389D02*
X34099999Y-84328627D01*
X34099999Y-84328627D02*
X34099999Y-84614341D01*
X34099999Y-84614341D02*
X34052380Y-84709579D01*
X34052380Y-84709579D02*
X34004761Y-84757199D01*
X34004761Y-84757199D02*
X33909523Y-84804818D01*
X33909523Y-84804818D02*
X33766666Y-84804818D01*
X34957142Y-84138151D02*
X34957142Y-84804818D01*
X34528571Y-84138151D02*
X34528571Y-84661960D01*
X34528571Y-84661960D02*
X34576190Y-84757199D01*
X34576190Y-84757199D02*
X34671428Y-84804818D01*
X34671428Y-84804818D02*
X34814285Y-84804818D01*
X34814285Y-84804818D02*
X34909523Y-84757199D01*
X34909523Y-84757199D02*
X34957142Y-84709579D01*
X35433333Y-84138151D02*
X35433333Y-84804818D01*
X35433333Y-84233389D02*
X35480952Y-84185770D01*
X35480952Y-84185770D02*
X35576190Y-84138151D01*
X35576190Y-84138151D02*
X35719047Y-84138151D01*
X35719047Y-84138151D02*
X35814285Y-84185770D01*
X35814285Y-84185770D02*
X35861904Y-84281008D01*
X35861904Y-84281008D02*
X35861904Y-84804818D01*
X36195238Y-84138151D02*
X36576190Y-84138151D01*
X36338095Y-83804818D02*
X36338095Y-84661960D01*
X36338095Y-84661960D02*
X36385714Y-84757199D01*
X36385714Y-84757199D02*
X36480952Y-84804818D01*
X36480952Y-84804818D02*
X36576190Y-84804818D01*
X36909524Y-84804818D02*
X36909524Y-84138151D01*
X36909524Y-83804818D02*
X36861905Y-83852437D01*
X36861905Y-83852437D02*
X36909524Y-83900056D01*
X36909524Y-83900056D02*
X36957143Y-83852437D01*
X36957143Y-83852437D02*
X36909524Y-83804818D01*
X36909524Y-83804818D02*
X36909524Y-83900056D01*
X37385714Y-84138151D02*
X37385714Y-84804818D01*
X37385714Y-84233389D02*
X37433333Y-84185770D01*
X37433333Y-84185770D02*
X37528571Y-84138151D01*
X37528571Y-84138151D02*
X37671428Y-84138151D01*
X37671428Y-84138151D02*
X37766666Y-84185770D01*
X37766666Y-84185770D02*
X37814285Y-84281008D01*
X37814285Y-84281008D02*
X37814285Y-84804818D01*
X38719047Y-84138151D02*
X38719047Y-84947675D01*
X38719047Y-84947675D02*
X38671428Y-85042913D01*
X38671428Y-85042913D02*
X38623809Y-85090532D01*
X38623809Y-85090532D02*
X38528571Y-85138151D01*
X38528571Y-85138151D02*
X38385714Y-85138151D01*
X38385714Y-85138151D02*
X38290476Y-85090532D01*
X38719047Y-84757199D02*
X38623809Y-84804818D01*
X38623809Y-84804818D02*
X38433333Y-84804818D01*
X38433333Y-84804818D02*
X38338095Y-84757199D01*
X38338095Y-84757199D02*
X38290476Y-84709579D01*
X38290476Y-84709579D02*
X38242857Y-84614341D01*
X38242857Y-84614341D02*
X38242857Y-84328627D01*
X38242857Y-84328627D02*
X38290476Y-84233389D01*
X38290476Y-84233389D02*
X38338095Y-84185770D01*
X38338095Y-84185770D02*
X38433333Y-84138151D01*
X38433333Y-84138151D02*
X38623809Y-84138151D01*
X38623809Y-84138151D02*
X38719047Y-84185770D01*
X39195238Y-84804818D02*
X39195238Y-83804818D01*
X39195238Y-84281008D02*
X39766666Y-84281008D01*
X39766666Y-84804818D02*
X39766666Y-83804818D01*
X40385714Y-84804818D02*
X40290476Y-84757199D01*
X40290476Y-84757199D02*
X40242857Y-84709579D01*
X40242857Y-84709579D02*
X40195238Y-84614341D01*
X40195238Y-84614341D02*
X40195238Y-84328627D01*
X40195238Y-84328627D02*
X40242857Y-84233389D01*
X40242857Y-84233389D02*
X40290476Y-84185770D01*
X40290476Y-84185770D02*
X40385714Y-84138151D01*
X40385714Y-84138151D02*
X40528571Y-84138151D01*
X40528571Y-84138151D02*
X40623809Y-84185770D01*
X40623809Y-84185770D02*
X40671428Y-84233389D01*
X40671428Y-84233389D02*
X40719047Y-84328627D01*
X40719047Y-84328627D02*
X40719047Y-84614341D01*
X40719047Y-84614341D02*
X40671428Y-84709579D01*
X40671428Y-84709579D02*
X40623809Y-84757199D01*
X40623809Y-84757199D02*
X40528571Y-84804818D01*
X40528571Y-84804818D02*
X40385714Y-84804818D01*
X41290476Y-84804818D02*
X41195238Y-84757199D01*
X41195238Y-84757199D02*
X41147619Y-84661960D01*
X41147619Y-84661960D02*
X41147619Y-83804818D01*
X42052381Y-84757199D02*
X41957143Y-84804818D01*
X41957143Y-84804818D02*
X41766667Y-84804818D01*
X41766667Y-84804818D02*
X41671429Y-84757199D01*
X41671429Y-84757199D02*
X41623810Y-84661960D01*
X41623810Y-84661960D02*
X41623810Y-84281008D01*
X41623810Y-84281008D02*
X41671429Y-84185770D01*
X41671429Y-84185770D02*
X41766667Y-84138151D01*
X41766667Y-84138151D02*
X41957143Y-84138151D01*
X41957143Y-84138151D02*
X42052381Y-84185770D01*
X42052381Y-84185770D02*
X42100000Y-84281008D01*
X42100000Y-84281008D02*
X42100000Y-84376246D01*
X42100000Y-84376246D02*
X41623810Y-84471484D01*
X42290477Y-84900056D02*
X43052381Y-84900056D01*
X43195239Y-83804818D02*
X43814286Y-83804818D01*
X43814286Y-83804818D02*
X43480953Y-84185770D01*
X43480953Y-84185770D02*
X43623810Y-84185770D01*
X43623810Y-84185770D02*
X43719048Y-84233389D01*
X43719048Y-84233389D02*
X43766667Y-84281008D01*
X43766667Y-84281008D02*
X43814286Y-84376246D01*
X43814286Y-84376246D02*
X43814286Y-84614341D01*
X43814286Y-84614341D02*
X43766667Y-84709579D01*
X43766667Y-84709579D02*
X43719048Y-84757199D01*
X43719048Y-84757199D02*
X43623810Y-84804818D01*
X43623810Y-84804818D02*
X43338096Y-84804818D01*
X43338096Y-84804818D02*
X43242858Y-84757199D01*
X43242858Y-84757199D02*
X43195239Y-84709579D01*
X44242858Y-84709579D02*
X44290477Y-84757199D01*
X44290477Y-84757199D02*
X44242858Y-84804818D01*
X44242858Y-84804818D02*
X44195239Y-84757199D01*
X44195239Y-84757199D02*
X44242858Y-84709579D01*
X44242858Y-84709579D02*
X44242858Y-84804818D01*
X44671429Y-83900056D02*
X44719048Y-83852437D01*
X44719048Y-83852437D02*
X44814286Y-83804818D01*
X44814286Y-83804818D02*
X45052381Y-83804818D01*
X45052381Y-83804818D02*
X45147619Y-83852437D01*
X45147619Y-83852437D02*
X45195238Y-83900056D01*
X45195238Y-83900056D02*
X45242857Y-83995294D01*
X45242857Y-83995294D02*
X45242857Y-84090532D01*
X45242857Y-84090532D02*
X45195238Y-84233389D01*
X45195238Y-84233389D02*
X44623810Y-84804818D01*
X44623810Y-84804818D02*
X45242857Y-84804818D01*
X45671429Y-84804818D02*
X45671429Y-84138151D01*
X45671429Y-84233389D02*
X45719048Y-84185770D01*
X45719048Y-84185770D02*
X45814286Y-84138151D01*
X45814286Y-84138151D02*
X45957143Y-84138151D01*
X45957143Y-84138151D02*
X46052381Y-84185770D01*
X46052381Y-84185770D02*
X46100000Y-84281008D01*
X46100000Y-84281008D02*
X46100000Y-84804818D01*
X46100000Y-84281008D02*
X46147619Y-84185770D01*
X46147619Y-84185770D02*
X46242857Y-84138151D01*
X46242857Y-84138151D02*
X46385714Y-84138151D01*
X46385714Y-84138151D02*
X46480953Y-84185770D01*
X46480953Y-84185770D02*
X46528572Y-84281008D01*
X46528572Y-84281008D02*
X46528572Y-84804818D01*
X47004762Y-84804818D02*
X47004762Y-84138151D01*
X47004762Y-84233389D02*
X47052381Y-84185770D01*
X47052381Y-84185770D02*
X47147619Y-84138151D01*
X47147619Y-84138151D02*
X47290476Y-84138151D01*
X47290476Y-84138151D02*
X47385714Y-84185770D01*
X47385714Y-84185770D02*
X47433333Y-84281008D01*
X47433333Y-84281008D02*
X47433333Y-84804818D01*
X47433333Y-84281008D02*
X47480952Y-84185770D01*
X47480952Y-84185770D02*
X47576190Y-84138151D01*
X47576190Y-84138151D02*
X47719047Y-84138151D01*
X47719047Y-84138151D02*
X47814286Y-84185770D01*
X47814286Y-84185770D02*
X47861905Y-84281008D01*
X47861905Y-84281008D02*
X47861905Y-84804818D01*
X48100000Y-84900056D02*
X48861904Y-84900056D01*
X49100000Y-84804818D02*
X49100000Y-83804818D01*
X49100000Y-83804818D02*
X49433333Y-84519103D01*
X49433333Y-84519103D02*
X49766666Y-83804818D01*
X49766666Y-83804818D02*
X49766666Y-84804818D01*
X50147619Y-83804818D02*
X50766666Y-83804818D01*
X50766666Y-83804818D02*
X50433333Y-84185770D01*
X50433333Y-84185770D02*
X50576190Y-84185770D01*
X50576190Y-84185770D02*
X50671428Y-84233389D01*
X50671428Y-84233389D02*
X50719047Y-84281008D01*
X50719047Y-84281008D02*
X50766666Y-84376246D01*
X50766666Y-84376246D02*
X50766666Y-84614341D01*
X50766666Y-84614341D02*
X50719047Y-84709579D01*
X50719047Y-84709579D02*
X50671428Y-84757199D01*
X50671428Y-84757199D02*
X50576190Y-84804818D01*
X50576190Y-84804818D02*
X50290476Y-84804818D01*
X50290476Y-84804818D02*
X50195238Y-84757199D01*
X50195238Y-84757199D02*
X50147619Y-84709579D01*
X41314286Y-80604818D02*
X41314286Y-79604818D01*
X41314286Y-80081008D02*
X41885714Y-80081008D01*
X41885714Y-80604818D02*
X41885714Y-79604818D01*
X56204819Y-56591428D02*
X55728628Y-56924761D01*
X56204819Y-57162856D02*
X55204819Y-57162856D01*
X55204819Y-57162856D02*
X55204819Y-56781904D01*
X55204819Y-56781904D02*
X55252438Y-56686666D01*
X55252438Y-56686666D02*
X55300057Y-56639047D01*
X55300057Y-56639047D02*
X55395295Y-56591428D01*
X55395295Y-56591428D02*
X55538152Y-56591428D01*
X55538152Y-56591428D02*
X55633390Y-56639047D01*
X55633390Y-56639047D02*
X55681009Y-56686666D01*
X55681009Y-56686666D02*
X55728628Y-56781904D01*
X55728628Y-56781904D02*
X55728628Y-57162856D01*
X56157200Y-55781904D02*
X56204819Y-55877142D01*
X56204819Y-55877142D02*
X56204819Y-56067618D01*
X56204819Y-56067618D02*
X56157200Y-56162856D01*
X56157200Y-56162856D02*
X56061961Y-56210475D01*
X56061961Y-56210475D02*
X55681009Y-56210475D01*
X55681009Y-56210475D02*
X55585771Y-56162856D01*
X55585771Y-56162856D02*
X55538152Y-56067618D01*
X55538152Y-56067618D02*
X55538152Y-55877142D01*
X55538152Y-55877142D02*
X55585771Y-55781904D01*
X55585771Y-55781904D02*
X55681009Y-55734285D01*
X55681009Y-55734285D02*
X55776247Y-55734285D01*
X55776247Y-55734285D02*
X55871485Y-56210475D01*
X56204819Y-54877142D02*
X55204819Y-54877142D01*
X56157200Y-54877142D02*
X56204819Y-54972380D01*
X56204819Y-54972380D02*
X56204819Y-55162856D01*
X56204819Y-55162856D02*
X56157200Y-55258094D01*
X56157200Y-55258094D02*
X56109580Y-55305713D01*
X56109580Y-55305713D02*
X56014342Y-55353332D01*
X56014342Y-55353332D02*
X55728628Y-55353332D01*
X55728628Y-55353332D02*
X55633390Y-55305713D01*
X55633390Y-55305713D02*
X55585771Y-55258094D01*
X55585771Y-55258094D02*
X55538152Y-55162856D01*
X55538152Y-55162856D02*
X55538152Y-54972380D01*
X55538152Y-54972380D02*
X55585771Y-54877142D01*
D11*
X54327149Y-56579523D02*
X54327149Y-56817618D01*
X54327149Y-56817618D02*
X53827149Y-56817618D01*
X54065244Y-56412856D02*
X54065244Y-56246189D01*
X54327149Y-56174761D02*
X54327149Y-56412856D01*
X54327149Y-56412856D02*
X53827149Y-56412856D01*
X53827149Y-56412856D02*
X53827149Y-56174761D01*
X54327149Y-55960475D02*
X53827149Y-55960475D01*
X53827149Y-55960475D02*
X53827149Y-55841427D01*
X53827149Y-55841427D02*
X53850959Y-55769999D01*
X53850959Y-55769999D02*
X53898578Y-55722380D01*
X53898578Y-55722380D02*
X53946197Y-55698570D01*
X53946197Y-55698570D02*
X54041435Y-55674761D01*
X54041435Y-55674761D02*
X54112863Y-55674761D01*
X54112863Y-55674761D02*
X54208101Y-55698570D01*
X54208101Y-55698570D02*
X54255720Y-55722380D01*
X54255720Y-55722380D02*
X54303340Y-55769999D01*
X54303340Y-55769999D02*
X54327149Y-55841427D01*
X54327149Y-55841427D02*
X54327149Y-55960475D01*
X54327149Y-55198570D02*
X54327149Y-55484284D01*
X54327149Y-55341427D02*
X53827149Y-55341427D01*
X53827149Y-55341427D02*
X53898578Y-55389046D01*
X53898578Y-55389046D02*
X53946197Y-55436665D01*
X53946197Y-55436665D02*
X53970006Y-55484284D01*
D10*
X98204819Y-43305713D02*
X98204819Y-42686666D01*
X98204819Y-42686666D02*
X98585771Y-43019999D01*
X98585771Y-43019999D02*
X98585771Y-42877142D01*
X98585771Y-42877142D02*
X98633390Y-42781904D01*
X98633390Y-42781904D02*
X98681009Y-42734285D01*
X98681009Y-42734285D02*
X98776247Y-42686666D01*
X98776247Y-42686666D02*
X99014342Y-42686666D01*
X99014342Y-42686666D02*
X99109580Y-42734285D01*
X99109580Y-42734285D02*
X99157200Y-42781904D01*
X99157200Y-42781904D02*
X99204819Y-42877142D01*
X99204819Y-42877142D02*
X99204819Y-43162856D01*
X99204819Y-43162856D02*
X99157200Y-43258094D01*
X99157200Y-43258094D02*
X99109580Y-43305713D01*
X98204819Y-42353332D02*
X98204819Y-41734285D01*
X98204819Y-41734285D02*
X98585771Y-42067618D01*
X98585771Y-42067618D02*
X98585771Y-41924761D01*
X98585771Y-41924761D02*
X98633390Y-41829523D01*
X98633390Y-41829523D02*
X98681009Y-41781904D01*
X98681009Y-41781904D02*
X98776247Y-41734285D01*
X98776247Y-41734285D02*
X99014342Y-41734285D01*
X99014342Y-41734285D02*
X99109580Y-41781904D01*
X99109580Y-41781904D02*
X99157200Y-41829523D01*
X99157200Y-41829523D02*
X99204819Y-41924761D01*
X99204819Y-41924761D02*
X99204819Y-42210475D01*
X99204819Y-42210475D02*
X99157200Y-42305713D01*
X99157200Y-42305713D02*
X99109580Y-42353332D01*
X98204819Y-41115237D02*
X98204819Y-41019999D01*
X98204819Y-41019999D02*
X98252438Y-40924761D01*
X98252438Y-40924761D02*
X98300057Y-40877142D01*
X98300057Y-40877142D02*
X98395295Y-40829523D01*
X98395295Y-40829523D02*
X98585771Y-40781904D01*
X98585771Y-40781904D02*
X98823866Y-40781904D01*
X98823866Y-40781904D02*
X99014342Y-40829523D01*
X99014342Y-40829523D02*
X99109580Y-40877142D01*
X99109580Y-40877142D02*
X99157200Y-40924761D01*
X99157200Y-40924761D02*
X99204819Y-41019999D01*
X99204819Y-41019999D02*
X99204819Y-41115237D01*
X99204819Y-41115237D02*
X99157200Y-41210475D01*
X99157200Y-41210475D02*
X99109580Y-41258094D01*
X99109580Y-41258094D02*
X99014342Y-41305713D01*
X99014342Y-41305713D02*
X98823866Y-41353332D01*
X98823866Y-41353332D02*
X98585771Y-41353332D01*
X98585771Y-41353332D02*
X98395295Y-41305713D01*
X98395295Y-41305713D02*
X98300057Y-41258094D01*
X98300057Y-41258094D02*
X98252438Y-41210475D01*
X98252438Y-41210475D02*
X98204819Y-41115237D01*
D11*
X97327149Y-42341428D02*
X97089054Y-42508094D01*
X97327149Y-42627142D02*
X96827149Y-42627142D01*
X96827149Y-42627142D02*
X96827149Y-42436666D01*
X96827149Y-42436666D02*
X96850959Y-42389047D01*
X96850959Y-42389047D02*
X96874768Y-42365237D01*
X96874768Y-42365237D02*
X96922387Y-42341428D01*
X96922387Y-42341428D02*
X96993816Y-42341428D01*
X96993816Y-42341428D02*
X97041435Y-42365237D01*
X97041435Y-42365237D02*
X97065244Y-42389047D01*
X97065244Y-42389047D02*
X97089054Y-42436666D01*
X97089054Y-42436666D02*
X97089054Y-42627142D01*
X97327149Y-41865237D02*
X97327149Y-42150951D01*
X97327149Y-42008094D02*
X96827149Y-42008094D01*
X96827149Y-42008094D02*
X96898578Y-42055713D01*
X96898578Y-42055713D02*
X96946197Y-42103332D01*
X96946197Y-42103332D02*
X96970006Y-42150951D01*
X96827149Y-41436666D02*
X96827149Y-41531904D01*
X96827149Y-41531904D02*
X96850959Y-41579523D01*
X96850959Y-41579523D02*
X96874768Y-41603333D01*
X96874768Y-41603333D02*
X96946197Y-41650952D01*
X96946197Y-41650952D02*
X97041435Y-41674761D01*
X97041435Y-41674761D02*
X97231911Y-41674761D01*
X97231911Y-41674761D02*
X97279530Y-41650952D01*
X97279530Y-41650952D02*
X97303340Y-41627142D01*
X97303340Y-41627142D02*
X97327149Y-41579523D01*
X97327149Y-41579523D02*
X97327149Y-41484285D01*
X97327149Y-41484285D02*
X97303340Y-41436666D01*
X97303340Y-41436666D02*
X97279530Y-41412857D01*
X97279530Y-41412857D02*
X97231911Y-41389047D01*
X97231911Y-41389047D02*
X97112863Y-41389047D01*
X97112863Y-41389047D02*
X97065244Y-41412857D01*
X97065244Y-41412857D02*
X97041435Y-41436666D01*
X97041435Y-41436666D02*
X97017625Y-41484285D01*
X97017625Y-41484285D02*
X97017625Y-41579523D01*
X97017625Y-41579523D02*
X97041435Y-41627142D01*
X97041435Y-41627142D02*
X97065244Y-41650952D01*
X97065244Y-41650952D02*
X97112863Y-41674761D01*
D10*
X102204819Y-48686666D02*
X102204819Y-49258094D01*
X102204819Y-48972380D02*
X101204819Y-48972380D01*
X101204819Y-48972380D02*
X101347676Y-49067618D01*
X101347676Y-49067618D02*
X101442914Y-49162856D01*
X101442914Y-49162856D02*
X101490533Y-49258094D01*
X101204819Y-48067618D02*
X101204819Y-47972380D01*
X101204819Y-47972380D02*
X101252438Y-47877142D01*
X101252438Y-47877142D02*
X101300057Y-47829523D01*
X101300057Y-47829523D02*
X101395295Y-47781904D01*
X101395295Y-47781904D02*
X101585771Y-47734285D01*
X101585771Y-47734285D02*
X101823866Y-47734285D01*
X101823866Y-47734285D02*
X102014342Y-47781904D01*
X102014342Y-47781904D02*
X102109580Y-47829523D01*
X102109580Y-47829523D02*
X102157200Y-47877142D01*
X102157200Y-47877142D02*
X102204819Y-47972380D01*
X102204819Y-47972380D02*
X102204819Y-48067618D01*
X102204819Y-48067618D02*
X102157200Y-48162856D01*
X102157200Y-48162856D02*
X102109580Y-48210475D01*
X102109580Y-48210475D02*
X102014342Y-48258094D01*
X102014342Y-48258094D02*
X101823866Y-48305713D01*
X101823866Y-48305713D02*
X101585771Y-48305713D01*
X101585771Y-48305713D02*
X101395295Y-48258094D01*
X101395295Y-48258094D02*
X101300057Y-48210475D01*
X101300057Y-48210475D02*
X101252438Y-48162856D01*
X101252438Y-48162856D02*
X101204819Y-48067618D01*
X101204819Y-47115237D02*
X101204819Y-47019999D01*
X101204819Y-47019999D02*
X101252438Y-46924761D01*
X101252438Y-46924761D02*
X101300057Y-46877142D01*
X101300057Y-46877142D02*
X101395295Y-46829523D01*
X101395295Y-46829523D02*
X101585771Y-46781904D01*
X101585771Y-46781904D02*
X101823866Y-46781904D01*
X101823866Y-46781904D02*
X102014342Y-46829523D01*
X102014342Y-46829523D02*
X102109580Y-46877142D01*
X102109580Y-46877142D02*
X102157200Y-46924761D01*
X102157200Y-46924761D02*
X102204819Y-47019999D01*
X102204819Y-47019999D02*
X102204819Y-47115237D01*
X102204819Y-47115237D02*
X102157200Y-47210475D01*
X102157200Y-47210475D02*
X102109580Y-47258094D01*
X102109580Y-47258094D02*
X102014342Y-47305713D01*
X102014342Y-47305713D02*
X101823866Y-47353332D01*
X101823866Y-47353332D02*
X101585771Y-47353332D01*
X101585771Y-47353332D02*
X101395295Y-47305713D01*
X101395295Y-47305713D02*
X101300057Y-47258094D01*
X101300057Y-47258094D02*
X101252438Y-47210475D01*
X101252438Y-47210475D02*
X101204819Y-47115237D01*
D11*
X100327149Y-48103333D02*
X100089054Y-48269999D01*
X100327149Y-48389047D02*
X99827149Y-48389047D01*
X99827149Y-48389047D02*
X99827149Y-48198571D01*
X99827149Y-48198571D02*
X99850959Y-48150952D01*
X99850959Y-48150952D02*
X99874768Y-48127142D01*
X99874768Y-48127142D02*
X99922387Y-48103333D01*
X99922387Y-48103333D02*
X99993816Y-48103333D01*
X99993816Y-48103333D02*
X100041435Y-48127142D01*
X100041435Y-48127142D02*
X100065244Y-48150952D01*
X100065244Y-48150952D02*
X100089054Y-48198571D01*
X100089054Y-48198571D02*
X100089054Y-48389047D01*
X99993816Y-47674761D02*
X100327149Y-47674761D01*
X99803340Y-47793809D02*
X100160482Y-47912856D01*
X100160482Y-47912856D02*
X100160482Y-47603333D01*
D10*
X109904819Y-67296666D02*
X108904819Y-67296666D01*
X108904819Y-67296666D02*
X108904819Y-66915714D01*
X108904819Y-66915714D02*
X108952438Y-66820476D01*
X108952438Y-66820476D02*
X109000057Y-66772857D01*
X109000057Y-66772857D02*
X109095295Y-66725238D01*
X109095295Y-66725238D02*
X109238152Y-66725238D01*
X109238152Y-66725238D02*
X109333390Y-66772857D01*
X109333390Y-66772857D02*
X109381009Y-66820476D01*
X109381009Y-66820476D02*
X109428628Y-66915714D01*
X109428628Y-66915714D02*
X109428628Y-67296666D01*
X109904819Y-66296666D02*
X109238152Y-66296666D01*
X108904819Y-66296666D02*
X108952438Y-66344285D01*
X108952438Y-66344285D02*
X109000057Y-66296666D01*
X109000057Y-66296666D02*
X108952438Y-66249047D01*
X108952438Y-66249047D02*
X108904819Y-66296666D01*
X108904819Y-66296666D02*
X109000057Y-66296666D01*
X109857200Y-65391905D02*
X109904819Y-65487143D01*
X109904819Y-65487143D02*
X109904819Y-65677619D01*
X109904819Y-65677619D02*
X109857200Y-65772857D01*
X109857200Y-65772857D02*
X109809580Y-65820476D01*
X109809580Y-65820476D02*
X109714342Y-65868095D01*
X109714342Y-65868095D02*
X109428628Y-65868095D01*
X109428628Y-65868095D02*
X109333390Y-65820476D01*
X109333390Y-65820476D02*
X109285771Y-65772857D01*
X109285771Y-65772857D02*
X109238152Y-65677619D01*
X109238152Y-65677619D02*
X109238152Y-65487143D01*
X109238152Y-65487143D02*
X109285771Y-65391905D01*
X109904819Y-64820476D02*
X109857200Y-64915714D01*
X109857200Y-64915714D02*
X109809580Y-64963333D01*
X109809580Y-64963333D02*
X109714342Y-65010952D01*
X109714342Y-65010952D02*
X109428628Y-65010952D01*
X109428628Y-65010952D02*
X109333390Y-64963333D01*
X109333390Y-64963333D02*
X109285771Y-64915714D01*
X109285771Y-64915714D02*
X109238152Y-64820476D01*
X109238152Y-64820476D02*
X109238152Y-64677619D01*
X109238152Y-64677619D02*
X109285771Y-64582381D01*
X109285771Y-64582381D02*
X109333390Y-64534762D01*
X109333390Y-64534762D02*
X109428628Y-64487143D01*
X109428628Y-64487143D02*
X109714342Y-64487143D01*
X109714342Y-64487143D02*
X109809580Y-64534762D01*
X109809580Y-64534762D02*
X109857200Y-64582381D01*
X109857200Y-64582381D02*
X109904819Y-64677619D01*
X109904819Y-64677619D02*
X109904819Y-64820476D01*
X110000057Y-64296667D02*
X110000057Y-63534762D01*
X109904819Y-62820476D02*
X109904819Y-63296666D01*
X109904819Y-63296666D02*
X108904819Y-63296666D01*
X109857200Y-62106190D02*
X109904819Y-62201428D01*
X109904819Y-62201428D02*
X109904819Y-62391904D01*
X109904819Y-62391904D02*
X109857200Y-62487142D01*
X109857200Y-62487142D02*
X109761961Y-62534761D01*
X109761961Y-62534761D02*
X109381009Y-62534761D01*
X109381009Y-62534761D02*
X109285771Y-62487142D01*
X109285771Y-62487142D02*
X109238152Y-62391904D01*
X109238152Y-62391904D02*
X109238152Y-62201428D01*
X109238152Y-62201428D02*
X109285771Y-62106190D01*
X109285771Y-62106190D02*
X109381009Y-62058571D01*
X109381009Y-62058571D02*
X109476247Y-62058571D01*
X109476247Y-62058571D02*
X109571485Y-62534761D01*
X109238152Y-61772856D02*
X109238152Y-61391904D01*
X109904819Y-61629999D02*
X109047676Y-61629999D01*
X109047676Y-61629999D02*
X108952438Y-61582380D01*
X108952438Y-61582380D02*
X108904819Y-61487142D01*
X108904819Y-61487142D02*
X108904819Y-61391904D01*
X109238152Y-61201427D02*
X109238152Y-60820475D01*
X108904819Y-61058570D02*
X109761961Y-61058570D01*
X109761961Y-61058570D02*
X109857200Y-61010951D01*
X109857200Y-61010951D02*
X109904819Y-60915713D01*
X109904819Y-60915713D02*
X109904819Y-60820475D01*
X82216666Y-63584819D02*
X82216666Y-64299104D01*
X82216666Y-64299104D02*
X82169047Y-64441961D01*
X82169047Y-64441961D02*
X82073809Y-64537200D01*
X82073809Y-64537200D02*
X81930952Y-64584819D01*
X81930952Y-64584819D02*
X81835714Y-64584819D01*
X83216666Y-64584819D02*
X82645238Y-64584819D01*
X82930952Y-64584819D02*
X82930952Y-63584819D01*
X82930952Y-63584819D02*
X82835714Y-63727676D01*
X82835714Y-63727676D02*
X82740476Y-63822914D01*
X82740476Y-63822914D02*
X82645238Y-63870533D01*
X70385714Y-52970057D02*
X70433333Y-52922438D01*
X70433333Y-52922438D02*
X70528571Y-52874819D01*
X70528571Y-52874819D02*
X70766666Y-52874819D01*
X70766666Y-52874819D02*
X70861904Y-52922438D01*
X70861904Y-52922438D02*
X70909523Y-52970057D01*
X70909523Y-52970057D02*
X70957142Y-53065295D01*
X70957142Y-53065295D02*
X70957142Y-53160533D01*
X70957142Y-53160533D02*
X70909523Y-53303390D01*
X70909523Y-53303390D02*
X70338095Y-53874819D01*
X70338095Y-53874819D02*
X70957142Y-53874819D01*
X71385714Y-53874819D02*
X71385714Y-52874819D01*
X71385714Y-52874819D02*
X71957142Y-53874819D01*
X71957142Y-53874819D02*
X71957142Y-52874819D01*
X72338095Y-52874819D02*
X73004761Y-52874819D01*
X73004761Y-52874819D02*
X72576190Y-53874819D01*
X73576190Y-52874819D02*
X73671428Y-52874819D01*
X73671428Y-52874819D02*
X73766666Y-52922438D01*
X73766666Y-52922438D02*
X73814285Y-52970057D01*
X73814285Y-52970057D02*
X73861904Y-53065295D01*
X73861904Y-53065295D02*
X73909523Y-53255771D01*
X73909523Y-53255771D02*
X73909523Y-53493866D01*
X73909523Y-53493866D02*
X73861904Y-53684342D01*
X73861904Y-53684342D02*
X73814285Y-53779580D01*
X73814285Y-53779580D02*
X73766666Y-53827200D01*
X73766666Y-53827200D02*
X73671428Y-53874819D01*
X73671428Y-53874819D02*
X73576190Y-53874819D01*
X73576190Y-53874819D02*
X73480952Y-53827200D01*
X73480952Y-53827200D02*
X73433333Y-53779580D01*
X73433333Y-53779580D02*
X73385714Y-53684342D01*
X73385714Y-53684342D02*
X73338095Y-53493866D01*
X73338095Y-53493866D02*
X73338095Y-53255771D01*
X73338095Y-53255771D02*
X73385714Y-53065295D01*
X73385714Y-53065295D02*
X73433333Y-52970057D01*
X73433333Y-52970057D02*
X73480952Y-52922438D01*
X73480952Y-52922438D02*
X73576190Y-52874819D01*
X74528571Y-52874819D02*
X74623809Y-52874819D01*
X74623809Y-52874819D02*
X74719047Y-52922438D01*
X74719047Y-52922438D02*
X74766666Y-52970057D01*
X74766666Y-52970057D02*
X74814285Y-53065295D01*
X74814285Y-53065295D02*
X74861904Y-53255771D01*
X74861904Y-53255771D02*
X74861904Y-53493866D01*
X74861904Y-53493866D02*
X74814285Y-53684342D01*
X74814285Y-53684342D02*
X74766666Y-53779580D01*
X74766666Y-53779580D02*
X74719047Y-53827200D01*
X74719047Y-53827200D02*
X74623809Y-53874819D01*
X74623809Y-53874819D02*
X74528571Y-53874819D01*
X74528571Y-53874819D02*
X74433333Y-53827200D01*
X74433333Y-53827200D02*
X74385714Y-53779580D01*
X74385714Y-53779580D02*
X74338095Y-53684342D01*
X74338095Y-53684342D02*
X74290476Y-53493866D01*
X74290476Y-53493866D02*
X74290476Y-53255771D01*
X74290476Y-53255771D02*
X74338095Y-53065295D01*
X74338095Y-53065295D02*
X74385714Y-52970057D01*
X74385714Y-52970057D02*
X74433333Y-52922438D01*
X74433333Y-52922438D02*
X74528571Y-52874819D01*
X75242857Y-52970057D02*
X75290476Y-52922438D01*
X75290476Y-52922438D02*
X75385714Y-52874819D01*
X75385714Y-52874819D02*
X75623809Y-52874819D01*
X75623809Y-52874819D02*
X75719047Y-52922438D01*
X75719047Y-52922438D02*
X75766666Y-52970057D01*
X75766666Y-52970057D02*
X75814285Y-53065295D01*
X75814285Y-53065295D02*
X75814285Y-53160533D01*
X75814285Y-53160533D02*
X75766666Y-53303390D01*
X75766666Y-53303390D02*
X75195238Y-53874819D01*
X75195238Y-53874819D02*
X75814285Y-53874819D01*
D12*
X73069523Y-51195914D02*
X73039047Y-51180676D01*
X73039047Y-51180676D02*
X73008571Y-51150200D01*
X73008571Y-51150200D02*
X72962857Y-51104485D01*
X72962857Y-51104485D02*
X72932380Y-51089247D01*
X72932380Y-51089247D02*
X72901904Y-51089247D01*
X72917142Y-51165438D02*
X72886666Y-51150200D01*
X72886666Y-51150200D02*
X72856190Y-51119723D01*
X72856190Y-51119723D02*
X72840952Y-51058771D01*
X72840952Y-51058771D02*
X72840952Y-50952104D01*
X72840952Y-50952104D02*
X72856190Y-50891152D01*
X72856190Y-50891152D02*
X72886666Y-50860676D01*
X72886666Y-50860676D02*
X72917142Y-50845438D01*
X72917142Y-50845438D02*
X72978095Y-50845438D01*
X72978095Y-50845438D02*
X73008571Y-50860676D01*
X73008571Y-50860676D02*
X73039047Y-50891152D01*
X73039047Y-50891152D02*
X73054285Y-50952104D01*
X73054285Y-50952104D02*
X73054285Y-51058771D01*
X73054285Y-51058771D02*
X73039047Y-51119723D01*
X73039047Y-51119723D02*
X73008571Y-51150200D01*
X73008571Y-51150200D02*
X72978095Y-51165438D01*
X72978095Y-51165438D02*
X72917142Y-51165438D01*
X73176190Y-50875914D02*
X73191428Y-50860676D01*
X73191428Y-50860676D02*
X73221904Y-50845438D01*
X73221904Y-50845438D02*
X73298095Y-50845438D01*
X73298095Y-50845438D02*
X73328571Y-50860676D01*
X73328571Y-50860676D02*
X73343809Y-50875914D01*
X73343809Y-50875914D02*
X73359047Y-50906390D01*
X73359047Y-50906390D02*
X73359047Y-50936866D01*
X73359047Y-50936866D02*
X73343809Y-50982580D01*
X73343809Y-50982580D02*
X73160952Y-51165438D01*
X73160952Y-51165438D02*
X73359047Y-51165438D01*
D10*
X102385714Y-52970057D02*
X102433333Y-52922438D01*
X102433333Y-52922438D02*
X102528571Y-52874819D01*
X102528571Y-52874819D02*
X102766666Y-52874819D01*
X102766666Y-52874819D02*
X102861904Y-52922438D01*
X102861904Y-52922438D02*
X102909523Y-52970057D01*
X102909523Y-52970057D02*
X102957142Y-53065295D01*
X102957142Y-53065295D02*
X102957142Y-53160533D01*
X102957142Y-53160533D02*
X102909523Y-53303390D01*
X102909523Y-53303390D02*
X102338095Y-53874819D01*
X102338095Y-53874819D02*
X102957142Y-53874819D01*
X103385714Y-53874819D02*
X103385714Y-52874819D01*
X103385714Y-52874819D02*
X103957142Y-53874819D01*
X103957142Y-53874819D02*
X103957142Y-52874819D01*
X104338095Y-52874819D02*
X105004761Y-52874819D01*
X105004761Y-52874819D02*
X104576190Y-53874819D01*
X105576190Y-52874819D02*
X105671428Y-52874819D01*
X105671428Y-52874819D02*
X105766666Y-52922438D01*
X105766666Y-52922438D02*
X105814285Y-52970057D01*
X105814285Y-52970057D02*
X105861904Y-53065295D01*
X105861904Y-53065295D02*
X105909523Y-53255771D01*
X105909523Y-53255771D02*
X105909523Y-53493866D01*
X105909523Y-53493866D02*
X105861904Y-53684342D01*
X105861904Y-53684342D02*
X105814285Y-53779580D01*
X105814285Y-53779580D02*
X105766666Y-53827200D01*
X105766666Y-53827200D02*
X105671428Y-53874819D01*
X105671428Y-53874819D02*
X105576190Y-53874819D01*
X105576190Y-53874819D02*
X105480952Y-53827200D01*
X105480952Y-53827200D02*
X105433333Y-53779580D01*
X105433333Y-53779580D02*
X105385714Y-53684342D01*
X105385714Y-53684342D02*
X105338095Y-53493866D01*
X105338095Y-53493866D02*
X105338095Y-53255771D01*
X105338095Y-53255771D02*
X105385714Y-53065295D01*
X105385714Y-53065295D02*
X105433333Y-52970057D01*
X105433333Y-52970057D02*
X105480952Y-52922438D01*
X105480952Y-52922438D02*
X105576190Y-52874819D01*
X106528571Y-52874819D02*
X106623809Y-52874819D01*
X106623809Y-52874819D02*
X106719047Y-52922438D01*
X106719047Y-52922438D02*
X106766666Y-52970057D01*
X106766666Y-52970057D02*
X106814285Y-53065295D01*
X106814285Y-53065295D02*
X106861904Y-53255771D01*
X106861904Y-53255771D02*
X106861904Y-53493866D01*
X106861904Y-53493866D02*
X106814285Y-53684342D01*
X106814285Y-53684342D02*
X106766666Y-53779580D01*
X106766666Y-53779580D02*
X106719047Y-53827200D01*
X106719047Y-53827200D02*
X106623809Y-53874819D01*
X106623809Y-53874819D02*
X106528571Y-53874819D01*
X106528571Y-53874819D02*
X106433333Y-53827200D01*
X106433333Y-53827200D02*
X106385714Y-53779580D01*
X106385714Y-53779580D02*
X106338095Y-53684342D01*
X106338095Y-53684342D02*
X106290476Y-53493866D01*
X106290476Y-53493866D02*
X106290476Y-53255771D01*
X106290476Y-53255771D02*
X106338095Y-53065295D01*
X106338095Y-53065295D02*
X106385714Y-52970057D01*
X106385714Y-52970057D02*
X106433333Y-52922438D01*
X106433333Y-52922438D02*
X106528571Y-52874819D01*
X107242857Y-52970057D02*
X107290476Y-52922438D01*
X107290476Y-52922438D02*
X107385714Y-52874819D01*
X107385714Y-52874819D02*
X107623809Y-52874819D01*
X107623809Y-52874819D02*
X107719047Y-52922438D01*
X107719047Y-52922438D02*
X107766666Y-52970057D01*
X107766666Y-52970057D02*
X107814285Y-53065295D01*
X107814285Y-53065295D02*
X107814285Y-53160533D01*
X107814285Y-53160533D02*
X107766666Y-53303390D01*
X107766666Y-53303390D02*
X107195238Y-53874819D01*
X107195238Y-53874819D02*
X107814285Y-53874819D01*
D12*
X105069523Y-51195914D02*
X105039047Y-51180676D01*
X105039047Y-51180676D02*
X105008571Y-51150200D01*
X105008571Y-51150200D02*
X104962857Y-51104485D01*
X104962857Y-51104485D02*
X104932380Y-51089247D01*
X104932380Y-51089247D02*
X104901904Y-51089247D01*
X104917142Y-51165438D02*
X104886666Y-51150200D01*
X104886666Y-51150200D02*
X104856190Y-51119723D01*
X104856190Y-51119723D02*
X104840952Y-51058771D01*
X104840952Y-51058771D02*
X104840952Y-50952104D01*
X104840952Y-50952104D02*
X104856190Y-50891152D01*
X104856190Y-50891152D02*
X104886666Y-50860676D01*
X104886666Y-50860676D02*
X104917142Y-50845438D01*
X104917142Y-50845438D02*
X104978095Y-50845438D01*
X104978095Y-50845438D02*
X105008571Y-50860676D01*
X105008571Y-50860676D02*
X105039047Y-50891152D01*
X105039047Y-50891152D02*
X105054285Y-50952104D01*
X105054285Y-50952104D02*
X105054285Y-51058771D01*
X105054285Y-51058771D02*
X105039047Y-51119723D01*
X105039047Y-51119723D02*
X105008571Y-51150200D01*
X105008571Y-51150200D02*
X104978095Y-51165438D01*
X104978095Y-51165438D02*
X104917142Y-51165438D01*
X105328571Y-50952104D02*
X105328571Y-51165438D01*
X105252380Y-50830200D02*
X105176190Y-51058771D01*
X105176190Y-51058771D02*
X105374285Y-51058771D01*
D10*
X54385714Y-52970057D02*
X54433333Y-52922438D01*
X54433333Y-52922438D02*
X54528571Y-52874819D01*
X54528571Y-52874819D02*
X54766666Y-52874819D01*
X54766666Y-52874819D02*
X54861904Y-52922438D01*
X54861904Y-52922438D02*
X54909523Y-52970057D01*
X54909523Y-52970057D02*
X54957142Y-53065295D01*
X54957142Y-53065295D02*
X54957142Y-53160533D01*
X54957142Y-53160533D02*
X54909523Y-53303390D01*
X54909523Y-53303390D02*
X54338095Y-53874819D01*
X54338095Y-53874819D02*
X54957142Y-53874819D01*
X55385714Y-53874819D02*
X55385714Y-52874819D01*
X55385714Y-52874819D02*
X55957142Y-53874819D01*
X55957142Y-53874819D02*
X55957142Y-52874819D01*
X56338095Y-52874819D02*
X57004761Y-52874819D01*
X57004761Y-52874819D02*
X56576190Y-53874819D01*
X57576190Y-52874819D02*
X57671428Y-52874819D01*
X57671428Y-52874819D02*
X57766666Y-52922438D01*
X57766666Y-52922438D02*
X57814285Y-52970057D01*
X57814285Y-52970057D02*
X57861904Y-53065295D01*
X57861904Y-53065295D02*
X57909523Y-53255771D01*
X57909523Y-53255771D02*
X57909523Y-53493866D01*
X57909523Y-53493866D02*
X57861904Y-53684342D01*
X57861904Y-53684342D02*
X57814285Y-53779580D01*
X57814285Y-53779580D02*
X57766666Y-53827200D01*
X57766666Y-53827200D02*
X57671428Y-53874819D01*
X57671428Y-53874819D02*
X57576190Y-53874819D01*
X57576190Y-53874819D02*
X57480952Y-53827200D01*
X57480952Y-53827200D02*
X57433333Y-53779580D01*
X57433333Y-53779580D02*
X57385714Y-53684342D01*
X57385714Y-53684342D02*
X57338095Y-53493866D01*
X57338095Y-53493866D02*
X57338095Y-53255771D01*
X57338095Y-53255771D02*
X57385714Y-53065295D01*
X57385714Y-53065295D02*
X57433333Y-52970057D01*
X57433333Y-52970057D02*
X57480952Y-52922438D01*
X57480952Y-52922438D02*
X57576190Y-52874819D01*
X58528571Y-52874819D02*
X58623809Y-52874819D01*
X58623809Y-52874819D02*
X58719047Y-52922438D01*
X58719047Y-52922438D02*
X58766666Y-52970057D01*
X58766666Y-52970057D02*
X58814285Y-53065295D01*
X58814285Y-53065295D02*
X58861904Y-53255771D01*
X58861904Y-53255771D02*
X58861904Y-53493866D01*
X58861904Y-53493866D02*
X58814285Y-53684342D01*
X58814285Y-53684342D02*
X58766666Y-53779580D01*
X58766666Y-53779580D02*
X58719047Y-53827200D01*
X58719047Y-53827200D02*
X58623809Y-53874819D01*
X58623809Y-53874819D02*
X58528571Y-53874819D01*
X58528571Y-53874819D02*
X58433333Y-53827200D01*
X58433333Y-53827200D02*
X58385714Y-53779580D01*
X58385714Y-53779580D02*
X58338095Y-53684342D01*
X58338095Y-53684342D02*
X58290476Y-53493866D01*
X58290476Y-53493866D02*
X58290476Y-53255771D01*
X58290476Y-53255771D02*
X58338095Y-53065295D01*
X58338095Y-53065295D02*
X58385714Y-52970057D01*
X58385714Y-52970057D02*
X58433333Y-52922438D01*
X58433333Y-52922438D02*
X58528571Y-52874819D01*
X59242857Y-52970057D02*
X59290476Y-52922438D01*
X59290476Y-52922438D02*
X59385714Y-52874819D01*
X59385714Y-52874819D02*
X59623809Y-52874819D01*
X59623809Y-52874819D02*
X59719047Y-52922438D01*
X59719047Y-52922438D02*
X59766666Y-52970057D01*
X59766666Y-52970057D02*
X59814285Y-53065295D01*
X59814285Y-53065295D02*
X59814285Y-53160533D01*
X59814285Y-53160533D02*
X59766666Y-53303390D01*
X59766666Y-53303390D02*
X59195238Y-53874819D01*
X59195238Y-53874819D02*
X59814285Y-53874819D01*
D12*
X57069523Y-51195914D02*
X57039047Y-51180676D01*
X57039047Y-51180676D02*
X57008571Y-51150200D01*
X57008571Y-51150200D02*
X56962857Y-51104485D01*
X56962857Y-51104485D02*
X56932380Y-51089247D01*
X56932380Y-51089247D02*
X56901904Y-51089247D01*
X56917142Y-51165438D02*
X56886666Y-51150200D01*
X56886666Y-51150200D02*
X56856190Y-51119723D01*
X56856190Y-51119723D02*
X56840952Y-51058771D01*
X56840952Y-51058771D02*
X56840952Y-50952104D01*
X56840952Y-50952104D02*
X56856190Y-50891152D01*
X56856190Y-50891152D02*
X56886666Y-50860676D01*
X56886666Y-50860676D02*
X56917142Y-50845438D01*
X56917142Y-50845438D02*
X56978095Y-50845438D01*
X56978095Y-50845438D02*
X57008571Y-50860676D01*
X57008571Y-50860676D02*
X57039047Y-50891152D01*
X57039047Y-50891152D02*
X57054285Y-50952104D01*
X57054285Y-50952104D02*
X57054285Y-51058771D01*
X57054285Y-51058771D02*
X57039047Y-51119723D01*
X57039047Y-51119723D02*
X57008571Y-51150200D01*
X57008571Y-51150200D02*
X56978095Y-51165438D01*
X56978095Y-51165438D02*
X56917142Y-51165438D01*
X57359047Y-51165438D02*
X57176190Y-51165438D01*
X57267618Y-51165438D02*
X57267618Y-50845438D01*
X57267618Y-50845438D02*
X57237142Y-50891152D01*
X57237142Y-50891152D02*
X57206666Y-50921628D01*
X57206666Y-50921628D02*
X57176190Y-50936866D01*
D10*
X93204819Y-53615238D02*
X93204819Y-54186666D01*
X93204819Y-53900952D02*
X92204819Y-53900952D01*
X92204819Y-53900952D02*
X92347676Y-53996190D01*
X92347676Y-53996190D02*
X92442914Y-54091428D01*
X92442914Y-54091428D02*
X92490533Y-54186666D01*
X92204819Y-52996190D02*
X92204819Y-52900952D01*
X92204819Y-52900952D02*
X92252438Y-52805714D01*
X92252438Y-52805714D02*
X92300057Y-52758095D01*
X92300057Y-52758095D02*
X92395295Y-52710476D01*
X92395295Y-52710476D02*
X92585771Y-52662857D01*
X92585771Y-52662857D02*
X92823866Y-52662857D01*
X92823866Y-52662857D02*
X93014342Y-52710476D01*
X93014342Y-52710476D02*
X93109580Y-52758095D01*
X93109580Y-52758095D02*
X93157200Y-52805714D01*
X93157200Y-52805714D02*
X93204819Y-52900952D01*
X93204819Y-52900952D02*
X93204819Y-52996190D01*
X93204819Y-52996190D02*
X93157200Y-53091428D01*
X93157200Y-53091428D02*
X93109580Y-53139047D01*
X93109580Y-53139047D02*
X93014342Y-53186666D01*
X93014342Y-53186666D02*
X92823866Y-53234285D01*
X92823866Y-53234285D02*
X92585771Y-53234285D01*
X92585771Y-53234285D02*
X92395295Y-53186666D01*
X92395295Y-53186666D02*
X92300057Y-53139047D01*
X92300057Y-53139047D02*
X92252438Y-53091428D01*
X92252438Y-53091428D02*
X92204819Y-52996190D01*
X93204819Y-52234285D02*
X92204819Y-52234285D01*
X92823866Y-52139047D02*
X93204819Y-51853333D01*
X92538152Y-51853333D02*
X92919104Y-52234285D01*
D11*
X91327149Y-53103333D02*
X91089054Y-53269999D01*
X91327149Y-53389047D02*
X90827149Y-53389047D01*
X90827149Y-53389047D02*
X90827149Y-53198571D01*
X90827149Y-53198571D02*
X90850959Y-53150952D01*
X90850959Y-53150952D02*
X90874768Y-53127142D01*
X90874768Y-53127142D02*
X90922387Y-53103333D01*
X90922387Y-53103333D02*
X90993816Y-53103333D01*
X90993816Y-53103333D02*
X91041435Y-53127142D01*
X91041435Y-53127142D02*
X91065244Y-53150952D01*
X91065244Y-53150952D02*
X91089054Y-53198571D01*
X91089054Y-53198571D02*
X91089054Y-53389047D01*
X90827149Y-52936666D02*
X90827149Y-52603333D01*
X90827149Y-52603333D02*
X91327149Y-52817618D01*
D10*
X77204819Y-53615238D02*
X77204819Y-54186666D01*
X77204819Y-53900952D02*
X76204819Y-53900952D01*
X76204819Y-53900952D02*
X76347676Y-53996190D01*
X76347676Y-53996190D02*
X76442914Y-54091428D01*
X76442914Y-54091428D02*
X76490533Y-54186666D01*
X76204819Y-52996190D02*
X76204819Y-52900952D01*
X76204819Y-52900952D02*
X76252438Y-52805714D01*
X76252438Y-52805714D02*
X76300057Y-52758095D01*
X76300057Y-52758095D02*
X76395295Y-52710476D01*
X76395295Y-52710476D02*
X76585771Y-52662857D01*
X76585771Y-52662857D02*
X76823866Y-52662857D01*
X76823866Y-52662857D02*
X77014342Y-52710476D01*
X77014342Y-52710476D02*
X77109580Y-52758095D01*
X77109580Y-52758095D02*
X77157200Y-52805714D01*
X77157200Y-52805714D02*
X77204819Y-52900952D01*
X77204819Y-52900952D02*
X77204819Y-52996190D01*
X77204819Y-52996190D02*
X77157200Y-53091428D01*
X77157200Y-53091428D02*
X77109580Y-53139047D01*
X77109580Y-53139047D02*
X77014342Y-53186666D01*
X77014342Y-53186666D02*
X76823866Y-53234285D01*
X76823866Y-53234285D02*
X76585771Y-53234285D01*
X76585771Y-53234285D02*
X76395295Y-53186666D01*
X76395295Y-53186666D02*
X76300057Y-53139047D01*
X76300057Y-53139047D02*
X76252438Y-53091428D01*
X76252438Y-53091428D02*
X76204819Y-52996190D01*
X77204819Y-52234285D02*
X76204819Y-52234285D01*
X76823866Y-52139047D02*
X77204819Y-51853333D01*
X76538152Y-51853333D02*
X76919104Y-52234285D01*
D11*
X75327149Y-53103333D02*
X75089054Y-53269999D01*
X75327149Y-53389047D02*
X74827149Y-53389047D01*
X74827149Y-53389047D02*
X74827149Y-53198571D01*
X74827149Y-53198571D02*
X74850959Y-53150952D01*
X74850959Y-53150952D02*
X74874768Y-53127142D01*
X74874768Y-53127142D02*
X74922387Y-53103333D01*
X74922387Y-53103333D02*
X74993816Y-53103333D01*
X74993816Y-53103333D02*
X75041435Y-53127142D01*
X75041435Y-53127142D02*
X75065244Y-53150952D01*
X75065244Y-53150952D02*
X75089054Y-53198571D01*
X75089054Y-53198571D02*
X75089054Y-53389047D01*
X74827149Y-52674761D02*
X74827149Y-52769999D01*
X74827149Y-52769999D02*
X74850959Y-52817618D01*
X74850959Y-52817618D02*
X74874768Y-52841428D01*
X74874768Y-52841428D02*
X74946197Y-52889047D01*
X74946197Y-52889047D02*
X75041435Y-52912856D01*
X75041435Y-52912856D02*
X75231911Y-52912856D01*
X75231911Y-52912856D02*
X75279530Y-52889047D01*
X75279530Y-52889047D02*
X75303340Y-52865237D01*
X75303340Y-52865237D02*
X75327149Y-52817618D01*
X75327149Y-52817618D02*
X75327149Y-52722380D01*
X75327149Y-52722380D02*
X75303340Y-52674761D01*
X75303340Y-52674761D02*
X75279530Y-52650952D01*
X75279530Y-52650952D02*
X75231911Y-52627142D01*
X75231911Y-52627142D02*
X75112863Y-52627142D01*
X75112863Y-52627142D02*
X75065244Y-52650952D01*
X75065244Y-52650952D02*
X75041435Y-52674761D01*
X75041435Y-52674761D02*
X75017625Y-52722380D01*
X75017625Y-52722380D02*
X75017625Y-52817618D01*
X75017625Y-52817618D02*
X75041435Y-52865237D01*
X75041435Y-52865237D02*
X75065244Y-52889047D01*
X75065244Y-52889047D02*
X75112863Y-52912856D01*
D10*
X82204819Y-43305713D02*
X82204819Y-42686666D01*
X82204819Y-42686666D02*
X82585771Y-43019999D01*
X82585771Y-43019999D02*
X82585771Y-42877142D01*
X82585771Y-42877142D02*
X82633390Y-42781904D01*
X82633390Y-42781904D02*
X82681009Y-42734285D01*
X82681009Y-42734285D02*
X82776247Y-42686666D01*
X82776247Y-42686666D02*
X83014342Y-42686666D01*
X83014342Y-42686666D02*
X83109580Y-42734285D01*
X83109580Y-42734285D02*
X83157200Y-42781904D01*
X83157200Y-42781904D02*
X83204819Y-42877142D01*
X83204819Y-42877142D02*
X83204819Y-43162856D01*
X83204819Y-43162856D02*
X83157200Y-43258094D01*
X83157200Y-43258094D02*
X83109580Y-43305713D01*
X82204819Y-42353332D02*
X82204819Y-41734285D01*
X82204819Y-41734285D02*
X82585771Y-42067618D01*
X82585771Y-42067618D02*
X82585771Y-41924761D01*
X82585771Y-41924761D02*
X82633390Y-41829523D01*
X82633390Y-41829523D02*
X82681009Y-41781904D01*
X82681009Y-41781904D02*
X82776247Y-41734285D01*
X82776247Y-41734285D02*
X83014342Y-41734285D01*
X83014342Y-41734285D02*
X83109580Y-41781904D01*
X83109580Y-41781904D02*
X83157200Y-41829523D01*
X83157200Y-41829523D02*
X83204819Y-41924761D01*
X83204819Y-41924761D02*
X83204819Y-42210475D01*
X83204819Y-42210475D02*
X83157200Y-42305713D01*
X83157200Y-42305713D02*
X83109580Y-42353332D01*
X82204819Y-41115237D02*
X82204819Y-41019999D01*
X82204819Y-41019999D02*
X82252438Y-40924761D01*
X82252438Y-40924761D02*
X82300057Y-40877142D01*
X82300057Y-40877142D02*
X82395295Y-40829523D01*
X82395295Y-40829523D02*
X82585771Y-40781904D01*
X82585771Y-40781904D02*
X82823866Y-40781904D01*
X82823866Y-40781904D02*
X83014342Y-40829523D01*
X83014342Y-40829523D02*
X83109580Y-40877142D01*
X83109580Y-40877142D02*
X83157200Y-40924761D01*
X83157200Y-40924761D02*
X83204819Y-41019999D01*
X83204819Y-41019999D02*
X83204819Y-41115237D01*
X83204819Y-41115237D02*
X83157200Y-41210475D01*
X83157200Y-41210475D02*
X83109580Y-41258094D01*
X83109580Y-41258094D02*
X83014342Y-41305713D01*
X83014342Y-41305713D02*
X82823866Y-41353332D01*
X82823866Y-41353332D02*
X82585771Y-41353332D01*
X82585771Y-41353332D02*
X82395295Y-41305713D01*
X82395295Y-41305713D02*
X82300057Y-41258094D01*
X82300057Y-41258094D02*
X82252438Y-41210475D01*
X82252438Y-41210475D02*
X82204819Y-41115237D01*
D11*
X81327149Y-42341428D02*
X81089054Y-42508094D01*
X81327149Y-42627142D02*
X80827149Y-42627142D01*
X80827149Y-42627142D02*
X80827149Y-42436666D01*
X80827149Y-42436666D02*
X80850959Y-42389047D01*
X80850959Y-42389047D02*
X80874768Y-42365237D01*
X80874768Y-42365237D02*
X80922387Y-42341428D01*
X80922387Y-42341428D02*
X80993816Y-42341428D01*
X80993816Y-42341428D02*
X81041435Y-42365237D01*
X81041435Y-42365237D02*
X81065244Y-42389047D01*
X81065244Y-42389047D02*
X81089054Y-42436666D01*
X81089054Y-42436666D02*
X81089054Y-42627142D01*
X81327149Y-41865237D02*
X81327149Y-42150951D01*
X81327149Y-42008094D02*
X80827149Y-42008094D01*
X80827149Y-42008094D02*
X80898578Y-42055713D01*
X80898578Y-42055713D02*
X80946197Y-42103332D01*
X80946197Y-42103332D02*
X80970006Y-42150951D01*
X80827149Y-41412857D02*
X80827149Y-41650952D01*
X80827149Y-41650952D02*
X81065244Y-41674761D01*
X81065244Y-41674761D02*
X81041435Y-41650952D01*
X81041435Y-41650952D02*
X81017625Y-41603333D01*
X81017625Y-41603333D02*
X81017625Y-41484285D01*
X81017625Y-41484285D02*
X81041435Y-41436666D01*
X81041435Y-41436666D02*
X81065244Y-41412857D01*
X81065244Y-41412857D02*
X81112863Y-41389047D01*
X81112863Y-41389047D02*
X81231911Y-41389047D01*
X81231911Y-41389047D02*
X81279530Y-41412857D01*
X81279530Y-41412857D02*
X81303340Y-41436666D01*
X81303340Y-41436666D02*
X81327149Y-41484285D01*
X81327149Y-41484285D02*
X81327149Y-41603333D01*
X81327149Y-41603333D02*
X81303340Y-41650952D01*
X81303340Y-41650952D02*
X81279530Y-41674761D01*
D10*
X93584819Y-40400952D02*
X93108628Y-40734285D01*
X93584819Y-40972380D02*
X92584819Y-40972380D01*
X92584819Y-40972380D02*
X92584819Y-40591428D01*
X92584819Y-40591428D02*
X92632438Y-40496190D01*
X92632438Y-40496190D02*
X92680057Y-40448571D01*
X92680057Y-40448571D02*
X92775295Y-40400952D01*
X92775295Y-40400952D02*
X92918152Y-40400952D01*
X92918152Y-40400952D02*
X93013390Y-40448571D01*
X93013390Y-40448571D02*
X93061009Y-40496190D01*
X93061009Y-40496190D02*
X93108628Y-40591428D01*
X93108628Y-40591428D02*
X93108628Y-40972380D01*
X93061009Y-39972380D02*
X93061009Y-39639047D01*
X93584819Y-39496190D02*
X93584819Y-39972380D01*
X93584819Y-39972380D02*
X92584819Y-39972380D01*
X92584819Y-39972380D02*
X92584819Y-39496190D01*
X93584819Y-38591428D02*
X93584819Y-39067618D01*
X93584819Y-39067618D02*
X92584819Y-39067618D01*
X93299104Y-38305713D02*
X93299104Y-37829523D01*
X93584819Y-38400951D02*
X92584819Y-38067618D01*
X92584819Y-38067618D02*
X93584819Y-37734285D01*
X93108628Y-37210475D02*
X93584819Y-37210475D01*
X92584819Y-37543808D02*
X93108628Y-37210475D01*
X93108628Y-37210475D02*
X92584819Y-36877142D01*
X93680057Y-36781904D02*
X93680057Y-36019999D01*
X93584819Y-35781903D02*
X92584819Y-35781903D01*
X92584819Y-35781903D02*
X93299104Y-35448570D01*
X93299104Y-35448570D02*
X92584819Y-35115237D01*
X92584819Y-35115237D02*
X93584819Y-35115237D01*
X92584819Y-34448570D02*
X92584819Y-34258094D01*
X92584819Y-34258094D02*
X92632438Y-34162856D01*
X92632438Y-34162856D02*
X92727676Y-34067618D01*
X92727676Y-34067618D02*
X92918152Y-34019999D01*
X92918152Y-34019999D02*
X93251485Y-34019999D01*
X93251485Y-34019999D02*
X93441961Y-34067618D01*
X93441961Y-34067618D02*
X93537200Y-34162856D01*
X93537200Y-34162856D02*
X93584819Y-34258094D01*
X93584819Y-34258094D02*
X93584819Y-34448570D01*
X93584819Y-34448570D02*
X93537200Y-34543808D01*
X93537200Y-34543808D02*
X93441961Y-34639046D01*
X93441961Y-34639046D02*
X93251485Y-34686665D01*
X93251485Y-34686665D02*
X92918152Y-34686665D01*
X92918152Y-34686665D02*
X92727676Y-34639046D01*
X92727676Y-34639046D02*
X92632438Y-34543808D01*
X92632438Y-34543808D02*
X92584819Y-34448570D01*
X93584819Y-33591427D02*
X92584819Y-33591427D01*
X92584819Y-33591427D02*
X92584819Y-33353332D01*
X92584819Y-33353332D02*
X92632438Y-33210475D01*
X92632438Y-33210475D02*
X92727676Y-33115237D01*
X92727676Y-33115237D02*
X92822914Y-33067618D01*
X92822914Y-33067618D02*
X93013390Y-33019999D01*
X93013390Y-33019999D02*
X93156247Y-33019999D01*
X93156247Y-33019999D02*
X93346723Y-33067618D01*
X93346723Y-33067618D02*
X93441961Y-33115237D01*
X93441961Y-33115237D02*
X93537200Y-33210475D01*
X93537200Y-33210475D02*
X93584819Y-33353332D01*
X93584819Y-33353332D02*
X93584819Y-33591427D01*
X84116666Y-36474819D02*
X84116666Y-37189104D01*
X84116666Y-37189104D02*
X84069047Y-37331961D01*
X84069047Y-37331961D02*
X83973809Y-37427200D01*
X83973809Y-37427200D02*
X83830952Y-37474819D01*
X83830952Y-37474819D02*
X83735714Y-37474819D01*
X84497619Y-36474819D02*
X85116666Y-36474819D01*
X85116666Y-36474819D02*
X84783333Y-36855771D01*
X84783333Y-36855771D02*
X84926190Y-36855771D01*
X84926190Y-36855771D02*
X85021428Y-36903390D01*
X85021428Y-36903390D02*
X85069047Y-36951009D01*
X85069047Y-36951009D02*
X85116666Y-37046247D01*
X85116666Y-37046247D02*
X85116666Y-37284342D01*
X85116666Y-37284342D02*
X85069047Y-37379580D01*
X85069047Y-37379580D02*
X85021428Y-37427200D01*
X85021428Y-37427200D02*
X84926190Y-37474819D01*
X84926190Y-37474819D02*
X84640476Y-37474819D01*
X84640476Y-37474819D02*
X84545238Y-37427200D01*
X84545238Y-37427200D02*
X84497619Y-37379580D01*
X105480952Y-41174819D02*
X105480952Y-40174819D01*
X105480952Y-40174819D02*
X105814285Y-40889104D01*
X105814285Y-40889104D02*
X106147618Y-40174819D01*
X106147618Y-40174819D02*
X106147618Y-41174819D01*
X106766666Y-41174819D02*
X106671428Y-41127200D01*
X106671428Y-41127200D02*
X106623809Y-41079580D01*
X106623809Y-41079580D02*
X106576190Y-40984342D01*
X106576190Y-40984342D02*
X106576190Y-40698628D01*
X106576190Y-40698628D02*
X106623809Y-40603390D01*
X106623809Y-40603390D02*
X106671428Y-40555771D01*
X106671428Y-40555771D02*
X106766666Y-40508152D01*
X106766666Y-40508152D02*
X106909523Y-40508152D01*
X106909523Y-40508152D02*
X107004761Y-40555771D01*
X107004761Y-40555771D02*
X107052380Y-40603390D01*
X107052380Y-40603390D02*
X107099999Y-40698628D01*
X107099999Y-40698628D02*
X107099999Y-40984342D01*
X107099999Y-40984342D02*
X107052380Y-41079580D01*
X107052380Y-41079580D02*
X107004761Y-41127200D01*
X107004761Y-41127200D02*
X106909523Y-41174819D01*
X106909523Y-41174819D02*
X106766666Y-41174819D01*
X107957142Y-40508152D02*
X107957142Y-41174819D01*
X107528571Y-40508152D02*
X107528571Y-41031961D01*
X107528571Y-41031961D02*
X107576190Y-41127200D01*
X107576190Y-41127200D02*
X107671428Y-41174819D01*
X107671428Y-41174819D02*
X107814285Y-41174819D01*
X107814285Y-41174819D02*
X107909523Y-41127200D01*
X107909523Y-41127200D02*
X107957142Y-41079580D01*
X108433333Y-40508152D02*
X108433333Y-41174819D01*
X108433333Y-40603390D02*
X108480952Y-40555771D01*
X108480952Y-40555771D02*
X108576190Y-40508152D01*
X108576190Y-40508152D02*
X108719047Y-40508152D01*
X108719047Y-40508152D02*
X108814285Y-40555771D01*
X108814285Y-40555771D02*
X108861904Y-40651009D01*
X108861904Y-40651009D02*
X108861904Y-41174819D01*
X109195238Y-40508152D02*
X109576190Y-40508152D01*
X109338095Y-40174819D02*
X109338095Y-41031961D01*
X109338095Y-41031961D02*
X109385714Y-41127200D01*
X109385714Y-41127200D02*
X109480952Y-41174819D01*
X109480952Y-41174819D02*
X109576190Y-41174819D01*
X109909524Y-41174819D02*
X109909524Y-40508152D01*
X109909524Y-40174819D02*
X109861905Y-40222438D01*
X109861905Y-40222438D02*
X109909524Y-40270057D01*
X109909524Y-40270057D02*
X109957143Y-40222438D01*
X109957143Y-40222438D02*
X109909524Y-40174819D01*
X109909524Y-40174819D02*
X109909524Y-40270057D01*
X110385714Y-40508152D02*
X110385714Y-41174819D01*
X110385714Y-40603390D02*
X110433333Y-40555771D01*
X110433333Y-40555771D02*
X110528571Y-40508152D01*
X110528571Y-40508152D02*
X110671428Y-40508152D01*
X110671428Y-40508152D02*
X110766666Y-40555771D01*
X110766666Y-40555771D02*
X110814285Y-40651009D01*
X110814285Y-40651009D02*
X110814285Y-41174819D01*
X111719047Y-40508152D02*
X111719047Y-41317676D01*
X111719047Y-41317676D02*
X111671428Y-41412914D01*
X111671428Y-41412914D02*
X111623809Y-41460533D01*
X111623809Y-41460533D02*
X111528571Y-41508152D01*
X111528571Y-41508152D02*
X111385714Y-41508152D01*
X111385714Y-41508152D02*
X111290476Y-41460533D01*
X111719047Y-41127200D02*
X111623809Y-41174819D01*
X111623809Y-41174819D02*
X111433333Y-41174819D01*
X111433333Y-41174819D02*
X111338095Y-41127200D01*
X111338095Y-41127200D02*
X111290476Y-41079580D01*
X111290476Y-41079580D02*
X111242857Y-40984342D01*
X111242857Y-40984342D02*
X111242857Y-40698628D01*
X111242857Y-40698628D02*
X111290476Y-40603390D01*
X111290476Y-40603390D02*
X111338095Y-40555771D01*
X111338095Y-40555771D02*
X111433333Y-40508152D01*
X111433333Y-40508152D02*
X111623809Y-40508152D01*
X111623809Y-40508152D02*
X111719047Y-40555771D01*
X112195238Y-41174819D02*
X112195238Y-40174819D01*
X112195238Y-40651009D02*
X112766666Y-40651009D01*
X112766666Y-41174819D02*
X112766666Y-40174819D01*
X113385714Y-41174819D02*
X113290476Y-41127200D01*
X113290476Y-41127200D02*
X113242857Y-41079580D01*
X113242857Y-41079580D02*
X113195238Y-40984342D01*
X113195238Y-40984342D02*
X113195238Y-40698628D01*
X113195238Y-40698628D02*
X113242857Y-40603390D01*
X113242857Y-40603390D02*
X113290476Y-40555771D01*
X113290476Y-40555771D02*
X113385714Y-40508152D01*
X113385714Y-40508152D02*
X113528571Y-40508152D01*
X113528571Y-40508152D02*
X113623809Y-40555771D01*
X113623809Y-40555771D02*
X113671428Y-40603390D01*
X113671428Y-40603390D02*
X113719047Y-40698628D01*
X113719047Y-40698628D02*
X113719047Y-40984342D01*
X113719047Y-40984342D02*
X113671428Y-41079580D01*
X113671428Y-41079580D02*
X113623809Y-41127200D01*
X113623809Y-41127200D02*
X113528571Y-41174819D01*
X113528571Y-41174819D02*
X113385714Y-41174819D01*
X114290476Y-41174819D02*
X114195238Y-41127200D01*
X114195238Y-41127200D02*
X114147619Y-41031961D01*
X114147619Y-41031961D02*
X114147619Y-40174819D01*
X115052381Y-41127200D02*
X114957143Y-41174819D01*
X114957143Y-41174819D02*
X114766667Y-41174819D01*
X114766667Y-41174819D02*
X114671429Y-41127200D01*
X114671429Y-41127200D02*
X114623810Y-41031961D01*
X114623810Y-41031961D02*
X114623810Y-40651009D01*
X114623810Y-40651009D02*
X114671429Y-40555771D01*
X114671429Y-40555771D02*
X114766667Y-40508152D01*
X114766667Y-40508152D02*
X114957143Y-40508152D01*
X114957143Y-40508152D02*
X115052381Y-40555771D01*
X115052381Y-40555771D02*
X115100000Y-40651009D01*
X115100000Y-40651009D02*
X115100000Y-40746247D01*
X115100000Y-40746247D02*
X114623810Y-40841485D01*
X115290477Y-41270057D02*
X116052381Y-41270057D01*
X116195239Y-40174819D02*
X116814286Y-40174819D01*
X116814286Y-40174819D02*
X116480953Y-40555771D01*
X116480953Y-40555771D02*
X116623810Y-40555771D01*
X116623810Y-40555771D02*
X116719048Y-40603390D01*
X116719048Y-40603390D02*
X116766667Y-40651009D01*
X116766667Y-40651009D02*
X116814286Y-40746247D01*
X116814286Y-40746247D02*
X116814286Y-40984342D01*
X116814286Y-40984342D02*
X116766667Y-41079580D01*
X116766667Y-41079580D02*
X116719048Y-41127200D01*
X116719048Y-41127200D02*
X116623810Y-41174819D01*
X116623810Y-41174819D02*
X116338096Y-41174819D01*
X116338096Y-41174819D02*
X116242858Y-41127200D01*
X116242858Y-41127200D02*
X116195239Y-41079580D01*
X117242858Y-41079580D02*
X117290477Y-41127200D01*
X117290477Y-41127200D02*
X117242858Y-41174819D01*
X117242858Y-41174819D02*
X117195239Y-41127200D01*
X117195239Y-41127200D02*
X117242858Y-41079580D01*
X117242858Y-41079580D02*
X117242858Y-41174819D01*
X117671429Y-40270057D02*
X117719048Y-40222438D01*
X117719048Y-40222438D02*
X117814286Y-40174819D01*
X117814286Y-40174819D02*
X118052381Y-40174819D01*
X118052381Y-40174819D02*
X118147619Y-40222438D01*
X118147619Y-40222438D02*
X118195238Y-40270057D01*
X118195238Y-40270057D02*
X118242857Y-40365295D01*
X118242857Y-40365295D02*
X118242857Y-40460533D01*
X118242857Y-40460533D02*
X118195238Y-40603390D01*
X118195238Y-40603390D02*
X117623810Y-41174819D01*
X117623810Y-41174819D02*
X118242857Y-41174819D01*
X118671429Y-41174819D02*
X118671429Y-40508152D01*
X118671429Y-40603390D02*
X118719048Y-40555771D01*
X118719048Y-40555771D02*
X118814286Y-40508152D01*
X118814286Y-40508152D02*
X118957143Y-40508152D01*
X118957143Y-40508152D02*
X119052381Y-40555771D01*
X119052381Y-40555771D02*
X119100000Y-40651009D01*
X119100000Y-40651009D02*
X119100000Y-41174819D01*
X119100000Y-40651009D02*
X119147619Y-40555771D01*
X119147619Y-40555771D02*
X119242857Y-40508152D01*
X119242857Y-40508152D02*
X119385714Y-40508152D01*
X119385714Y-40508152D02*
X119480953Y-40555771D01*
X119480953Y-40555771D02*
X119528572Y-40651009D01*
X119528572Y-40651009D02*
X119528572Y-41174819D01*
X120004762Y-41174819D02*
X120004762Y-40508152D01*
X120004762Y-40603390D02*
X120052381Y-40555771D01*
X120052381Y-40555771D02*
X120147619Y-40508152D01*
X120147619Y-40508152D02*
X120290476Y-40508152D01*
X120290476Y-40508152D02*
X120385714Y-40555771D01*
X120385714Y-40555771D02*
X120433333Y-40651009D01*
X120433333Y-40651009D02*
X120433333Y-41174819D01*
X120433333Y-40651009D02*
X120480952Y-40555771D01*
X120480952Y-40555771D02*
X120576190Y-40508152D01*
X120576190Y-40508152D02*
X120719047Y-40508152D01*
X120719047Y-40508152D02*
X120814286Y-40555771D01*
X120814286Y-40555771D02*
X120861905Y-40651009D01*
X120861905Y-40651009D02*
X120861905Y-41174819D01*
X121100000Y-41270057D02*
X121861904Y-41270057D01*
X122100000Y-41174819D02*
X122100000Y-40174819D01*
X122100000Y-40174819D02*
X122433333Y-40889104D01*
X122433333Y-40889104D02*
X122766666Y-40174819D01*
X122766666Y-40174819D02*
X122766666Y-41174819D01*
X123147619Y-40174819D02*
X123766666Y-40174819D01*
X123766666Y-40174819D02*
X123433333Y-40555771D01*
X123433333Y-40555771D02*
X123576190Y-40555771D01*
X123576190Y-40555771D02*
X123671428Y-40603390D01*
X123671428Y-40603390D02*
X123719047Y-40651009D01*
X123719047Y-40651009D02*
X123766666Y-40746247D01*
X123766666Y-40746247D02*
X123766666Y-40984342D01*
X123766666Y-40984342D02*
X123719047Y-41079580D01*
X123719047Y-41079580D02*
X123671428Y-41127200D01*
X123671428Y-41127200D02*
X123576190Y-41174819D01*
X123576190Y-41174819D02*
X123290476Y-41174819D01*
X123290476Y-41174819D02*
X123195238Y-41127200D01*
X123195238Y-41127200D02*
X123147619Y-41079580D01*
X114314286Y-36974819D02*
X114314286Y-35974819D01*
X114314286Y-36451009D02*
X114885714Y-36451009D01*
X114885714Y-36974819D02*
X114885714Y-35974819D01*
X98719524Y-50344819D02*
X98719524Y-49344819D01*
X98719524Y-49344819D02*
X99100476Y-49344819D01*
X99100476Y-49344819D02*
X99195714Y-49392438D01*
X99195714Y-49392438D02*
X99243333Y-49440057D01*
X99243333Y-49440057D02*
X99290952Y-49535295D01*
X99290952Y-49535295D02*
X99290952Y-49678152D01*
X99290952Y-49678152D02*
X99243333Y-49773390D01*
X99243333Y-49773390D02*
X99195714Y-49821009D01*
X99195714Y-49821009D02*
X99100476Y-49868628D01*
X99100476Y-49868628D02*
X98719524Y-49868628D01*
X100290952Y-50249580D02*
X100243333Y-50297200D01*
X100243333Y-50297200D02*
X100100476Y-50344819D01*
X100100476Y-50344819D02*
X100005238Y-50344819D01*
X100005238Y-50344819D02*
X99862381Y-50297200D01*
X99862381Y-50297200D02*
X99767143Y-50201961D01*
X99767143Y-50201961D02*
X99719524Y-50106723D01*
X99719524Y-50106723D02*
X99671905Y-49916247D01*
X99671905Y-49916247D02*
X99671905Y-49773390D01*
X99671905Y-49773390D02*
X99719524Y-49582914D01*
X99719524Y-49582914D02*
X99767143Y-49487676D01*
X99767143Y-49487676D02*
X99862381Y-49392438D01*
X99862381Y-49392438D02*
X100005238Y-49344819D01*
X100005238Y-49344819D02*
X100100476Y-49344819D01*
X100100476Y-49344819D02*
X100243333Y-49392438D01*
X100243333Y-49392438D02*
X100290952Y-49440057D01*
X100862381Y-49773390D02*
X100767143Y-49725771D01*
X100767143Y-49725771D02*
X100719524Y-49678152D01*
X100719524Y-49678152D02*
X100671905Y-49582914D01*
X100671905Y-49582914D02*
X100671905Y-49535295D01*
X100671905Y-49535295D02*
X100719524Y-49440057D01*
X100719524Y-49440057D02*
X100767143Y-49392438D01*
X100767143Y-49392438D02*
X100862381Y-49344819D01*
X100862381Y-49344819D02*
X101052857Y-49344819D01*
X101052857Y-49344819D02*
X101148095Y-49392438D01*
X101148095Y-49392438D02*
X101195714Y-49440057D01*
X101195714Y-49440057D02*
X101243333Y-49535295D01*
X101243333Y-49535295D02*
X101243333Y-49582914D01*
X101243333Y-49582914D02*
X101195714Y-49678152D01*
X101195714Y-49678152D02*
X101148095Y-49725771D01*
X101148095Y-49725771D02*
X101052857Y-49773390D01*
X101052857Y-49773390D02*
X100862381Y-49773390D01*
X100862381Y-49773390D02*
X100767143Y-49821009D01*
X100767143Y-49821009D02*
X100719524Y-49868628D01*
X100719524Y-49868628D02*
X100671905Y-49963866D01*
X100671905Y-49963866D02*
X100671905Y-50154342D01*
X100671905Y-50154342D02*
X100719524Y-50249580D01*
X100719524Y-50249580D02*
X100767143Y-50297200D01*
X100767143Y-50297200D02*
X100862381Y-50344819D01*
X100862381Y-50344819D02*
X101052857Y-50344819D01*
X101052857Y-50344819D02*
X101148095Y-50297200D01*
X101148095Y-50297200D02*
X101195714Y-50249580D01*
X101195714Y-50249580D02*
X101243333Y-50154342D01*
X101243333Y-50154342D02*
X101243333Y-49963866D01*
X101243333Y-49963866D02*
X101195714Y-49868628D01*
X101195714Y-49868628D02*
X101148095Y-49821009D01*
X101148095Y-49821009D02*
X101052857Y-49773390D01*
X102195714Y-50344819D02*
X101624286Y-50344819D01*
X101910000Y-50344819D02*
X101910000Y-49344819D01*
X101910000Y-49344819D02*
X101814762Y-49487676D01*
X101814762Y-49487676D02*
X101719524Y-49582914D01*
X101719524Y-49582914D02*
X101624286Y-49630533D01*
X102529048Y-49344819D02*
X103195714Y-49344819D01*
X103195714Y-49344819D02*
X102767143Y-50344819D01*
X100148095Y-45744819D02*
X100148095Y-46554342D01*
X100148095Y-46554342D02*
X100195714Y-46649580D01*
X100195714Y-46649580D02*
X100243333Y-46697200D01*
X100243333Y-46697200D02*
X100338571Y-46744819D01*
X100338571Y-46744819D02*
X100529047Y-46744819D01*
X100529047Y-46744819D02*
X100624285Y-46697200D01*
X100624285Y-46697200D02*
X100671904Y-46649580D01*
X100671904Y-46649580D02*
X100719523Y-46554342D01*
X100719523Y-46554342D02*
X100719523Y-45744819D01*
X101671904Y-45744819D02*
X101195714Y-45744819D01*
X101195714Y-45744819D02*
X101148095Y-46221009D01*
X101148095Y-46221009D02*
X101195714Y-46173390D01*
X101195714Y-46173390D02*
X101290952Y-46125771D01*
X101290952Y-46125771D02*
X101529047Y-46125771D01*
X101529047Y-46125771D02*
X101624285Y-46173390D01*
X101624285Y-46173390D02*
X101671904Y-46221009D01*
X101671904Y-46221009D02*
X101719523Y-46316247D01*
X101719523Y-46316247D02*
X101719523Y-46554342D01*
X101719523Y-46554342D02*
X101671904Y-46649580D01*
X101671904Y-46649580D02*
X101624285Y-46697200D01*
X101624285Y-46697200D02*
X101529047Y-46744819D01*
X101529047Y-46744819D02*
X101290952Y-46744819D01*
X101290952Y-46744819D02*
X101195714Y-46697200D01*
X101195714Y-46697200D02*
X101148095Y-46649580D01*
X108219047Y-62344819D02*
X107742857Y-62344819D01*
X107742857Y-62344819D02*
X107695238Y-62821009D01*
X107695238Y-62821009D02*
X107742857Y-62773390D01*
X107742857Y-62773390D02*
X107838095Y-62725771D01*
X107838095Y-62725771D02*
X108076190Y-62725771D01*
X108076190Y-62725771D02*
X108171428Y-62773390D01*
X108171428Y-62773390D02*
X108219047Y-62821009D01*
X108219047Y-62821009D02*
X108266666Y-62916247D01*
X108266666Y-62916247D02*
X108266666Y-63154342D01*
X108266666Y-63154342D02*
X108219047Y-63249580D01*
X108219047Y-63249580D02*
X108171428Y-63297200D01*
X108171428Y-63297200D02*
X108076190Y-63344819D01*
X108076190Y-63344819D02*
X107838095Y-63344819D01*
X107838095Y-63344819D02*
X107742857Y-63297200D01*
X107742857Y-63297200D02*
X107695238Y-63249580D01*
X108552381Y-62344819D02*
X108885714Y-63344819D01*
X108885714Y-63344819D02*
X109219047Y-62344819D01*
X109314286Y-63440057D02*
X110076190Y-63440057D01*
X110314286Y-62821009D02*
X110647619Y-62821009D01*
X110790476Y-63344819D02*
X110314286Y-63344819D01*
X110314286Y-63344819D02*
X110314286Y-62344819D01*
X110314286Y-62344819D02*
X110790476Y-62344819D01*
X111123810Y-62344819D02*
X111790476Y-63344819D01*
X111790476Y-62344819D02*
X111123810Y-63344819D01*
X112028572Y-62344819D02*
X112600000Y-62344819D01*
X112314286Y-63344819D02*
X112314286Y-62344819D01*
X109554819Y-59623333D02*
X110269104Y-59623333D01*
X110269104Y-59623333D02*
X110411961Y-59670952D01*
X110411961Y-59670952D02*
X110507200Y-59766190D01*
X110507200Y-59766190D02*
X110554819Y-59909047D01*
X110554819Y-59909047D02*
X110554819Y-60004285D01*
X109554819Y-59242380D02*
X109554819Y-58575714D01*
X109554819Y-58575714D02*
X110554819Y-59004285D01*
X109904819Y-85600475D02*
X108904819Y-85600475D01*
X108904819Y-85600475D02*
X108904819Y-85219523D01*
X108904819Y-85219523D02*
X108952438Y-85124285D01*
X108952438Y-85124285D02*
X109000057Y-85076666D01*
X109000057Y-85076666D02*
X109095295Y-85029047D01*
X109095295Y-85029047D02*
X109238152Y-85029047D01*
X109238152Y-85029047D02*
X109333390Y-85076666D01*
X109333390Y-85076666D02*
X109381009Y-85124285D01*
X109381009Y-85124285D02*
X109428628Y-85219523D01*
X109428628Y-85219523D02*
X109428628Y-85600475D01*
X109904819Y-84600475D02*
X109238152Y-84600475D01*
X108904819Y-84600475D02*
X108952438Y-84648094D01*
X108952438Y-84648094D02*
X109000057Y-84600475D01*
X109000057Y-84600475D02*
X108952438Y-84552856D01*
X108952438Y-84552856D02*
X108904819Y-84600475D01*
X108904819Y-84600475D02*
X109000057Y-84600475D01*
X109857200Y-83695714D02*
X109904819Y-83790952D01*
X109904819Y-83790952D02*
X109904819Y-83981428D01*
X109904819Y-83981428D02*
X109857200Y-84076666D01*
X109857200Y-84076666D02*
X109809580Y-84124285D01*
X109809580Y-84124285D02*
X109714342Y-84171904D01*
X109714342Y-84171904D02*
X109428628Y-84171904D01*
X109428628Y-84171904D02*
X109333390Y-84124285D01*
X109333390Y-84124285D02*
X109285771Y-84076666D01*
X109285771Y-84076666D02*
X109238152Y-83981428D01*
X109238152Y-83981428D02*
X109238152Y-83790952D01*
X109238152Y-83790952D02*
X109285771Y-83695714D01*
X109904819Y-83124285D02*
X109857200Y-83219523D01*
X109857200Y-83219523D02*
X109809580Y-83267142D01*
X109809580Y-83267142D02*
X109714342Y-83314761D01*
X109714342Y-83314761D02*
X109428628Y-83314761D01*
X109428628Y-83314761D02*
X109333390Y-83267142D01*
X109333390Y-83267142D02*
X109285771Y-83219523D01*
X109285771Y-83219523D02*
X109238152Y-83124285D01*
X109238152Y-83124285D02*
X109238152Y-82981428D01*
X109238152Y-82981428D02*
X109285771Y-82886190D01*
X109285771Y-82886190D02*
X109333390Y-82838571D01*
X109333390Y-82838571D02*
X109428628Y-82790952D01*
X109428628Y-82790952D02*
X109714342Y-82790952D01*
X109714342Y-82790952D02*
X109809580Y-82838571D01*
X109809580Y-82838571D02*
X109857200Y-82886190D01*
X109857200Y-82886190D02*
X109904819Y-82981428D01*
X109904819Y-82981428D02*
X109904819Y-83124285D01*
X110000057Y-82600476D02*
X110000057Y-81838571D01*
X109904819Y-81029047D02*
X109428628Y-81362380D01*
X109904819Y-81600475D02*
X108904819Y-81600475D01*
X108904819Y-81600475D02*
X108904819Y-81219523D01*
X108904819Y-81219523D02*
X108952438Y-81124285D01*
X108952438Y-81124285D02*
X109000057Y-81076666D01*
X109000057Y-81076666D02*
X109095295Y-81029047D01*
X109095295Y-81029047D02*
X109238152Y-81029047D01*
X109238152Y-81029047D02*
X109333390Y-81076666D01*
X109333390Y-81076666D02*
X109381009Y-81124285D01*
X109381009Y-81124285D02*
X109428628Y-81219523D01*
X109428628Y-81219523D02*
X109428628Y-81600475D01*
X109904819Y-80600475D02*
X109238152Y-80600475D01*
X108904819Y-80600475D02*
X108952438Y-80648094D01*
X108952438Y-80648094D02*
X109000057Y-80600475D01*
X109000057Y-80600475D02*
X108952438Y-80552856D01*
X108952438Y-80552856D02*
X108904819Y-80600475D01*
X108904819Y-80600475D02*
X109000057Y-80600475D01*
X109238152Y-79695714D02*
X110047676Y-79695714D01*
X110047676Y-79695714D02*
X110142914Y-79743333D01*
X110142914Y-79743333D02*
X110190533Y-79790952D01*
X110190533Y-79790952D02*
X110238152Y-79886190D01*
X110238152Y-79886190D02*
X110238152Y-80029047D01*
X110238152Y-80029047D02*
X110190533Y-80124285D01*
X109857200Y-79695714D02*
X109904819Y-79790952D01*
X109904819Y-79790952D02*
X109904819Y-79981428D01*
X109904819Y-79981428D02*
X109857200Y-80076666D01*
X109857200Y-80076666D02*
X109809580Y-80124285D01*
X109809580Y-80124285D02*
X109714342Y-80171904D01*
X109714342Y-80171904D02*
X109428628Y-80171904D01*
X109428628Y-80171904D02*
X109333390Y-80124285D01*
X109333390Y-80124285D02*
X109285771Y-80076666D01*
X109285771Y-80076666D02*
X109238152Y-79981428D01*
X109238152Y-79981428D02*
X109238152Y-79790952D01*
X109238152Y-79790952D02*
X109285771Y-79695714D01*
X109904819Y-79219523D02*
X108904819Y-79219523D01*
X109904819Y-78790952D02*
X109381009Y-78790952D01*
X109381009Y-78790952D02*
X109285771Y-78838571D01*
X109285771Y-78838571D02*
X109238152Y-78933809D01*
X109238152Y-78933809D02*
X109238152Y-79076666D01*
X109238152Y-79076666D02*
X109285771Y-79171904D01*
X109285771Y-79171904D02*
X109333390Y-79219523D01*
X109238152Y-78457618D02*
X109238152Y-78076666D01*
X108904819Y-78314761D02*
X109761961Y-78314761D01*
X109761961Y-78314761D02*
X109857200Y-78267142D01*
X109857200Y-78267142D02*
X109904819Y-78171904D01*
X109904819Y-78171904D02*
X109904819Y-78076666D01*
X82216666Y-81364819D02*
X82216666Y-82079104D01*
X82216666Y-82079104D02*
X82169047Y-82221961D01*
X82169047Y-82221961D02*
X82073809Y-82317200D01*
X82073809Y-82317200D02*
X81930952Y-82364819D01*
X81930952Y-82364819D02*
X81835714Y-82364819D01*
X82645238Y-81460057D02*
X82692857Y-81412438D01*
X82692857Y-81412438D02*
X82788095Y-81364819D01*
X82788095Y-81364819D02*
X83026190Y-81364819D01*
X83026190Y-81364819D02*
X83121428Y-81412438D01*
X83121428Y-81412438D02*
X83169047Y-81460057D01*
X83169047Y-81460057D02*
X83216666Y-81555295D01*
X83216666Y-81555295D02*
X83216666Y-81650533D01*
X83216666Y-81650533D02*
X83169047Y-81793390D01*
X83169047Y-81793390D02*
X82597619Y-82364819D01*
X82597619Y-82364819D02*
X83216666Y-82364819D01*
X82719524Y-50344819D02*
X82719524Y-49344819D01*
X82719524Y-49344819D02*
X83100476Y-49344819D01*
X83100476Y-49344819D02*
X83195714Y-49392438D01*
X83195714Y-49392438D02*
X83243333Y-49440057D01*
X83243333Y-49440057D02*
X83290952Y-49535295D01*
X83290952Y-49535295D02*
X83290952Y-49678152D01*
X83290952Y-49678152D02*
X83243333Y-49773390D01*
X83243333Y-49773390D02*
X83195714Y-49821009D01*
X83195714Y-49821009D02*
X83100476Y-49868628D01*
X83100476Y-49868628D02*
X82719524Y-49868628D01*
X84290952Y-50249580D02*
X84243333Y-50297200D01*
X84243333Y-50297200D02*
X84100476Y-50344819D01*
X84100476Y-50344819D02*
X84005238Y-50344819D01*
X84005238Y-50344819D02*
X83862381Y-50297200D01*
X83862381Y-50297200D02*
X83767143Y-50201961D01*
X83767143Y-50201961D02*
X83719524Y-50106723D01*
X83719524Y-50106723D02*
X83671905Y-49916247D01*
X83671905Y-49916247D02*
X83671905Y-49773390D01*
X83671905Y-49773390D02*
X83719524Y-49582914D01*
X83719524Y-49582914D02*
X83767143Y-49487676D01*
X83767143Y-49487676D02*
X83862381Y-49392438D01*
X83862381Y-49392438D02*
X84005238Y-49344819D01*
X84005238Y-49344819D02*
X84100476Y-49344819D01*
X84100476Y-49344819D02*
X84243333Y-49392438D01*
X84243333Y-49392438D02*
X84290952Y-49440057D01*
X84862381Y-49773390D02*
X84767143Y-49725771D01*
X84767143Y-49725771D02*
X84719524Y-49678152D01*
X84719524Y-49678152D02*
X84671905Y-49582914D01*
X84671905Y-49582914D02*
X84671905Y-49535295D01*
X84671905Y-49535295D02*
X84719524Y-49440057D01*
X84719524Y-49440057D02*
X84767143Y-49392438D01*
X84767143Y-49392438D02*
X84862381Y-49344819D01*
X84862381Y-49344819D02*
X85052857Y-49344819D01*
X85052857Y-49344819D02*
X85148095Y-49392438D01*
X85148095Y-49392438D02*
X85195714Y-49440057D01*
X85195714Y-49440057D02*
X85243333Y-49535295D01*
X85243333Y-49535295D02*
X85243333Y-49582914D01*
X85243333Y-49582914D02*
X85195714Y-49678152D01*
X85195714Y-49678152D02*
X85148095Y-49725771D01*
X85148095Y-49725771D02*
X85052857Y-49773390D01*
X85052857Y-49773390D02*
X84862381Y-49773390D01*
X84862381Y-49773390D02*
X84767143Y-49821009D01*
X84767143Y-49821009D02*
X84719524Y-49868628D01*
X84719524Y-49868628D02*
X84671905Y-49963866D01*
X84671905Y-49963866D02*
X84671905Y-50154342D01*
X84671905Y-50154342D02*
X84719524Y-50249580D01*
X84719524Y-50249580D02*
X84767143Y-50297200D01*
X84767143Y-50297200D02*
X84862381Y-50344819D01*
X84862381Y-50344819D02*
X85052857Y-50344819D01*
X85052857Y-50344819D02*
X85148095Y-50297200D01*
X85148095Y-50297200D02*
X85195714Y-50249580D01*
X85195714Y-50249580D02*
X85243333Y-50154342D01*
X85243333Y-50154342D02*
X85243333Y-49963866D01*
X85243333Y-49963866D02*
X85195714Y-49868628D01*
X85195714Y-49868628D02*
X85148095Y-49821009D01*
X85148095Y-49821009D02*
X85052857Y-49773390D01*
X86195714Y-50344819D02*
X85624286Y-50344819D01*
X85910000Y-50344819D02*
X85910000Y-49344819D01*
X85910000Y-49344819D02*
X85814762Y-49487676D01*
X85814762Y-49487676D02*
X85719524Y-49582914D01*
X85719524Y-49582914D02*
X85624286Y-49630533D01*
X86529048Y-49344819D02*
X87195714Y-49344819D01*
X87195714Y-49344819D02*
X86767143Y-50344819D01*
X84148095Y-45744819D02*
X84148095Y-46554342D01*
X84148095Y-46554342D02*
X84195714Y-46649580D01*
X84195714Y-46649580D02*
X84243333Y-46697200D01*
X84243333Y-46697200D02*
X84338571Y-46744819D01*
X84338571Y-46744819D02*
X84529047Y-46744819D01*
X84529047Y-46744819D02*
X84624285Y-46697200D01*
X84624285Y-46697200D02*
X84671904Y-46649580D01*
X84671904Y-46649580D02*
X84719523Y-46554342D01*
X84719523Y-46554342D02*
X84719523Y-45744819D01*
X85624285Y-46078152D02*
X85624285Y-46744819D01*
X85386190Y-45697200D02*
X85148095Y-46411485D01*
X85148095Y-46411485D02*
X85767142Y-46411485D01*
X32480952Y-41174819D02*
X32480952Y-40174819D01*
X32480952Y-40174819D02*
X32814285Y-40889104D01*
X32814285Y-40889104D02*
X33147618Y-40174819D01*
X33147618Y-40174819D02*
X33147618Y-41174819D01*
X33766666Y-41174819D02*
X33671428Y-41127200D01*
X33671428Y-41127200D02*
X33623809Y-41079580D01*
X33623809Y-41079580D02*
X33576190Y-40984342D01*
X33576190Y-40984342D02*
X33576190Y-40698628D01*
X33576190Y-40698628D02*
X33623809Y-40603390D01*
X33623809Y-40603390D02*
X33671428Y-40555771D01*
X33671428Y-40555771D02*
X33766666Y-40508152D01*
X33766666Y-40508152D02*
X33909523Y-40508152D01*
X33909523Y-40508152D02*
X34004761Y-40555771D01*
X34004761Y-40555771D02*
X34052380Y-40603390D01*
X34052380Y-40603390D02*
X34099999Y-40698628D01*
X34099999Y-40698628D02*
X34099999Y-40984342D01*
X34099999Y-40984342D02*
X34052380Y-41079580D01*
X34052380Y-41079580D02*
X34004761Y-41127200D01*
X34004761Y-41127200D02*
X33909523Y-41174819D01*
X33909523Y-41174819D02*
X33766666Y-41174819D01*
X34957142Y-40508152D02*
X34957142Y-41174819D01*
X34528571Y-40508152D02*
X34528571Y-41031961D01*
X34528571Y-41031961D02*
X34576190Y-41127200D01*
X34576190Y-41127200D02*
X34671428Y-41174819D01*
X34671428Y-41174819D02*
X34814285Y-41174819D01*
X34814285Y-41174819D02*
X34909523Y-41127200D01*
X34909523Y-41127200D02*
X34957142Y-41079580D01*
X35433333Y-40508152D02*
X35433333Y-41174819D01*
X35433333Y-40603390D02*
X35480952Y-40555771D01*
X35480952Y-40555771D02*
X35576190Y-40508152D01*
X35576190Y-40508152D02*
X35719047Y-40508152D01*
X35719047Y-40508152D02*
X35814285Y-40555771D01*
X35814285Y-40555771D02*
X35861904Y-40651009D01*
X35861904Y-40651009D02*
X35861904Y-41174819D01*
X36195238Y-40508152D02*
X36576190Y-40508152D01*
X36338095Y-40174819D02*
X36338095Y-41031961D01*
X36338095Y-41031961D02*
X36385714Y-41127200D01*
X36385714Y-41127200D02*
X36480952Y-41174819D01*
X36480952Y-41174819D02*
X36576190Y-41174819D01*
X36909524Y-41174819D02*
X36909524Y-40508152D01*
X36909524Y-40174819D02*
X36861905Y-40222438D01*
X36861905Y-40222438D02*
X36909524Y-40270057D01*
X36909524Y-40270057D02*
X36957143Y-40222438D01*
X36957143Y-40222438D02*
X36909524Y-40174819D01*
X36909524Y-40174819D02*
X36909524Y-40270057D01*
X37385714Y-40508152D02*
X37385714Y-41174819D01*
X37385714Y-40603390D02*
X37433333Y-40555771D01*
X37433333Y-40555771D02*
X37528571Y-40508152D01*
X37528571Y-40508152D02*
X37671428Y-40508152D01*
X37671428Y-40508152D02*
X37766666Y-40555771D01*
X37766666Y-40555771D02*
X37814285Y-40651009D01*
X37814285Y-40651009D02*
X37814285Y-41174819D01*
X38719047Y-40508152D02*
X38719047Y-41317676D01*
X38719047Y-41317676D02*
X38671428Y-41412914D01*
X38671428Y-41412914D02*
X38623809Y-41460533D01*
X38623809Y-41460533D02*
X38528571Y-41508152D01*
X38528571Y-41508152D02*
X38385714Y-41508152D01*
X38385714Y-41508152D02*
X38290476Y-41460533D01*
X38719047Y-41127200D02*
X38623809Y-41174819D01*
X38623809Y-41174819D02*
X38433333Y-41174819D01*
X38433333Y-41174819D02*
X38338095Y-41127200D01*
X38338095Y-41127200D02*
X38290476Y-41079580D01*
X38290476Y-41079580D02*
X38242857Y-40984342D01*
X38242857Y-40984342D02*
X38242857Y-40698628D01*
X38242857Y-40698628D02*
X38290476Y-40603390D01*
X38290476Y-40603390D02*
X38338095Y-40555771D01*
X38338095Y-40555771D02*
X38433333Y-40508152D01*
X38433333Y-40508152D02*
X38623809Y-40508152D01*
X38623809Y-40508152D02*
X38719047Y-40555771D01*
X39195238Y-41174819D02*
X39195238Y-40174819D01*
X39195238Y-40651009D02*
X39766666Y-40651009D01*
X39766666Y-41174819D02*
X39766666Y-40174819D01*
X40385714Y-41174819D02*
X40290476Y-41127200D01*
X40290476Y-41127200D02*
X40242857Y-41079580D01*
X40242857Y-41079580D02*
X40195238Y-40984342D01*
X40195238Y-40984342D02*
X40195238Y-40698628D01*
X40195238Y-40698628D02*
X40242857Y-40603390D01*
X40242857Y-40603390D02*
X40290476Y-40555771D01*
X40290476Y-40555771D02*
X40385714Y-40508152D01*
X40385714Y-40508152D02*
X40528571Y-40508152D01*
X40528571Y-40508152D02*
X40623809Y-40555771D01*
X40623809Y-40555771D02*
X40671428Y-40603390D01*
X40671428Y-40603390D02*
X40719047Y-40698628D01*
X40719047Y-40698628D02*
X40719047Y-40984342D01*
X40719047Y-40984342D02*
X40671428Y-41079580D01*
X40671428Y-41079580D02*
X40623809Y-41127200D01*
X40623809Y-41127200D02*
X40528571Y-41174819D01*
X40528571Y-41174819D02*
X40385714Y-41174819D01*
X41290476Y-41174819D02*
X41195238Y-41127200D01*
X41195238Y-41127200D02*
X41147619Y-41031961D01*
X41147619Y-41031961D02*
X41147619Y-40174819D01*
X42052381Y-41127200D02*
X41957143Y-41174819D01*
X41957143Y-41174819D02*
X41766667Y-41174819D01*
X41766667Y-41174819D02*
X41671429Y-41127200D01*
X41671429Y-41127200D02*
X41623810Y-41031961D01*
X41623810Y-41031961D02*
X41623810Y-40651009D01*
X41623810Y-40651009D02*
X41671429Y-40555771D01*
X41671429Y-40555771D02*
X41766667Y-40508152D01*
X41766667Y-40508152D02*
X41957143Y-40508152D01*
X41957143Y-40508152D02*
X42052381Y-40555771D01*
X42052381Y-40555771D02*
X42100000Y-40651009D01*
X42100000Y-40651009D02*
X42100000Y-40746247D01*
X42100000Y-40746247D02*
X41623810Y-40841485D01*
X42290477Y-41270057D02*
X43052381Y-41270057D01*
X43195239Y-40174819D02*
X43814286Y-40174819D01*
X43814286Y-40174819D02*
X43480953Y-40555771D01*
X43480953Y-40555771D02*
X43623810Y-40555771D01*
X43623810Y-40555771D02*
X43719048Y-40603390D01*
X43719048Y-40603390D02*
X43766667Y-40651009D01*
X43766667Y-40651009D02*
X43814286Y-40746247D01*
X43814286Y-40746247D02*
X43814286Y-40984342D01*
X43814286Y-40984342D02*
X43766667Y-41079580D01*
X43766667Y-41079580D02*
X43719048Y-41127200D01*
X43719048Y-41127200D02*
X43623810Y-41174819D01*
X43623810Y-41174819D02*
X43338096Y-41174819D01*
X43338096Y-41174819D02*
X43242858Y-41127200D01*
X43242858Y-41127200D02*
X43195239Y-41079580D01*
X44242858Y-41079580D02*
X44290477Y-41127200D01*
X44290477Y-41127200D02*
X44242858Y-41174819D01*
X44242858Y-41174819D02*
X44195239Y-41127200D01*
X44195239Y-41127200D02*
X44242858Y-41079580D01*
X44242858Y-41079580D02*
X44242858Y-41174819D01*
X44671429Y-40270057D02*
X44719048Y-40222438D01*
X44719048Y-40222438D02*
X44814286Y-40174819D01*
X44814286Y-40174819D02*
X45052381Y-40174819D01*
X45052381Y-40174819D02*
X45147619Y-40222438D01*
X45147619Y-40222438D02*
X45195238Y-40270057D01*
X45195238Y-40270057D02*
X45242857Y-40365295D01*
X45242857Y-40365295D02*
X45242857Y-40460533D01*
X45242857Y-40460533D02*
X45195238Y-40603390D01*
X45195238Y-40603390D02*
X44623810Y-41174819D01*
X44623810Y-41174819D02*
X45242857Y-41174819D01*
X45671429Y-41174819D02*
X45671429Y-40508152D01*
X45671429Y-40603390D02*
X45719048Y-40555771D01*
X45719048Y-40555771D02*
X45814286Y-40508152D01*
X45814286Y-40508152D02*
X45957143Y-40508152D01*
X45957143Y-40508152D02*
X46052381Y-40555771D01*
X46052381Y-40555771D02*
X46100000Y-40651009D01*
X46100000Y-40651009D02*
X46100000Y-41174819D01*
X46100000Y-40651009D02*
X46147619Y-40555771D01*
X46147619Y-40555771D02*
X46242857Y-40508152D01*
X46242857Y-40508152D02*
X46385714Y-40508152D01*
X46385714Y-40508152D02*
X46480953Y-40555771D01*
X46480953Y-40555771D02*
X46528572Y-40651009D01*
X46528572Y-40651009D02*
X46528572Y-41174819D01*
X47004762Y-41174819D02*
X47004762Y-40508152D01*
X47004762Y-40603390D02*
X47052381Y-40555771D01*
X47052381Y-40555771D02*
X47147619Y-40508152D01*
X47147619Y-40508152D02*
X47290476Y-40508152D01*
X47290476Y-40508152D02*
X47385714Y-40555771D01*
X47385714Y-40555771D02*
X47433333Y-40651009D01*
X47433333Y-40651009D02*
X47433333Y-41174819D01*
X47433333Y-40651009D02*
X47480952Y-40555771D01*
X47480952Y-40555771D02*
X47576190Y-40508152D01*
X47576190Y-40508152D02*
X47719047Y-40508152D01*
X47719047Y-40508152D02*
X47814286Y-40555771D01*
X47814286Y-40555771D02*
X47861905Y-40651009D01*
X47861905Y-40651009D02*
X47861905Y-41174819D01*
X48100000Y-41270057D02*
X48861904Y-41270057D01*
X49100000Y-41174819D02*
X49100000Y-40174819D01*
X49100000Y-40174819D02*
X49433333Y-40889104D01*
X49433333Y-40889104D02*
X49766666Y-40174819D01*
X49766666Y-40174819D02*
X49766666Y-41174819D01*
X50147619Y-40174819D02*
X50766666Y-40174819D01*
X50766666Y-40174819D02*
X50433333Y-40555771D01*
X50433333Y-40555771D02*
X50576190Y-40555771D01*
X50576190Y-40555771D02*
X50671428Y-40603390D01*
X50671428Y-40603390D02*
X50719047Y-40651009D01*
X50719047Y-40651009D02*
X50766666Y-40746247D01*
X50766666Y-40746247D02*
X50766666Y-40984342D01*
X50766666Y-40984342D02*
X50719047Y-41079580D01*
X50719047Y-41079580D02*
X50671428Y-41127200D01*
X50671428Y-41127200D02*
X50576190Y-41174819D01*
X50576190Y-41174819D02*
X50290476Y-41174819D01*
X50290476Y-41174819D02*
X50195238Y-41127200D01*
X50195238Y-41127200D02*
X50147619Y-41079580D01*
X41314286Y-36974819D02*
X41314286Y-35974819D01*
X41314286Y-36451009D02*
X41885714Y-36451009D01*
X41885714Y-36974819D02*
X41885714Y-35974819D01*
X105480952Y-84804818D02*
X105480952Y-83804818D01*
X105480952Y-83804818D02*
X105814285Y-84519103D01*
X105814285Y-84519103D02*
X106147618Y-83804818D01*
X106147618Y-83804818D02*
X106147618Y-84804818D01*
X106766666Y-84804818D02*
X106671428Y-84757199D01*
X106671428Y-84757199D02*
X106623809Y-84709579D01*
X106623809Y-84709579D02*
X106576190Y-84614341D01*
X106576190Y-84614341D02*
X106576190Y-84328627D01*
X106576190Y-84328627D02*
X106623809Y-84233389D01*
X106623809Y-84233389D02*
X106671428Y-84185770D01*
X106671428Y-84185770D02*
X106766666Y-84138151D01*
X106766666Y-84138151D02*
X106909523Y-84138151D01*
X106909523Y-84138151D02*
X107004761Y-84185770D01*
X107004761Y-84185770D02*
X107052380Y-84233389D01*
X107052380Y-84233389D02*
X107099999Y-84328627D01*
X107099999Y-84328627D02*
X107099999Y-84614341D01*
X107099999Y-84614341D02*
X107052380Y-84709579D01*
X107052380Y-84709579D02*
X107004761Y-84757199D01*
X107004761Y-84757199D02*
X106909523Y-84804818D01*
X106909523Y-84804818D02*
X106766666Y-84804818D01*
X107957142Y-84138151D02*
X107957142Y-84804818D01*
X107528571Y-84138151D02*
X107528571Y-84661960D01*
X107528571Y-84661960D02*
X107576190Y-84757199D01*
X107576190Y-84757199D02*
X107671428Y-84804818D01*
X107671428Y-84804818D02*
X107814285Y-84804818D01*
X107814285Y-84804818D02*
X107909523Y-84757199D01*
X107909523Y-84757199D02*
X107957142Y-84709579D01*
X108433333Y-84138151D02*
X108433333Y-84804818D01*
X108433333Y-84233389D02*
X108480952Y-84185770D01*
X108480952Y-84185770D02*
X108576190Y-84138151D01*
X108576190Y-84138151D02*
X108719047Y-84138151D01*
X108719047Y-84138151D02*
X108814285Y-84185770D01*
X108814285Y-84185770D02*
X108861904Y-84281008D01*
X108861904Y-84281008D02*
X108861904Y-84804818D01*
X109195238Y-84138151D02*
X109576190Y-84138151D01*
X109338095Y-83804818D02*
X109338095Y-84661960D01*
X109338095Y-84661960D02*
X109385714Y-84757199D01*
X109385714Y-84757199D02*
X109480952Y-84804818D01*
X109480952Y-84804818D02*
X109576190Y-84804818D01*
X109909524Y-84804818D02*
X109909524Y-84138151D01*
X109909524Y-83804818D02*
X109861905Y-83852437D01*
X109861905Y-83852437D02*
X109909524Y-83900056D01*
X109909524Y-83900056D02*
X109957143Y-83852437D01*
X109957143Y-83852437D02*
X109909524Y-83804818D01*
X109909524Y-83804818D02*
X109909524Y-83900056D01*
X110385714Y-84138151D02*
X110385714Y-84804818D01*
X110385714Y-84233389D02*
X110433333Y-84185770D01*
X110433333Y-84185770D02*
X110528571Y-84138151D01*
X110528571Y-84138151D02*
X110671428Y-84138151D01*
X110671428Y-84138151D02*
X110766666Y-84185770D01*
X110766666Y-84185770D02*
X110814285Y-84281008D01*
X110814285Y-84281008D02*
X110814285Y-84804818D01*
X111719047Y-84138151D02*
X111719047Y-84947675D01*
X111719047Y-84947675D02*
X111671428Y-85042913D01*
X111671428Y-85042913D02*
X111623809Y-85090532D01*
X111623809Y-85090532D02*
X111528571Y-85138151D01*
X111528571Y-85138151D02*
X111385714Y-85138151D01*
X111385714Y-85138151D02*
X111290476Y-85090532D01*
X111719047Y-84757199D02*
X111623809Y-84804818D01*
X111623809Y-84804818D02*
X111433333Y-84804818D01*
X111433333Y-84804818D02*
X111338095Y-84757199D01*
X111338095Y-84757199D02*
X111290476Y-84709579D01*
X111290476Y-84709579D02*
X111242857Y-84614341D01*
X111242857Y-84614341D02*
X111242857Y-84328627D01*
X111242857Y-84328627D02*
X111290476Y-84233389D01*
X111290476Y-84233389D02*
X111338095Y-84185770D01*
X111338095Y-84185770D02*
X111433333Y-84138151D01*
X111433333Y-84138151D02*
X111623809Y-84138151D01*
X111623809Y-84138151D02*
X111719047Y-84185770D01*
X112195238Y-84804818D02*
X112195238Y-83804818D01*
X112195238Y-84281008D02*
X112766666Y-84281008D01*
X112766666Y-84804818D02*
X112766666Y-83804818D01*
X113385714Y-84804818D02*
X113290476Y-84757199D01*
X113290476Y-84757199D02*
X113242857Y-84709579D01*
X113242857Y-84709579D02*
X113195238Y-84614341D01*
X113195238Y-84614341D02*
X113195238Y-84328627D01*
X113195238Y-84328627D02*
X113242857Y-84233389D01*
X113242857Y-84233389D02*
X113290476Y-84185770D01*
X113290476Y-84185770D02*
X113385714Y-84138151D01*
X113385714Y-84138151D02*
X113528571Y-84138151D01*
X113528571Y-84138151D02*
X113623809Y-84185770D01*
X113623809Y-84185770D02*
X113671428Y-84233389D01*
X113671428Y-84233389D02*
X113719047Y-84328627D01*
X113719047Y-84328627D02*
X113719047Y-84614341D01*
X113719047Y-84614341D02*
X113671428Y-84709579D01*
X113671428Y-84709579D02*
X113623809Y-84757199D01*
X113623809Y-84757199D02*
X113528571Y-84804818D01*
X113528571Y-84804818D02*
X113385714Y-84804818D01*
X114290476Y-84804818D02*
X114195238Y-84757199D01*
X114195238Y-84757199D02*
X114147619Y-84661960D01*
X114147619Y-84661960D02*
X114147619Y-83804818D01*
X115052381Y-84757199D02*
X114957143Y-84804818D01*
X114957143Y-84804818D02*
X114766667Y-84804818D01*
X114766667Y-84804818D02*
X114671429Y-84757199D01*
X114671429Y-84757199D02*
X114623810Y-84661960D01*
X114623810Y-84661960D02*
X114623810Y-84281008D01*
X114623810Y-84281008D02*
X114671429Y-84185770D01*
X114671429Y-84185770D02*
X114766667Y-84138151D01*
X114766667Y-84138151D02*
X114957143Y-84138151D01*
X114957143Y-84138151D02*
X115052381Y-84185770D01*
X115052381Y-84185770D02*
X115100000Y-84281008D01*
X115100000Y-84281008D02*
X115100000Y-84376246D01*
X115100000Y-84376246D02*
X114623810Y-84471484D01*
X115290477Y-84900056D02*
X116052381Y-84900056D01*
X116195239Y-83804818D02*
X116814286Y-83804818D01*
X116814286Y-83804818D02*
X116480953Y-84185770D01*
X116480953Y-84185770D02*
X116623810Y-84185770D01*
X116623810Y-84185770D02*
X116719048Y-84233389D01*
X116719048Y-84233389D02*
X116766667Y-84281008D01*
X116766667Y-84281008D02*
X116814286Y-84376246D01*
X116814286Y-84376246D02*
X116814286Y-84614341D01*
X116814286Y-84614341D02*
X116766667Y-84709579D01*
X116766667Y-84709579D02*
X116719048Y-84757199D01*
X116719048Y-84757199D02*
X116623810Y-84804818D01*
X116623810Y-84804818D02*
X116338096Y-84804818D01*
X116338096Y-84804818D02*
X116242858Y-84757199D01*
X116242858Y-84757199D02*
X116195239Y-84709579D01*
X117242858Y-84709579D02*
X117290477Y-84757199D01*
X117290477Y-84757199D02*
X117242858Y-84804818D01*
X117242858Y-84804818D02*
X117195239Y-84757199D01*
X117195239Y-84757199D02*
X117242858Y-84709579D01*
X117242858Y-84709579D02*
X117242858Y-84804818D01*
X117671429Y-83900056D02*
X117719048Y-83852437D01*
X117719048Y-83852437D02*
X117814286Y-83804818D01*
X117814286Y-83804818D02*
X118052381Y-83804818D01*
X118052381Y-83804818D02*
X118147619Y-83852437D01*
X118147619Y-83852437D02*
X118195238Y-83900056D01*
X118195238Y-83900056D02*
X118242857Y-83995294D01*
X118242857Y-83995294D02*
X118242857Y-84090532D01*
X118242857Y-84090532D02*
X118195238Y-84233389D01*
X118195238Y-84233389D02*
X117623810Y-84804818D01*
X117623810Y-84804818D02*
X118242857Y-84804818D01*
X118671429Y-84804818D02*
X118671429Y-84138151D01*
X118671429Y-84233389D02*
X118719048Y-84185770D01*
X118719048Y-84185770D02*
X118814286Y-84138151D01*
X118814286Y-84138151D02*
X118957143Y-84138151D01*
X118957143Y-84138151D02*
X119052381Y-84185770D01*
X119052381Y-84185770D02*
X119100000Y-84281008D01*
X119100000Y-84281008D02*
X119100000Y-84804818D01*
X119100000Y-84281008D02*
X119147619Y-84185770D01*
X119147619Y-84185770D02*
X119242857Y-84138151D01*
X119242857Y-84138151D02*
X119385714Y-84138151D01*
X119385714Y-84138151D02*
X119480953Y-84185770D01*
X119480953Y-84185770D02*
X119528572Y-84281008D01*
X119528572Y-84281008D02*
X119528572Y-84804818D01*
X120004762Y-84804818D02*
X120004762Y-84138151D01*
X120004762Y-84233389D02*
X120052381Y-84185770D01*
X120052381Y-84185770D02*
X120147619Y-84138151D01*
X120147619Y-84138151D02*
X120290476Y-84138151D01*
X120290476Y-84138151D02*
X120385714Y-84185770D01*
X120385714Y-84185770D02*
X120433333Y-84281008D01*
X120433333Y-84281008D02*
X120433333Y-84804818D01*
X120433333Y-84281008D02*
X120480952Y-84185770D01*
X120480952Y-84185770D02*
X120576190Y-84138151D01*
X120576190Y-84138151D02*
X120719047Y-84138151D01*
X120719047Y-84138151D02*
X120814286Y-84185770D01*
X120814286Y-84185770D02*
X120861905Y-84281008D01*
X120861905Y-84281008D02*
X120861905Y-84804818D01*
X121100000Y-84900056D02*
X121861904Y-84900056D01*
X122100000Y-84804818D02*
X122100000Y-83804818D01*
X122100000Y-83804818D02*
X122433333Y-84519103D01*
X122433333Y-84519103D02*
X122766666Y-83804818D01*
X122766666Y-83804818D02*
X122766666Y-84804818D01*
X123147619Y-83804818D02*
X123766666Y-83804818D01*
X123766666Y-83804818D02*
X123433333Y-84185770D01*
X123433333Y-84185770D02*
X123576190Y-84185770D01*
X123576190Y-84185770D02*
X123671428Y-84233389D01*
X123671428Y-84233389D02*
X123719047Y-84281008D01*
X123719047Y-84281008D02*
X123766666Y-84376246D01*
X123766666Y-84376246D02*
X123766666Y-84614341D01*
X123766666Y-84614341D02*
X123719047Y-84709579D01*
X123719047Y-84709579D02*
X123671428Y-84757199D01*
X123671428Y-84757199D02*
X123576190Y-84804818D01*
X123576190Y-84804818D02*
X123290476Y-84804818D01*
X123290476Y-84804818D02*
X123195238Y-84757199D01*
X123195238Y-84757199D02*
X123147619Y-84709579D01*
X114314286Y-80604818D02*
X114314286Y-79604818D01*
X114314286Y-80081008D02*
X114885714Y-80081008D01*
X114885714Y-80604818D02*
X114885714Y-79604818D01*
X57204819Y-57305713D02*
X57204819Y-56686666D01*
X57204819Y-56686666D02*
X57585771Y-57019999D01*
X57585771Y-57019999D02*
X57585771Y-56877142D01*
X57585771Y-56877142D02*
X57633390Y-56781904D01*
X57633390Y-56781904D02*
X57681009Y-56734285D01*
X57681009Y-56734285D02*
X57776247Y-56686666D01*
X57776247Y-56686666D02*
X58014342Y-56686666D01*
X58014342Y-56686666D02*
X58109580Y-56734285D01*
X58109580Y-56734285D02*
X58157200Y-56781904D01*
X58157200Y-56781904D02*
X58204819Y-56877142D01*
X58204819Y-56877142D02*
X58204819Y-57162856D01*
X58204819Y-57162856D02*
X58157200Y-57258094D01*
X58157200Y-57258094D02*
X58109580Y-57305713D01*
X57204819Y-56353332D02*
X57204819Y-55734285D01*
X57204819Y-55734285D02*
X57585771Y-56067618D01*
X57585771Y-56067618D02*
X57585771Y-55924761D01*
X57585771Y-55924761D02*
X57633390Y-55829523D01*
X57633390Y-55829523D02*
X57681009Y-55781904D01*
X57681009Y-55781904D02*
X57776247Y-55734285D01*
X57776247Y-55734285D02*
X58014342Y-55734285D01*
X58014342Y-55734285D02*
X58109580Y-55781904D01*
X58109580Y-55781904D02*
X58157200Y-55829523D01*
X58157200Y-55829523D02*
X58204819Y-55924761D01*
X58204819Y-55924761D02*
X58204819Y-56210475D01*
X58204819Y-56210475D02*
X58157200Y-56305713D01*
X58157200Y-56305713D02*
X58109580Y-56353332D01*
X57204819Y-55115237D02*
X57204819Y-55019999D01*
X57204819Y-55019999D02*
X57252438Y-54924761D01*
X57252438Y-54924761D02*
X57300057Y-54877142D01*
X57300057Y-54877142D02*
X57395295Y-54829523D01*
X57395295Y-54829523D02*
X57585771Y-54781904D01*
X57585771Y-54781904D02*
X57823866Y-54781904D01*
X57823866Y-54781904D02*
X58014342Y-54829523D01*
X58014342Y-54829523D02*
X58109580Y-54877142D01*
X58109580Y-54877142D02*
X58157200Y-54924761D01*
X58157200Y-54924761D02*
X58204819Y-55019999D01*
X58204819Y-55019999D02*
X58204819Y-55115237D01*
X58204819Y-55115237D02*
X58157200Y-55210475D01*
X58157200Y-55210475D02*
X58109580Y-55258094D01*
X58109580Y-55258094D02*
X58014342Y-55305713D01*
X58014342Y-55305713D02*
X57823866Y-55353332D01*
X57823866Y-55353332D02*
X57585771Y-55353332D01*
X57585771Y-55353332D02*
X57395295Y-55305713D01*
X57395295Y-55305713D02*
X57300057Y-55258094D01*
X57300057Y-55258094D02*
X57252438Y-55210475D01*
X57252438Y-55210475D02*
X57204819Y-55115237D01*
D11*
X56327149Y-56103333D02*
X56089054Y-56269999D01*
X56327149Y-56389047D02*
X55827149Y-56389047D01*
X55827149Y-56389047D02*
X55827149Y-56198571D01*
X55827149Y-56198571D02*
X55850959Y-56150952D01*
X55850959Y-56150952D02*
X55874768Y-56127142D01*
X55874768Y-56127142D02*
X55922387Y-56103333D01*
X55922387Y-56103333D02*
X55993816Y-56103333D01*
X55993816Y-56103333D02*
X56041435Y-56127142D01*
X56041435Y-56127142D02*
X56065244Y-56150952D01*
X56065244Y-56150952D02*
X56089054Y-56198571D01*
X56089054Y-56198571D02*
X56089054Y-56389047D01*
X56327149Y-55865237D02*
X56327149Y-55769999D01*
X56327149Y-55769999D02*
X56303340Y-55722380D01*
X56303340Y-55722380D02*
X56279530Y-55698571D01*
X56279530Y-55698571D02*
X56208101Y-55650952D01*
X56208101Y-55650952D02*
X56112863Y-55627142D01*
X56112863Y-55627142D02*
X55922387Y-55627142D01*
X55922387Y-55627142D02*
X55874768Y-55650952D01*
X55874768Y-55650952D02*
X55850959Y-55674761D01*
X55850959Y-55674761D02*
X55827149Y-55722380D01*
X55827149Y-55722380D02*
X55827149Y-55817618D01*
X55827149Y-55817618D02*
X55850959Y-55865237D01*
X55850959Y-55865237D02*
X55874768Y-55889047D01*
X55874768Y-55889047D02*
X55922387Y-55912856D01*
X55922387Y-55912856D02*
X56041435Y-55912856D01*
X56041435Y-55912856D02*
X56089054Y-55889047D01*
X56089054Y-55889047D02*
X56112863Y-55865237D01*
X56112863Y-55865237D02*
X56136673Y-55817618D01*
X56136673Y-55817618D02*
X56136673Y-55722380D01*
X56136673Y-55722380D02*
X56112863Y-55674761D01*
X56112863Y-55674761D02*
X56089054Y-55650952D01*
X56089054Y-55650952D02*
X56041435Y-55627142D01*
D10*
X54204819Y-48686666D02*
X54204819Y-49258094D01*
X54204819Y-48972380D02*
X53204819Y-48972380D01*
X53204819Y-48972380D02*
X53347676Y-49067618D01*
X53347676Y-49067618D02*
X53442914Y-49162856D01*
X53442914Y-49162856D02*
X53490533Y-49258094D01*
X53204819Y-48067618D02*
X53204819Y-47972380D01*
X53204819Y-47972380D02*
X53252438Y-47877142D01*
X53252438Y-47877142D02*
X53300057Y-47829523D01*
X53300057Y-47829523D02*
X53395295Y-47781904D01*
X53395295Y-47781904D02*
X53585771Y-47734285D01*
X53585771Y-47734285D02*
X53823866Y-47734285D01*
X53823866Y-47734285D02*
X54014342Y-47781904D01*
X54014342Y-47781904D02*
X54109580Y-47829523D01*
X54109580Y-47829523D02*
X54157200Y-47877142D01*
X54157200Y-47877142D02*
X54204819Y-47972380D01*
X54204819Y-47972380D02*
X54204819Y-48067618D01*
X54204819Y-48067618D02*
X54157200Y-48162856D01*
X54157200Y-48162856D02*
X54109580Y-48210475D01*
X54109580Y-48210475D02*
X54014342Y-48258094D01*
X54014342Y-48258094D02*
X53823866Y-48305713D01*
X53823866Y-48305713D02*
X53585771Y-48305713D01*
X53585771Y-48305713D02*
X53395295Y-48258094D01*
X53395295Y-48258094D02*
X53300057Y-48210475D01*
X53300057Y-48210475D02*
X53252438Y-48162856D01*
X53252438Y-48162856D02*
X53204819Y-48067618D01*
X53204819Y-47115237D02*
X53204819Y-47019999D01*
X53204819Y-47019999D02*
X53252438Y-46924761D01*
X53252438Y-46924761D02*
X53300057Y-46877142D01*
X53300057Y-46877142D02*
X53395295Y-46829523D01*
X53395295Y-46829523D02*
X53585771Y-46781904D01*
X53585771Y-46781904D02*
X53823866Y-46781904D01*
X53823866Y-46781904D02*
X54014342Y-46829523D01*
X54014342Y-46829523D02*
X54109580Y-46877142D01*
X54109580Y-46877142D02*
X54157200Y-46924761D01*
X54157200Y-46924761D02*
X54204819Y-47019999D01*
X54204819Y-47019999D02*
X54204819Y-47115237D01*
X54204819Y-47115237D02*
X54157200Y-47210475D01*
X54157200Y-47210475D02*
X54109580Y-47258094D01*
X54109580Y-47258094D02*
X54014342Y-47305713D01*
X54014342Y-47305713D02*
X53823866Y-47353332D01*
X53823866Y-47353332D02*
X53585771Y-47353332D01*
X53585771Y-47353332D02*
X53395295Y-47305713D01*
X53395295Y-47305713D02*
X53300057Y-47258094D01*
X53300057Y-47258094D02*
X53252438Y-47210475D01*
X53252438Y-47210475D02*
X53204819Y-47115237D01*
D11*
X52327149Y-48103333D02*
X52089054Y-48269999D01*
X52327149Y-48389047D02*
X51827149Y-48389047D01*
X51827149Y-48389047D02*
X51827149Y-48198571D01*
X51827149Y-48198571D02*
X51850959Y-48150952D01*
X51850959Y-48150952D02*
X51874768Y-48127142D01*
X51874768Y-48127142D02*
X51922387Y-48103333D01*
X51922387Y-48103333D02*
X51993816Y-48103333D01*
X51993816Y-48103333D02*
X52041435Y-48127142D01*
X52041435Y-48127142D02*
X52065244Y-48150952D01*
X52065244Y-48150952D02*
X52089054Y-48198571D01*
X52089054Y-48198571D02*
X52089054Y-48389047D01*
X52327149Y-47627142D02*
X52327149Y-47912856D01*
X52327149Y-47769999D02*
X51827149Y-47769999D01*
X51827149Y-47769999D02*
X51898578Y-47817618D01*
X51898578Y-47817618D02*
X51946197Y-47865237D01*
X51946197Y-47865237D02*
X51970006Y-47912856D01*
D10*
X61204819Y-53615238D02*
X61204819Y-54186666D01*
X61204819Y-53900952D02*
X60204819Y-53900952D01*
X60204819Y-53900952D02*
X60347676Y-53996190D01*
X60347676Y-53996190D02*
X60442914Y-54091428D01*
X60442914Y-54091428D02*
X60490533Y-54186666D01*
X60204819Y-52996190D02*
X60204819Y-52900952D01*
X60204819Y-52900952D02*
X60252438Y-52805714D01*
X60252438Y-52805714D02*
X60300057Y-52758095D01*
X60300057Y-52758095D02*
X60395295Y-52710476D01*
X60395295Y-52710476D02*
X60585771Y-52662857D01*
X60585771Y-52662857D02*
X60823866Y-52662857D01*
X60823866Y-52662857D02*
X61014342Y-52710476D01*
X61014342Y-52710476D02*
X61109580Y-52758095D01*
X61109580Y-52758095D02*
X61157200Y-52805714D01*
X61157200Y-52805714D02*
X61204819Y-52900952D01*
X61204819Y-52900952D02*
X61204819Y-52996190D01*
X61204819Y-52996190D02*
X61157200Y-53091428D01*
X61157200Y-53091428D02*
X61109580Y-53139047D01*
X61109580Y-53139047D02*
X61014342Y-53186666D01*
X61014342Y-53186666D02*
X60823866Y-53234285D01*
X60823866Y-53234285D02*
X60585771Y-53234285D01*
X60585771Y-53234285D02*
X60395295Y-53186666D01*
X60395295Y-53186666D02*
X60300057Y-53139047D01*
X60300057Y-53139047D02*
X60252438Y-53091428D01*
X60252438Y-53091428D02*
X60204819Y-52996190D01*
X61204819Y-52234285D02*
X60204819Y-52234285D01*
X60823866Y-52139047D02*
X61204819Y-51853333D01*
X60538152Y-51853333D02*
X60919104Y-52234285D01*
D11*
X59327149Y-53103333D02*
X59089054Y-53269999D01*
X59327149Y-53389047D02*
X58827149Y-53389047D01*
X58827149Y-53389047D02*
X58827149Y-53198571D01*
X58827149Y-53198571D02*
X58850959Y-53150952D01*
X58850959Y-53150952D02*
X58874768Y-53127142D01*
X58874768Y-53127142D02*
X58922387Y-53103333D01*
X58922387Y-53103333D02*
X58993816Y-53103333D01*
X58993816Y-53103333D02*
X59041435Y-53127142D01*
X59041435Y-53127142D02*
X59065244Y-53150952D01*
X59065244Y-53150952D02*
X59089054Y-53198571D01*
X59089054Y-53198571D02*
X59089054Y-53389047D01*
X58827149Y-52650952D02*
X58827149Y-52889047D01*
X58827149Y-52889047D02*
X59065244Y-52912856D01*
X59065244Y-52912856D02*
X59041435Y-52889047D01*
X59041435Y-52889047D02*
X59017625Y-52841428D01*
X59017625Y-52841428D02*
X59017625Y-52722380D01*
X59017625Y-52722380D02*
X59041435Y-52674761D01*
X59041435Y-52674761D02*
X59065244Y-52650952D01*
X59065244Y-52650952D02*
X59112863Y-52627142D01*
X59112863Y-52627142D02*
X59231911Y-52627142D01*
X59231911Y-52627142D02*
X59279530Y-52650952D01*
X59279530Y-52650952D02*
X59303340Y-52674761D01*
X59303340Y-52674761D02*
X59327149Y-52722380D01*
X59327149Y-52722380D02*
X59327149Y-52841428D01*
X59327149Y-52841428D02*
X59303340Y-52889047D01*
X59303340Y-52889047D02*
X59279530Y-52912856D01*
D10*
X66204819Y-43305713D02*
X66204819Y-42686666D01*
X66204819Y-42686666D02*
X66585771Y-43019999D01*
X66585771Y-43019999D02*
X66585771Y-42877142D01*
X66585771Y-42877142D02*
X66633390Y-42781904D01*
X66633390Y-42781904D02*
X66681009Y-42734285D01*
X66681009Y-42734285D02*
X66776247Y-42686666D01*
X66776247Y-42686666D02*
X67014342Y-42686666D01*
X67014342Y-42686666D02*
X67109580Y-42734285D01*
X67109580Y-42734285D02*
X67157200Y-42781904D01*
X67157200Y-42781904D02*
X67204819Y-42877142D01*
X67204819Y-42877142D02*
X67204819Y-43162856D01*
X67204819Y-43162856D02*
X67157200Y-43258094D01*
X67157200Y-43258094D02*
X67109580Y-43305713D01*
X66204819Y-42353332D02*
X66204819Y-41734285D01*
X66204819Y-41734285D02*
X66585771Y-42067618D01*
X66585771Y-42067618D02*
X66585771Y-41924761D01*
X66585771Y-41924761D02*
X66633390Y-41829523D01*
X66633390Y-41829523D02*
X66681009Y-41781904D01*
X66681009Y-41781904D02*
X66776247Y-41734285D01*
X66776247Y-41734285D02*
X67014342Y-41734285D01*
X67014342Y-41734285D02*
X67109580Y-41781904D01*
X67109580Y-41781904D02*
X67157200Y-41829523D01*
X67157200Y-41829523D02*
X67204819Y-41924761D01*
X67204819Y-41924761D02*
X67204819Y-42210475D01*
X67204819Y-42210475D02*
X67157200Y-42305713D01*
X67157200Y-42305713D02*
X67109580Y-42353332D01*
X66204819Y-41115237D02*
X66204819Y-41019999D01*
X66204819Y-41019999D02*
X66252438Y-40924761D01*
X66252438Y-40924761D02*
X66300057Y-40877142D01*
X66300057Y-40877142D02*
X66395295Y-40829523D01*
X66395295Y-40829523D02*
X66585771Y-40781904D01*
X66585771Y-40781904D02*
X66823866Y-40781904D01*
X66823866Y-40781904D02*
X67014342Y-40829523D01*
X67014342Y-40829523D02*
X67109580Y-40877142D01*
X67109580Y-40877142D02*
X67157200Y-40924761D01*
X67157200Y-40924761D02*
X67204819Y-41019999D01*
X67204819Y-41019999D02*
X67204819Y-41115237D01*
X67204819Y-41115237D02*
X67157200Y-41210475D01*
X67157200Y-41210475D02*
X67109580Y-41258094D01*
X67109580Y-41258094D02*
X67014342Y-41305713D01*
X67014342Y-41305713D02*
X66823866Y-41353332D01*
X66823866Y-41353332D02*
X66585771Y-41353332D01*
X66585771Y-41353332D02*
X66395295Y-41305713D01*
X66395295Y-41305713D02*
X66300057Y-41258094D01*
X66300057Y-41258094D02*
X66252438Y-41210475D01*
X66252438Y-41210475D02*
X66204819Y-41115237D01*
D11*
X65327149Y-42341428D02*
X65089054Y-42508094D01*
X65327149Y-42627142D02*
X64827149Y-42627142D01*
X64827149Y-42627142D02*
X64827149Y-42436666D01*
X64827149Y-42436666D02*
X64850959Y-42389047D01*
X64850959Y-42389047D02*
X64874768Y-42365237D01*
X64874768Y-42365237D02*
X64922387Y-42341428D01*
X64922387Y-42341428D02*
X64993816Y-42341428D01*
X64993816Y-42341428D02*
X65041435Y-42365237D01*
X65041435Y-42365237D02*
X65065244Y-42389047D01*
X65065244Y-42389047D02*
X65089054Y-42436666D01*
X65089054Y-42436666D02*
X65089054Y-42627142D01*
X65327149Y-41865237D02*
X65327149Y-42150951D01*
X65327149Y-42008094D02*
X64827149Y-42008094D01*
X64827149Y-42008094D02*
X64898578Y-42055713D01*
X64898578Y-42055713D02*
X64946197Y-42103332D01*
X64946197Y-42103332D02*
X64970006Y-42150951D01*
X64993816Y-41436666D02*
X65327149Y-41436666D01*
X64803340Y-41555714D02*
X65160482Y-41674761D01*
X65160482Y-41674761D02*
X65160482Y-41365238D01*
D10*
X105204819Y-57305713D02*
X105204819Y-56686666D01*
X105204819Y-56686666D02*
X105585771Y-57019999D01*
X105585771Y-57019999D02*
X105585771Y-56877142D01*
X105585771Y-56877142D02*
X105633390Y-56781904D01*
X105633390Y-56781904D02*
X105681009Y-56734285D01*
X105681009Y-56734285D02*
X105776247Y-56686666D01*
X105776247Y-56686666D02*
X106014342Y-56686666D01*
X106014342Y-56686666D02*
X106109580Y-56734285D01*
X106109580Y-56734285D02*
X106157200Y-56781904D01*
X106157200Y-56781904D02*
X106204819Y-56877142D01*
X106204819Y-56877142D02*
X106204819Y-57162856D01*
X106204819Y-57162856D02*
X106157200Y-57258094D01*
X106157200Y-57258094D02*
X106109580Y-57305713D01*
X105204819Y-56353332D02*
X105204819Y-55734285D01*
X105204819Y-55734285D02*
X105585771Y-56067618D01*
X105585771Y-56067618D02*
X105585771Y-55924761D01*
X105585771Y-55924761D02*
X105633390Y-55829523D01*
X105633390Y-55829523D02*
X105681009Y-55781904D01*
X105681009Y-55781904D02*
X105776247Y-55734285D01*
X105776247Y-55734285D02*
X106014342Y-55734285D01*
X106014342Y-55734285D02*
X106109580Y-55781904D01*
X106109580Y-55781904D02*
X106157200Y-55829523D01*
X106157200Y-55829523D02*
X106204819Y-55924761D01*
X106204819Y-55924761D02*
X106204819Y-56210475D01*
X106204819Y-56210475D02*
X106157200Y-56305713D01*
X106157200Y-56305713D02*
X106109580Y-56353332D01*
X105204819Y-55115237D02*
X105204819Y-55019999D01*
X105204819Y-55019999D02*
X105252438Y-54924761D01*
X105252438Y-54924761D02*
X105300057Y-54877142D01*
X105300057Y-54877142D02*
X105395295Y-54829523D01*
X105395295Y-54829523D02*
X105585771Y-54781904D01*
X105585771Y-54781904D02*
X105823866Y-54781904D01*
X105823866Y-54781904D02*
X106014342Y-54829523D01*
X106014342Y-54829523D02*
X106109580Y-54877142D01*
X106109580Y-54877142D02*
X106157200Y-54924761D01*
X106157200Y-54924761D02*
X106204819Y-55019999D01*
X106204819Y-55019999D02*
X106204819Y-55115237D01*
X106204819Y-55115237D02*
X106157200Y-55210475D01*
X106157200Y-55210475D02*
X106109580Y-55258094D01*
X106109580Y-55258094D02*
X106014342Y-55305713D01*
X106014342Y-55305713D02*
X105823866Y-55353332D01*
X105823866Y-55353332D02*
X105585771Y-55353332D01*
X105585771Y-55353332D02*
X105395295Y-55305713D01*
X105395295Y-55305713D02*
X105300057Y-55258094D01*
X105300057Y-55258094D02*
X105252438Y-55210475D01*
X105252438Y-55210475D02*
X105204819Y-55115237D01*
D11*
X104327149Y-56341428D02*
X104089054Y-56508094D01*
X104327149Y-56627142D02*
X103827149Y-56627142D01*
X103827149Y-56627142D02*
X103827149Y-56436666D01*
X103827149Y-56436666D02*
X103850959Y-56389047D01*
X103850959Y-56389047D02*
X103874768Y-56365237D01*
X103874768Y-56365237D02*
X103922387Y-56341428D01*
X103922387Y-56341428D02*
X103993816Y-56341428D01*
X103993816Y-56341428D02*
X104041435Y-56365237D01*
X104041435Y-56365237D02*
X104065244Y-56389047D01*
X104065244Y-56389047D02*
X104089054Y-56436666D01*
X104089054Y-56436666D02*
X104089054Y-56627142D01*
X104327149Y-55865237D02*
X104327149Y-56150951D01*
X104327149Y-56008094D02*
X103827149Y-56008094D01*
X103827149Y-56008094D02*
X103898578Y-56055713D01*
X103898578Y-56055713D02*
X103946197Y-56103332D01*
X103946197Y-56103332D02*
X103970006Y-56150951D01*
X103874768Y-55674761D02*
X103850959Y-55650952D01*
X103850959Y-55650952D02*
X103827149Y-55603333D01*
X103827149Y-55603333D02*
X103827149Y-55484285D01*
X103827149Y-55484285D02*
X103850959Y-55436666D01*
X103850959Y-55436666D02*
X103874768Y-55412857D01*
X103874768Y-55412857D02*
X103922387Y-55389047D01*
X103922387Y-55389047D02*
X103970006Y-55389047D01*
X103970006Y-55389047D02*
X104041435Y-55412857D01*
X104041435Y-55412857D02*
X104327149Y-55698571D01*
X104327149Y-55698571D02*
X104327149Y-55389047D01*
D10*
X109204819Y-53615238D02*
X109204819Y-54186666D01*
X109204819Y-53900952D02*
X108204819Y-53900952D01*
X108204819Y-53900952D02*
X108347676Y-53996190D01*
X108347676Y-53996190D02*
X108442914Y-54091428D01*
X108442914Y-54091428D02*
X108490533Y-54186666D01*
X108204819Y-52996190D02*
X108204819Y-52900952D01*
X108204819Y-52900952D02*
X108252438Y-52805714D01*
X108252438Y-52805714D02*
X108300057Y-52758095D01*
X108300057Y-52758095D02*
X108395295Y-52710476D01*
X108395295Y-52710476D02*
X108585771Y-52662857D01*
X108585771Y-52662857D02*
X108823866Y-52662857D01*
X108823866Y-52662857D02*
X109014342Y-52710476D01*
X109014342Y-52710476D02*
X109109580Y-52758095D01*
X109109580Y-52758095D02*
X109157200Y-52805714D01*
X109157200Y-52805714D02*
X109204819Y-52900952D01*
X109204819Y-52900952D02*
X109204819Y-52996190D01*
X109204819Y-52996190D02*
X109157200Y-53091428D01*
X109157200Y-53091428D02*
X109109580Y-53139047D01*
X109109580Y-53139047D02*
X109014342Y-53186666D01*
X109014342Y-53186666D02*
X108823866Y-53234285D01*
X108823866Y-53234285D02*
X108585771Y-53234285D01*
X108585771Y-53234285D02*
X108395295Y-53186666D01*
X108395295Y-53186666D02*
X108300057Y-53139047D01*
X108300057Y-53139047D02*
X108252438Y-53091428D01*
X108252438Y-53091428D02*
X108204819Y-52996190D01*
X109204819Y-52234285D02*
X108204819Y-52234285D01*
X108823866Y-52139047D02*
X109204819Y-51853333D01*
X108538152Y-51853333D02*
X108919104Y-52234285D01*
D11*
X107327149Y-53103333D02*
X107089054Y-53269999D01*
X107327149Y-53389047D02*
X106827149Y-53389047D01*
X106827149Y-53389047D02*
X106827149Y-53198571D01*
X106827149Y-53198571D02*
X106850959Y-53150952D01*
X106850959Y-53150952D02*
X106874768Y-53127142D01*
X106874768Y-53127142D02*
X106922387Y-53103333D01*
X106922387Y-53103333D02*
X106993816Y-53103333D01*
X106993816Y-53103333D02*
X107041435Y-53127142D01*
X107041435Y-53127142D02*
X107065244Y-53150952D01*
X107065244Y-53150952D02*
X107089054Y-53198571D01*
X107089054Y-53198571D02*
X107089054Y-53389047D01*
X107041435Y-52817618D02*
X107017625Y-52865237D01*
X107017625Y-52865237D02*
X106993816Y-52889047D01*
X106993816Y-52889047D02*
X106946197Y-52912856D01*
X106946197Y-52912856D02*
X106922387Y-52912856D01*
X106922387Y-52912856D02*
X106874768Y-52889047D01*
X106874768Y-52889047D02*
X106850959Y-52865237D01*
X106850959Y-52865237D02*
X106827149Y-52817618D01*
X106827149Y-52817618D02*
X106827149Y-52722380D01*
X106827149Y-52722380D02*
X106850959Y-52674761D01*
X106850959Y-52674761D02*
X106874768Y-52650952D01*
X106874768Y-52650952D02*
X106922387Y-52627142D01*
X106922387Y-52627142D02*
X106946197Y-52627142D01*
X106946197Y-52627142D02*
X106993816Y-52650952D01*
X106993816Y-52650952D02*
X107017625Y-52674761D01*
X107017625Y-52674761D02*
X107041435Y-52722380D01*
X107041435Y-52722380D02*
X107041435Y-52817618D01*
X107041435Y-52817618D02*
X107065244Y-52865237D01*
X107065244Y-52865237D02*
X107089054Y-52889047D01*
X107089054Y-52889047D02*
X107136673Y-52912856D01*
X107136673Y-52912856D02*
X107231911Y-52912856D01*
X107231911Y-52912856D02*
X107279530Y-52889047D01*
X107279530Y-52889047D02*
X107303340Y-52865237D01*
X107303340Y-52865237D02*
X107327149Y-52817618D01*
X107327149Y-52817618D02*
X107327149Y-52722380D01*
X107327149Y-52722380D02*
X107303340Y-52674761D01*
X107303340Y-52674761D02*
X107279530Y-52650952D01*
X107279530Y-52650952D02*
X107231911Y-52627142D01*
X107231911Y-52627142D02*
X107136673Y-52627142D01*
X107136673Y-52627142D02*
X107089054Y-52650952D01*
X107089054Y-52650952D02*
X107065244Y-52674761D01*
X107065244Y-52674761D02*
X107041435Y-52722380D01*
D13*
%TO.C,U2*%
X49735000Y-44750000D02*
X50735000Y-43750000D01*
X49735000Y-48830000D02*
X49735000Y-44750000D01*
X50735000Y-43750000D02*
X56085000Y-43750000D01*
X56085000Y-43750000D02*
X56085000Y-48830000D01*
X56085000Y-48830000D02*
X49735000Y-48830000D01*
%TO.C,R11*%
X87475000Y-57020000D02*
X87475000Y-55020000D01*
X88725000Y-57020000D02*
X87475000Y-57020000D01*
X87475000Y-55020000D02*
X88725000Y-55020000D01*
X88725000Y-55020000D02*
X88725000Y-57020000D01*
%TO.C,R2*%
X67475000Y-49020000D02*
X67475000Y-47020000D01*
X68725000Y-49020000D02*
X67475000Y-49020000D01*
X67475000Y-47020000D02*
X68725000Y-47020000D01*
X68725000Y-47020000D02*
X68725000Y-49020000D01*
%TO.C,R3*%
X83475000Y-49020000D02*
X83475000Y-47020000D01*
X84725000Y-49020000D02*
X83475000Y-49020000D01*
X83475000Y-47020000D02*
X84725000Y-47020000D01*
X84725000Y-47020000D02*
X84725000Y-49020000D01*
%TO.C,U3*%
X65735000Y-44750000D02*
X66735000Y-43750000D01*
X65735000Y-48830000D02*
X65735000Y-44750000D01*
X66735000Y-43750000D02*
X72085000Y-43750000D01*
X72085000Y-43750000D02*
X72085000Y-48830000D01*
X72085000Y-48830000D02*
X65735000Y-48830000D01*
%TO.C,R13*%
X48475000Y-43020000D02*
X48475000Y-41020000D01*
X49725000Y-43020000D02*
X48475000Y-43020000D01*
X48475000Y-41020000D02*
X49725000Y-41020000D01*
X49725000Y-41020000D02*
X49725000Y-43020000D01*
%TO.C,Q3*%
X88450000Y-49895000D02*
X88775000Y-49570000D01*
X88450000Y-52470000D02*
X88450000Y-49895000D01*
X88775000Y-49570000D02*
X89750000Y-49570000D01*
X89750000Y-49570000D02*
X89750000Y-52470000D01*
X89750000Y-52470000D02*
X88450000Y-52470000D01*
%TO.C,C1*%
X110316028Y-44346500D02*
X110946028Y-44346500D01*
X110631028Y-44031500D02*
X110631028Y-44661500D01*
X116160000Y-45720000D02*
G75*
G03*
X109860000Y-45720000I-3150000J0D01*
G01*
X109860000Y-45720000D02*
G75*
G03*
X116160000Y-45720000I3150000J0D01*
G01*
%TO.C,LED3*%
X85800000Y-57020000D02*
X86700000Y-57020000D01*
X86700000Y-57020000D02*
X86700000Y-55020000D01*
X85500000Y-56720000D02*
X85800000Y-57020000D01*
X85500000Y-55020000D02*
X85500000Y-56720000D01*
X86700000Y-55020000D02*
X85500000Y-55020000D01*
%TO.C,LED4*%
X101800000Y-57020000D02*
X102700000Y-57020000D01*
X102700000Y-57020000D02*
X102700000Y-55020000D01*
X101500000Y-56720000D02*
X101800000Y-57020000D01*
X101500000Y-55020000D02*
X101500000Y-56720000D01*
X102700000Y-55020000D02*
X101500000Y-55020000D01*
%TO.C,C2*%
X77100000Y-73024999D02*
X79100000Y-73024999D01*
X77100000Y-74274999D02*
X77100000Y-73024999D01*
X79100000Y-73024999D02*
X79100000Y-74274999D01*
X79100000Y-74274999D02*
X77100000Y-74274999D01*
%TO.C,LED2*%
X69800000Y-57020000D02*
X70700000Y-57020000D01*
X70700000Y-57020000D02*
X70700000Y-55020000D01*
X69500000Y-56720000D02*
X69800000Y-57020000D01*
X69500000Y-55020000D02*
X69500000Y-56720000D01*
X70700000Y-55020000D02*
X69500000Y-55020000D01*
%TO.C,R10*%
X71475000Y-57020000D02*
X71475000Y-55020000D01*
X72725000Y-57020000D02*
X71475000Y-57020000D01*
X71475000Y-55020000D02*
X72725000Y-55020000D01*
X72725000Y-55020000D02*
X72725000Y-57020000D01*
%TO.C,LED1*%
X53800000Y-57020000D02*
X54700000Y-57020000D01*
X54700000Y-57020000D02*
X54700000Y-55020000D01*
X53500000Y-56720000D02*
X53800000Y-57020000D01*
X53500000Y-55020000D02*
X53500000Y-56720000D01*
X54700000Y-55020000D02*
X53500000Y-55020000D01*
%TO.C,R16*%
X96475000Y-43020000D02*
X96475000Y-41020000D01*
X97725000Y-43020000D02*
X96475000Y-43020000D01*
X96475000Y-41020000D02*
X97725000Y-41020000D01*
X97725000Y-41020000D02*
X97725000Y-43020000D01*
%TO.C,R4*%
X99475000Y-49020000D02*
X99475000Y-47020000D01*
X100725000Y-49020000D02*
X99475000Y-49020000D01*
X99475000Y-47020000D02*
X100725000Y-47020000D01*
X100725000Y-47020000D02*
X100725000Y-49020000D01*
%TO.C,J1*%
X57150000Y-65400000D02*
X57150000Y-63495000D01*
X107950000Y-65400000D02*
X57150000Y-65400000D01*
X57150000Y-63495000D02*
X57785000Y-62860000D01*
X57785000Y-62860000D02*
X107950000Y-62860000D01*
X107950000Y-62860000D02*
X107950000Y-65400000D01*
%TO.C,Q2*%
X72450000Y-49895000D02*
X72775000Y-49570000D01*
X72450000Y-52470000D02*
X72450000Y-49895000D01*
X72775000Y-49570000D02*
X73750000Y-49570000D01*
X73750000Y-49570000D02*
X73750000Y-52470000D01*
X73750000Y-52470000D02*
X72450000Y-52470000D01*
%TO.C,Q4*%
X104450000Y-49895000D02*
X104775000Y-49570000D01*
X104450000Y-52470000D02*
X104450000Y-49895000D01*
X104775000Y-49570000D02*
X105750000Y-49570000D01*
X105750000Y-49570000D02*
X105750000Y-52470000D01*
X105750000Y-52470000D02*
X104450000Y-52470000D01*
%TO.C,Q1*%
X56450000Y-49895000D02*
X56775000Y-49570000D01*
X56450000Y-52470000D02*
X56450000Y-49895000D01*
X56775000Y-49570000D02*
X57750000Y-49570000D01*
X57750000Y-49570000D02*
X57750000Y-52470000D01*
X57750000Y-52470000D02*
X56450000Y-52470000D01*
%TO.C,R7*%
X90475000Y-54020000D02*
X90475000Y-52020000D01*
X91725000Y-54020000D02*
X90475000Y-54020000D01*
X90475000Y-52020000D02*
X91725000Y-52020000D01*
X91725000Y-52020000D02*
X91725000Y-54020000D01*
%TO.C,R6*%
X74475000Y-54020000D02*
X74475000Y-52020000D01*
X75725000Y-54020000D02*
X74475000Y-54020000D01*
X74475000Y-52020000D02*
X75725000Y-52020000D01*
X75725000Y-52020000D02*
X75725000Y-54020000D01*
%TO.C,R15*%
X80475000Y-43020000D02*
X80475000Y-41020000D01*
X81725000Y-43020000D02*
X80475000Y-43020000D01*
X80475000Y-41020000D02*
X81725000Y-41020000D01*
X81725000Y-41020000D02*
X81725000Y-43020000D01*
%TO.C,J3*%
X77465000Y-38290000D02*
X76830000Y-37655000D01*
X92070000Y-38290000D02*
X77465000Y-38290000D01*
X76830000Y-37655000D02*
X76830000Y-35750000D01*
X76830000Y-35750000D02*
X92070000Y-35750000D01*
X92070000Y-35750000D02*
X92070000Y-38290000D01*
%TO.C,U5*%
X97735000Y-44750000D02*
X98735000Y-43750000D01*
X97735000Y-48830000D02*
X97735000Y-44750000D01*
X98735000Y-43750000D02*
X104085000Y-43750000D01*
X104085000Y-43750000D02*
X104085000Y-48830000D01*
X104085000Y-48830000D02*
X97735000Y-48830000D01*
%TO.C,J7*%
X108830000Y-57385000D02*
X109465000Y-56750000D01*
X108830000Y-61830000D02*
X108830000Y-57385000D01*
X109465000Y-56750000D02*
X111370000Y-56750000D01*
X111370000Y-56750000D02*
X111370000Y-61830000D01*
X111370000Y-61830000D02*
X108830000Y-61830000D01*
%TO.C,J2*%
X57150000Y-83180000D02*
X57150000Y-81275000D01*
X107950000Y-83180000D02*
X57150000Y-83180000D01*
X57150000Y-81275000D02*
X57785000Y-80640000D01*
X57785000Y-80640000D02*
X107950000Y-80640000D01*
X107950000Y-80640000D02*
X107950000Y-83180000D01*
%TO.C,U4*%
X81735000Y-44750000D02*
X82735000Y-43750000D01*
X81735000Y-48830000D02*
X81735000Y-44750000D01*
X82735000Y-43750000D02*
X88085000Y-43750000D01*
X88085000Y-43750000D02*
X88085000Y-48830000D01*
X88085000Y-48830000D02*
X81735000Y-48830000D01*
%TO.C,R9*%
X55475000Y-57020000D02*
X55475000Y-55020000D01*
X56725000Y-57020000D02*
X55475000Y-57020000D01*
X55475000Y-55020000D02*
X56725000Y-55020000D01*
X56725000Y-55020000D02*
X56725000Y-57020000D01*
%TO.C,R1*%
X51475000Y-49020000D02*
X51475000Y-47020000D01*
X52725000Y-49020000D02*
X51475000Y-49020000D01*
X51475000Y-47020000D02*
X52725000Y-47020000D01*
X52725000Y-47020000D02*
X52725000Y-49020000D01*
%TO.C,R5*%
X58475000Y-54020000D02*
X58475000Y-52020000D01*
X59725000Y-54020000D02*
X58475000Y-54020000D01*
X58475000Y-52020000D02*
X59725000Y-52020000D01*
X59725000Y-52020000D02*
X59725000Y-54020000D01*
%TO.C,R14*%
X64475000Y-43020000D02*
X64475000Y-41020000D01*
X65725000Y-43020000D02*
X64475000Y-43020000D01*
X64475000Y-41020000D02*
X65725000Y-41020000D01*
X65725000Y-41020000D02*
X65725000Y-43020000D01*
%TO.C,R12*%
X103475000Y-57020000D02*
X103475000Y-55020000D01*
X104725000Y-57020000D02*
X103475000Y-57020000D01*
X103475000Y-55020000D02*
X104725000Y-55020000D01*
X104725000Y-55020000D02*
X104725000Y-57020000D01*
%TO.C,R8*%
X106475000Y-54020000D02*
X106475000Y-52020000D01*
X107725000Y-54020000D02*
X106475000Y-54020000D01*
X106475000Y-52020000D02*
X107725000Y-52020000D01*
X107725000Y-52020000D02*
X107725000Y-54020000D01*
%TD*%
M02*
