M48
; DRILL file {KiCad 7.0.11+dfsg-1build4} date 2026年02月08日 15時34分15秒
; FORMAT={-:-/ absolute / metric / decimal}
; #@! TF.CreationDate,2026-02-08T15:34:15+09:00
; #@! TF.GenerationSoftware,Kicad,Pcbnew,7.0.11+dfsg-1build4
; #@! TF.FileFunction,Plated,1,2,PTH
FMAT,2
METRIC
; #@! TA.AperFunction,Plated,PTH,ComponentDrill
T1C0.800
; #@! TA.AperFunction,Plated,PTH,ComponentDrill
T2C1.000
%
G90
G05
T1
X64.04Y-36.62
X64.04Y-39.16
X71.66Y-36.62
X71.66Y-39.16
X80.04Y-36.62
X80.04Y-39.16
X87.66Y-36.62
X87.66Y-39.16
X96.04Y-36.62
X96.04Y-39.16
X103.66Y-36.62
X103.66Y-39.16
X112.04Y-36.62
X112.04Y-39.16
X118.04Y-49.62
X119.66Y-36.62
X119.66Y-39.16
X120.54Y-49.62
T2
X71.12Y-55.88
X71.12Y-71.12
X73.66Y-55.88
X73.66Y-71.12
X76.2Y-55.88
X76.2Y-71.12
X78.74Y-55.88
X78.74Y-71.12
X81.28Y-55.88
X81.28Y-71.12
X83.82Y-55.88
X83.82Y-71.12
X86.36Y-55.88
X86.36Y-71.12
X88.9Y-55.88
X88.9Y-71.12
X91.44Y-55.88
X91.44Y-71.12
X93.04Y-28.62
X93.98Y-55.88
X93.98Y-71.12
X95.58Y-28.62
X96.52Y-55.88
X96.52Y-71.12
X98.12Y-28.62
X99.06Y-55.88
X99.06Y-71.12
X100.66Y-28.62
X101.6Y-55.88
X101.6Y-71.12
X103.2Y-28.62
X104.14Y-55.88
X104.14Y-71.12
X105.74Y-28.62
X106.68Y-55.88
X106.68Y-71.12
X109.22Y-55.88
X109.22Y-71.12
X111.76Y-55.88
X111.76Y-71.12
X114.3Y-55.88
X114.3Y-71.12
X116.84Y-55.88
X116.84Y-71.12
X119.38Y-55.88
X119.38Y-71.12
X127.0Y-49.62
X127.0Y-52.16
M30
