M48
; DRILL file {KiCad 7.0.11+dfsg-1build4} date 2026年02月12日 23時01分59秒
; FORMAT={-:-/ absolute / metric / decimal}
; #@! TF.CreationDate,2026-02-12T23:01:59+09:00
; #@! TF.GenerationSoftware,Kicad,Pcbnew,7.0.11+dfsg-1build4
; #@! TF.FileFunction,MixedPlating,1,2
FMAT,2
METRIC
; #@! TA.AperFunction,Plated,PTH,ViaDrill
T1C0.300
; #@! TA.AperFunction,Plated,PTH,ComponentDrill
T2C0.800
; #@! TA.AperFunction,Plated,PTH,ComponentDrill
T3C1.000
; #@! TA.AperFunction,NonPlated,NPTH,ComponentDrill
T4C3.200
%
G90
G05
T1
X52.911Y-43.597
X58.42Y-50.8
X58.42Y-50.8
X61.816Y-43.518
X66.04Y-55.88
X71.12Y-53.34
X73.66Y-50.8
X73.66Y-55.88
X78.826Y-78.031
X85.057Y-62.367
X109.22Y-50.8
T2
X49.1Y-45.02
X49.1Y-47.56
X56.72Y-45.02
X56.72Y-47.56
X65.1Y-45.02
X65.1Y-47.56
X72.72Y-45.02
X72.72Y-47.56
X81.1Y-45.02
X81.1Y-47.56
X88.72Y-45.02
X88.72Y-47.56
X97.1Y-45.02
X97.1Y-47.56
X104.72Y-45.02
X104.72Y-47.56
X111.76Y-45.72
X114.26Y-45.72
T3
X58.42Y-64.13
X58.42Y-81.91
X60.96Y-64.13
X60.96Y-81.91
X63.5Y-64.13
X63.5Y-81.91
X66.04Y-64.13
X66.04Y-81.91
X68.58Y-64.13
X68.58Y-81.91
X71.12Y-64.13
X71.12Y-81.91
X73.66Y-64.13
X73.66Y-81.91
X76.2Y-64.13
X76.2Y-81.91
X78.1Y-37.02
X78.74Y-64.13
X78.74Y-81.91
X80.64Y-37.02
X81.28Y-64.13
X81.28Y-81.91
X83.18Y-37.02
X83.82Y-64.13
X83.82Y-81.91
X85.72Y-37.02
X86.36Y-64.13
X86.36Y-81.91
X88.26Y-37.02
X88.9Y-64.13
X88.9Y-81.91
X90.8Y-37.02
X91.44Y-64.13
X91.44Y-81.91
X93.98Y-64.13
X93.98Y-81.91
X96.52Y-64.13
X96.52Y-81.91
X99.06Y-64.13
X99.06Y-81.91
X101.6Y-64.13
X101.6Y-81.91
X104.14Y-64.13
X104.14Y-81.91
X106.68Y-64.13
X106.68Y-81.91
X110.1Y-58.02
X110.1Y-60.56
T4
X41.6Y-36.52
X41.6Y-80.15
X114.6Y-36.52
X114.6Y-80.15
M30
