%TF.GenerationSoftware,KiCad,Pcbnew,7.0.11+dfsg-1build4*%
%TF.CreationDate,2026-02-08T15:34:15+09:00*%
%TF.ProjectId,actuator_board_v3,61637475-6174-46f7-925f-626f6172645f,rev?*%
%TF.SameCoordinates,Original*%
%TF.FileFunction,Drillmap*%
%TF.FilePolarity,Positive*%
%FSLAX45Y45*%
G04 Gerber Fmt 4.5, Leading zero omitted, Abs format (unit mm)*
G04 Created by KiCad (PCBNEW 7.0.11+dfsg-1build4) date 2026-02-08 15:34:15*
%MOMM*%
%LPD*%
G01*
G04 APERTURE LIST*
%ADD10C,0.100000*%
%ADD11C,0.200000*%
G04 APERTURE END LIST*
D10*
X5304000Y-2462000D02*
X13304000Y-2462000D01*
X13304000Y-7462000D01*
X5304000Y-7462000D01*
X5304000Y-2462000D01*
D11*
D10*
X6364000Y-3622000D02*
X6444000Y-3702000D01*
X6444000Y-3622000D02*
X6364000Y-3702000D01*
X6364000Y-3876000D02*
X6444000Y-3956000D01*
X6444000Y-3876000D02*
X6364000Y-3956000D01*
X7126000Y-3622000D02*
X7206000Y-3702000D01*
X7206000Y-3622000D02*
X7126000Y-3702000D01*
X7126000Y-3876000D02*
X7206000Y-3956000D01*
X7206000Y-3876000D02*
X7126000Y-3956000D01*
X7964000Y-3622000D02*
X8044000Y-3702000D01*
X8044000Y-3622000D02*
X7964000Y-3702000D01*
X7964000Y-3876000D02*
X8044000Y-3956000D01*
X8044000Y-3876000D02*
X7964000Y-3956000D01*
X8726000Y-3622000D02*
X8806000Y-3702000D01*
X8806000Y-3622000D02*
X8726000Y-3702000D01*
X8726000Y-3876000D02*
X8806000Y-3956000D01*
X8806000Y-3876000D02*
X8726000Y-3956000D01*
X9564000Y-3622000D02*
X9644000Y-3702000D01*
X9644000Y-3622000D02*
X9564000Y-3702000D01*
X9564000Y-3876000D02*
X9644000Y-3956000D01*
X9644000Y-3876000D02*
X9564000Y-3956000D01*
X10326000Y-3622000D02*
X10406000Y-3702000D01*
X10406000Y-3622000D02*
X10326000Y-3702000D01*
X10326000Y-3876000D02*
X10406000Y-3956000D01*
X10406000Y-3876000D02*
X10326000Y-3956000D01*
X11164000Y-3622000D02*
X11244000Y-3702000D01*
X11244000Y-3622000D02*
X11164000Y-3702000D01*
X11164000Y-3876000D02*
X11244000Y-3956000D01*
X11244000Y-3876000D02*
X11164000Y-3956000D01*
X11764000Y-4922000D02*
X11844000Y-5002000D01*
X11844000Y-4922000D02*
X11764000Y-5002000D01*
X11926000Y-3622000D02*
X12006000Y-3702000D01*
X12006000Y-3622000D02*
X11926000Y-3702000D01*
X11926000Y-3876000D02*
X12006000Y-3956000D01*
X12006000Y-3876000D02*
X11926000Y-3956000D01*
X12014000Y-4922000D02*
X12094000Y-5002000D01*
X12094000Y-4922000D02*
X12014000Y-5002000D01*
X7162000Y-5588000D02*
G75*
G03*
X7062000Y-5588000I-50000J0D01*
G01*
X7062000Y-5588000D02*
G75*
G03*
X7162000Y-5588000I50000J0D01*
G01*
X7162000Y-7112000D02*
G75*
G03*
X7062000Y-7112000I-50000J0D01*
G01*
X7062000Y-7112000D02*
G75*
G03*
X7162000Y-7112000I50000J0D01*
G01*
X7416000Y-5588000D02*
G75*
G03*
X7316000Y-5588000I-50000J0D01*
G01*
X7316000Y-5588000D02*
G75*
G03*
X7416000Y-5588000I50000J0D01*
G01*
X7416000Y-7112000D02*
G75*
G03*
X7316000Y-7112000I-50000J0D01*
G01*
X7316000Y-7112000D02*
G75*
G03*
X7416000Y-7112000I50000J0D01*
G01*
X7670000Y-5588000D02*
G75*
G03*
X7570000Y-5588000I-50000J0D01*
G01*
X7570000Y-5588000D02*
G75*
G03*
X7670000Y-5588000I50000J0D01*
G01*
X7670000Y-7112000D02*
G75*
G03*
X7570000Y-7112000I-50000J0D01*
G01*
X7570000Y-7112000D02*
G75*
G03*
X7670000Y-7112000I50000J0D01*
G01*
X7924000Y-5588000D02*
G75*
G03*
X7824000Y-5588000I-50000J0D01*
G01*
X7824000Y-5588000D02*
G75*
G03*
X7924000Y-5588000I50000J0D01*
G01*
X7924000Y-7112000D02*
G75*
G03*
X7824000Y-7112000I-50000J0D01*
G01*
X7824000Y-7112000D02*
G75*
G03*
X7924000Y-7112000I50000J0D01*
G01*
X8178000Y-5588000D02*
G75*
G03*
X8078000Y-5588000I-50000J0D01*
G01*
X8078000Y-5588000D02*
G75*
G03*
X8178000Y-5588000I50000J0D01*
G01*
X8178000Y-7112000D02*
G75*
G03*
X8078000Y-7112000I-50000J0D01*
G01*
X8078000Y-7112000D02*
G75*
G03*
X8178000Y-7112000I50000J0D01*
G01*
X8432000Y-5588000D02*
G75*
G03*
X8332000Y-5588000I-50000J0D01*
G01*
X8332000Y-5588000D02*
G75*
G03*
X8432000Y-5588000I50000J0D01*
G01*
X8432000Y-7112000D02*
G75*
G03*
X8332000Y-7112000I-50000J0D01*
G01*
X8332000Y-7112000D02*
G75*
G03*
X8432000Y-7112000I50000J0D01*
G01*
X8686000Y-5588000D02*
G75*
G03*
X8586000Y-5588000I-50000J0D01*
G01*
X8586000Y-5588000D02*
G75*
G03*
X8686000Y-5588000I50000J0D01*
G01*
X8686000Y-7112000D02*
G75*
G03*
X8586000Y-7112000I-50000J0D01*
G01*
X8586000Y-7112000D02*
G75*
G03*
X8686000Y-7112000I50000J0D01*
G01*
X8940000Y-5588000D02*
G75*
G03*
X8840000Y-5588000I-50000J0D01*
G01*
X8840000Y-5588000D02*
G75*
G03*
X8940000Y-5588000I50000J0D01*
G01*
X8940000Y-7112000D02*
G75*
G03*
X8840000Y-7112000I-50000J0D01*
G01*
X8840000Y-7112000D02*
G75*
G03*
X8940000Y-7112000I50000J0D01*
G01*
X9194000Y-5588000D02*
G75*
G03*
X9094000Y-5588000I-50000J0D01*
G01*
X9094000Y-5588000D02*
G75*
G03*
X9194000Y-5588000I50000J0D01*
G01*
X9194000Y-7112000D02*
G75*
G03*
X9094000Y-7112000I-50000J0D01*
G01*
X9094000Y-7112000D02*
G75*
G03*
X9194000Y-7112000I50000J0D01*
G01*
X9354000Y-2862000D02*
G75*
G03*
X9254000Y-2862000I-50000J0D01*
G01*
X9254000Y-2862000D02*
G75*
G03*
X9354000Y-2862000I50000J0D01*
G01*
X9448000Y-5588000D02*
G75*
G03*
X9348000Y-5588000I-50000J0D01*
G01*
X9348000Y-5588000D02*
G75*
G03*
X9448000Y-5588000I50000J0D01*
G01*
X9448000Y-7112000D02*
G75*
G03*
X9348000Y-7112000I-50000J0D01*
G01*
X9348000Y-7112000D02*
G75*
G03*
X9448000Y-7112000I50000J0D01*
G01*
X9608000Y-2862000D02*
G75*
G03*
X9508000Y-2862000I-50000J0D01*
G01*
X9508000Y-2862000D02*
G75*
G03*
X9608000Y-2862000I50000J0D01*
G01*
X9702000Y-5588000D02*
G75*
G03*
X9602000Y-5588000I-50000J0D01*
G01*
X9602000Y-5588000D02*
G75*
G03*
X9702000Y-5588000I50000J0D01*
G01*
X9702000Y-7112000D02*
G75*
G03*
X9602000Y-7112000I-50000J0D01*
G01*
X9602000Y-7112000D02*
G75*
G03*
X9702000Y-7112000I50000J0D01*
G01*
X9862000Y-2862000D02*
G75*
G03*
X9762000Y-2862000I-50000J0D01*
G01*
X9762000Y-2862000D02*
G75*
G03*
X9862000Y-2862000I50000J0D01*
G01*
X9956000Y-5588000D02*
G75*
G03*
X9856000Y-5588000I-50000J0D01*
G01*
X9856000Y-5588000D02*
G75*
G03*
X9956000Y-5588000I50000J0D01*
G01*
X9956000Y-7112000D02*
G75*
G03*
X9856000Y-7112000I-50000J0D01*
G01*
X9856000Y-7112000D02*
G75*
G03*
X9956000Y-7112000I50000J0D01*
G01*
X10116000Y-2862000D02*
G75*
G03*
X10016000Y-2862000I-50000J0D01*
G01*
X10016000Y-2862000D02*
G75*
G03*
X10116000Y-2862000I50000J0D01*
G01*
X10210000Y-5588000D02*
G75*
G03*
X10110000Y-5588000I-50000J0D01*
G01*
X10110000Y-5588000D02*
G75*
G03*
X10210000Y-5588000I50000J0D01*
G01*
X10210000Y-7112000D02*
G75*
G03*
X10110000Y-7112000I-50000J0D01*
G01*
X10110000Y-7112000D02*
G75*
G03*
X10210000Y-7112000I50000J0D01*
G01*
X10370000Y-2862000D02*
G75*
G03*
X10270000Y-2862000I-50000J0D01*
G01*
X10270000Y-2862000D02*
G75*
G03*
X10370000Y-2862000I50000J0D01*
G01*
X10464000Y-5588000D02*
G75*
G03*
X10364000Y-5588000I-50000J0D01*
G01*
X10364000Y-5588000D02*
G75*
G03*
X10464000Y-5588000I50000J0D01*
G01*
X10464000Y-7112000D02*
G75*
G03*
X10364000Y-7112000I-50000J0D01*
G01*
X10364000Y-7112000D02*
G75*
G03*
X10464000Y-7112000I50000J0D01*
G01*
X10624000Y-2862000D02*
G75*
G03*
X10524000Y-2862000I-50000J0D01*
G01*
X10524000Y-2862000D02*
G75*
G03*
X10624000Y-2862000I50000J0D01*
G01*
X10718000Y-5588000D02*
G75*
G03*
X10618000Y-5588000I-50000J0D01*
G01*
X10618000Y-5588000D02*
G75*
G03*
X10718000Y-5588000I50000J0D01*
G01*
X10718000Y-7112000D02*
G75*
G03*
X10618000Y-7112000I-50000J0D01*
G01*
X10618000Y-7112000D02*
G75*
G03*
X10718000Y-7112000I50000J0D01*
G01*
X10972000Y-5588000D02*
G75*
G03*
X10872000Y-5588000I-50000J0D01*
G01*
X10872000Y-5588000D02*
G75*
G03*
X10972000Y-5588000I50000J0D01*
G01*
X10972000Y-7112000D02*
G75*
G03*
X10872000Y-7112000I-50000J0D01*
G01*
X10872000Y-7112000D02*
G75*
G03*
X10972000Y-7112000I50000J0D01*
G01*
X11226000Y-5588000D02*
G75*
G03*
X11126000Y-5588000I-50000J0D01*
G01*
X11126000Y-5588000D02*
G75*
G03*
X11226000Y-5588000I50000J0D01*
G01*
X11226000Y-7112000D02*
G75*
G03*
X11126000Y-7112000I-50000J0D01*
G01*
X11126000Y-7112000D02*
G75*
G03*
X11226000Y-7112000I50000J0D01*
G01*
X11480000Y-5588000D02*
G75*
G03*
X11380000Y-5588000I-50000J0D01*
G01*
X11380000Y-5588000D02*
G75*
G03*
X11480000Y-5588000I50000J0D01*
G01*
X11480000Y-7112000D02*
G75*
G03*
X11380000Y-7112000I-50000J0D01*
G01*
X11380000Y-7112000D02*
G75*
G03*
X11480000Y-7112000I50000J0D01*
G01*
X11734000Y-5588000D02*
G75*
G03*
X11634000Y-5588000I-50000J0D01*
G01*
X11634000Y-5588000D02*
G75*
G03*
X11734000Y-5588000I50000J0D01*
G01*
X11734000Y-7112000D02*
G75*
G03*
X11634000Y-7112000I-50000J0D01*
G01*
X11634000Y-7112000D02*
G75*
G03*
X11734000Y-7112000I50000J0D01*
G01*
X11988000Y-5588000D02*
G75*
G03*
X11888000Y-5588000I-50000J0D01*
G01*
X11888000Y-5588000D02*
G75*
G03*
X11988000Y-5588000I50000J0D01*
G01*
X11988000Y-7112000D02*
G75*
G03*
X11888000Y-7112000I-50000J0D01*
G01*
X11888000Y-7112000D02*
G75*
G03*
X11988000Y-7112000I50000J0D01*
G01*
X12750000Y-4962000D02*
G75*
G03*
X12650000Y-4962000I-50000J0D01*
G01*
X12650000Y-4962000D02*
G75*
G03*
X12750000Y-4962000I50000J0D01*
G01*
X12750000Y-5216000D02*
G75*
G03*
X12650000Y-5216000I-50000J0D01*
G01*
X12650000Y-5216000D02*
G75*
G03*
X12750000Y-5216000I50000J0D01*
G01*
D11*
X5559777Y-7778484D02*
X5559777Y-7578484D01*
X5559777Y-7578484D02*
X5607396Y-7578484D01*
X5607396Y-7578484D02*
X5635967Y-7588008D01*
X5635967Y-7588008D02*
X5655015Y-7607055D01*
X5655015Y-7607055D02*
X5664539Y-7626103D01*
X5664539Y-7626103D02*
X5674062Y-7664198D01*
X5674062Y-7664198D02*
X5674062Y-7692769D01*
X5674062Y-7692769D02*
X5664539Y-7730865D01*
X5664539Y-7730865D02*
X5655015Y-7749912D01*
X5655015Y-7749912D02*
X5635967Y-7768960D01*
X5635967Y-7768960D02*
X5607396Y-7778484D01*
X5607396Y-7778484D02*
X5559777Y-7778484D01*
X5759777Y-7778484D02*
X5759777Y-7645150D01*
X5759777Y-7683246D02*
X5769301Y-7664198D01*
X5769301Y-7664198D02*
X5778824Y-7654674D01*
X5778824Y-7654674D02*
X5797872Y-7645150D01*
X5797872Y-7645150D02*
X5816920Y-7645150D01*
X5883586Y-7778484D02*
X5883586Y-7645150D01*
X5883586Y-7578484D02*
X5874062Y-7588008D01*
X5874062Y-7588008D02*
X5883586Y-7597531D01*
X5883586Y-7597531D02*
X5893110Y-7588008D01*
X5893110Y-7588008D02*
X5883586Y-7578484D01*
X5883586Y-7578484D02*
X5883586Y-7597531D01*
X6007396Y-7778484D02*
X5988348Y-7768960D01*
X5988348Y-7768960D02*
X5978824Y-7749912D01*
X5978824Y-7749912D02*
X5978824Y-7578484D01*
X6112158Y-7778484D02*
X6093110Y-7768960D01*
X6093110Y-7768960D02*
X6083586Y-7749912D01*
X6083586Y-7749912D02*
X6083586Y-7578484D01*
X6340729Y-7778484D02*
X6340729Y-7578484D01*
X6340729Y-7578484D02*
X6407396Y-7721341D01*
X6407396Y-7721341D02*
X6474062Y-7578484D01*
X6474062Y-7578484D02*
X6474062Y-7778484D01*
X6655015Y-7778484D02*
X6655015Y-7673722D01*
X6655015Y-7673722D02*
X6645491Y-7654674D01*
X6645491Y-7654674D02*
X6626443Y-7645150D01*
X6626443Y-7645150D02*
X6588348Y-7645150D01*
X6588348Y-7645150D02*
X6569301Y-7654674D01*
X6655015Y-7768960D02*
X6635967Y-7778484D01*
X6635967Y-7778484D02*
X6588348Y-7778484D01*
X6588348Y-7778484D02*
X6569301Y-7768960D01*
X6569301Y-7768960D02*
X6559777Y-7749912D01*
X6559777Y-7749912D02*
X6559777Y-7730865D01*
X6559777Y-7730865D02*
X6569301Y-7711817D01*
X6569301Y-7711817D02*
X6588348Y-7702293D01*
X6588348Y-7702293D02*
X6635967Y-7702293D01*
X6635967Y-7702293D02*
X6655015Y-7692769D01*
X6750253Y-7645150D02*
X6750253Y-7845150D01*
X6750253Y-7654674D02*
X6769301Y-7645150D01*
X6769301Y-7645150D02*
X6807396Y-7645150D01*
X6807396Y-7645150D02*
X6826443Y-7654674D01*
X6826443Y-7654674D02*
X6835967Y-7664198D01*
X6835967Y-7664198D02*
X6845491Y-7683246D01*
X6845491Y-7683246D02*
X6845491Y-7740388D01*
X6845491Y-7740388D02*
X6835967Y-7759436D01*
X6835967Y-7759436D02*
X6826443Y-7768960D01*
X6826443Y-7768960D02*
X6807396Y-7778484D01*
X6807396Y-7778484D02*
X6769301Y-7778484D01*
X6769301Y-7778484D02*
X6750253Y-7768960D01*
X6931205Y-7759436D02*
X6940729Y-7768960D01*
X6940729Y-7768960D02*
X6931205Y-7778484D01*
X6931205Y-7778484D02*
X6921682Y-7768960D01*
X6921682Y-7768960D02*
X6931205Y-7759436D01*
X6931205Y-7759436D02*
X6931205Y-7778484D01*
X6931205Y-7654674D02*
X6940729Y-7664198D01*
X6940729Y-7664198D02*
X6931205Y-7673722D01*
X6931205Y-7673722D02*
X6921682Y-7664198D01*
X6921682Y-7664198D02*
X6931205Y-7654674D01*
X6931205Y-7654674D02*
X6931205Y-7673722D01*
D10*
X5219000Y-8067000D02*
X5299000Y-8147000D01*
X5299000Y-8067000D02*
X5219000Y-8147000D01*
D11*
X5597872Y-7998484D02*
X5616920Y-7998484D01*
X5616920Y-7998484D02*
X5635967Y-8008008D01*
X5635967Y-8008008D02*
X5645491Y-8017531D01*
X5645491Y-8017531D02*
X5655015Y-8036579D01*
X5655015Y-8036579D02*
X5664539Y-8074674D01*
X5664539Y-8074674D02*
X5664539Y-8122293D01*
X5664539Y-8122293D02*
X5655015Y-8160388D01*
X5655015Y-8160388D02*
X5645491Y-8179436D01*
X5645491Y-8179436D02*
X5635967Y-8188960D01*
X5635967Y-8188960D02*
X5616920Y-8198484D01*
X5616920Y-8198484D02*
X5597872Y-8198484D01*
X5597872Y-8198484D02*
X5578824Y-8188960D01*
X5578824Y-8188960D02*
X5569301Y-8179436D01*
X5569301Y-8179436D02*
X5559777Y-8160388D01*
X5559777Y-8160388D02*
X5550253Y-8122293D01*
X5550253Y-8122293D02*
X5550253Y-8074674D01*
X5550253Y-8074674D02*
X5559777Y-8036579D01*
X5559777Y-8036579D02*
X5569301Y-8017531D01*
X5569301Y-8017531D02*
X5578824Y-8008008D01*
X5578824Y-8008008D02*
X5597872Y-7998484D01*
X5750253Y-8179436D02*
X5759777Y-8188960D01*
X5759777Y-8188960D02*
X5750253Y-8198484D01*
X5750253Y-8198484D02*
X5740729Y-8188960D01*
X5740729Y-8188960D02*
X5750253Y-8179436D01*
X5750253Y-8179436D02*
X5750253Y-8198484D01*
X5874062Y-8084198D02*
X5855015Y-8074674D01*
X5855015Y-8074674D02*
X5845491Y-8065150D01*
X5845491Y-8065150D02*
X5835967Y-8046103D01*
X5835967Y-8046103D02*
X5835967Y-8036579D01*
X5835967Y-8036579D02*
X5845491Y-8017531D01*
X5845491Y-8017531D02*
X5855015Y-8008008D01*
X5855015Y-8008008D02*
X5874062Y-7998484D01*
X5874062Y-7998484D02*
X5912158Y-7998484D01*
X5912158Y-7998484D02*
X5931205Y-8008008D01*
X5931205Y-8008008D02*
X5940729Y-8017531D01*
X5940729Y-8017531D02*
X5950253Y-8036579D01*
X5950253Y-8036579D02*
X5950253Y-8046103D01*
X5950253Y-8046103D02*
X5940729Y-8065150D01*
X5940729Y-8065150D02*
X5931205Y-8074674D01*
X5931205Y-8074674D02*
X5912158Y-8084198D01*
X5912158Y-8084198D02*
X5874062Y-8084198D01*
X5874062Y-8084198D02*
X5855015Y-8093722D01*
X5855015Y-8093722D02*
X5845491Y-8103246D01*
X5845491Y-8103246D02*
X5835967Y-8122293D01*
X5835967Y-8122293D02*
X5835967Y-8160388D01*
X5835967Y-8160388D02*
X5845491Y-8179436D01*
X5845491Y-8179436D02*
X5855015Y-8188960D01*
X5855015Y-8188960D02*
X5874062Y-8198484D01*
X5874062Y-8198484D02*
X5912158Y-8198484D01*
X5912158Y-8198484D02*
X5931205Y-8188960D01*
X5931205Y-8188960D02*
X5940729Y-8179436D01*
X5940729Y-8179436D02*
X5950253Y-8160388D01*
X5950253Y-8160388D02*
X5950253Y-8122293D01*
X5950253Y-8122293D02*
X5940729Y-8103246D01*
X5940729Y-8103246D02*
X5931205Y-8093722D01*
X5931205Y-8093722D02*
X5912158Y-8084198D01*
X6074062Y-7998484D02*
X6093110Y-7998484D01*
X6093110Y-7998484D02*
X6112158Y-8008008D01*
X6112158Y-8008008D02*
X6121682Y-8017531D01*
X6121682Y-8017531D02*
X6131205Y-8036579D01*
X6131205Y-8036579D02*
X6140729Y-8074674D01*
X6140729Y-8074674D02*
X6140729Y-8122293D01*
X6140729Y-8122293D02*
X6131205Y-8160388D01*
X6131205Y-8160388D02*
X6121682Y-8179436D01*
X6121682Y-8179436D02*
X6112158Y-8188960D01*
X6112158Y-8188960D02*
X6093110Y-8198484D01*
X6093110Y-8198484D02*
X6074062Y-8198484D01*
X6074062Y-8198484D02*
X6055015Y-8188960D01*
X6055015Y-8188960D02*
X6045491Y-8179436D01*
X6045491Y-8179436D02*
X6035967Y-8160388D01*
X6035967Y-8160388D02*
X6026443Y-8122293D01*
X6026443Y-8122293D02*
X6026443Y-8074674D01*
X6026443Y-8074674D02*
X6035967Y-8036579D01*
X6035967Y-8036579D02*
X6045491Y-8017531D01*
X6045491Y-8017531D02*
X6055015Y-8008008D01*
X6055015Y-8008008D02*
X6074062Y-7998484D01*
X6264539Y-7998484D02*
X6283586Y-7998484D01*
X6283586Y-7998484D02*
X6302634Y-8008008D01*
X6302634Y-8008008D02*
X6312158Y-8017531D01*
X6312158Y-8017531D02*
X6321682Y-8036579D01*
X6321682Y-8036579D02*
X6331205Y-8074674D01*
X6331205Y-8074674D02*
X6331205Y-8122293D01*
X6331205Y-8122293D02*
X6321682Y-8160388D01*
X6321682Y-8160388D02*
X6312158Y-8179436D01*
X6312158Y-8179436D02*
X6302634Y-8188960D01*
X6302634Y-8188960D02*
X6283586Y-8198484D01*
X6283586Y-8198484D02*
X6264539Y-8198484D01*
X6264539Y-8198484D02*
X6245491Y-8188960D01*
X6245491Y-8188960D02*
X6235967Y-8179436D01*
X6235967Y-8179436D02*
X6226443Y-8160388D01*
X6226443Y-8160388D02*
X6216920Y-8122293D01*
X6216920Y-8122293D02*
X6216920Y-8074674D01*
X6216920Y-8074674D02*
X6226443Y-8036579D01*
X6226443Y-8036579D02*
X6235967Y-8017531D01*
X6235967Y-8017531D02*
X6245491Y-8008008D01*
X6245491Y-8008008D02*
X6264539Y-7998484D01*
X6416920Y-8198484D02*
X6416920Y-8065150D01*
X6416920Y-8084198D02*
X6426443Y-8074674D01*
X6426443Y-8074674D02*
X6445491Y-8065150D01*
X6445491Y-8065150D02*
X6474063Y-8065150D01*
X6474063Y-8065150D02*
X6493110Y-8074674D01*
X6493110Y-8074674D02*
X6502634Y-8093722D01*
X6502634Y-8093722D02*
X6502634Y-8198484D01*
X6502634Y-8093722D02*
X6512158Y-8074674D01*
X6512158Y-8074674D02*
X6531205Y-8065150D01*
X6531205Y-8065150D02*
X6559777Y-8065150D01*
X6559777Y-8065150D02*
X6578824Y-8074674D01*
X6578824Y-8074674D02*
X6588348Y-8093722D01*
X6588348Y-8093722D02*
X6588348Y-8198484D01*
X6683586Y-8198484D02*
X6683586Y-8065150D01*
X6683586Y-8084198D02*
X6693110Y-8074674D01*
X6693110Y-8074674D02*
X6712158Y-8065150D01*
X6712158Y-8065150D02*
X6740729Y-8065150D01*
X6740729Y-8065150D02*
X6759777Y-8074674D01*
X6759777Y-8074674D02*
X6769301Y-8093722D01*
X6769301Y-8093722D02*
X6769301Y-8198484D01*
X6769301Y-8093722D02*
X6778824Y-8074674D01*
X6778824Y-8074674D02*
X6797872Y-8065150D01*
X6797872Y-8065150D02*
X6826443Y-8065150D01*
X6826443Y-8065150D02*
X6845491Y-8074674D01*
X6845491Y-8074674D02*
X6855015Y-8093722D01*
X6855015Y-8093722D02*
X6855015Y-8198484D01*
X7245491Y-7988960D02*
X7074063Y-8246103D01*
X7502634Y-7998484D02*
X7521682Y-7998484D01*
X7521682Y-7998484D02*
X7540729Y-8008008D01*
X7540729Y-8008008D02*
X7550253Y-8017531D01*
X7550253Y-8017531D02*
X7559777Y-8036579D01*
X7559777Y-8036579D02*
X7569301Y-8074674D01*
X7569301Y-8074674D02*
X7569301Y-8122293D01*
X7569301Y-8122293D02*
X7559777Y-8160388D01*
X7559777Y-8160388D02*
X7550253Y-8179436D01*
X7550253Y-8179436D02*
X7540729Y-8188960D01*
X7540729Y-8188960D02*
X7521682Y-8198484D01*
X7521682Y-8198484D02*
X7502634Y-8198484D01*
X7502634Y-8198484D02*
X7483586Y-8188960D01*
X7483586Y-8188960D02*
X7474063Y-8179436D01*
X7474063Y-8179436D02*
X7464539Y-8160388D01*
X7464539Y-8160388D02*
X7455015Y-8122293D01*
X7455015Y-8122293D02*
X7455015Y-8074674D01*
X7455015Y-8074674D02*
X7464539Y-8036579D01*
X7464539Y-8036579D02*
X7474063Y-8017531D01*
X7474063Y-8017531D02*
X7483586Y-8008008D01*
X7483586Y-8008008D02*
X7502634Y-7998484D01*
X7655015Y-8179436D02*
X7664539Y-8188960D01*
X7664539Y-8188960D02*
X7655015Y-8198484D01*
X7655015Y-8198484D02*
X7645491Y-8188960D01*
X7645491Y-8188960D02*
X7655015Y-8179436D01*
X7655015Y-8179436D02*
X7655015Y-8198484D01*
X7788348Y-7998484D02*
X7807396Y-7998484D01*
X7807396Y-7998484D02*
X7826444Y-8008008D01*
X7826444Y-8008008D02*
X7835967Y-8017531D01*
X7835967Y-8017531D02*
X7845491Y-8036579D01*
X7845491Y-8036579D02*
X7855015Y-8074674D01*
X7855015Y-8074674D02*
X7855015Y-8122293D01*
X7855015Y-8122293D02*
X7845491Y-8160388D01*
X7845491Y-8160388D02*
X7835967Y-8179436D01*
X7835967Y-8179436D02*
X7826444Y-8188960D01*
X7826444Y-8188960D02*
X7807396Y-8198484D01*
X7807396Y-8198484D02*
X7788348Y-8198484D01*
X7788348Y-8198484D02*
X7769301Y-8188960D01*
X7769301Y-8188960D02*
X7759777Y-8179436D01*
X7759777Y-8179436D02*
X7750253Y-8160388D01*
X7750253Y-8160388D02*
X7740729Y-8122293D01*
X7740729Y-8122293D02*
X7740729Y-8074674D01*
X7740729Y-8074674D02*
X7750253Y-8036579D01*
X7750253Y-8036579D02*
X7759777Y-8017531D01*
X7759777Y-8017531D02*
X7769301Y-8008008D01*
X7769301Y-8008008D02*
X7788348Y-7998484D01*
X7921682Y-7998484D02*
X8045491Y-7998484D01*
X8045491Y-7998484D02*
X7978825Y-8074674D01*
X7978825Y-8074674D02*
X8007396Y-8074674D01*
X8007396Y-8074674D02*
X8026444Y-8084198D01*
X8026444Y-8084198D02*
X8035967Y-8093722D01*
X8035967Y-8093722D02*
X8045491Y-8112769D01*
X8045491Y-8112769D02*
X8045491Y-8160388D01*
X8045491Y-8160388D02*
X8035967Y-8179436D01*
X8035967Y-8179436D02*
X8026444Y-8188960D01*
X8026444Y-8188960D02*
X8007396Y-8198484D01*
X8007396Y-8198484D02*
X7950253Y-8198484D01*
X7950253Y-8198484D02*
X7931206Y-8188960D01*
X7931206Y-8188960D02*
X7921682Y-8179436D01*
X8235967Y-8198484D02*
X8121682Y-8198484D01*
X8178825Y-8198484D02*
X8178825Y-7998484D01*
X8178825Y-7998484D02*
X8159777Y-8027055D01*
X8159777Y-8027055D02*
X8140729Y-8046103D01*
X8140729Y-8046103D02*
X8121682Y-8055627D01*
X8416920Y-7998484D02*
X8321682Y-7998484D01*
X8321682Y-7998484D02*
X8312158Y-8093722D01*
X8312158Y-8093722D02*
X8321682Y-8084198D01*
X8321682Y-8084198D02*
X8340729Y-8074674D01*
X8340729Y-8074674D02*
X8388348Y-8074674D01*
X8388348Y-8074674D02*
X8407396Y-8084198D01*
X8407396Y-8084198D02*
X8416920Y-8093722D01*
X8416920Y-8093722D02*
X8426444Y-8112769D01*
X8426444Y-8112769D02*
X8426444Y-8160388D01*
X8426444Y-8160388D02*
X8416920Y-8179436D01*
X8416920Y-8179436D02*
X8407396Y-8188960D01*
X8407396Y-8188960D02*
X8388348Y-8198484D01*
X8388348Y-8198484D02*
X8340729Y-8198484D01*
X8340729Y-8198484D02*
X8321682Y-8188960D01*
X8321682Y-8188960D02*
X8312158Y-8179436D01*
X8502634Y-7998484D02*
X8502634Y-8036579D01*
X8578825Y-7998484D02*
X8578825Y-8036579D01*
X8874063Y-8274674D02*
X8864539Y-8265150D01*
X8864539Y-8265150D02*
X8845491Y-8236579D01*
X8845491Y-8236579D02*
X8835968Y-8217531D01*
X8835968Y-8217531D02*
X8826444Y-8188960D01*
X8826444Y-8188960D02*
X8816920Y-8141341D01*
X8816920Y-8141341D02*
X8816920Y-8103246D01*
X8816920Y-8103246D02*
X8826444Y-8055627D01*
X8826444Y-8055627D02*
X8835968Y-8027055D01*
X8835968Y-8027055D02*
X8845491Y-8008008D01*
X8845491Y-8008008D02*
X8864539Y-7979436D01*
X8864539Y-7979436D02*
X8874063Y-7969912D01*
X9055015Y-8198484D02*
X8940730Y-8198484D01*
X8997872Y-8198484D02*
X8997872Y-7998484D01*
X8997872Y-7998484D02*
X8978825Y-8027055D01*
X8978825Y-8027055D02*
X8959777Y-8046103D01*
X8959777Y-8046103D02*
X8940730Y-8055627D01*
X9169301Y-8084198D02*
X9150253Y-8074674D01*
X9150253Y-8074674D02*
X9140730Y-8065150D01*
X9140730Y-8065150D02*
X9131206Y-8046103D01*
X9131206Y-8046103D02*
X9131206Y-8036579D01*
X9131206Y-8036579D02*
X9140730Y-8017531D01*
X9140730Y-8017531D02*
X9150253Y-8008008D01*
X9150253Y-8008008D02*
X9169301Y-7998484D01*
X9169301Y-7998484D02*
X9207396Y-7998484D01*
X9207396Y-7998484D02*
X9226444Y-8008008D01*
X9226444Y-8008008D02*
X9235968Y-8017531D01*
X9235968Y-8017531D02*
X9245491Y-8036579D01*
X9245491Y-8036579D02*
X9245491Y-8046103D01*
X9245491Y-8046103D02*
X9235968Y-8065150D01*
X9235968Y-8065150D02*
X9226444Y-8074674D01*
X9226444Y-8074674D02*
X9207396Y-8084198D01*
X9207396Y-8084198D02*
X9169301Y-8084198D01*
X9169301Y-8084198D02*
X9150253Y-8093722D01*
X9150253Y-8093722D02*
X9140730Y-8103246D01*
X9140730Y-8103246D02*
X9131206Y-8122293D01*
X9131206Y-8122293D02*
X9131206Y-8160388D01*
X9131206Y-8160388D02*
X9140730Y-8179436D01*
X9140730Y-8179436D02*
X9150253Y-8188960D01*
X9150253Y-8188960D02*
X9169301Y-8198484D01*
X9169301Y-8198484D02*
X9207396Y-8198484D01*
X9207396Y-8198484D02*
X9226444Y-8188960D01*
X9226444Y-8188960D02*
X9235968Y-8179436D01*
X9235968Y-8179436D02*
X9245491Y-8160388D01*
X9245491Y-8160388D02*
X9245491Y-8122293D01*
X9245491Y-8122293D02*
X9235968Y-8103246D01*
X9235968Y-8103246D02*
X9226444Y-8093722D01*
X9226444Y-8093722D02*
X9207396Y-8084198D01*
X9483587Y-8198484D02*
X9483587Y-7998484D01*
X9569301Y-8198484D02*
X9569301Y-8093722D01*
X9569301Y-8093722D02*
X9559777Y-8074674D01*
X9559777Y-8074674D02*
X9540730Y-8065150D01*
X9540730Y-8065150D02*
X9512158Y-8065150D01*
X9512158Y-8065150D02*
X9493111Y-8074674D01*
X9493111Y-8074674D02*
X9483587Y-8084198D01*
X9693111Y-8198484D02*
X9674063Y-8188960D01*
X9674063Y-8188960D02*
X9664539Y-8179436D01*
X9664539Y-8179436D02*
X9655015Y-8160388D01*
X9655015Y-8160388D02*
X9655015Y-8103246D01*
X9655015Y-8103246D02*
X9664539Y-8084198D01*
X9664539Y-8084198D02*
X9674063Y-8074674D01*
X9674063Y-8074674D02*
X9693111Y-8065150D01*
X9693111Y-8065150D02*
X9721682Y-8065150D01*
X9721682Y-8065150D02*
X9740730Y-8074674D01*
X9740730Y-8074674D02*
X9750253Y-8084198D01*
X9750253Y-8084198D02*
X9759777Y-8103246D01*
X9759777Y-8103246D02*
X9759777Y-8160388D01*
X9759777Y-8160388D02*
X9750253Y-8179436D01*
X9750253Y-8179436D02*
X9740730Y-8188960D01*
X9740730Y-8188960D02*
X9721682Y-8198484D01*
X9721682Y-8198484D02*
X9693111Y-8198484D01*
X9874063Y-8198484D02*
X9855015Y-8188960D01*
X9855015Y-8188960D02*
X9845492Y-8169912D01*
X9845492Y-8169912D02*
X9845492Y-7998484D01*
X10026444Y-8188960D02*
X10007396Y-8198484D01*
X10007396Y-8198484D02*
X9969301Y-8198484D01*
X9969301Y-8198484D02*
X9950253Y-8188960D01*
X9950253Y-8188960D02*
X9940730Y-8169912D01*
X9940730Y-8169912D02*
X9940730Y-8093722D01*
X9940730Y-8093722D02*
X9950253Y-8074674D01*
X9950253Y-8074674D02*
X9969301Y-8065150D01*
X9969301Y-8065150D02*
X10007396Y-8065150D01*
X10007396Y-8065150D02*
X10026444Y-8074674D01*
X10026444Y-8074674D02*
X10035968Y-8093722D01*
X10035968Y-8093722D02*
X10035968Y-8112769D01*
X10035968Y-8112769D02*
X9940730Y-8131817D01*
X10112158Y-8188960D02*
X10131206Y-8198484D01*
X10131206Y-8198484D02*
X10169301Y-8198484D01*
X10169301Y-8198484D02*
X10188349Y-8188960D01*
X10188349Y-8188960D02*
X10197873Y-8169912D01*
X10197873Y-8169912D02*
X10197873Y-8160388D01*
X10197873Y-8160388D02*
X10188349Y-8141341D01*
X10188349Y-8141341D02*
X10169301Y-8131817D01*
X10169301Y-8131817D02*
X10140730Y-8131817D01*
X10140730Y-8131817D02*
X10121682Y-8122293D01*
X10121682Y-8122293D02*
X10112158Y-8103246D01*
X10112158Y-8103246D02*
X10112158Y-8093722D01*
X10112158Y-8093722D02*
X10121682Y-8074674D01*
X10121682Y-8074674D02*
X10140730Y-8065150D01*
X10140730Y-8065150D02*
X10169301Y-8065150D01*
X10169301Y-8065150D02*
X10188349Y-8074674D01*
X10264539Y-8274674D02*
X10274063Y-8265150D01*
X10274063Y-8265150D02*
X10293111Y-8236579D01*
X10293111Y-8236579D02*
X10302634Y-8217531D01*
X10302634Y-8217531D02*
X10312158Y-8188960D01*
X10312158Y-8188960D02*
X10321682Y-8141341D01*
X10321682Y-8141341D02*
X10321682Y-8103246D01*
X10321682Y-8103246D02*
X10312158Y-8055627D01*
X10312158Y-8055627D02*
X10302634Y-8027055D01*
X10302634Y-8027055D02*
X10293111Y-8008008D01*
X10293111Y-8008008D02*
X10274063Y-7979436D01*
X10274063Y-7979436D02*
X10264539Y-7969912D01*
D10*
X5299000Y-8371000D02*
G75*
G03*
X5199000Y-8371000I-50000J0D01*
G01*
X5199000Y-8371000D02*
G75*
G03*
X5299000Y-8371000I50000J0D01*
G01*
D11*
X5664539Y-8462484D02*
X5550253Y-8462484D01*
X5607396Y-8462484D02*
X5607396Y-8262484D01*
X5607396Y-8262484D02*
X5588348Y-8291055D01*
X5588348Y-8291055D02*
X5569301Y-8310103D01*
X5569301Y-8310103D02*
X5550253Y-8319627D01*
X5750253Y-8443436D02*
X5759777Y-8452960D01*
X5759777Y-8452960D02*
X5750253Y-8462484D01*
X5750253Y-8462484D02*
X5740729Y-8452960D01*
X5740729Y-8452960D02*
X5750253Y-8443436D01*
X5750253Y-8443436D02*
X5750253Y-8462484D01*
X5883586Y-8262484D02*
X5902634Y-8262484D01*
X5902634Y-8262484D02*
X5921682Y-8272008D01*
X5921682Y-8272008D02*
X5931205Y-8281531D01*
X5931205Y-8281531D02*
X5940729Y-8300579D01*
X5940729Y-8300579D02*
X5950253Y-8338674D01*
X5950253Y-8338674D02*
X5950253Y-8386293D01*
X5950253Y-8386293D02*
X5940729Y-8424389D01*
X5940729Y-8424389D02*
X5931205Y-8443436D01*
X5931205Y-8443436D02*
X5921682Y-8452960D01*
X5921682Y-8452960D02*
X5902634Y-8462484D01*
X5902634Y-8462484D02*
X5883586Y-8462484D01*
X5883586Y-8462484D02*
X5864539Y-8452960D01*
X5864539Y-8452960D02*
X5855015Y-8443436D01*
X5855015Y-8443436D02*
X5845491Y-8424389D01*
X5845491Y-8424389D02*
X5835967Y-8386293D01*
X5835967Y-8386293D02*
X5835967Y-8338674D01*
X5835967Y-8338674D02*
X5845491Y-8300579D01*
X5845491Y-8300579D02*
X5855015Y-8281531D01*
X5855015Y-8281531D02*
X5864539Y-8272008D01*
X5864539Y-8272008D02*
X5883586Y-8262484D01*
X6074062Y-8262484D02*
X6093110Y-8262484D01*
X6093110Y-8262484D02*
X6112158Y-8272008D01*
X6112158Y-8272008D02*
X6121682Y-8281531D01*
X6121682Y-8281531D02*
X6131205Y-8300579D01*
X6131205Y-8300579D02*
X6140729Y-8338674D01*
X6140729Y-8338674D02*
X6140729Y-8386293D01*
X6140729Y-8386293D02*
X6131205Y-8424389D01*
X6131205Y-8424389D02*
X6121682Y-8443436D01*
X6121682Y-8443436D02*
X6112158Y-8452960D01*
X6112158Y-8452960D02*
X6093110Y-8462484D01*
X6093110Y-8462484D02*
X6074062Y-8462484D01*
X6074062Y-8462484D02*
X6055015Y-8452960D01*
X6055015Y-8452960D02*
X6045491Y-8443436D01*
X6045491Y-8443436D02*
X6035967Y-8424389D01*
X6035967Y-8424389D02*
X6026443Y-8386293D01*
X6026443Y-8386293D02*
X6026443Y-8338674D01*
X6026443Y-8338674D02*
X6035967Y-8300579D01*
X6035967Y-8300579D02*
X6045491Y-8281531D01*
X6045491Y-8281531D02*
X6055015Y-8272008D01*
X6055015Y-8272008D02*
X6074062Y-8262484D01*
X6264539Y-8262484D02*
X6283586Y-8262484D01*
X6283586Y-8262484D02*
X6302634Y-8272008D01*
X6302634Y-8272008D02*
X6312158Y-8281531D01*
X6312158Y-8281531D02*
X6321682Y-8300579D01*
X6321682Y-8300579D02*
X6331205Y-8338674D01*
X6331205Y-8338674D02*
X6331205Y-8386293D01*
X6331205Y-8386293D02*
X6321682Y-8424389D01*
X6321682Y-8424389D02*
X6312158Y-8443436D01*
X6312158Y-8443436D02*
X6302634Y-8452960D01*
X6302634Y-8452960D02*
X6283586Y-8462484D01*
X6283586Y-8462484D02*
X6264539Y-8462484D01*
X6264539Y-8462484D02*
X6245491Y-8452960D01*
X6245491Y-8452960D02*
X6235967Y-8443436D01*
X6235967Y-8443436D02*
X6226443Y-8424389D01*
X6226443Y-8424389D02*
X6216920Y-8386293D01*
X6216920Y-8386293D02*
X6216920Y-8338674D01*
X6216920Y-8338674D02*
X6226443Y-8300579D01*
X6226443Y-8300579D02*
X6235967Y-8281531D01*
X6235967Y-8281531D02*
X6245491Y-8272008D01*
X6245491Y-8272008D02*
X6264539Y-8262484D01*
X6416920Y-8462484D02*
X6416920Y-8329150D01*
X6416920Y-8348198D02*
X6426443Y-8338674D01*
X6426443Y-8338674D02*
X6445491Y-8329150D01*
X6445491Y-8329150D02*
X6474063Y-8329150D01*
X6474063Y-8329150D02*
X6493110Y-8338674D01*
X6493110Y-8338674D02*
X6502634Y-8357722D01*
X6502634Y-8357722D02*
X6502634Y-8462484D01*
X6502634Y-8357722D02*
X6512158Y-8338674D01*
X6512158Y-8338674D02*
X6531205Y-8329150D01*
X6531205Y-8329150D02*
X6559777Y-8329150D01*
X6559777Y-8329150D02*
X6578824Y-8338674D01*
X6578824Y-8338674D02*
X6588348Y-8357722D01*
X6588348Y-8357722D02*
X6588348Y-8462484D01*
X6683586Y-8462484D02*
X6683586Y-8329150D01*
X6683586Y-8348198D02*
X6693110Y-8338674D01*
X6693110Y-8338674D02*
X6712158Y-8329150D01*
X6712158Y-8329150D02*
X6740729Y-8329150D01*
X6740729Y-8329150D02*
X6759777Y-8338674D01*
X6759777Y-8338674D02*
X6769301Y-8357722D01*
X6769301Y-8357722D02*
X6769301Y-8462484D01*
X6769301Y-8357722D02*
X6778824Y-8338674D01*
X6778824Y-8338674D02*
X6797872Y-8329150D01*
X6797872Y-8329150D02*
X6826443Y-8329150D01*
X6826443Y-8329150D02*
X6845491Y-8338674D01*
X6845491Y-8338674D02*
X6855015Y-8357722D01*
X6855015Y-8357722D02*
X6855015Y-8462484D01*
X7245491Y-8252960D02*
X7074063Y-8510103D01*
X7502634Y-8262484D02*
X7521682Y-8262484D01*
X7521682Y-8262484D02*
X7540729Y-8272008D01*
X7540729Y-8272008D02*
X7550253Y-8281531D01*
X7550253Y-8281531D02*
X7559777Y-8300579D01*
X7559777Y-8300579D02*
X7569301Y-8338674D01*
X7569301Y-8338674D02*
X7569301Y-8386293D01*
X7569301Y-8386293D02*
X7559777Y-8424389D01*
X7559777Y-8424389D02*
X7550253Y-8443436D01*
X7550253Y-8443436D02*
X7540729Y-8452960D01*
X7540729Y-8452960D02*
X7521682Y-8462484D01*
X7521682Y-8462484D02*
X7502634Y-8462484D01*
X7502634Y-8462484D02*
X7483586Y-8452960D01*
X7483586Y-8452960D02*
X7474063Y-8443436D01*
X7474063Y-8443436D02*
X7464539Y-8424389D01*
X7464539Y-8424389D02*
X7455015Y-8386293D01*
X7455015Y-8386293D02*
X7455015Y-8338674D01*
X7455015Y-8338674D02*
X7464539Y-8300579D01*
X7464539Y-8300579D02*
X7474063Y-8281531D01*
X7474063Y-8281531D02*
X7483586Y-8272008D01*
X7483586Y-8272008D02*
X7502634Y-8262484D01*
X7655015Y-8443436D02*
X7664539Y-8452960D01*
X7664539Y-8452960D02*
X7655015Y-8462484D01*
X7655015Y-8462484D02*
X7645491Y-8452960D01*
X7645491Y-8452960D02*
X7655015Y-8443436D01*
X7655015Y-8443436D02*
X7655015Y-8462484D01*
X7788348Y-8262484D02*
X7807396Y-8262484D01*
X7807396Y-8262484D02*
X7826444Y-8272008D01*
X7826444Y-8272008D02*
X7835967Y-8281531D01*
X7835967Y-8281531D02*
X7845491Y-8300579D01*
X7845491Y-8300579D02*
X7855015Y-8338674D01*
X7855015Y-8338674D02*
X7855015Y-8386293D01*
X7855015Y-8386293D02*
X7845491Y-8424389D01*
X7845491Y-8424389D02*
X7835967Y-8443436D01*
X7835967Y-8443436D02*
X7826444Y-8452960D01*
X7826444Y-8452960D02*
X7807396Y-8462484D01*
X7807396Y-8462484D02*
X7788348Y-8462484D01*
X7788348Y-8462484D02*
X7769301Y-8452960D01*
X7769301Y-8452960D02*
X7759777Y-8443436D01*
X7759777Y-8443436D02*
X7750253Y-8424389D01*
X7750253Y-8424389D02*
X7740729Y-8386293D01*
X7740729Y-8386293D02*
X7740729Y-8338674D01*
X7740729Y-8338674D02*
X7750253Y-8300579D01*
X7750253Y-8300579D02*
X7759777Y-8281531D01*
X7759777Y-8281531D02*
X7769301Y-8272008D01*
X7769301Y-8272008D02*
X7788348Y-8262484D01*
X7921682Y-8262484D02*
X8045491Y-8262484D01*
X8045491Y-8262484D02*
X7978825Y-8338674D01*
X7978825Y-8338674D02*
X8007396Y-8338674D01*
X8007396Y-8338674D02*
X8026444Y-8348198D01*
X8026444Y-8348198D02*
X8035967Y-8357722D01*
X8035967Y-8357722D02*
X8045491Y-8376769D01*
X8045491Y-8376769D02*
X8045491Y-8424389D01*
X8045491Y-8424389D02*
X8035967Y-8443436D01*
X8035967Y-8443436D02*
X8026444Y-8452960D01*
X8026444Y-8452960D02*
X8007396Y-8462484D01*
X8007396Y-8462484D02*
X7950253Y-8462484D01*
X7950253Y-8462484D02*
X7931206Y-8452960D01*
X7931206Y-8452960D02*
X7921682Y-8443436D01*
X8140729Y-8462484D02*
X8178825Y-8462484D01*
X8178825Y-8462484D02*
X8197872Y-8452960D01*
X8197872Y-8452960D02*
X8207396Y-8443436D01*
X8207396Y-8443436D02*
X8226444Y-8414865D01*
X8226444Y-8414865D02*
X8235967Y-8376769D01*
X8235967Y-8376769D02*
X8235967Y-8300579D01*
X8235967Y-8300579D02*
X8226444Y-8281531D01*
X8226444Y-8281531D02*
X8216920Y-8272008D01*
X8216920Y-8272008D02*
X8197872Y-8262484D01*
X8197872Y-8262484D02*
X8159777Y-8262484D01*
X8159777Y-8262484D02*
X8140729Y-8272008D01*
X8140729Y-8272008D02*
X8131206Y-8281531D01*
X8131206Y-8281531D02*
X8121682Y-8300579D01*
X8121682Y-8300579D02*
X8121682Y-8348198D01*
X8121682Y-8348198D02*
X8131206Y-8367246D01*
X8131206Y-8367246D02*
X8140729Y-8376769D01*
X8140729Y-8376769D02*
X8159777Y-8386293D01*
X8159777Y-8386293D02*
X8197872Y-8386293D01*
X8197872Y-8386293D02*
X8216920Y-8376769D01*
X8216920Y-8376769D02*
X8226444Y-8367246D01*
X8226444Y-8367246D02*
X8235967Y-8348198D01*
X8407396Y-8329150D02*
X8407396Y-8462484D01*
X8359777Y-8252960D02*
X8312158Y-8395817D01*
X8312158Y-8395817D02*
X8435968Y-8395817D01*
X8502634Y-8262484D02*
X8502634Y-8300579D01*
X8578825Y-8262484D02*
X8578825Y-8300579D01*
X8874063Y-8538674D02*
X8864539Y-8529150D01*
X8864539Y-8529150D02*
X8845491Y-8500579D01*
X8845491Y-8500579D02*
X8835968Y-8481531D01*
X8835968Y-8481531D02*
X8826444Y-8452960D01*
X8826444Y-8452960D02*
X8816920Y-8405341D01*
X8816920Y-8405341D02*
X8816920Y-8367246D01*
X8816920Y-8367246D02*
X8826444Y-8319627D01*
X8826444Y-8319627D02*
X8835968Y-8291055D01*
X8835968Y-8291055D02*
X8845491Y-8272008D01*
X8845491Y-8272008D02*
X8864539Y-8243436D01*
X8864539Y-8243436D02*
X8874063Y-8233912D01*
X9035968Y-8329150D02*
X9035968Y-8462484D01*
X8988349Y-8252960D02*
X8940730Y-8395817D01*
X8940730Y-8395817D02*
X9064539Y-8395817D01*
X9169301Y-8348198D02*
X9150253Y-8338674D01*
X9150253Y-8338674D02*
X9140730Y-8329150D01*
X9140730Y-8329150D02*
X9131206Y-8310103D01*
X9131206Y-8310103D02*
X9131206Y-8300579D01*
X9131206Y-8300579D02*
X9140730Y-8281531D01*
X9140730Y-8281531D02*
X9150253Y-8272008D01*
X9150253Y-8272008D02*
X9169301Y-8262484D01*
X9169301Y-8262484D02*
X9207396Y-8262484D01*
X9207396Y-8262484D02*
X9226444Y-8272008D01*
X9226444Y-8272008D02*
X9235968Y-8281531D01*
X9235968Y-8281531D02*
X9245491Y-8300579D01*
X9245491Y-8300579D02*
X9245491Y-8310103D01*
X9245491Y-8310103D02*
X9235968Y-8329150D01*
X9235968Y-8329150D02*
X9226444Y-8338674D01*
X9226444Y-8338674D02*
X9207396Y-8348198D01*
X9207396Y-8348198D02*
X9169301Y-8348198D01*
X9169301Y-8348198D02*
X9150253Y-8357722D01*
X9150253Y-8357722D02*
X9140730Y-8367246D01*
X9140730Y-8367246D02*
X9131206Y-8386293D01*
X9131206Y-8386293D02*
X9131206Y-8424389D01*
X9131206Y-8424389D02*
X9140730Y-8443436D01*
X9140730Y-8443436D02*
X9150253Y-8452960D01*
X9150253Y-8452960D02*
X9169301Y-8462484D01*
X9169301Y-8462484D02*
X9207396Y-8462484D01*
X9207396Y-8462484D02*
X9226444Y-8452960D01*
X9226444Y-8452960D02*
X9235968Y-8443436D01*
X9235968Y-8443436D02*
X9245491Y-8424389D01*
X9245491Y-8424389D02*
X9245491Y-8386293D01*
X9245491Y-8386293D02*
X9235968Y-8367246D01*
X9235968Y-8367246D02*
X9226444Y-8357722D01*
X9226444Y-8357722D02*
X9207396Y-8348198D01*
X9483587Y-8462484D02*
X9483587Y-8262484D01*
X9569301Y-8462484D02*
X9569301Y-8357722D01*
X9569301Y-8357722D02*
X9559777Y-8338674D01*
X9559777Y-8338674D02*
X9540730Y-8329150D01*
X9540730Y-8329150D02*
X9512158Y-8329150D01*
X9512158Y-8329150D02*
X9493111Y-8338674D01*
X9493111Y-8338674D02*
X9483587Y-8348198D01*
X9693111Y-8462484D02*
X9674063Y-8452960D01*
X9674063Y-8452960D02*
X9664539Y-8443436D01*
X9664539Y-8443436D02*
X9655015Y-8424389D01*
X9655015Y-8424389D02*
X9655015Y-8367246D01*
X9655015Y-8367246D02*
X9664539Y-8348198D01*
X9664539Y-8348198D02*
X9674063Y-8338674D01*
X9674063Y-8338674D02*
X9693111Y-8329150D01*
X9693111Y-8329150D02*
X9721682Y-8329150D01*
X9721682Y-8329150D02*
X9740730Y-8338674D01*
X9740730Y-8338674D02*
X9750253Y-8348198D01*
X9750253Y-8348198D02*
X9759777Y-8367246D01*
X9759777Y-8367246D02*
X9759777Y-8424389D01*
X9759777Y-8424389D02*
X9750253Y-8443436D01*
X9750253Y-8443436D02*
X9740730Y-8452960D01*
X9740730Y-8452960D02*
X9721682Y-8462484D01*
X9721682Y-8462484D02*
X9693111Y-8462484D01*
X9874063Y-8462484D02*
X9855015Y-8452960D01*
X9855015Y-8452960D02*
X9845492Y-8433912D01*
X9845492Y-8433912D02*
X9845492Y-8262484D01*
X10026444Y-8452960D02*
X10007396Y-8462484D01*
X10007396Y-8462484D02*
X9969301Y-8462484D01*
X9969301Y-8462484D02*
X9950253Y-8452960D01*
X9950253Y-8452960D02*
X9940730Y-8433912D01*
X9940730Y-8433912D02*
X9940730Y-8357722D01*
X9940730Y-8357722D02*
X9950253Y-8338674D01*
X9950253Y-8338674D02*
X9969301Y-8329150D01*
X9969301Y-8329150D02*
X10007396Y-8329150D01*
X10007396Y-8329150D02*
X10026444Y-8338674D01*
X10026444Y-8338674D02*
X10035968Y-8357722D01*
X10035968Y-8357722D02*
X10035968Y-8376769D01*
X10035968Y-8376769D02*
X9940730Y-8395817D01*
X10112158Y-8452960D02*
X10131206Y-8462484D01*
X10131206Y-8462484D02*
X10169301Y-8462484D01*
X10169301Y-8462484D02*
X10188349Y-8452960D01*
X10188349Y-8452960D02*
X10197873Y-8433912D01*
X10197873Y-8433912D02*
X10197873Y-8424389D01*
X10197873Y-8424389D02*
X10188349Y-8405341D01*
X10188349Y-8405341D02*
X10169301Y-8395817D01*
X10169301Y-8395817D02*
X10140730Y-8395817D01*
X10140730Y-8395817D02*
X10121682Y-8386293D01*
X10121682Y-8386293D02*
X10112158Y-8367246D01*
X10112158Y-8367246D02*
X10112158Y-8357722D01*
X10112158Y-8357722D02*
X10121682Y-8338674D01*
X10121682Y-8338674D02*
X10140730Y-8329150D01*
X10140730Y-8329150D02*
X10169301Y-8329150D01*
X10169301Y-8329150D02*
X10188349Y-8338674D01*
X10264539Y-8538674D02*
X10274063Y-8529150D01*
X10274063Y-8529150D02*
X10293111Y-8500579D01*
X10293111Y-8500579D02*
X10302634Y-8481531D01*
X10302634Y-8481531D02*
X10312158Y-8452960D01*
X10312158Y-8452960D02*
X10321682Y-8405341D01*
X10321682Y-8405341D02*
X10321682Y-8367246D01*
X10321682Y-8367246D02*
X10312158Y-8319627D01*
X10312158Y-8319627D02*
X10302634Y-8291055D01*
X10302634Y-8291055D02*
X10293111Y-8272008D01*
X10293111Y-8272008D02*
X10274063Y-8243436D01*
X10274063Y-8243436D02*
X10264539Y-8233912D01*
M02*
