%TF.GenerationSoftware,KiCad,Pcbnew,7.0.11+dfsg-1build4*%
%TF.CreationDate,2026-02-12T23:01:59+09:00*%
%TF.ProjectId,actuator_board_v3,61637475-6174-46f7-925f-626f6172645f,rev?*%
%TF.SameCoordinates,Original*%
%TF.FileFunction,Other,User*%
%FSLAX46Y46*%
G04 Gerber Fmt 4.6, Leading zero omitted, Abs format (unit mm)*
G04 Created by KiCad (PCBNEW 7.0.11+dfsg-1build4) date 2026-02-12 23:01:59*
%MOMM*%
%LPD*%
G01*
G04 APERTURE LIST*
%ADD10C,0.050000*%
G04 APERTURE END LIST*
D10*
%TO.C,U2*%
X48000000Y-43470000D02*
X48000000Y-49120000D01*
X48000000Y-49120000D02*
X57800000Y-49120000D01*
X57800000Y-43470000D02*
X48000000Y-43470000D01*
X57800000Y-49120000D02*
X57800000Y-43470000D01*
%TO.C,R11*%
X87150000Y-57700000D02*
X87150000Y-54340000D01*
X89050000Y-57700000D02*
X87150000Y-57700000D01*
X87150000Y-54340000D02*
X89050000Y-54340000D01*
X89050000Y-54340000D02*
X89050000Y-57700000D01*
%TO.C,R2*%
X67150000Y-49700000D02*
X67150000Y-46340000D01*
X69050000Y-49700000D02*
X67150000Y-49700000D01*
X67150000Y-46340000D02*
X69050000Y-46340000D01*
X69050000Y-46340000D02*
X69050000Y-49700000D01*
%TO.C,R3*%
X83150000Y-49700000D02*
X83150000Y-46340000D01*
X85050000Y-49700000D02*
X83150000Y-49700000D01*
X83150000Y-46340000D02*
X85050000Y-46340000D01*
X85050000Y-46340000D02*
X85050000Y-49700000D01*
%TO.C,U3*%
X64000000Y-43470000D02*
X64000000Y-49120000D01*
X64000000Y-49120000D02*
X73800000Y-49120000D01*
X73800000Y-43470000D02*
X64000000Y-43470000D01*
X73800000Y-49120000D02*
X73800000Y-43470000D01*
%TO.C,R13*%
X48150000Y-43700000D02*
X48150000Y-40340000D01*
X50050000Y-43700000D02*
X48150000Y-43700000D01*
X48150000Y-40340000D02*
X50050000Y-40340000D01*
X50050000Y-40340000D02*
X50050000Y-43700000D01*
%TO.C,Q3*%
X87180000Y-49320000D02*
X87180000Y-52720000D01*
X87180000Y-52720000D02*
X91020000Y-52720000D01*
X91020000Y-49320000D02*
X87180000Y-49320000D01*
X91020000Y-52720000D02*
X91020000Y-49320000D01*
%TO.C,C1*%
X116410000Y-45720000D02*
G75*
G03*
X109610000Y-45720000I-3400000J0D01*
G01*
X109610000Y-45720000D02*
G75*
G03*
X116410000Y-45720000I3400000J0D01*
G01*
%TO.C,LED3*%
X85150000Y-57700000D02*
X85150000Y-54340000D01*
X87050000Y-57700000D02*
X85150000Y-57700000D01*
X85150000Y-54340000D02*
X87050000Y-54340000D01*
X87050000Y-54340000D02*
X87050000Y-57700000D01*
%TO.C,LED4*%
X101150000Y-57700000D02*
X101150000Y-54340000D01*
X103050000Y-57700000D02*
X101150000Y-57700000D01*
X101150000Y-54340000D02*
X103050000Y-54340000D01*
X103050000Y-54340000D02*
X103050000Y-57700000D01*
%TO.C,C2*%
X76400000Y-72669999D02*
X79800000Y-72669999D01*
X76400000Y-74629999D02*
X76400000Y-72669999D01*
X79800000Y-72669999D02*
X79800000Y-74629999D01*
X79800000Y-74629999D02*
X76400000Y-74629999D01*
%TO.C,LED2*%
X69150000Y-57700000D02*
X69150000Y-54340000D01*
X71050000Y-57700000D02*
X69150000Y-57700000D01*
X69150000Y-54340000D02*
X71050000Y-54340000D01*
X71050000Y-54340000D02*
X71050000Y-57700000D01*
%TO.C,R10*%
X71150000Y-57700000D02*
X71150000Y-54340000D01*
X73050000Y-57700000D02*
X71150000Y-57700000D01*
X71150000Y-54340000D02*
X73050000Y-54340000D01*
X73050000Y-54340000D02*
X73050000Y-57700000D01*
%TO.C,H*%
X45050000Y-80149999D02*
G75*
G03*
X38150000Y-80149999I-3450000J0D01*
G01*
X38150000Y-80149999D02*
G75*
G03*
X45050000Y-80149999I3450000J0D01*
G01*
%TO.C,LED1*%
X53150000Y-57700000D02*
X53150000Y-54340000D01*
X55050000Y-57700000D02*
X53150000Y-57700000D01*
X53150000Y-54340000D02*
X55050000Y-54340000D01*
X55050000Y-54340000D02*
X55050000Y-57700000D01*
%TO.C,R16*%
X96150000Y-43700000D02*
X96150000Y-40340000D01*
X98050000Y-43700000D02*
X96150000Y-43700000D01*
X96150000Y-40340000D02*
X98050000Y-40340000D01*
X98050000Y-40340000D02*
X98050000Y-43700000D01*
%TO.C,R4*%
X99150000Y-49700000D02*
X99150000Y-46340000D01*
X101050000Y-49700000D02*
X99150000Y-49700000D01*
X99150000Y-46340000D02*
X101050000Y-46340000D01*
X101050000Y-46340000D02*
X101050000Y-49700000D01*
%TO.C,J1*%
X56620000Y-65930000D02*
X56620000Y-62380000D01*
X108420000Y-65930000D02*
X56620000Y-65930000D01*
X56620000Y-62380000D02*
X108420000Y-62380000D01*
X108420000Y-62380000D02*
X108420000Y-65930000D01*
%TO.C,Q2*%
X71180000Y-49320000D02*
X71180000Y-52720000D01*
X71180000Y-52720000D02*
X75020000Y-52720000D01*
X75020000Y-49320000D02*
X71180000Y-49320000D01*
X75020000Y-52720000D02*
X75020000Y-49320000D01*
%TO.C,Q4*%
X103180000Y-49320000D02*
X103180000Y-52720000D01*
X103180000Y-52720000D02*
X107020000Y-52720000D01*
X107020000Y-49320000D02*
X103180000Y-49320000D01*
X107020000Y-52720000D02*
X107020000Y-49320000D01*
%TO.C,Q1*%
X55180000Y-49320000D02*
X55180000Y-52720000D01*
X55180000Y-52720000D02*
X59020000Y-52720000D01*
X59020000Y-49320000D02*
X55180000Y-49320000D01*
X59020000Y-52720000D02*
X59020000Y-49320000D01*
%TO.C,R7*%
X90150000Y-54700000D02*
X90150000Y-51340000D01*
X92050000Y-54700000D02*
X90150000Y-54700000D01*
X90150000Y-51340000D02*
X92050000Y-51340000D01*
X92050000Y-51340000D02*
X92050000Y-54700000D01*
%TO.C,R6*%
X74150000Y-54700000D02*
X74150000Y-51340000D01*
X76050000Y-54700000D02*
X74150000Y-54700000D01*
X74150000Y-51340000D02*
X76050000Y-51340000D01*
X76050000Y-51340000D02*
X76050000Y-54700000D01*
%TO.C,R15*%
X80150000Y-43700000D02*
X80150000Y-40340000D01*
X82050000Y-43700000D02*
X80150000Y-43700000D01*
X80150000Y-40340000D02*
X82050000Y-40340000D01*
X82050000Y-40340000D02*
X82050000Y-43700000D01*
%TO.C,J3*%
X76300000Y-38820000D02*
X92600000Y-38820000D01*
X92600000Y-38820000D02*
X92600000Y-35220000D01*
X76300000Y-35220000D02*
X76300000Y-38820000D01*
X92600000Y-35220000D02*
X76300000Y-35220000D01*
%TO.C,H*%
X118050000Y-36520000D02*
G75*
G03*
X111150000Y-36520000I-3450000J0D01*
G01*
X111150000Y-36520000D02*
G75*
G03*
X118050000Y-36520000I3450000J0D01*
G01*
%TO.C,U5*%
X96000000Y-43470000D02*
X96000000Y-49120000D01*
X96000000Y-49120000D02*
X105800000Y-49120000D01*
X105800000Y-43470000D02*
X96000000Y-43470000D01*
X105800000Y-49120000D02*
X105800000Y-43470000D01*
%TO.C,J7*%
X108300000Y-56220000D02*
X108300000Y-62370000D01*
X108300000Y-62370000D02*
X111900000Y-62370000D01*
X111900000Y-56220000D02*
X108300000Y-56220000D01*
X111900000Y-62370000D02*
X111900000Y-56220000D01*
%TO.C,J2*%
X56620000Y-83710000D02*
X56620000Y-80160000D01*
X108420000Y-83710000D02*
X56620000Y-83710000D01*
X56620000Y-80160000D02*
X108420000Y-80160000D01*
X108420000Y-80160000D02*
X108420000Y-83710000D01*
%TO.C,U4*%
X80000000Y-43470000D02*
X80000000Y-49120000D01*
X80000000Y-49120000D02*
X89800000Y-49120000D01*
X89800000Y-43470000D02*
X80000000Y-43470000D01*
X89800000Y-49120000D02*
X89800000Y-43470000D01*
%TO.C,H*%
X45050000Y-36520000D02*
G75*
G03*
X38150000Y-36520000I-3450000J0D01*
G01*
X38150000Y-36520000D02*
G75*
G03*
X45050000Y-36520000I3450000J0D01*
G01*
X118050000Y-80149999D02*
G75*
G03*
X111150000Y-80149999I-3450000J0D01*
G01*
X111150000Y-80149999D02*
G75*
G03*
X118050000Y-80149999I3450000J0D01*
G01*
%TO.C,R9*%
X55150000Y-57700000D02*
X55150000Y-54340000D01*
X57050000Y-57700000D02*
X55150000Y-57700000D01*
X55150000Y-54340000D02*
X57050000Y-54340000D01*
X57050000Y-54340000D02*
X57050000Y-57700000D01*
%TO.C,R1*%
X51150000Y-49700000D02*
X51150000Y-46340000D01*
X53050000Y-49700000D02*
X51150000Y-49700000D01*
X51150000Y-46340000D02*
X53050000Y-46340000D01*
X53050000Y-46340000D02*
X53050000Y-49700000D01*
%TO.C,R5*%
X58150000Y-54700000D02*
X58150000Y-51340000D01*
X60050000Y-54700000D02*
X58150000Y-54700000D01*
X58150000Y-51340000D02*
X60050000Y-51340000D01*
X60050000Y-51340000D02*
X60050000Y-54700000D01*
%TO.C,R14*%
X64150000Y-43700000D02*
X64150000Y-40340000D01*
X66050000Y-43700000D02*
X64150000Y-43700000D01*
X64150000Y-40340000D02*
X66050000Y-40340000D01*
X66050000Y-40340000D02*
X66050000Y-43700000D01*
%TO.C,R12*%
X103150000Y-57700000D02*
X103150000Y-54340000D01*
X105050000Y-57700000D02*
X103150000Y-57700000D01*
X103150000Y-54340000D02*
X105050000Y-54340000D01*
X105050000Y-54340000D02*
X105050000Y-57700000D01*
%TO.C,R8*%
X106150000Y-54700000D02*
X106150000Y-51340000D01*
X108050000Y-54700000D02*
X106150000Y-54700000D01*
X106150000Y-51340000D02*
X108050000Y-51340000D01*
X108050000Y-51340000D02*
X108050000Y-54700000D01*
%TD*%
M02*
