%TF.GenerationSoftware,KiCad,Pcbnew,7.0.11+dfsg-1build4*%
%TF.CreationDate,2026-02-12T23:01:59+09:00*%
%TF.ProjectId,actuator_board_v3,61637475-6174-46f7-925f-626f6172645f,rev?*%
%TF.SameCoordinates,Original*%
%TF.FileFunction,Legend,Top*%
%TF.FilePolarity,Positive*%
%FSLAX46Y46*%
G04 Gerber Fmt 4.6, Leading zero omitted, Abs format (unit mm)*
G04 Created by KiCad (PCBNEW 7.0.11+dfsg-1build4) date 2026-02-12 23:01:59*
%MOMM*%
%LPD*%
G01*
G04 APERTURE LIST*
%ADD10C,0.150000*%
%ADD11C,0.120000*%
G04 APERTURE END LIST*
D10*
X52148095Y-42144819D02*
X52148095Y-42954342D01*
X52148095Y-42954342D02*
X52195714Y-43049580D01*
X52195714Y-43049580D02*
X52243333Y-43097200D01*
X52243333Y-43097200D02*
X52338571Y-43144819D01*
X52338571Y-43144819D02*
X52529047Y-43144819D01*
X52529047Y-43144819D02*
X52624285Y-43097200D01*
X52624285Y-43097200D02*
X52671904Y-43049580D01*
X52671904Y-43049580D02*
X52719523Y-42954342D01*
X52719523Y-42954342D02*
X52719523Y-42144819D01*
X53148095Y-42240057D02*
X53195714Y-42192438D01*
X53195714Y-42192438D02*
X53290952Y-42144819D01*
X53290952Y-42144819D02*
X53529047Y-42144819D01*
X53529047Y-42144819D02*
X53624285Y-42192438D01*
X53624285Y-42192438D02*
X53671904Y-42240057D01*
X53671904Y-42240057D02*
X53719523Y-42335295D01*
X53719523Y-42335295D02*
X53719523Y-42430533D01*
X53719523Y-42430533D02*
X53671904Y-42573390D01*
X53671904Y-42573390D02*
X53100476Y-43144819D01*
X53100476Y-43144819D02*
X53719523Y-43144819D01*
X86904819Y-56662857D02*
X86428628Y-56996190D01*
X86904819Y-57234285D02*
X85904819Y-57234285D01*
X85904819Y-57234285D02*
X85904819Y-56853333D01*
X85904819Y-56853333D02*
X85952438Y-56758095D01*
X85952438Y-56758095D02*
X86000057Y-56710476D01*
X86000057Y-56710476D02*
X86095295Y-56662857D01*
X86095295Y-56662857D02*
X86238152Y-56662857D01*
X86238152Y-56662857D02*
X86333390Y-56710476D01*
X86333390Y-56710476D02*
X86381009Y-56758095D01*
X86381009Y-56758095D02*
X86428628Y-56853333D01*
X86428628Y-56853333D02*
X86428628Y-57234285D01*
X86904819Y-55710476D02*
X86904819Y-56281904D01*
X86904819Y-55996190D02*
X85904819Y-55996190D01*
X85904819Y-55996190D02*
X86047676Y-56091428D01*
X86047676Y-56091428D02*
X86142914Y-56186666D01*
X86142914Y-56186666D02*
X86190533Y-56281904D01*
X86904819Y-54758095D02*
X86904819Y-55329523D01*
X86904819Y-55043809D02*
X85904819Y-55043809D01*
X85904819Y-55043809D02*
X86047676Y-55139047D01*
X86047676Y-55139047D02*
X86142914Y-55234285D01*
X86142914Y-55234285D02*
X86190533Y-55329523D01*
X66904819Y-48186666D02*
X66428628Y-48519999D01*
X66904819Y-48758094D02*
X65904819Y-48758094D01*
X65904819Y-48758094D02*
X65904819Y-48377142D01*
X65904819Y-48377142D02*
X65952438Y-48281904D01*
X65952438Y-48281904D02*
X66000057Y-48234285D01*
X66000057Y-48234285D02*
X66095295Y-48186666D01*
X66095295Y-48186666D02*
X66238152Y-48186666D01*
X66238152Y-48186666D02*
X66333390Y-48234285D01*
X66333390Y-48234285D02*
X66381009Y-48281904D01*
X66381009Y-48281904D02*
X66428628Y-48377142D01*
X66428628Y-48377142D02*
X66428628Y-48758094D01*
X66000057Y-47805713D02*
X65952438Y-47758094D01*
X65952438Y-47758094D02*
X65904819Y-47662856D01*
X65904819Y-47662856D02*
X65904819Y-47424761D01*
X65904819Y-47424761D02*
X65952438Y-47329523D01*
X65952438Y-47329523D02*
X66000057Y-47281904D01*
X66000057Y-47281904D02*
X66095295Y-47234285D01*
X66095295Y-47234285D02*
X66190533Y-47234285D01*
X66190533Y-47234285D02*
X66333390Y-47281904D01*
X66333390Y-47281904D02*
X66904819Y-47853332D01*
X66904819Y-47853332D02*
X66904819Y-47234285D01*
X82904819Y-48186666D02*
X82428628Y-48519999D01*
X82904819Y-48758094D02*
X81904819Y-48758094D01*
X81904819Y-48758094D02*
X81904819Y-48377142D01*
X81904819Y-48377142D02*
X81952438Y-48281904D01*
X81952438Y-48281904D02*
X82000057Y-48234285D01*
X82000057Y-48234285D02*
X82095295Y-48186666D01*
X82095295Y-48186666D02*
X82238152Y-48186666D01*
X82238152Y-48186666D02*
X82333390Y-48234285D01*
X82333390Y-48234285D02*
X82381009Y-48281904D01*
X82381009Y-48281904D02*
X82428628Y-48377142D01*
X82428628Y-48377142D02*
X82428628Y-48758094D01*
X81904819Y-47853332D02*
X81904819Y-47234285D01*
X81904819Y-47234285D02*
X82285771Y-47567618D01*
X82285771Y-47567618D02*
X82285771Y-47424761D01*
X82285771Y-47424761D02*
X82333390Y-47329523D01*
X82333390Y-47329523D02*
X82381009Y-47281904D01*
X82381009Y-47281904D02*
X82476247Y-47234285D01*
X82476247Y-47234285D02*
X82714342Y-47234285D01*
X82714342Y-47234285D02*
X82809580Y-47281904D01*
X82809580Y-47281904D02*
X82857200Y-47329523D01*
X82857200Y-47329523D02*
X82904819Y-47424761D01*
X82904819Y-47424761D02*
X82904819Y-47710475D01*
X82904819Y-47710475D02*
X82857200Y-47805713D01*
X82857200Y-47805713D02*
X82809580Y-47853332D01*
X68148095Y-42144819D02*
X68148095Y-42954342D01*
X68148095Y-42954342D02*
X68195714Y-43049580D01*
X68195714Y-43049580D02*
X68243333Y-43097200D01*
X68243333Y-43097200D02*
X68338571Y-43144819D01*
X68338571Y-43144819D02*
X68529047Y-43144819D01*
X68529047Y-43144819D02*
X68624285Y-43097200D01*
X68624285Y-43097200D02*
X68671904Y-43049580D01*
X68671904Y-43049580D02*
X68719523Y-42954342D01*
X68719523Y-42954342D02*
X68719523Y-42144819D01*
X69100476Y-42144819D02*
X69719523Y-42144819D01*
X69719523Y-42144819D02*
X69386190Y-42525771D01*
X69386190Y-42525771D02*
X69529047Y-42525771D01*
X69529047Y-42525771D02*
X69624285Y-42573390D01*
X69624285Y-42573390D02*
X69671904Y-42621009D01*
X69671904Y-42621009D02*
X69719523Y-42716247D01*
X69719523Y-42716247D02*
X69719523Y-42954342D01*
X69719523Y-42954342D02*
X69671904Y-43049580D01*
X69671904Y-43049580D02*
X69624285Y-43097200D01*
X69624285Y-43097200D02*
X69529047Y-43144819D01*
X69529047Y-43144819D02*
X69243333Y-43144819D01*
X69243333Y-43144819D02*
X69148095Y-43097200D01*
X69148095Y-43097200D02*
X69100476Y-43049580D01*
X47904819Y-42662857D02*
X47428628Y-42996190D01*
X47904819Y-43234285D02*
X46904819Y-43234285D01*
X46904819Y-43234285D02*
X46904819Y-42853333D01*
X46904819Y-42853333D02*
X46952438Y-42758095D01*
X46952438Y-42758095D02*
X47000057Y-42710476D01*
X47000057Y-42710476D02*
X47095295Y-42662857D01*
X47095295Y-42662857D02*
X47238152Y-42662857D01*
X47238152Y-42662857D02*
X47333390Y-42710476D01*
X47333390Y-42710476D02*
X47381009Y-42758095D01*
X47381009Y-42758095D02*
X47428628Y-42853333D01*
X47428628Y-42853333D02*
X47428628Y-43234285D01*
X47904819Y-41710476D02*
X47904819Y-42281904D01*
X47904819Y-41996190D02*
X46904819Y-41996190D01*
X46904819Y-41996190D02*
X47047676Y-42091428D01*
X47047676Y-42091428D02*
X47142914Y-42186666D01*
X47142914Y-42186666D02*
X47190533Y-42281904D01*
X46904819Y-41377142D02*
X46904819Y-40758095D01*
X46904819Y-40758095D02*
X47285771Y-41091428D01*
X47285771Y-41091428D02*
X47285771Y-40948571D01*
X47285771Y-40948571D02*
X47333390Y-40853333D01*
X47333390Y-40853333D02*
X47381009Y-40805714D01*
X47381009Y-40805714D02*
X47476247Y-40758095D01*
X47476247Y-40758095D02*
X47714342Y-40758095D01*
X47714342Y-40758095D02*
X47809580Y-40805714D01*
X47809580Y-40805714D02*
X47857200Y-40853333D01*
X47857200Y-40853333D02*
X47904819Y-40948571D01*
X47904819Y-40948571D02*
X47904819Y-41234285D01*
X47904819Y-41234285D02*
X47857200Y-41329523D01*
X47857200Y-41329523D02*
X47809580Y-41377142D01*
X89004761Y-49170057D02*
X88909523Y-49122438D01*
X88909523Y-49122438D02*
X88814285Y-49027200D01*
X88814285Y-49027200D02*
X88671428Y-48884342D01*
X88671428Y-48884342D02*
X88576190Y-48836723D01*
X88576190Y-48836723D02*
X88480952Y-48836723D01*
X88528571Y-49074819D02*
X88433333Y-49027200D01*
X88433333Y-49027200D02*
X88338095Y-48931961D01*
X88338095Y-48931961D02*
X88290476Y-48741485D01*
X88290476Y-48741485D02*
X88290476Y-48408152D01*
X88290476Y-48408152D02*
X88338095Y-48217676D01*
X88338095Y-48217676D02*
X88433333Y-48122438D01*
X88433333Y-48122438D02*
X88528571Y-48074819D01*
X88528571Y-48074819D02*
X88719047Y-48074819D01*
X88719047Y-48074819D02*
X88814285Y-48122438D01*
X88814285Y-48122438D02*
X88909523Y-48217676D01*
X88909523Y-48217676D02*
X88957142Y-48408152D01*
X88957142Y-48408152D02*
X88957142Y-48741485D01*
X88957142Y-48741485D02*
X88909523Y-48931961D01*
X88909523Y-48931961D02*
X88814285Y-49027200D01*
X88814285Y-49027200D02*
X88719047Y-49074819D01*
X88719047Y-49074819D02*
X88528571Y-49074819D01*
X89290476Y-48074819D02*
X89909523Y-48074819D01*
X89909523Y-48074819D02*
X89576190Y-48455771D01*
X89576190Y-48455771D02*
X89719047Y-48455771D01*
X89719047Y-48455771D02*
X89814285Y-48503390D01*
X89814285Y-48503390D02*
X89861904Y-48551009D01*
X89861904Y-48551009D02*
X89909523Y-48646247D01*
X89909523Y-48646247D02*
X89909523Y-48884342D01*
X89909523Y-48884342D02*
X89861904Y-48979580D01*
X89861904Y-48979580D02*
X89814285Y-49027200D01*
X89814285Y-49027200D02*
X89719047Y-49074819D01*
X89719047Y-49074819D02*
X89433333Y-49074819D01*
X89433333Y-49074819D02*
X89338095Y-49027200D01*
X89338095Y-49027200D02*
X89290476Y-48979580D01*
X112843333Y-41679580D02*
X112795714Y-41727200D01*
X112795714Y-41727200D02*
X112652857Y-41774819D01*
X112652857Y-41774819D02*
X112557619Y-41774819D01*
X112557619Y-41774819D02*
X112414762Y-41727200D01*
X112414762Y-41727200D02*
X112319524Y-41631961D01*
X112319524Y-41631961D02*
X112271905Y-41536723D01*
X112271905Y-41536723D02*
X112224286Y-41346247D01*
X112224286Y-41346247D02*
X112224286Y-41203390D01*
X112224286Y-41203390D02*
X112271905Y-41012914D01*
X112271905Y-41012914D02*
X112319524Y-40917676D01*
X112319524Y-40917676D02*
X112414762Y-40822438D01*
X112414762Y-40822438D02*
X112557619Y-40774819D01*
X112557619Y-40774819D02*
X112652857Y-40774819D01*
X112652857Y-40774819D02*
X112795714Y-40822438D01*
X112795714Y-40822438D02*
X112843333Y-40870057D01*
X113795714Y-41774819D02*
X113224286Y-41774819D01*
X113510000Y-41774819D02*
X113510000Y-40774819D01*
X113510000Y-40774819D02*
X113414762Y-40917676D01*
X113414762Y-40917676D02*
X113319524Y-41012914D01*
X113319524Y-41012914D02*
X113224286Y-41060533D01*
X84904819Y-57139047D02*
X84904819Y-57615237D01*
X84904819Y-57615237D02*
X83904819Y-57615237D01*
X84381009Y-56805713D02*
X84381009Y-56472380D01*
X84904819Y-56329523D02*
X84904819Y-56805713D01*
X84904819Y-56805713D02*
X83904819Y-56805713D01*
X83904819Y-56805713D02*
X83904819Y-56329523D01*
X84904819Y-55900951D02*
X83904819Y-55900951D01*
X83904819Y-55900951D02*
X83904819Y-55662856D01*
X83904819Y-55662856D02*
X83952438Y-55519999D01*
X83952438Y-55519999D02*
X84047676Y-55424761D01*
X84047676Y-55424761D02*
X84142914Y-55377142D01*
X84142914Y-55377142D02*
X84333390Y-55329523D01*
X84333390Y-55329523D02*
X84476247Y-55329523D01*
X84476247Y-55329523D02*
X84666723Y-55377142D01*
X84666723Y-55377142D02*
X84761961Y-55424761D01*
X84761961Y-55424761D02*
X84857200Y-55519999D01*
X84857200Y-55519999D02*
X84904819Y-55662856D01*
X84904819Y-55662856D02*
X84904819Y-55900951D01*
X83904819Y-54996189D02*
X83904819Y-54377142D01*
X83904819Y-54377142D02*
X84285771Y-54710475D01*
X84285771Y-54710475D02*
X84285771Y-54567618D01*
X84285771Y-54567618D02*
X84333390Y-54472380D01*
X84333390Y-54472380D02*
X84381009Y-54424761D01*
X84381009Y-54424761D02*
X84476247Y-54377142D01*
X84476247Y-54377142D02*
X84714342Y-54377142D01*
X84714342Y-54377142D02*
X84809580Y-54424761D01*
X84809580Y-54424761D02*
X84857200Y-54472380D01*
X84857200Y-54472380D02*
X84904819Y-54567618D01*
X84904819Y-54567618D02*
X84904819Y-54853332D01*
X84904819Y-54853332D02*
X84857200Y-54948570D01*
X84857200Y-54948570D02*
X84809580Y-54996189D01*
X100904819Y-57139047D02*
X100904819Y-57615237D01*
X100904819Y-57615237D02*
X99904819Y-57615237D01*
X100381009Y-56805713D02*
X100381009Y-56472380D01*
X100904819Y-56329523D02*
X100904819Y-56805713D01*
X100904819Y-56805713D02*
X99904819Y-56805713D01*
X99904819Y-56805713D02*
X99904819Y-56329523D01*
X100904819Y-55900951D02*
X99904819Y-55900951D01*
X99904819Y-55900951D02*
X99904819Y-55662856D01*
X99904819Y-55662856D02*
X99952438Y-55519999D01*
X99952438Y-55519999D02*
X100047676Y-55424761D01*
X100047676Y-55424761D02*
X100142914Y-55377142D01*
X100142914Y-55377142D02*
X100333390Y-55329523D01*
X100333390Y-55329523D02*
X100476247Y-55329523D01*
X100476247Y-55329523D02*
X100666723Y-55377142D01*
X100666723Y-55377142D02*
X100761961Y-55424761D01*
X100761961Y-55424761D02*
X100857200Y-55519999D01*
X100857200Y-55519999D02*
X100904819Y-55662856D01*
X100904819Y-55662856D02*
X100904819Y-55900951D01*
X100238152Y-54472380D02*
X100904819Y-54472380D01*
X99857200Y-54710475D02*
X100571485Y-54948570D01*
X100571485Y-54948570D02*
X100571485Y-54329523D01*
X77933333Y-72329579D02*
X77885714Y-72377199D01*
X77885714Y-72377199D02*
X77742857Y-72424818D01*
X77742857Y-72424818D02*
X77647619Y-72424818D01*
X77647619Y-72424818D02*
X77504762Y-72377199D01*
X77504762Y-72377199D02*
X77409524Y-72281960D01*
X77409524Y-72281960D02*
X77361905Y-72186722D01*
X77361905Y-72186722D02*
X77314286Y-71996246D01*
X77314286Y-71996246D02*
X77314286Y-71853389D01*
X77314286Y-71853389D02*
X77361905Y-71662913D01*
X77361905Y-71662913D02*
X77409524Y-71567675D01*
X77409524Y-71567675D02*
X77504762Y-71472437D01*
X77504762Y-71472437D02*
X77647619Y-71424818D01*
X77647619Y-71424818D02*
X77742857Y-71424818D01*
X77742857Y-71424818D02*
X77885714Y-71472437D01*
X77885714Y-71472437D02*
X77933333Y-71520056D01*
X78314286Y-71520056D02*
X78361905Y-71472437D01*
X78361905Y-71472437D02*
X78457143Y-71424818D01*
X78457143Y-71424818D02*
X78695238Y-71424818D01*
X78695238Y-71424818D02*
X78790476Y-71472437D01*
X78790476Y-71472437D02*
X78838095Y-71520056D01*
X78838095Y-71520056D02*
X78885714Y-71615294D01*
X78885714Y-71615294D02*
X78885714Y-71710532D01*
X78885714Y-71710532D02*
X78838095Y-71853389D01*
X78838095Y-71853389D02*
X78266667Y-72424818D01*
X78266667Y-72424818D02*
X78885714Y-72424818D01*
X68904819Y-57139047D02*
X68904819Y-57615237D01*
X68904819Y-57615237D02*
X67904819Y-57615237D01*
X68381009Y-56805713D02*
X68381009Y-56472380D01*
X68904819Y-56329523D02*
X68904819Y-56805713D01*
X68904819Y-56805713D02*
X67904819Y-56805713D01*
X67904819Y-56805713D02*
X67904819Y-56329523D01*
X68904819Y-55900951D02*
X67904819Y-55900951D01*
X67904819Y-55900951D02*
X67904819Y-55662856D01*
X67904819Y-55662856D02*
X67952438Y-55519999D01*
X67952438Y-55519999D02*
X68047676Y-55424761D01*
X68047676Y-55424761D02*
X68142914Y-55377142D01*
X68142914Y-55377142D02*
X68333390Y-55329523D01*
X68333390Y-55329523D02*
X68476247Y-55329523D01*
X68476247Y-55329523D02*
X68666723Y-55377142D01*
X68666723Y-55377142D02*
X68761961Y-55424761D01*
X68761961Y-55424761D02*
X68857200Y-55519999D01*
X68857200Y-55519999D02*
X68904819Y-55662856D01*
X68904819Y-55662856D02*
X68904819Y-55900951D01*
X68000057Y-54948570D02*
X67952438Y-54900951D01*
X67952438Y-54900951D02*
X67904819Y-54805713D01*
X67904819Y-54805713D02*
X67904819Y-54567618D01*
X67904819Y-54567618D02*
X67952438Y-54472380D01*
X67952438Y-54472380D02*
X68000057Y-54424761D01*
X68000057Y-54424761D02*
X68095295Y-54377142D01*
X68095295Y-54377142D02*
X68190533Y-54377142D01*
X68190533Y-54377142D02*
X68333390Y-54424761D01*
X68333390Y-54424761D02*
X68904819Y-54996189D01*
X68904819Y-54996189D02*
X68904819Y-54377142D01*
X70904819Y-56662857D02*
X70428628Y-56996190D01*
X70904819Y-57234285D02*
X69904819Y-57234285D01*
X69904819Y-57234285D02*
X69904819Y-56853333D01*
X69904819Y-56853333D02*
X69952438Y-56758095D01*
X69952438Y-56758095D02*
X70000057Y-56710476D01*
X70000057Y-56710476D02*
X70095295Y-56662857D01*
X70095295Y-56662857D02*
X70238152Y-56662857D01*
X70238152Y-56662857D02*
X70333390Y-56710476D01*
X70333390Y-56710476D02*
X70381009Y-56758095D01*
X70381009Y-56758095D02*
X70428628Y-56853333D01*
X70428628Y-56853333D02*
X70428628Y-57234285D01*
X70904819Y-55710476D02*
X70904819Y-56281904D01*
X70904819Y-55996190D02*
X69904819Y-55996190D01*
X69904819Y-55996190D02*
X70047676Y-56091428D01*
X70047676Y-56091428D02*
X70142914Y-56186666D01*
X70142914Y-56186666D02*
X70190533Y-56281904D01*
X69904819Y-55091428D02*
X69904819Y-54996190D01*
X69904819Y-54996190D02*
X69952438Y-54900952D01*
X69952438Y-54900952D02*
X70000057Y-54853333D01*
X70000057Y-54853333D02*
X70095295Y-54805714D01*
X70095295Y-54805714D02*
X70285771Y-54758095D01*
X70285771Y-54758095D02*
X70523866Y-54758095D01*
X70523866Y-54758095D02*
X70714342Y-54805714D01*
X70714342Y-54805714D02*
X70809580Y-54853333D01*
X70809580Y-54853333D02*
X70857200Y-54900952D01*
X70857200Y-54900952D02*
X70904819Y-54996190D01*
X70904819Y-54996190D02*
X70904819Y-55091428D01*
X70904819Y-55091428D02*
X70857200Y-55186666D01*
X70857200Y-55186666D02*
X70809580Y-55234285D01*
X70809580Y-55234285D02*
X70714342Y-55281904D01*
X70714342Y-55281904D02*
X70523866Y-55329523D01*
X70523866Y-55329523D02*
X70285771Y-55329523D01*
X70285771Y-55329523D02*
X70095295Y-55281904D01*
X70095295Y-55281904D02*
X70000057Y-55234285D01*
X70000057Y-55234285D02*
X69952438Y-55186666D01*
X69952438Y-55186666D02*
X69904819Y-55091428D01*
X41314286Y-76404818D02*
X41314286Y-75404818D01*
X41314286Y-75881008D02*
X41885714Y-75881008D01*
X41885714Y-76404818D02*
X41885714Y-75404818D01*
X52904819Y-57139047D02*
X52904819Y-57615237D01*
X52904819Y-57615237D02*
X51904819Y-57615237D01*
X52381009Y-56805713D02*
X52381009Y-56472380D01*
X52904819Y-56329523D02*
X52904819Y-56805713D01*
X52904819Y-56805713D02*
X51904819Y-56805713D01*
X51904819Y-56805713D02*
X51904819Y-56329523D01*
X52904819Y-55900951D02*
X51904819Y-55900951D01*
X51904819Y-55900951D02*
X51904819Y-55662856D01*
X51904819Y-55662856D02*
X51952438Y-55519999D01*
X51952438Y-55519999D02*
X52047676Y-55424761D01*
X52047676Y-55424761D02*
X52142914Y-55377142D01*
X52142914Y-55377142D02*
X52333390Y-55329523D01*
X52333390Y-55329523D02*
X52476247Y-55329523D01*
X52476247Y-55329523D02*
X52666723Y-55377142D01*
X52666723Y-55377142D02*
X52761961Y-55424761D01*
X52761961Y-55424761D02*
X52857200Y-55519999D01*
X52857200Y-55519999D02*
X52904819Y-55662856D01*
X52904819Y-55662856D02*
X52904819Y-55900951D01*
X52904819Y-54377142D02*
X52904819Y-54948570D01*
X52904819Y-54662856D02*
X51904819Y-54662856D01*
X51904819Y-54662856D02*
X52047676Y-54758094D01*
X52047676Y-54758094D02*
X52142914Y-54853332D01*
X52142914Y-54853332D02*
X52190533Y-54948570D01*
X95904819Y-42662857D02*
X95428628Y-42996190D01*
X95904819Y-43234285D02*
X94904819Y-43234285D01*
X94904819Y-43234285D02*
X94904819Y-42853333D01*
X94904819Y-42853333D02*
X94952438Y-42758095D01*
X94952438Y-42758095D02*
X95000057Y-42710476D01*
X95000057Y-42710476D02*
X95095295Y-42662857D01*
X95095295Y-42662857D02*
X95238152Y-42662857D01*
X95238152Y-42662857D02*
X95333390Y-42710476D01*
X95333390Y-42710476D02*
X95381009Y-42758095D01*
X95381009Y-42758095D02*
X95428628Y-42853333D01*
X95428628Y-42853333D02*
X95428628Y-43234285D01*
X95904819Y-41710476D02*
X95904819Y-42281904D01*
X95904819Y-41996190D02*
X94904819Y-41996190D01*
X94904819Y-41996190D02*
X95047676Y-42091428D01*
X95047676Y-42091428D02*
X95142914Y-42186666D01*
X95142914Y-42186666D02*
X95190533Y-42281904D01*
X94904819Y-40853333D02*
X94904819Y-41043809D01*
X94904819Y-41043809D02*
X94952438Y-41139047D01*
X94952438Y-41139047D02*
X95000057Y-41186666D01*
X95000057Y-41186666D02*
X95142914Y-41281904D01*
X95142914Y-41281904D02*
X95333390Y-41329523D01*
X95333390Y-41329523D02*
X95714342Y-41329523D01*
X95714342Y-41329523D02*
X95809580Y-41281904D01*
X95809580Y-41281904D02*
X95857200Y-41234285D01*
X95857200Y-41234285D02*
X95904819Y-41139047D01*
X95904819Y-41139047D02*
X95904819Y-40948571D01*
X95904819Y-40948571D02*
X95857200Y-40853333D01*
X95857200Y-40853333D02*
X95809580Y-40805714D01*
X95809580Y-40805714D02*
X95714342Y-40758095D01*
X95714342Y-40758095D02*
X95476247Y-40758095D01*
X95476247Y-40758095D02*
X95381009Y-40805714D01*
X95381009Y-40805714D02*
X95333390Y-40853333D01*
X95333390Y-40853333D02*
X95285771Y-40948571D01*
X95285771Y-40948571D02*
X95285771Y-41139047D01*
X95285771Y-41139047D02*
X95333390Y-41234285D01*
X95333390Y-41234285D02*
X95381009Y-41281904D01*
X95381009Y-41281904D02*
X95476247Y-41329523D01*
X98904819Y-48186666D02*
X98428628Y-48519999D01*
X98904819Y-48758094D02*
X97904819Y-48758094D01*
X97904819Y-48758094D02*
X97904819Y-48377142D01*
X97904819Y-48377142D02*
X97952438Y-48281904D01*
X97952438Y-48281904D02*
X98000057Y-48234285D01*
X98000057Y-48234285D02*
X98095295Y-48186666D01*
X98095295Y-48186666D02*
X98238152Y-48186666D01*
X98238152Y-48186666D02*
X98333390Y-48234285D01*
X98333390Y-48234285D02*
X98381009Y-48281904D01*
X98381009Y-48281904D02*
X98428628Y-48377142D01*
X98428628Y-48377142D02*
X98428628Y-48758094D01*
X98238152Y-47329523D02*
X98904819Y-47329523D01*
X97857200Y-47567618D02*
X98571485Y-47805713D01*
X98571485Y-47805713D02*
X98571485Y-47186666D01*
X55104819Y-64463333D02*
X55819104Y-64463333D01*
X55819104Y-64463333D02*
X55961961Y-64510952D01*
X55961961Y-64510952D02*
X56057200Y-64606190D01*
X56057200Y-64606190D02*
X56104819Y-64749047D01*
X56104819Y-64749047D02*
X56104819Y-64844285D01*
X56104819Y-63463333D02*
X56104819Y-64034761D01*
X56104819Y-63749047D02*
X55104819Y-63749047D01*
X55104819Y-63749047D02*
X55247676Y-63844285D01*
X55247676Y-63844285D02*
X55342914Y-63939523D01*
X55342914Y-63939523D02*
X55390533Y-64034761D01*
X73004761Y-49170057D02*
X72909523Y-49122438D01*
X72909523Y-49122438D02*
X72814285Y-49027200D01*
X72814285Y-49027200D02*
X72671428Y-48884342D01*
X72671428Y-48884342D02*
X72576190Y-48836723D01*
X72576190Y-48836723D02*
X72480952Y-48836723D01*
X72528571Y-49074819D02*
X72433333Y-49027200D01*
X72433333Y-49027200D02*
X72338095Y-48931961D01*
X72338095Y-48931961D02*
X72290476Y-48741485D01*
X72290476Y-48741485D02*
X72290476Y-48408152D01*
X72290476Y-48408152D02*
X72338095Y-48217676D01*
X72338095Y-48217676D02*
X72433333Y-48122438D01*
X72433333Y-48122438D02*
X72528571Y-48074819D01*
X72528571Y-48074819D02*
X72719047Y-48074819D01*
X72719047Y-48074819D02*
X72814285Y-48122438D01*
X72814285Y-48122438D02*
X72909523Y-48217676D01*
X72909523Y-48217676D02*
X72957142Y-48408152D01*
X72957142Y-48408152D02*
X72957142Y-48741485D01*
X72957142Y-48741485D02*
X72909523Y-48931961D01*
X72909523Y-48931961D02*
X72814285Y-49027200D01*
X72814285Y-49027200D02*
X72719047Y-49074819D01*
X72719047Y-49074819D02*
X72528571Y-49074819D01*
X73338095Y-48170057D02*
X73385714Y-48122438D01*
X73385714Y-48122438D02*
X73480952Y-48074819D01*
X73480952Y-48074819D02*
X73719047Y-48074819D01*
X73719047Y-48074819D02*
X73814285Y-48122438D01*
X73814285Y-48122438D02*
X73861904Y-48170057D01*
X73861904Y-48170057D02*
X73909523Y-48265295D01*
X73909523Y-48265295D02*
X73909523Y-48360533D01*
X73909523Y-48360533D02*
X73861904Y-48503390D01*
X73861904Y-48503390D02*
X73290476Y-49074819D01*
X73290476Y-49074819D02*
X73909523Y-49074819D01*
X105004761Y-49170057D02*
X104909523Y-49122438D01*
X104909523Y-49122438D02*
X104814285Y-49027200D01*
X104814285Y-49027200D02*
X104671428Y-48884342D01*
X104671428Y-48884342D02*
X104576190Y-48836723D01*
X104576190Y-48836723D02*
X104480952Y-48836723D01*
X104528571Y-49074819D02*
X104433333Y-49027200D01*
X104433333Y-49027200D02*
X104338095Y-48931961D01*
X104338095Y-48931961D02*
X104290476Y-48741485D01*
X104290476Y-48741485D02*
X104290476Y-48408152D01*
X104290476Y-48408152D02*
X104338095Y-48217676D01*
X104338095Y-48217676D02*
X104433333Y-48122438D01*
X104433333Y-48122438D02*
X104528571Y-48074819D01*
X104528571Y-48074819D02*
X104719047Y-48074819D01*
X104719047Y-48074819D02*
X104814285Y-48122438D01*
X104814285Y-48122438D02*
X104909523Y-48217676D01*
X104909523Y-48217676D02*
X104957142Y-48408152D01*
X104957142Y-48408152D02*
X104957142Y-48741485D01*
X104957142Y-48741485D02*
X104909523Y-48931961D01*
X104909523Y-48931961D02*
X104814285Y-49027200D01*
X104814285Y-49027200D02*
X104719047Y-49074819D01*
X104719047Y-49074819D02*
X104528571Y-49074819D01*
X105814285Y-48408152D02*
X105814285Y-49074819D01*
X105576190Y-48027200D02*
X105338095Y-48741485D01*
X105338095Y-48741485D02*
X105957142Y-48741485D01*
X57004761Y-49170057D02*
X56909523Y-49122438D01*
X56909523Y-49122438D02*
X56814285Y-49027200D01*
X56814285Y-49027200D02*
X56671428Y-48884342D01*
X56671428Y-48884342D02*
X56576190Y-48836723D01*
X56576190Y-48836723D02*
X56480952Y-48836723D01*
X56528571Y-49074819D02*
X56433333Y-49027200D01*
X56433333Y-49027200D02*
X56338095Y-48931961D01*
X56338095Y-48931961D02*
X56290476Y-48741485D01*
X56290476Y-48741485D02*
X56290476Y-48408152D01*
X56290476Y-48408152D02*
X56338095Y-48217676D01*
X56338095Y-48217676D02*
X56433333Y-48122438D01*
X56433333Y-48122438D02*
X56528571Y-48074819D01*
X56528571Y-48074819D02*
X56719047Y-48074819D01*
X56719047Y-48074819D02*
X56814285Y-48122438D01*
X56814285Y-48122438D02*
X56909523Y-48217676D01*
X56909523Y-48217676D02*
X56957142Y-48408152D01*
X56957142Y-48408152D02*
X56957142Y-48741485D01*
X56957142Y-48741485D02*
X56909523Y-48931961D01*
X56909523Y-48931961D02*
X56814285Y-49027200D01*
X56814285Y-49027200D02*
X56719047Y-49074819D01*
X56719047Y-49074819D02*
X56528571Y-49074819D01*
X57909523Y-49074819D02*
X57338095Y-49074819D01*
X57623809Y-49074819D02*
X57623809Y-48074819D01*
X57623809Y-48074819D02*
X57528571Y-48217676D01*
X57528571Y-48217676D02*
X57433333Y-48312914D01*
X57433333Y-48312914D02*
X57338095Y-48360533D01*
X89904819Y-53186666D02*
X89428628Y-53519999D01*
X89904819Y-53758094D02*
X88904819Y-53758094D01*
X88904819Y-53758094D02*
X88904819Y-53377142D01*
X88904819Y-53377142D02*
X88952438Y-53281904D01*
X88952438Y-53281904D02*
X89000057Y-53234285D01*
X89000057Y-53234285D02*
X89095295Y-53186666D01*
X89095295Y-53186666D02*
X89238152Y-53186666D01*
X89238152Y-53186666D02*
X89333390Y-53234285D01*
X89333390Y-53234285D02*
X89381009Y-53281904D01*
X89381009Y-53281904D02*
X89428628Y-53377142D01*
X89428628Y-53377142D02*
X89428628Y-53758094D01*
X88904819Y-52853332D02*
X88904819Y-52186666D01*
X88904819Y-52186666D02*
X89904819Y-52615237D01*
X73904819Y-53186666D02*
X73428628Y-53519999D01*
X73904819Y-53758094D02*
X72904819Y-53758094D01*
X72904819Y-53758094D02*
X72904819Y-53377142D01*
X72904819Y-53377142D02*
X72952438Y-53281904D01*
X72952438Y-53281904D02*
X73000057Y-53234285D01*
X73000057Y-53234285D02*
X73095295Y-53186666D01*
X73095295Y-53186666D02*
X73238152Y-53186666D01*
X73238152Y-53186666D02*
X73333390Y-53234285D01*
X73333390Y-53234285D02*
X73381009Y-53281904D01*
X73381009Y-53281904D02*
X73428628Y-53377142D01*
X73428628Y-53377142D02*
X73428628Y-53758094D01*
X72904819Y-52329523D02*
X72904819Y-52519999D01*
X72904819Y-52519999D02*
X72952438Y-52615237D01*
X72952438Y-52615237D02*
X73000057Y-52662856D01*
X73000057Y-52662856D02*
X73142914Y-52758094D01*
X73142914Y-52758094D02*
X73333390Y-52805713D01*
X73333390Y-52805713D02*
X73714342Y-52805713D01*
X73714342Y-52805713D02*
X73809580Y-52758094D01*
X73809580Y-52758094D02*
X73857200Y-52710475D01*
X73857200Y-52710475D02*
X73904819Y-52615237D01*
X73904819Y-52615237D02*
X73904819Y-52424761D01*
X73904819Y-52424761D02*
X73857200Y-52329523D01*
X73857200Y-52329523D02*
X73809580Y-52281904D01*
X73809580Y-52281904D02*
X73714342Y-52234285D01*
X73714342Y-52234285D02*
X73476247Y-52234285D01*
X73476247Y-52234285D02*
X73381009Y-52281904D01*
X73381009Y-52281904D02*
X73333390Y-52329523D01*
X73333390Y-52329523D02*
X73285771Y-52424761D01*
X73285771Y-52424761D02*
X73285771Y-52615237D01*
X73285771Y-52615237D02*
X73333390Y-52710475D01*
X73333390Y-52710475D02*
X73381009Y-52758094D01*
X73381009Y-52758094D02*
X73476247Y-52805713D01*
X79904819Y-42662857D02*
X79428628Y-42996190D01*
X79904819Y-43234285D02*
X78904819Y-43234285D01*
X78904819Y-43234285D02*
X78904819Y-42853333D01*
X78904819Y-42853333D02*
X78952438Y-42758095D01*
X78952438Y-42758095D02*
X79000057Y-42710476D01*
X79000057Y-42710476D02*
X79095295Y-42662857D01*
X79095295Y-42662857D02*
X79238152Y-42662857D01*
X79238152Y-42662857D02*
X79333390Y-42710476D01*
X79333390Y-42710476D02*
X79381009Y-42758095D01*
X79381009Y-42758095D02*
X79428628Y-42853333D01*
X79428628Y-42853333D02*
X79428628Y-43234285D01*
X79904819Y-41710476D02*
X79904819Y-42281904D01*
X79904819Y-41996190D02*
X78904819Y-41996190D01*
X78904819Y-41996190D02*
X79047676Y-42091428D01*
X79047676Y-42091428D02*
X79142914Y-42186666D01*
X79142914Y-42186666D02*
X79190533Y-42281904D01*
X78904819Y-40805714D02*
X78904819Y-41281904D01*
X78904819Y-41281904D02*
X79381009Y-41329523D01*
X79381009Y-41329523D02*
X79333390Y-41281904D01*
X79333390Y-41281904D02*
X79285771Y-41186666D01*
X79285771Y-41186666D02*
X79285771Y-40948571D01*
X79285771Y-40948571D02*
X79333390Y-40853333D01*
X79333390Y-40853333D02*
X79381009Y-40805714D01*
X79381009Y-40805714D02*
X79476247Y-40758095D01*
X79476247Y-40758095D02*
X79714342Y-40758095D01*
X79714342Y-40758095D02*
X79809580Y-40805714D01*
X79809580Y-40805714D02*
X79857200Y-40853333D01*
X79857200Y-40853333D02*
X79904819Y-40948571D01*
X79904819Y-40948571D02*
X79904819Y-41186666D01*
X79904819Y-41186666D02*
X79857200Y-41281904D01*
X79857200Y-41281904D02*
X79809580Y-41329523D01*
X75224819Y-37353333D02*
X75939104Y-37353333D01*
X75939104Y-37353333D02*
X76081961Y-37400952D01*
X76081961Y-37400952D02*
X76177200Y-37496190D01*
X76177200Y-37496190D02*
X76224819Y-37639047D01*
X76224819Y-37639047D02*
X76224819Y-37734285D01*
X75224819Y-36972380D02*
X75224819Y-36353333D01*
X75224819Y-36353333D02*
X75605771Y-36686666D01*
X75605771Y-36686666D02*
X75605771Y-36543809D01*
X75605771Y-36543809D02*
X75653390Y-36448571D01*
X75653390Y-36448571D02*
X75701009Y-36400952D01*
X75701009Y-36400952D02*
X75796247Y-36353333D01*
X75796247Y-36353333D02*
X76034342Y-36353333D01*
X76034342Y-36353333D02*
X76129580Y-36400952D01*
X76129580Y-36400952D02*
X76177200Y-36448571D01*
X76177200Y-36448571D02*
X76224819Y-36543809D01*
X76224819Y-36543809D02*
X76224819Y-36829523D01*
X76224819Y-36829523D02*
X76177200Y-36924761D01*
X76177200Y-36924761D02*
X76129580Y-36972380D01*
X114314286Y-32774819D02*
X114314286Y-31774819D01*
X114314286Y-32251009D02*
X114885714Y-32251009D01*
X114885714Y-32774819D02*
X114885714Y-31774819D01*
X100148095Y-42144819D02*
X100148095Y-42954342D01*
X100148095Y-42954342D02*
X100195714Y-43049580D01*
X100195714Y-43049580D02*
X100243333Y-43097200D01*
X100243333Y-43097200D02*
X100338571Y-43144819D01*
X100338571Y-43144819D02*
X100529047Y-43144819D01*
X100529047Y-43144819D02*
X100624285Y-43097200D01*
X100624285Y-43097200D02*
X100671904Y-43049580D01*
X100671904Y-43049580D02*
X100719523Y-42954342D01*
X100719523Y-42954342D02*
X100719523Y-42144819D01*
X101671904Y-42144819D02*
X101195714Y-42144819D01*
X101195714Y-42144819D02*
X101148095Y-42621009D01*
X101148095Y-42621009D02*
X101195714Y-42573390D01*
X101195714Y-42573390D02*
X101290952Y-42525771D01*
X101290952Y-42525771D02*
X101529047Y-42525771D01*
X101529047Y-42525771D02*
X101624285Y-42573390D01*
X101624285Y-42573390D02*
X101671904Y-42621009D01*
X101671904Y-42621009D02*
X101719523Y-42716247D01*
X101719523Y-42716247D02*
X101719523Y-42954342D01*
X101719523Y-42954342D02*
X101671904Y-43049580D01*
X101671904Y-43049580D02*
X101624285Y-43097200D01*
X101624285Y-43097200D02*
X101529047Y-43144819D01*
X101529047Y-43144819D02*
X101290952Y-43144819D01*
X101290952Y-43144819D02*
X101195714Y-43097200D01*
X101195714Y-43097200D02*
X101148095Y-43049580D01*
X109766666Y-55144819D02*
X109766666Y-55859104D01*
X109766666Y-55859104D02*
X109719047Y-56001961D01*
X109719047Y-56001961D02*
X109623809Y-56097200D01*
X109623809Y-56097200D02*
X109480952Y-56144819D01*
X109480952Y-56144819D02*
X109385714Y-56144819D01*
X110147619Y-55144819D02*
X110814285Y-55144819D01*
X110814285Y-55144819D02*
X110385714Y-56144819D01*
X55104819Y-82243333D02*
X55819104Y-82243333D01*
X55819104Y-82243333D02*
X55961961Y-82290952D01*
X55961961Y-82290952D02*
X56057200Y-82386190D01*
X56057200Y-82386190D02*
X56104819Y-82529047D01*
X56104819Y-82529047D02*
X56104819Y-82624285D01*
X55200057Y-81814761D02*
X55152438Y-81767142D01*
X55152438Y-81767142D02*
X55104819Y-81671904D01*
X55104819Y-81671904D02*
X55104819Y-81433809D01*
X55104819Y-81433809D02*
X55152438Y-81338571D01*
X55152438Y-81338571D02*
X55200057Y-81290952D01*
X55200057Y-81290952D02*
X55295295Y-81243333D01*
X55295295Y-81243333D02*
X55390533Y-81243333D01*
X55390533Y-81243333D02*
X55533390Y-81290952D01*
X55533390Y-81290952D02*
X56104819Y-81862380D01*
X56104819Y-81862380D02*
X56104819Y-81243333D01*
X84148095Y-42144819D02*
X84148095Y-42954342D01*
X84148095Y-42954342D02*
X84195714Y-43049580D01*
X84195714Y-43049580D02*
X84243333Y-43097200D01*
X84243333Y-43097200D02*
X84338571Y-43144819D01*
X84338571Y-43144819D02*
X84529047Y-43144819D01*
X84529047Y-43144819D02*
X84624285Y-43097200D01*
X84624285Y-43097200D02*
X84671904Y-43049580D01*
X84671904Y-43049580D02*
X84719523Y-42954342D01*
X84719523Y-42954342D02*
X84719523Y-42144819D01*
X85624285Y-42478152D02*
X85624285Y-43144819D01*
X85386190Y-42097200D02*
X85148095Y-42811485D01*
X85148095Y-42811485D02*
X85767142Y-42811485D01*
X41314286Y-32774819D02*
X41314286Y-31774819D01*
X41314286Y-32251009D02*
X41885714Y-32251009D01*
X41885714Y-32774819D02*
X41885714Y-31774819D01*
X114314286Y-76404818D02*
X114314286Y-75404818D01*
X114314286Y-75881008D02*
X114885714Y-75881008D01*
X114885714Y-76404818D02*
X114885714Y-75404818D01*
X54904819Y-56186666D02*
X54428628Y-56519999D01*
X54904819Y-56758094D02*
X53904819Y-56758094D01*
X53904819Y-56758094D02*
X53904819Y-56377142D01*
X53904819Y-56377142D02*
X53952438Y-56281904D01*
X53952438Y-56281904D02*
X54000057Y-56234285D01*
X54000057Y-56234285D02*
X54095295Y-56186666D01*
X54095295Y-56186666D02*
X54238152Y-56186666D01*
X54238152Y-56186666D02*
X54333390Y-56234285D01*
X54333390Y-56234285D02*
X54381009Y-56281904D01*
X54381009Y-56281904D02*
X54428628Y-56377142D01*
X54428628Y-56377142D02*
X54428628Y-56758094D01*
X54904819Y-55710475D02*
X54904819Y-55519999D01*
X54904819Y-55519999D02*
X54857200Y-55424761D01*
X54857200Y-55424761D02*
X54809580Y-55377142D01*
X54809580Y-55377142D02*
X54666723Y-55281904D01*
X54666723Y-55281904D02*
X54476247Y-55234285D01*
X54476247Y-55234285D02*
X54095295Y-55234285D01*
X54095295Y-55234285D02*
X54000057Y-55281904D01*
X54000057Y-55281904D02*
X53952438Y-55329523D01*
X53952438Y-55329523D02*
X53904819Y-55424761D01*
X53904819Y-55424761D02*
X53904819Y-55615237D01*
X53904819Y-55615237D02*
X53952438Y-55710475D01*
X53952438Y-55710475D02*
X54000057Y-55758094D01*
X54000057Y-55758094D02*
X54095295Y-55805713D01*
X54095295Y-55805713D02*
X54333390Y-55805713D01*
X54333390Y-55805713D02*
X54428628Y-55758094D01*
X54428628Y-55758094D02*
X54476247Y-55710475D01*
X54476247Y-55710475D02*
X54523866Y-55615237D01*
X54523866Y-55615237D02*
X54523866Y-55424761D01*
X54523866Y-55424761D02*
X54476247Y-55329523D01*
X54476247Y-55329523D02*
X54428628Y-55281904D01*
X54428628Y-55281904D02*
X54333390Y-55234285D01*
X50904819Y-48186666D02*
X50428628Y-48519999D01*
X50904819Y-48758094D02*
X49904819Y-48758094D01*
X49904819Y-48758094D02*
X49904819Y-48377142D01*
X49904819Y-48377142D02*
X49952438Y-48281904D01*
X49952438Y-48281904D02*
X50000057Y-48234285D01*
X50000057Y-48234285D02*
X50095295Y-48186666D01*
X50095295Y-48186666D02*
X50238152Y-48186666D01*
X50238152Y-48186666D02*
X50333390Y-48234285D01*
X50333390Y-48234285D02*
X50381009Y-48281904D01*
X50381009Y-48281904D02*
X50428628Y-48377142D01*
X50428628Y-48377142D02*
X50428628Y-48758094D01*
X50904819Y-47234285D02*
X50904819Y-47805713D01*
X50904819Y-47519999D02*
X49904819Y-47519999D01*
X49904819Y-47519999D02*
X50047676Y-47615237D01*
X50047676Y-47615237D02*
X50142914Y-47710475D01*
X50142914Y-47710475D02*
X50190533Y-47805713D01*
X57904819Y-53186666D02*
X57428628Y-53519999D01*
X57904819Y-53758094D02*
X56904819Y-53758094D01*
X56904819Y-53758094D02*
X56904819Y-53377142D01*
X56904819Y-53377142D02*
X56952438Y-53281904D01*
X56952438Y-53281904D02*
X57000057Y-53234285D01*
X57000057Y-53234285D02*
X57095295Y-53186666D01*
X57095295Y-53186666D02*
X57238152Y-53186666D01*
X57238152Y-53186666D02*
X57333390Y-53234285D01*
X57333390Y-53234285D02*
X57381009Y-53281904D01*
X57381009Y-53281904D02*
X57428628Y-53377142D01*
X57428628Y-53377142D02*
X57428628Y-53758094D01*
X56904819Y-52281904D02*
X56904819Y-52758094D01*
X56904819Y-52758094D02*
X57381009Y-52805713D01*
X57381009Y-52805713D02*
X57333390Y-52758094D01*
X57333390Y-52758094D02*
X57285771Y-52662856D01*
X57285771Y-52662856D02*
X57285771Y-52424761D01*
X57285771Y-52424761D02*
X57333390Y-52329523D01*
X57333390Y-52329523D02*
X57381009Y-52281904D01*
X57381009Y-52281904D02*
X57476247Y-52234285D01*
X57476247Y-52234285D02*
X57714342Y-52234285D01*
X57714342Y-52234285D02*
X57809580Y-52281904D01*
X57809580Y-52281904D02*
X57857200Y-52329523D01*
X57857200Y-52329523D02*
X57904819Y-52424761D01*
X57904819Y-52424761D02*
X57904819Y-52662856D01*
X57904819Y-52662856D02*
X57857200Y-52758094D01*
X57857200Y-52758094D02*
X57809580Y-52805713D01*
X63904819Y-42662857D02*
X63428628Y-42996190D01*
X63904819Y-43234285D02*
X62904819Y-43234285D01*
X62904819Y-43234285D02*
X62904819Y-42853333D01*
X62904819Y-42853333D02*
X62952438Y-42758095D01*
X62952438Y-42758095D02*
X63000057Y-42710476D01*
X63000057Y-42710476D02*
X63095295Y-42662857D01*
X63095295Y-42662857D02*
X63238152Y-42662857D01*
X63238152Y-42662857D02*
X63333390Y-42710476D01*
X63333390Y-42710476D02*
X63381009Y-42758095D01*
X63381009Y-42758095D02*
X63428628Y-42853333D01*
X63428628Y-42853333D02*
X63428628Y-43234285D01*
X63904819Y-41710476D02*
X63904819Y-42281904D01*
X63904819Y-41996190D02*
X62904819Y-41996190D01*
X62904819Y-41996190D02*
X63047676Y-42091428D01*
X63047676Y-42091428D02*
X63142914Y-42186666D01*
X63142914Y-42186666D02*
X63190533Y-42281904D01*
X63238152Y-40853333D02*
X63904819Y-40853333D01*
X62857200Y-41091428D02*
X63571485Y-41329523D01*
X63571485Y-41329523D02*
X63571485Y-40710476D01*
X102904819Y-56662857D02*
X102428628Y-56996190D01*
X102904819Y-57234285D02*
X101904819Y-57234285D01*
X101904819Y-57234285D02*
X101904819Y-56853333D01*
X101904819Y-56853333D02*
X101952438Y-56758095D01*
X101952438Y-56758095D02*
X102000057Y-56710476D01*
X102000057Y-56710476D02*
X102095295Y-56662857D01*
X102095295Y-56662857D02*
X102238152Y-56662857D01*
X102238152Y-56662857D02*
X102333390Y-56710476D01*
X102333390Y-56710476D02*
X102381009Y-56758095D01*
X102381009Y-56758095D02*
X102428628Y-56853333D01*
X102428628Y-56853333D02*
X102428628Y-57234285D01*
X102904819Y-55710476D02*
X102904819Y-56281904D01*
X102904819Y-55996190D02*
X101904819Y-55996190D01*
X101904819Y-55996190D02*
X102047676Y-56091428D01*
X102047676Y-56091428D02*
X102142914Y-56186666D01*
X102142914Y-56186666D02*
X102190533Y-56281904D01*
X102000057Y-55329523D02*
X101952438Y-55281904D01*
X101952438Y-55281904D02*
X101904819Y-55186666D01*
X101904819Y-55186666D02*
X101904819Y-54948571D01*
X101904819Y-54948571D02*
X101952438Y-54853333D01*
X101952438Y-54853333D02*
X102000057Y-54805714D01*
X102000057Y-54805714D02*
X102095295Y-54758095D01*
X102095295Y-54758095D02*
X102190533Y-54758095D01*
X102190533Y-54758095D02*
X102333390Y-54805714D01*
X102333390Y-54805714D02*
X102904819Y-55377142D01*
X102904819Y-55377142D02*
X102904819Y-54758095D01*
X105904819Y-53186666D02*
X105428628Y-53519999D01*
X105904819Y-53758094D02*
X104904819Y-53758094D01*
X104904819Y-53758094D02*
X104904819Y-53377142D01*
X104904819Y-53377142D02*
X104952438Y-53281904D01*
X104952438Y-53281904D02*
X105000057Y-53234285D01*
X105000057Y-53234285D02*
X105095295Y-53186666D01*
X105095295Y-53186666D02*
X105238152Y-53186666D01*
X105238152Y-53186666D02*
X105333390Y-53234285D01*
X105333390Y-53234285D02*
X105381009Y-53281904D01*
X105381009Y-53281904D02*
X105428628Y-53377142D01*
X105428628Y-53377142D02*
X105428628Y-53758094D01*
X105333390Y-52615237D02*
X105285771Y-52710475D01*
X105285771Y-52710475D02*
X105238152Y-52758094D01*
X105238152Y-52758094D02*
X105142914Y-52805713D01*
X105142914Y-52805713D02*
X105095295Y-52805713D01*
X105095295Y-52805713D02*
X105000057Y-52758094D01*
X105000057Y-52758094D02*
X104952438Y-52710475D01*
X104952438Y-52710475D02*
X104904819Y-52615237D01*
X104904819Y-52615237D02*
X104904819Y-52424761D01*
X104904819Y-52424761D02*
X104952438Y-52329523D01*
X104952438Y-52329523D02*
X105000057Y-52281904D01*
X105000057Y-52281904D02*
X105095295Y-52234285D01*
X105095295Y-52234285D02*
X105142914Y-52234285D01*
X105142914Y-52234285D02*
X105238152Y-52281904D01*
X105238152Y-52281904D02*
X105285771Y-52329523D01*
X105285771Y-52329523D02*
X105333390Y-52424761D01*
X105333390Y-52424761D02*
X105333390Y-52615237D01*
X105333390Y-52615237D02*
X105381009Y-52710475D01*
X105381009Y-52710475D02*
X105428628Y-52758094D01*
X105428628Y-52758094D02*
X105523866Y-52805713D01*
X105523866Y-52805713D02*
X105714342Y-52805713D01*
X105714342Y-52805713D02*
X105809580Y-52758094D01*
X105809580Y-52758094D02*
X105857200Y-52710475D01*
X105857200Y-52710475D02*
X105904819Y-52615237D01*
X105904819Y-52615237D02*
X105904819Y-52424761D01*
X105904819Y-52424761D02*
X105857200Y-52329523D01*
X105857200Y-52329523D02*
X105809580Y-52281904D01*
X105809580Y-52281904D02*
X105714342Y-52234285D01*
X105714342Y-52234285D02*
X105523866Y-52234285D01*
X105523866Y-52234285D02*
X105428628Y-52281904D01*
X105428628Y-52281904D02*
X105381009Y-52329523D01*
X105381009Y-52329523D02*
X105333390Y-52424761D01*
D11*
%TO.C,U2*%
X50260000Y-43690000D02*
X50260000Y-48890000D01*
X50260000Y-48890000D02*
X55560000Y-48890000D01*
X51910000Y-43690000D02*
X50260000Y-43690000D01*
X55560000Y-43690000D02*
X53910000Y-43690000D01*
X55560000Y-48890000D02*
X55560000Y-43690000D01*
X51910000Y-43690000D02*
G75*
G03*
X53910000Y-43690000I1000000J0D01*
G01*
%TO.C,R11*%
X87365000Y-56247064D02*
X87365000Y-55792936D01*
X88835000Y-56247064D02*
X88835000Y-55792936D01*
%TO.C,R2*%
X67365000Y-48247064D02*
X67365000Y-47792936D01*
X68835000Y-48247064D02*
X68835000Y-47792936D01*
%TO.C,R3*%
X83365000Y-48247064D02*
X83365000Y-47792936D01*
X84835000Y-48247064D02*
X84835000Y-47792936D01*
%TO.C,U3*%
X66260000Y-43690000D02*
X66260000Y-48890000D01*
X66260000Y-48890000D02*
X71560000Y-48890000D01*
X67910000Y-43690000D02*
X66260000Y-43690000D01*
X71560000Y-43690000D02*
X69910000Y-43690000D01*
X71560000Y-48890000D02*
X71560000Y-43690000D01*
X67910000Y-43690000D02*
G75*
G03*
X69910000Y-43690000I1000000J0D01*
G01*
%TO.C,R13*%
X48365000Y-42247064D02*
X48365000Y-41792936D01*
X49835000Y-42247064D02*
X49835000Y-41792936D01*
%TO.C,Q3*%
X89100000Y-49460000D02*
X88450000Y-49460000D01*
X89100000Y-49460000D02*
X89750000Y-49460000D01*
X89100000Y-52580000D02*
X88450000Y-52580000D01*
X89100000Y-52580000D02*
X89750000Y-52580000D01*
X87937500Y-49510000D02*
X87697500Y-49180000D01*
X88177500Y-49180000D01*
X87937500Y-49510000D01*
G36*
X87937500Y-49510000D02*
G01*
X87697500Y-49180000D01*
X88177500Y-49180000D01*
X87937500Y-49510000D01*
G37*
%TO.C,C1*%
X109509759Y-43881000D02*
X110139759Y-43881000D01*
X109824759Y-43566000D02*
X109824759Y-44196000D01*
X113010000Y-42490000D02*
X113010000Y-48950000D01*
X113050000Y-42490000D02*
X113050000Y-48950000D01*
X113090000Y-42490000D02*
X113090000Y-48950000D01*
X113130000Y-42492000D02*
X113130000Y-48948000D01*
X113170000Y-42493000D02*
X113170000Y-48947000D01*
X113210000Y-42496000D02*
X113210000Y-48944000D01*
X113250000Y-42498000D02*
X113250000Y-44680000D01*
X113250000Y-46760000D02*
X113250000Y-48942000D01*
X113290000Y-42502000D02*
X113290000Y-44680000D01*
X113290000Y-46760000D02*
X113290000Y-48938000D01*
X113330000Y-42505000D02*
X113330000Y-44680000D01*
X113330000Y-46760000D02*
X113330000Y-48935000D01*
X113370000Y-42509000D02*
X113370000Y-44680000D01*
X113370000Y-46760000D02*
X113370000Y-48931000D01*
X113410000Y-42514000D02*
X113410000Y-44680000D01*
X113410000Y-46760000D02*
X113410000Y-48926000D01*
X113450000Y-42519000D02*
X113450000Y-44680000D01*
X113450000Y-46760000D02*
X113450000Y-48921000D01*
X113490000Y-42525000D02*
X113490000Y-44680000D01*
X113490000Y-46760000D02*
X113490000Y-48915000D01*
X113530000Y-42531000D02*
X113530000Y-44680000D01*
X113530000Y-46760000D02*
X113530000Y-48909000D01*
X113570000Y-42538000D02*
X113570000Y-44680000D01*
X113570000Y-46760000D02*
X113570000Y-48902000D01*
X113610000Y-42545000D02*
X113610000Y-44680000D01*
X113610000Y-46760000D02*
X113610000Y-48895000D01*
X113650000Y-42553000D02*
X113650000Y-44680000D01*
X113650000Y-46760000D02*
X113650000Y-48887000D01*
X113690000Y-42561000D02*
X113690000Y-44680000D01*
X113690000Y-46760000D02*
X113690000Y-48879000D01*
X113731000Y-42570000D02*
X113731000Y-44680000D01*
X113731000Y-46760000D02*
X113731000Y-48870000D01*
X113771000Y-42579000D02*
X113771000Y-44680000D01*
X113771000Y-46760000D02*
X113771000Y-48861000D01*
X113811000Y-42589000D02*
X113811000Y-44680000D01*
X113811000Y-46760000D02*
X113811000Y-48851000D01*
X113851000Y-42599000D02*
X113851000Y-44680000D01*
X113851000Y-46760000D02*
X113851000Y-48841000D01*
X113891000Y-42610000D02*
X113891000Y-44680000D01*
X113891000Y-46760000D02*
X113891000Y-48830000D01*
X113931000Y-42622000D02*
X113931000Y-44680000D01*
X113931000Y-46760000D02*
X113931000Y-48818000D01*
X113971000Y-42634000D02*
X113971000Y-44680000D01*
X113971000Y-46760000D02*
X113971000Y-48806000D01*
X114011000Y-42646000D02*
X114011000Y-44680000D01*
X114011000Y-46760000D02*
X114011000Y-48794000D01*
X114051000Y-42659000D02*
X114051000Y-44680000D01*
X114051000Y-46760000D02*
X114051000Y-48781000D01*
X114091000Y-42673000D02*
X114091000Y-44680000D01*
X114091000Y-46760000D02*
X114091000Y-48767000D01*
X114131000Y-42687000D02*
X114131000Y-44680000D01*
X114131000Y-46760000D02*
X114131000Y-48753000D01*
X114171000Y-42702000D02*
X114171000Y-44680000D01*
X114171000Y-46760000D02*
X114171000Y-48738000D01*
X114211000Y-42718000D02*
X114211000Y-44680000D01*
X114211000Y-46760000D02*
X114211000Y-48722000D01*
X114251000Y-42734000D02*
X114251000Y-44680000D01*
X114251000Y-46760000D02*
X114251000Y-48706000D01*
X114291000Y-42750000D02*
X114291000Y-44680000D01*
X114291000Y-46760000D02*
X114291000Y-48690000D01*
X114331000Y-42768000D02*
X114331000Y-44680000D01*
X114331000Y-46760000D02*
X114331000Y-48672000D01*
X114371000Y-42786000D02*
X114371000Y-44680000D01*
X114371000Y-46760000D02*
X114371000Y-48654000D01*
X114411000Y-42804000D02*
X114411000Y-44680000D01*
X114411000Y-46760000D02*
X114411000Y-48636000D01*
X114451000Y-42824000D02*
X114451000Y-44680000D01*
X114451000Y-46760000D02*
X114451000Y-48616000D01*
X114491000Y-42844000D02*
X114491000Y-44680000D01*
X114491000Y-46760000D02*
X114491000Y-48596000D01*
X114531000Y-42864000D02*
X114531000Y-44680000D01*
X114531000Y-46760000D02*
X114531000Y-48576000D01*
X114571000Y-42886000D02*
X114571000Y-44680000D01*
X114571000Y-46760000D02*
X114571000Y-48554000D01*
X114611000Y-42908000D02*
X114611000Y-44680000D01*
X114611000Y-46760000D02*
X114611000Y-48532000D01*
X114651000Y-42930000D02*
X114651000Y-44680000D01*
X114651000Y-46760000D02*
X114651000Y-48510000D01*
X114691000Y-42954000D02*
X114691000Y-44680000D01*
X114691000Y-46760000D02*
X114691000Y-48486000D01*
X114731000Y-42978000D02*
X114731000Y-44680000D01*
X114731000Y-46760000D02*
X114731000Y-48462000D01*
X114771000Y-43004000D02*
X114771000Y-44680000D01*
X114771000Y-46760000D02*
X114771000Y-48436000D01*
X114811000Y-43030000D02*
X114811000Y-44680000D01*
X114811000Y-46760000D02*
X114811000Y-48410000D01*
X114851000Y-43056000D02*
X114851000Y-44680000D01*
X114851000Y-46760000D02*
X114851000Y-48384000D01*
X114891000Y-43084000D02*
X114891000Y-44680000D01*
X114891000Y-46760000D02*
X114891000Y-48356000D01*
X114931000Y-43113000D02*
X114931000Y-44680000D01*
X114931000Y-46760000D02*
X114931000Y-48327000D01*
X114971000Y-43142000D02*
X114971000Y-44680000D01*
X114971000Y-46760000D02*
X114971000Y-48298000D01*
X115011000Y-43172000D02*
X115011000Y-44680000D01*
X115011000Y-46760000D02*
X115011000Y-48268000D01*
X115051000Y-43204000D02*
X115051000Y-44680000D01*
X115051000Y-46760000D02*
X115051000Y-48236000D01*
X115091000Y-43236000D02*
X115091000Y-44680000D01*
X115091000Y-46760000D02*
X115091000Y-48204000D01*
X115131000Y-43270000D02*
X115131000Y-44680000D01*
X115131000Y-46760000D02*
X115131000Y-48170000D01*
X115171000Y-43304000D02*
X115171000Y-44680000D01*
X115171000Y-46760000D02*
X115171000Y-48136000D01*
X115211000Y-43340000D02*
X115211000Y-44680000D01*
X115211000Y-46760000D02*
X115211000Y-48100000D01*
X115251000Y-43377000D02*
X115251000Y-44680000D01*
X115251000Y-46760000D02*
X115251000Y-48063000D01*
X115291000Y-43415000D02*
X115291000Y-44680000D01*
X115291000Y-46760000D02*
X115291000Y-48025000D01*
X115331000Y-43455000D02*
X115331000Y-47985000D01*
X115371000Y-43496000D02*
X115371000Y-47944000D01*
X115411000Y-43538000D02*
X115411000Y-47902000D01*
X115451000Y-43583000D02*
X115451000Y-47857000D01*
X115491000Y-43628000D02*
X115491000Y-47812000D01*
X115531000Y-43676000D02*
X115531000Y-47764000D01*
X115571000Y-43725000D02*
X115571000Y-47715000D01*
X115611000Y-43776000D02*
X115611000Y-47664000D01*
X115651000Y-43830000D02*
X115651000Y-47610000D01*
X115691000Y-43886000D02*
X115691000Y-47554000D01*
X115731000Y-43944000D02*
X115731000Y-47496000D01*
X115771000Y-44006000D02*
X115771000Y-47434000D01*
X115811000Y-44070000D02*
X115811000Y-47370000D01*
X115851000Y-44139000D02*
X115851000Y-47301000D01*
X115891000Y-44211000D02*
X115891000Y-47229000D01*
X115931000Y-44288000D02*
X115931000Y-47152000D01*
X115971000Y-44370000D02*
X115971000Y-47070000D01*
X116011000Y-44458000D02*
X116011000Y-46982000D01*
X116051000Y-44555000D02*
X116051000Y-46885000D01*
X116091000Y-44661000D02*
X116091000Y-46779000D01*
X116131000Y-44780000D02*
X116131000Y-46660000D01*
X116171000Y-44918000D02*
X116171000Y-46522000D01*
X116211000Y-45087000D02*
X116211000Y-46353000D01*
X116251000Y-45318000D02*
X116251000Y-46122000D01*
X116280000Y-45720000D02*
G75*
G03*
X109740000Y-45720000I-3270000J0D01*
G01*
X109740000Y-45720000D02*
G75*
G03*
X116280000Y-45720000I3270000J0D01*
G01*
%TO.C,LED3*%
X85140000Y-57705000D02*
X87060000Y-57705000D01*
X87060000Y-57705000D02*
X87060000Y-55020000D01*
X85140000Y-55020000D02*
X85140000Y-57705000D01*
%TO.C,LED4*%
X101140000Y-57705000D02*
X103060000Y-57705000D01*
X103060000Y-57705000D02*
X103060000Y-55020000D01*
X101140000Y-55020000D02*
X101140000Y-57705000D01*
%TO.C,C2*%
X77838748Y-72914999D02*
X78361252Y-72914999D01*
X77838748Y-74384999D02*
X78361252Y-74384999D01*
%TO.C,LED2*%
X69140000Y-57705000D02*
X71060000Y-57705000D01*
X71060000Y-57705000D02*
X71060000Y-55020000D01*
X69140000Y-55020000D02*
X69140000Y-57705000D01*
%TO.C,R10*%
X71365000Y-56247064D02*
X71365000Y-55792936D01*
X72835000Y-56247064D02*
X72835000Y-55792936D01*
%TO.C,LED1*%
X53140000Y-57705000D02*
X55060000Y-57705000D01*
X55060000Y-57705000D02*
X55060000Y-55020000D01*
X53140000Y-55020000D02*
X53140000Y-57705000D01*
%TO.C,R16*%
X96365000Y-42247064D02*
X96365000Y-41792936D01*
X97835000Y-42247064D02*
X97835000Y-41792936D01*
%TO.C,R4*%
X99365000Y-48247064D02*
X99365000Y-47792936D01*
X100835000Y-48247064D02*
X100835000Y-47792936D01*
%TO.C,J1*%
X59690000Y-65460000D02*
X108010000Y-65460000D01*
X59690000Y-65460000D02*
X59690000Y-62800000D01*
X108010000Y-65460000D02*
X108010000Y-62800000D01*
X57090000Y-64130000D02*
X57090000Y-62800000D01*
X57090000Y-62800000D02*
X58420000Y-62800000D01*
X59690000Y-62800000D02*
X108010000Y-62800000D01*
%TO.C,Q2*%
X73100000Y-49460000D02*
X72450000Y-49460000D01*
X73100000Y-49460000D02*
X73750000Y-49460000D01*
X73100000Y-52580000D02*
X72450000Y-52580000D01*
X73100000Y-52580000D02*
X73750000Y-52580000D01*
X71937500Y-49510000D02*
X71697500Y-49180000D01*
X72177500Y-49180000D01*
X71937500Y-49510000D01*
G36*
X71937500Y-49510000D02*
G01*
X71697500Y-49180000D01*
X72177500Y-49180000D01*
X71937500Y-49510000D01*
G37*
%TO.C,Q4*%
X105100000Y-49460000D02*
X104450000Y-49460000D01*
X105100000Y-49460000D02*
X105750000Y-49460000D01*
X105100000Y-52580000D02*
X104450000Y-52580000D01*
X105100000Y-52580000D02*
X105750000Y-52580000D01*
X103937500Y-49510000D02*
X103697500Y-49180000D01*
X104177500Y-49180000D01*
X103937500Y-49510000D01*
G36*
X103937500Y-49510000D02*
G01*
X103697500Y-49180000D01*
X104177500Y-49180000D01*
X103937500Y-49510000D01*
G37*
%TO.C,Q1*%
X57100000Y-49460000D02*
X56450000Y-49460000D01*
X57100000Y-49460000D02*
X57750000Y-49460000D01*
X57100000Y-52580000D02*
X56450000Y-52580000D01*
X57100000Y-52580000D02*
X57750000Y-52580000D01*
X55937500Y-49510000D02*
X55697500Y-49180000D01*
X56177500Y-49180000D01*
X55937500Y-49510000D01*
G36*
X55937500Y-49510000D02*
G01*
X55697500Y-49180000D01*
X56177500Y-49180000D01*
X55937500Y-49510000D01*
G37*
%TO.C,R7*%
X90365000Y-53247064D02*
X90365000Y-52792936D01*
X91835000Y-53247064D02*
X91835000Y-52792936D01*
%TO.C,R6*%
X74365000Y-53247064D02*
X74365000Y-52792936D01*
X75835000Y-53247064D02*
X75835000Y-52792936D01*
%TO.C,R15*%
X80365000Y-42247064D02*
X80365000Y-41792936D01*
X81835000Y-42247064D02*
X81835000Y-41792936D01*
%TO.C,J3*%
X76770000Y-38350000D02*
X76770000Y-37020000D01*
X78100000Y-38350000D02*
X76770000Y-38350000D01*
X79370000Y-38350000D02*
X92130000Y-38350000D01*
X79370000Y-38350000D02*
X79370000Y-35690000D01*
X92130000Y-38350000D02*
X92130000Y-35690000D01*
X79370000Y-35690000D02*
X92130000Y-35690000D01*
%TO.C,U5*%
X98260000Y-43690000D02*
X98260000Y-48890000D01*
X98260000Y-48890000D02*
X103560000Y-48890000D01*
X99910000Y-43690000D02*
X98260000Y-43690000D01*
X103560000Y-43690000D02*
X101910000Y-43690000D01*
X103560000Y-48890000D02*
X103560000Y-43690000D01*
X99910000Y-43690000D02*
G75*
G03*
X101910000Y-43690000I1000000J0D01*
G01*
%TO.C,J7*%
X108770000Y-56690000D02*
X110100000Y-56690000D01*
X108770000Y-58020000D02*
X108770000Y-56690000D01*
X108770000Y-59290000D02*
X108770000Y-61890000D01*
X108770000Y-59290000D02*
X111430000Y-59290000D01*
X108770000Y-61890000D02*
X111430000Y-61890000D01*
X111430000Y-59290000D02*
X111430000Y-61890000D01*
%TO.C,J2*%
X59690000Y-83240000D02*
X108010000Y-83240000D01*
X59690000Y-83240000D02*
X59690000Y-80580000D01*
X108010000Y-83240000D02*
X108010000Y-80580000D01*
X57090000Y-81910000D02*
X57090000Y-80580000D01*
X57090000Y-80580000D02*
X58420000Y-80580000D01*
X59690000Y-80580000D02*
X108010000Y-80580000D01*
%TO.C,U4*%
X82260000Y-43690000D02*
X82260000Y-48890000D01*
X82260000Y-48890000D02*
X87560000Y-48890000D01*
X83910000Y-43690000D02*
X82260000Y-43690000D01*
X87560000Y-43690000D02*
X85910000Y-43690000D01*
X87560000Y-48890000D02*
X87560000Y-43690000D01*
X83910000Y-43690000D02*
G75*
G03*
X85910000Y-43690000I1000000J0D01*
G01*
%TO.C,R9*%
X55365000Y-56247064D02*
X55365000Y-55792936D01*
X56835000Y-56247064D02*
X56835000Y-55792936D01*
%TO.C,R1*%
X51365000Y-48247064D02*
X51365000Y-47792936D01*
X52835000Y-48247064D02*
X52835000Y-47792936D01*
%TO.C,R5*%
X58365000Y-53247064D02*
X58365000Y-52792936D01*
X59835000Y-53247064D02*
X59835000Y-52792936D01*
%TO.C,R14*%
X64365000Y-42247064D02*
X64365000Y-41792936D01*
X65835000Y-42247064D02*
X65835000Y-41792936D01*
%TO.C,R12*%
X103365000Y-56247064D02*
X103365000Y-55792936D01*
X104835000Y-56247064D02*
X104835000Y-55792936D01*
%TO.C,R8*%
X106365000Y-53247064D02*
X106365000Y-52792936D01*
X107835000Y-53247064D02*
X107835000Y-52792936D01*
%TD*%
M02*
