%TF.GenerationSoftware,KiCad,Pcbnew,7.0.11+dfsg-1build4*%
%TF.CreationDate,2026-02-12T23:01:59+09:00*%
%TF.ProjectId,actuator_board_v3,61637475-6174-46f7-925f-626f6172645f,rev?*%
%TF.SameCoordinates,Original*%
%TF.FileFunction,Copper,L2,Bot*%
%TF.FilePolarity,Positive*%
%FSLAX46Y46*%
G04 Gerber Fmt 4.6, Leading zero omitted, Abs format (unit mm)*
G04 Created by KiCad (PCBNEW 7.0.11+dfsg-1build4) date 2026-02-12 23:01:59*
%MOMM*%
%LPD*%
G01*
G04 APERTURE LIST*
%TA.AperFunction,ComponentPad*%
%ADD10R,1.600000X1.600000*%
%TD*%
%TA.AperFunction,ComponentPad*%
%ADD11O,1.600000X1.600000*%
%TD*%
%TA.AperFunction,ComponentPad*%
%ADD12C,1.600000*%
%TD*%
%TA.AperFunction,ComponentPad*%
%ADD13R,1.700000X1.700000*%
%TD*%
%TA.AperFunction,ComponentPad*%
%ADD14O,1.700000X1.700000*%
%TD*%
%TA.AperFunction,ViaPad*%
%ADD15C,0.600000*%
%TD*%
%TA.AperFunction,Conductor*%
%ADD16C,0.200000*%
%TD*%
%TA.AperFunction,Conductor*%
%ADD17C,0.152400*%
%TD*%
G04 APERTURE END LIST*
D10*
%TO.P,U2,1*%
%TO.N,Net-(R13-Pad2)*%
X49100000Y-45020000D03*
D11*
%TO.P,U2,2*%
%TO.N,Net-(GND)*%
X49100000Y-47560000D03*
%TO.P,U2,3*%
%TO.N,Net-(R1-Pad1)*%
X56720000Y-47560000D03*
%TO.P,U2,4*%
%TO.N,Net-(5V)*%
X56720000Y-45020000D03*
%TD*%
D10*
%TO.P,U3,1*%
%TO.N,Net-(R14-Pad2)*%
X65100000Y-45020000D03*
D11*
%TO.P,U3,2*%
%TO.N,Net-(GND)*%
X65100000Y-47560000D03*
%TO.P,U3,3*%
%TO.N,Net-(R2-Pad1)*%
X72720000Y-47560000D03*
%TO.P,U3,4*%
%TO.N,Net-(5V)*%
X72720000Y-45020000D03*
%TD*%
D10*
%TO.P,C1,1*%
%TO.N,Net-(5V)*%
X111760000Y-45720000D03*
D12*
%TO.P,C1,2*%
%TO.N,Net-(GND)*%
X114260000Y-45720000D03*
%TD*%
D13*
%TO.P,J1,1*%
%TO.N,N/C*%
X58420000Y-64130000D03*
D14*
%TO.P,J1,2*%
X60960000Y-64130000D03*
%TO.P,J1,3*%
%TO.N,Net-(GND)*%
X63500000Y-64130000D03*
%TO.P,J1,4*%
%TO.N,N/C*%
X66040000Y-64130000D03*
%TO.P,J1,5*%
X68580000Y-64130000D03*
%TO.P,J1,6*%
X71120000Y-64130000D03*
%TO.P,J1,7*%
X73660000Y-64130000D03*
%TO.P,J1,8*%
X76200000Y-64130000D03*
%TO.P,J1,9*%
X78740000Y-64130000D03*
%TO.P,J1,10*%
X81280000Y-64130000D03*
%TO.P,J1,11*%
X83820000Y-64130000D03*
%TO.P,J1,12*%
X86360000Y-64130000D03*
%TO.P,J1,13*%
X88900000Y-64130000D03*
%TO.P,J1,14*%
%TO.N,Net-(J1-Pin_14)*%
X91440000Y-64130000D03*
%TO.P,J1,15*%
%TO.N,Net-(J1-Pin_15)*%
X93980000Y-64130000D03*
%TO.P,J1,16*%
%TO.N,Net-(J1-Pin_16)*%
X96520000Y-64130000D03*
%TO.P,J1,17*%
%TO.N,Net-(J1-Pin_17)*%
X99060000Y-64130000D03*
%TO.P,J1,18*%
%TO.N,N/C*%
X101600000Y-64130000D03*
%TO.P,J1,19*%
X104140000Y-64130000D03*
%TO.P,J1,20*%
X106680000Y-64130000D03*
%TD*%
D13*
%TO.P,J3,1*%
%TO.N,Net-(5V)*%
X78100000Y-37020000D03*
D14*
%TO.P,J3,2*%
%TO.N,Net-(GND)*%
X80640000Y-37020000D03*
%TO.P,J3,3*%
%TO.N,Net-(Q1-D)*%
X83180000Y-37020000D03*
%TO.P,J3,4*%
%TO.N,Net-(Q2-D)*%
X85720000Y-37020000D03*
%TO.P,J3,5*%
%TO.N,Net-(Q3-D)*%
X88260000Y-37020000D03*
%TO.P,J3,6*%
%TO.N,Net-(Q4-D)*%
X90800000Y-37020000D03*
%TD*%
D10*
%TO.P,U5,1*%
%TO.N,Net-(R16-Pad2)*%
X97100000Y-45020000D03*
D11*
%TO.P,U5,2*%
%TO.N,Net-(GND)*%
X97100000Y-47560000D03*
%TO.P,U5,3*%
%TO.N,Net-(R4-Pad1)*%
X104720000Y-47560000D03*
%TO.P,U5,4*%
%TO.N,Net-(5V)*%
X104720000Y-45020000D03*
%TD*%
D13*
%TO.P,J7,1*%
%TO.N,Net-(5V)*%
X110100000Y-58020000D03*
D14*
%TO.P,J7,2*%
%TO.N,Net-(GND)*%
X110100000Y-60560000D03*
%TD*%
D13*
%TO.P,J2,1*%
%TO.N,N/C*%
X58420000Y-81910000D03*
D14*
%TO.P,J2,2*%
X60960000Y-81910000D03*
%TO.P,J2,3*%
X63500000Y-81910000D03*
%TO.P,J2,4*%
X66040000Y-81910000D03*
%TO.P,J2,5*%
X68580000Y-81910000D03*
%TO.P,J2,6*%
X71120000Y-81910000D03*
%TO.P,J2,7*%
X73660000Y-81910000D03*
%TO.P,J2,8*%
X76200000Y-81910000D03*
%TO.P,J2,9*%
X78740000Y-81910000D03*
%TO.P,J2,10*%
X81280000Y-81910000D03*
%TO.P,J2,11*%
X83820000Y-81910000D03*
%TO.P,J2,12*%
X86360000Y-81910000D03*
%TO.P,J2,13*%
X88900000Y-81910000D03*
%TO.P,J2,14*%
X91440000Y-81910000D03*
%TO.P,J2,15*%
X93980000Y-81910000D03*
%TO.P,J2,16*%
%TO.N,Net-(J2-Pin_16)*%
X96520000Y-81910000D03*
%TO.P,J2,17*%
%TO.N,N/C*%
X99060000Y-81910000D03*
%TO.P,J2,18*%
X101600000Y-81910000D03*
%TO.P,J2,19*%
%TO.N,Net-(5V)*%
X104140000Y-81910000D03*
%TO.P,J2,20*%
%TO.N,N/C*%
X106680000Y-81910000D03*
%TD*%
D10*
%TO.P,U4,1*%
%TO.N,Net-(R15-Pad2)*%
X81100000Y-45020000D03*
D11*
%TO.P,U4,2*%
%TO.N,Net-(GND)*%
X81100000Y-47560000D03*
%TO.P,U4,3*%
%TO.N,Net-(R3-Pad1)*%
X88720000Y-47560000D03*
%TO.P,U4,4*%
%TO.N,Net-(5V)*%
X88720000Y-45020000D03*
%TD*%
D15*
%TO.N,Net-(GND)*%
X58420000Y-50800000D03*
X73660000Y-50800000D03*
X109220000Y-50800000D03*
X58420000Y-50800000D03*
X66040000Y-55880000D03*
%TO.N,Net-(J2-Pin_16)*%
X78826360Y-78031420D03*
%TO.N,Net-(J1-Pin_14)*%
X52910740Y-43596560D03*
%TO.N,Net-(J1-Pin_15)*%
X61815980Y-43517820D03*
%TO.N,Net-(J1-Pin_16)*%
X85056980Y-62367160D03*
%TO.N,Net-(Q2-G)*%
X71120000Y-53340000D03*
X73660000Y-55880000D03*
%TD*%
D16*
%TO.N,Net-(5V)*%
X110100000Y-58020000D02*
X111250000Y-59170000D01*
X78100000Y-39640000D02*
X72720000Y-45020000D01*
X108870000Y-61710000D02*
X110576346Y-61710000D01*
X83480000Y-45020000D02*
X78100000Y-39640000D01*
X78100000Y-37020000D02*
X78100000Y-39640000D01*
X107830000Y-62750000D02*
X107830000Y-78220000D01*
X111250000Y-59170000D02*
X111250000Y-61036346D01*
X107830000Y-62750000D02*
X108870000Y-61710000D01*
X111250000Y-61036346D02*
X110576346Y-61710000D01*
X107830000Y-78220000D02*
X104140000Y-81910000D01*
X88720000Y-45020000D02*
X83480000Y-45020000D01*
%TO.N,Net-(GND)*%
X73660000Y-49000000D02*
X73660000Y-50800000D01*
X87540000Y-43920000D02*
X89175635Y-43920000D01*
X61215980Y-44807350D02*
X61215980Y-43269291D01*
X89820000Y-44564365D02*
X89820000Y-45475635D01*
X61567451Y-42917820D02*
X69062185Y-42917820D01*
X89820000Y-45475635D02*
X89175635Y-46120000D01*
X80640000Y-37020000D02*
X87540000Y-43920000D01*
X96000000Y-48660000D02*
X97100000Y-47560000D01*
X52340000Y-50800000D02*
X49100000Y-47560000D01*
X82540000Y-46120000D02*
X81100000Y-47560000D01*
X63500000Y-55880000D02*
X66040000Y-55880000D01*
X108704315Y-51275685D02*
X108704315Y-59164315D01*
X58420000Y-50800000D02*
X52340000Y-50800000D01*
X58420000Y-50800000D02*
X63500000Y-55880000D01*
X65100000Y-47560000D02*
X63968630Y-47560000D01*
X63968630Y-47560000D02*
X61215980Y-44807350D01*
X108704315Y-59164315D02*
X110100000Y-60560000D01*
X63500000Y-64130000D02*
X63500000Y-55880000D01*
X89175635Y-46120000D02*
X82540000Y-46120000D01*
X110100000Y-60560000D02*
X97100000Y-47560000D01*
X81100000Y-47560000D02*
X82200000Y-48660000D01*
X61215980Y-43269291D02*
X61567451Y-42917820D01*
X82200000Y-48660000D02*
X96000000Y-48660000D01*
X73660000Y-46120000D02*
X75100000Y-47560000D01*
X75100000Y-47560000D02*
X81100000Y-47560000D01*
X69062185Y-42917820D02*
X72264365Y-46120000D01*
X89175635Y-43920000D02*
X89820000Y-44564365D01*
X75100000Y-47560000D02*
X73660000Y-49000000D01*
X114260000Y-45720000D02*
X108704315Y-51275685D01*
X72264365Y-46120000D02*
X73660000Y-46120000D01*
%TO.N,Net-(J2-Pin_16)*%
X96520000Y-81910000D02*
X92641420Y-78031420D01*
X92641420Y-78031420D02*
X78826360Y-78031420D01*
D17*
%TO.N,Net-(J1-Pin_14)*%
X56814720Y-43596560D02*
X76221960Y-63003800D01*
X52910740Y-43596560D02*
X56814720Y-43596560D01*
X76221960Y-63003800D02*
X90313800Y-63003800D01*
X90313800Y-63003800D02*
X91440000Y-64130000D01*
D16*
%TO.N,Net-(J1-Pin_15)*%
X95130000Y-65910000D02*
X96996346Y-65910000D01*
X96996346Y-65910000D02*
X97670000Y-65236346D01*
X93980000Y-64130000D02*
X95130000Y-65910000D01*
D17*
X96520000Y-59093100D02*
X80693260Y-59093100D01*
X80693260Y-59093100D02*
X65117980Y-43517820D01*
D16*
X97670000Y-65236346D02*
X97670000Y-60243100D01*
X97670000Y-60243100D02*
X96520000Y-59093100D01*
D17*
X65117980Y-43517820D02*
X61815980Y-43517820D01*
%TO.N,Net-(J1-Pin_16)*%
X94757160Y-62367160D02*
X96520000Y-64130000D01*
X85056980Y-62367160D02*
X94757160Y-62367160D01*
D16*
%TO.N,Net-(Q2-G)*%
X71120000Y-53340000D02*
X73660000Y-55880000D01*
%TD*%
M02*
