%TF.GenerationSoftware,KiCad,Pcbnew,7.0.11+dfsg-1build4*%
%TF.CreationDate,2026-02-12T23:01:59+09:00*%
%TF.ProjectId,actuator_board_v3,61637475-6174-46f7-925f-626f6172645f,rev?*%
%TF.SameCoordinates,Original*%
%TF.FileFunction,Soldermask,Top*%
%TF.FilePolarity,Negative*%
%FSLAX46Y46*%
G04 Gerber Fmt 4.6, Leading zero omitted, Abs format (unit mm)*
G04 Created by KiCad (PCBNEW 7.0.11+dfsg-1build4) date 2026-02-12 23:01:59*
%MOMM*%
%LPD*%
G01*
G04 APERTURE LIST*
G04 Aperture macros list*
%AMRoundRect*
0 Rectangle with rounded corners*
0 $1 Rounding radius*
0 $2 $3 $4 $5 $6 $7 $8 $9 X,Y pos of 4 corners*
0 Add a 4 corners polygon primitive as box body*
4,1,4,$2,$3,$4,$5,$6,$7,$8,$9,$2,$3,0*
0 Add four circle primitives for the rounded corners*
1,1,$1+$1,$2,$3*
1,1,$1+$1,$4,$5*
1,1,$1+$1,$6,$7*
1,1,$1+$1,$8,$9*
0 Add four rect primitives between the rounded corners*
20,1,$1+$1,$2,$3,$4,$5,0*
20,1,$1+$1,$4,$5,$6,$7,0*
20,1,$1+$1,$6,$7,$8,$9,0*
20,1,$1+$1,$8,$9,$2,$3,0*%
G04 Aperture macros list end*
%ADD10R,1.600000X1.600000*%
%ADD11O,1.600000X1.600000*%
%ADD12RoundRect,0.250000X0.450000X-0.262500X0.450000X0.262500X-0.450000X0.262500X-0.450000X-0.262500X0*%
%ADD13RoundRect,0.150000X-0.587500X-0.150000X0.587500X-0.150000X0.587500X0.150000X-0.587500X0.150000X0*%
%ADD14C,1.600000*%
%ADD15RoundRect,0.243750X0.456250X-0.243750X0.456250X0.243750X-0.456250X0.243750X-0.456250X-0.243750X0*%
%ADD16RoundRect,0.250000X-0.250000X-0.475000X0.250000X-0.475000X0.250000X0.475000X-0.250000X0.475000X0*%
%ADD17C,3.200000*%
%ADD18R,1.700000X1.700000*%
%ADD19O,1.700000X1.700000*%
G04 APERTURE END LIST*
D10*
%TO.C,U2*%
X49100000Y-45020000D03*
D11*
X49100000Y-47560000D03*
X56720000Y-47560000D03*
X56720000Y-45020000D03*
%TD*%
D12*
%TO.C,R11*%
X88100000Y-56932500D03*
X88100000Y-55107500D03*
%TD*%
%TO.C,R2*%
X68100000Y-48932500D03*
X68100000Y-47107500D03*
%TD*%
%TO.C,R3*%
X84100000Y-48932500D03*
X84100000Y-47107500D03*
%TD*%
D10*
%TO.C,U3*%
X65100000Y-45020000D03*
D11*
X65100000Y-47560000D03*
X72720000Y-47560000D03*
X72720000Y-45020000D03*
%TD*%
D12*
%TO.C,R13*%
X49100000Y-42932500D03*
X49100000Y-41107500D03*
%TD*%
D13*
%TO.C,Q3*%
X88162500Y-50070000D03*
X88162500Y-51970000D03*
X90037500Y-51020000D03*
%TD*%
D10*
%TO.C,C1*%
X111760000Y-45720000D03*
D14*
X114260000Y-45720000D03*
%TD*%
D15*
%TO.C,LED3*%
X86100000Y-56957500D03*
X86100000Y-55082500D03*
%TD*%
%TO.C,LED4*%
X102100000Y-56957500D03*
X102100000Y-55082500D03*
%TD*%
D16*
%TO.C,C2*%
X77150000Y-73649999D03*
X79050000Y-73649999D03*
%TD*%
D15*
%TO.C,LED2*%
X70100000Y-56957500D03*
X70100000Y-55082500D03*
%TD*%
D12*
%TO.C,R10*%
X72100000Y-56932500D03*
X72100000Y-55107500D03*
%TD*%
D17*
%TO.C,H*%
X41600000Y-80149999D03*
%TD*%
D15*
%TO.C,LED1*%
X54100000Y-56957500D03*
X54100000Y-55082500D03*
%TD*%
D12*
%TO.C,R16*%
X97100000Y-42932500D03*
X97100000Y-41107500D03*
%TD*%
%TO.C,R4*%
X100100000Y-48932500D03*
X100100000Y-47107500D03*
%TD*%
D18*
%TO.C,J1*%
X58420000Y-64130000D03*
D19*
X60960000Y-64130000D03*
X63500000Y-64130000D03*
X66040000Y-64130000D03*
X68580000Y-64130000D03*
X71120000Y-64130000D03*
X73660000Y-64130000D03*
X76200000Y-64130000D03*
X78740000Y-64130000D03*
X81280000Y-64130000D03*
X83820000Y-64130000D03*
X86360000Y-64130000D03*
X88900000Y-64130000D03*
X91440000Y-64130000D03*
X93980000Y-64130000D03*
X96520000Y-64130000D03*
X99060000Y-64130000D03*
X101600000Y-64130000D03*
X104140000Y-64130000D03*
X106680000Y-64130000D03*
%TD*%
D13*
%TO.C,Q2*%
X72162500Y-50070000D03*
X72162500Y-51970000D03*
X74037500Y-51020000D03*
%TD*%
%TO.C,Q4*%
X104162500Y-50070000D03*
X104162500Y-51970000D03*
X106037500Y-51020000D03*
%TD*%
%TO.C,Q1*%
X56162500Y-50070000D03*
X56162500Y-51970000D03*
X58037500Y-51020000D03*
%TD*%
D12*
%TO.C,R7*%
X91100000Y-53932500D03*
X91100000Y-52107500D03*
%TD*%
%TO.C,R6*%
X75100000Y-53932500D03*
X75100000Y-52107500D03*
%TD*%
%TO.C,R15*%
X81100000Y-42932500D03*
X81100000Y-41107500D03*
%TD*%
D18*
%TO.C,J3*%
X78100000Y-37020000D03*
D19*
X80640000Y-37020000D03*
X83180000Y-37020000D03*
X85720000Y-37020000D03*
X88260000Y-37020000D03*
X90800000Y-37020000D03*
%TD*%
D17*
%TO.C,H*%
X114600000Y-36520000D03*
%TD*%
D10*
%TO.C,U5*%
X97100000Y-45020000D03*
D11*
X97100000Y-47560000D03*
X104720000Y-47560000D03*
X104720000Y-45020000D03*
%TD*%
D18*
%TO.C,J7*%
X110100000Y-58020000D03*
D19*
X110100000Y-60560000D03*
%TD*%
D18*
%TO.C,J2*%
X58420000Y-81910000D03*
D19*
X60960000Y-81910000D03*
X63500000Y-81910000D03*
X66040000Y-81910000D03*
X68580000Y-81910000D03*
X71120000Y-81910000D03*
X73660000Y-81910000D03*
X76200000Y-81910000D03*
X78740000Y-81910000D03*
X81280000Y-81910000D03*
X83820000Y-81910000D03*
X86360000Y-81910000D03*
X88900000Y-81910000D03*
X91440000Y-81910000D03*
X93980000Y-81910000D03*
X96520000Y-81910000D03*
X99060000Y-81910000D03*
X101600000Y-81910000D03*
X104140000Y-81910000D03*
X106680000Y-81910000D03*
%TD*%
D10*
%TO.C,U4*%
X81100000Y-45020000D03*
D11*
X81100000Y-47560000D03*
X88720000Y-47560000D03*
X88720000Y-45020000D03*
%TD*%
D17*
%TO.C,H*%
X41600000Y-36520000D03*
%TD*%
%TO.C,H*%
X114600000Y-80149999D03*
%TD*%
D12*
%TO.C,R9*%
X56100000Y-56932500D03*
X56100000Y-55107500D03*
%TD*%
%TO.C,R1*%
X52100000Y-48932500D03*
X52100000Y-47107500D03*
%TD*%
%TO.C,R5*%
X59100000Y-53932500D03*
X59100000Y-52107500D03*
%TD*%
%TO.C,R14*%
X65100000Y-42932500D03*
X65100000Y-41107500D03*
%TD*%
%TO.C,R12*%
X104100000Y-56932500D03*
X104100000Y-55107500D03*
%TD*%
%TO.C,R8*%
X107100000Y-53932500D03*
X107100000Y-52107500D03*
%TD*%
M02*
