%TF.GenerationSoftware,KiCad,Pcbnew,7.0.11+dfsg-1build4*%
%TF.CreationDate,2026-02-12T16:36:10+09:00*%
%TF.ProjectId,grove_shield_v3,67726f76-655f-4736-9869-656c645f7633,rev?*%
%TF.SameCoordinates,Original*%
%TF.FileFunction,Soldermask,Top*%
%TF.FilePolarity,Negative*%
%FSLAX46Y46*%
G04 Gerber Fmt 4.6, Leading zero omitted, Abs format (unit mm)*
G04 Created by KiCad (PCBNEW 7.0.11+dfsg-1build4) date 2026-02-12 16:36:10*
%MOMM*%
%LPD*%
G01*
G04 APERTURE LIST*
G04 Aperture macros list*
%AMRoundRect*
0 Rectangle with rounded corners*
0 $1 Rounding radius*
0 $2 $3 $4 $5 $6 $7 $8 $9 X,Y pos of 4 corners*
0 Add a 4 corners polygon primitive as box body*
4,1,4,$2,$3,$4,$5,$6,$7,$8,$9,$2,$3,0*
0 Add four circle primitives for the rounded corners*
1,1,$1+$1,$2,$3*
1,1,$1+$1,$4,$5*
1,1,$1+$1,$6,$7*
1,1,$1+$1,$8,$9*
0 Add four rect primitives between the rounded corners*
20,1,$1+$1,$2,$3,$4,$5,0*
20,1,$1+$1,$4,$5,$6,$7,0*
20,1,$1+$1,$6,$7,$8,$9,0*
20,1,$1+$1,$8,$9,$2,$3,0*%
G04 Aperture macros list end*
%ADD10RoundRect,0.250000X-0.250000X-0.475000X0.250000X-0.475000X0.250000X0.475000X-0.250000X0.475000X0*%
%ADD11RoundRect,0.250000X-0.350000X-0.625000X0.350000X-0.625000X0.350000X0.625000X-0.350000X0.625000X0*%
%ADD12O,1.200000X1.750000*%
%ADD13RoundRect,0.250000X-0.262500X-0.450000X0.262500X-0.450000X0.262500X0.450000X-0.262500X0.450000X0*%
%ADD14R,1.700000X1.700000*%
%ADD15O,1.700000X1.700000*%
%ADD16RoundRect,0.150000X-0.587500X-0.150000X0.587500X-0.150000X0.587500X0.150000X-0.587500X0.150000X0*%
%ADD17R,3.000000X3.000000*%
%ADD18C,3.000000*%
%ADD19RoundRect,0.225000X-0.225000X-0.375000X0.225000X-0.375000X0.225000X0.375000X-0.225000X0.375000X0*%
G04 APERTURE END LIST*
D10*
%TO.C,C3*%
X37050000Y-28000000D03*
X38950000Y-28000000D03*
%TD*%
D11*
%TO.C,J4*%
X27000000Y-7000000D03*
D12*
X29000000Y-7000000D03*
X31000000Y-7000000D03*
X33000000Y-7000000D03*
%TD*%
D13*
%TO.C,R1*%
X16087500Y-25000000D03*
X17912500Y-25000000D03*
%TD*%
D11*
%TO.C,J3*%
X14000000Y-7000000D03*
D12*
X16000000Y-7000000D03*
X18000000Y-7000000D03*
X20000000Y-7000000D03*
%TD*%
D13*
%TO.C,R7*%
X41087500Y-31000000D03*
X42912500Y-31000000D03*
%TD*%
%TO.C,R6*%
X41087500Y-25000000D03*
X42912500Y-25000000D03*
%TD*%
%TO.C,R5*%
X11087500Y-28000000D03*
X12912500Y-28000000D03*
%TD*%
%TO.C,R4*%
X26087500Y-31000000D03*
X27912500Y-31000000D03*
%TD*%
D14*
%TO.C,J1*%
X3870000Y-19110000D03*
D15*
X6410000Y-19110000D03*
X8950000Y-19110000D03*
X11490000Y-19110000D03*
X14030000Y-19110000D03*
X16570000Y-19110000D03*
X19110000Y-19110000D03*
X21650000Y-19110000D03*
X24190000Y-19110000D03*
X26730000Y-19110000D03*
X29270000Y-19110000D03*
X31810000Y-19110000D03*
X34350000Y-19110000D03*
X36890000Y-19110000D03*
X39430000Y-19110000D03*
X41970000Y-19110000D03*
X44510000Y-19110000D03*
X47050000Y-19110000D03*
X49590000Y-19110000D03*
X52130000Y-19110000D03*
%TD*%
D13*
%TO.C,R3*%
X23087500Y-25000000D03*
X24912500Y-25000000D03*
%TD*%
D16*
%TO.C,Q1*%
X47062500Y-27050000D03*
X47062500Y-28950000D03*
X48937500Y-28000000D03*
%TD*%
D17*
%TO.C,J9*%
X46130000Y-49000000D03*
D18*
X51210000Y-49000000D03*
%TD*%
D11*
%TO.C,J7*%
X34130000Y-49000000D03*
D12*
X36130000Y-49000000D03*
X38130000Y-49000000D03*
%TD*%
D13*
%TO.C,R2*%
X18087500Y-31000000D03*
X19912500Y-31000000D03*
%TD*%
D14*
%TO.C,J2*%
X3870000Y-36890000D03*
D15*
X6410000Y-36890000D03*
X8950000Y-36890000D03*
X11490000Y-36890000D03*
X14030000Y-36890000D03*
X16570000Y-36890000D03*
X19110000Y-36890000D03*
X21650000Y-36890000D03*
X24190000Y-36890000D03*
X26730000Y-36890000D03*
X29270000Y-36890000D03*
X31810000Y-36890000D03*
X34350000Y-36890000D03*
X36890000Y-36890000D03*
X39430000Y-36890000D03*
X41970000Y-36890000D03*
X44510000Y-36890000D03*
X47050000Y-36890000D03*
X49590000Y-36890000D03*
X52130000Y-36890000D03*
%TD*%
D11*
%TO.C,J8*%
X42000000Y-7000000D03*
D12*
X44000000Y-7000000D03*
X46000000Y-7000000D03*
%TD*%
D10*
%TO.C,C1*%
X31050000Y-25000000D03*
X32950000Y-25000000D03*
%TD*%
%TO.C,C2*%
X31050000Y-31000000D03*
X32950000Y-31000000D03*
%TD*%
D11*
%TO.C,J6*%
X20130000Y-49000000D03*
D12*
X22130000Y-49000000D03*
X24130000Y-49000000D03*
%TD*%
D19*
%TO.C,D1*%
X46350000Y-33000000D03*
X49650000Y-33000000D03*
%TD*%
D11*
%TO.C,J5*%
X6130000Y-49000000D03*
D12*
X8130000Y-49000000D03*
X10130000Y-49000000D03*
%TD*%
M02*
