%TF.GenerationSoftware,KiCad,Pcbnew,7.0.11+dfsg-1build4*%
%TF.CreationDate,2026-02-12T16:36:10+09:00*%
%TF.ProjectId,grove_shield_v3,67726f76-655f-4736-9869-656c645f7633,rev?*%
%TF.SameCoordinates,Original*%
%TF.FileFunction,Copper,L1,Top*%
%TF.FilePolarity,Positive*%
%FSLAX46Y46*%
G04 Gerber Fmt 4.6, Leading zero omitted, Abs format (unit mm)*
G04 Created by KiCad (PCBNEW 7.0.11+dfsg-1build4) date 2026-02-12 16:36:10*
%MOMM*%
%LPD*%
G01*
G04 APERTURE LIST*
G04 Aperture macros list*
%AMRoundRect*
0 Rectangle with rounded corners*
0 $1 Rounding radius*
0 $2 $3 $4 $5 $6 $7 $8 $9 X,Y pos of 4 corners*
0 Add a 4 corners polygon primitive as box body*
4,1,4,$2,$3,$4,$5,$6,$7,$8,$9,$2,$3,0*
0 Add four circle primitives for the rounded corners*
1,1,$1+$1,$2,$3*
1,1,$1+$1,$4,$5*
1,1,$1+$1,$6,$7*
1,1,$1+$1,$8,$9*
0 Add four rect primitives between the rounded corners*
20,1,$1+$1,$2,$3,$4,$5,0*
20,1,$1+$1,$4,$5,$6,$7,0*
20,1,$1+$1,$6,$7,$8,$9,0*
20,1,$1+$1,$8,$9,$2,$3,0*%
G04 Aperture macros list end*
%TA.AperFunction,SMDPad,CuDef*%
%ADD10RoundRect,0.250000X-0.250000X-0.475000X0.250000X-0.475000X0.250000X0.475000X-0.250000X0.475000X0*%
%TD*%
%TA.AperFunction,ComponentPad*%
%ADD11RoundRect,0.250000X-0.350000X-0.625000X0.350000X-0.625000X0.350000X0.625000X-0.350000X0.625000X0*%
%TD*%
%TA.AperFunction,ComponentPad*%
%ADD12O,1.200000X1.750000*%
%TD*%
%TA.AperFunction,SMDPad,CuDef*%
%ADD13RoundRect,0.250000X-0.262500X-0.450000X0.262500X-0.450000X0.262500X0.450000X-0.262500X0.450000X0*%
%TD*%
%TA.AperFunction,ComponentPad*%
%ADD14R,1.700000X1.700000*%
%TD*%
%TA.AperFunction,ComponentPad*%
%ADD15O,1.700000X1.700000*%
%TD*%
%TA.AperFunction,SMDPad,CuDef*%
%ADD16RoundRect,0.150000X-0.587500X-0.150000X0.587500X-0.150000X0.587500X0.150000X-0.587500X0.150000X0*%
%TD*%
%TA.AperFunction,ComponentPad*%
%ADD17R,3.000000X3.000000*%
%TD*%
%TA.AperFunction,ComponentPad*%
%ADD18C,3.000000*%
%TD*%
%TA.AperFunction,SMDPad,CuDef*%
%ADD19RoundRect,0.225000X-0.225000X-0.375000X0.225000X-0.375000X0.225000X0.375000X-0.225000X0.375000X0*%
%TD*%
%TA.AperFunction,Conductor*%
%ADD20C,0.152400*%
%TD*%
G04 APERTURE END LIST*
D10*
%TO.P,C3,1*%
%TO.N,Net-(J2-Pin_15)*%
X37050000Y-28000000D03*
%TO.P,C3,2*%
%TO.N,Net-(J2-Pin_18)*%
X38950000Y-28000000D03*
%TD*%
D11*
%TO.P,J4,1*%
%TO.N,Net-(J1-Pin_10)*%
X27000000Y-7000000D03*
D12*
%TO.P,J4,2*%
%TO.N,Net-(J1-Pin_9)*%
X29000000Y-7000000D03*
%TO.P,J4,3*%
%TO.N,Net-(J2-Pin_16)*%
X31000000Y-7000000D03*
%TO.P,J4,4*%
%TO.N,Net-(J2-Pin_18)*%
X33000000Y-7000000D03*
%TD*%
D13*
%TO.P,R1,1*%
%TO.N,Net-(J1-Pin_6)*%
X16087500Y-25000000D03*
%TO.P,R1,2*%
%TO.N,Net-(J2-Pin_16)*%
X17912500Y-25000000D03*
%TD*%
D11*
%TO.P,J3,1*%
%TO.N,Net-(J1-Pin_7)*%
X14000000Y-7000000D03*
D12*
%TO.P,J3,2*%
%TO.N,Net-(J1-Pin_6)*%
X16000000Y-7000000D03*
%TO.P,J3,3*%
%TO.N,Net-(J2-Pin_16)*%
X18000000Y-7000000D03*
%TO.P,J3,4*%
%TO.N,Net-(J2-Pin_18)*%
X20000000Y-7000000D03*
%TD*%
D13*
%TO.P,R7,1*%
%TO.N,Net-(Q1-G)*%
X41087500Y-31000000D03*
%TO.P,R7,2*%
%TO.N,Net-(J2-Pin_18)*%
X42912500Y-31000000D03*
%TD*%
%TO.P,R6,1*%
%TO.N,Net-(Q1-G)*%
X41087500Y-25000000D03*
%TO.P,R6,2*%
%TO.N,Net-(J2-Pin_9)*%
X42912500Y-25000000D03*
%TD*%
%TO.P,R5,1*%
%TO.N,Net-(J1-Pin_4)*%
X11087500Y-28000000D03*
%TO.P,R5,2*%
%TO.N,Net-(J2-Pin_16)*%
X12912500Y-28000000D03*
%TD*%
%TO.P,R4,1*%
%TO.N,Net-(J1-Pin_10)*%
X26087500Y-31000000D03*
%TO.P,R4,2*%
%TO.N,Net-(J2-Pin_16)*%
X27912500Y-31000000D03*
%TD*%
D14*
%TO.P,J1,1*%
%TO.N,N/C*%
X3870000Y-19110000D03*
D15*
%TO.P,J1,2*%
X6410000Y-19110000D03*
%TO.P,J1,3*%
X8950000Y-19110000D03*
%TO.P,J1,4*%
%TO.N,Net-(J1-Pin_4)*%
X11490000Y-19110000D03*
%TO.P,J1,5*%
%TO.N,N/C*%
X14030000Y-19110000D03*
%TO.P,J1,6*%
%TO.N,Net-(J1-Pin_6)*%
X16570000Y-19110000D03*
%TO.P,J1,7*%
%TO.N,Net-(J1-Pin_7)*%
X19110000Y-19110000D03*
%TO.P,J1,8*%
%TO.N,N/C*%
X21650000Y-19110000D03*
%TO.P,J1,9*%
%TO.N,Net-(J1-Pin_9)*%
X24190000Y-19110000D03*
%TO.P,J1,10*%
%TO.N,Net-(J1-Pin_10)*%
X26730000Y-19110000D03*
%TO.P,J1,11*%
%TO.N,N/C*%
X29270000Y-19110000D03*
%TO.P,J1,12*%
X31810000Y-19110000D03*
%TO.P,J1,13*%
X34350000Y-19110000D03*
%TO.P,J1,14*%
X36890000Y-19110000D03*
%TO.P,J1,15*%
X39430000Y-19110000D03*
%TO.P,J1,16*%
X41970000Y-19110000D03*
%TO.P,J1,17*%
X44510000Y-19110000D03*
%TO.P,J1,18*%
X47050000Y-19110000D03*
%TO.P,J1,19*%
X49590000Y-19110000D03*
%TO.P,J1,20*%
X52130000Y-19110000D03*
%TD*%
D13*
%TO.P,R3,1*%
%TO.N,Net-(J1-Pin_9)*%
X23087500Y-25000000D03*
%TO.P,R3,2*%
%TO.N,Net-(J2-Pin_16)*%
X24912500Y-25000000D03*
%TD*%
D16*
%TO.P,Q1,1*%
%TO.N,Net-(Q1-G)*%
X47062500Y-27050000D03*
%TO.P,Q1,2*%
%TO.N,Net-(D1-A)*%
X47062500Y-28950000D03*
%TO.P,Q1,3*%
%TO.N,Net-(J2-Pin_18)*%
X48937500Y-28000000D03*
%TD*%
D17*
%TO.P,J9,1*%
%TO.N,Net-(D1-A)*%
X46130000Y-49000000D03*
D18*
%TO.P,J9,2*%
%TO.N,Net-(J2-Pin_18)*%
X51210000Y-49000000D03*
%TD*%
D11*
%TO.P,J7,1*%
%TO.N,Net-(J2-Pin_18)*%
X34130000Y-49000000D03*
D12*
%TO.P,J7,2*%
%TO.N,Net-(J2-Pin_16)*%
X36130000Y-49000000D03*
%TO.P,J7,3*%
%TO.N,Net-(J2-Pin_14)*%
X38130000Y-49000000D03*
%TD*%
D13*
%TO.P,R2,1*%
%TO.N,Net-(J1-Pin_7)*%
X18087500Y-31000000D03*
%TO.P,R2,2*%
%TO.N,Net-(J2-Pin_16)*%
X19912500Y-31000000D03*
%TD*%
D14*
%TO.P,J2,1*%
%TO.N,N/C*%
X3870000Y-36890000D03*
D15*
%TO.P,J2,2*%
X6410000Y-36890000D03*
%TO.P,J2,3*%
X8950000Y-36890000D03*
%TO.P,J2,4*%
X11490000Y-36890000D03*
%TO.P,J2,5*%
X14030000Y-36890000D03*
%TO.P,J2,6*%
X16570000Y-36890000D03*
%TO.P,J2,7*%
X19110000Y-36890000D03*
%TO.P,J2,8*%
X21650000Y-36890000D03*
%TO.P,J2,9*%
%TO.N,Net-(J2-Pin_9)*%
X24190000Y-36890000D03*
%TO.P,J2,10*%
%TO.N,N/C*%
X26730000Y-36890000D03*
%TO.P,J2,11*%
%TO.N,Net-(J2-Pin_11)*%
X29270000Y-36890000D03*
%TO.P,J2,12*%
%TO.N,Net-(J2-Pin_12)*%
X31810000Y-36890000D03*
%TO.P,J2,13*%
%TO.N,N/C*%
X34350000Y-36890000D03*
%TO.P,J2,14*%
%TO.N,Net-(J2-Pin_14)*%
X36890000Y-36890000D03*
%TO.P,J2,15*%
%TO.N,Net-(J2-Pin_15)*%
X39430000Y-36890000D03*
%TO.P,J2,16*%
%TO.N,Net-(J2-Pin_16)*%
X41970000Y-36890000D03*
%TO.P,J2,17*%
%TO.N,N/C*%
X44510000Y-36890000D03*
%TO.P,J2,18*%
%TO.N,Net-(J2-Pin_18)*%
X47050000Y-36890000D03*
%TO.P,J2,19*%
%TO.N,Net-(D1-A)*%
X49590000Y-36890000D03*
%TO.P,J2,20*%
%TO.N,N/C*%
X52130000Y-36890000D03*
%TD*%
D11*
%TO.P,J8,1*%
%TO.N,Net-(J2-Pin_18)*%
X42000000Y-7000000D03*
D12*
%TO.P,J8,2*%
%TO.N,Net-(J1-Pin_4)*%
X44000000Y-7000000D03*
%TO.P,J8,3*%
%TO.N,Net-(J2-Pin_16)*%
X46000000Y-7000000D03*
%TD*%
D10*
%TO.P,C1,1*%
%TO.N,Net-(J2-Pin_16)*%
X31050000Y-25000000D03*
%TO.P,C1,2*%
%TO.N,Net-(J2-Pin_18)*%
X32950000Y-25000000D03*
%TD*%
%TO.P,C2,1*%
%TO.N,Net-(J2-Pin_16)*%
X31050000Y-31000000D03*
%TO.P,C2,2*%
%TO.N,Net-(J2-Pin_18)*%
X32950000Y-31000000D03*
%TD*%
D11*
%TO.P,J6,1*%
%TO.N,Net-(J2-Pin_18)*%
X20130000Y-49000000D03*
D12*
%TO.P,J6,2*%
%TO.N,Net-(J2-Pin_16)*%
X22130000Y-49000000D03*
%TO.P,J6,3*%
%TO.N,Net-(J2-Pin_12)*%
X24130000Y-49000000D03*
%TD*%
D19*
%TO.P,D1,1*%
%TO.N,Net-(D1-A)*%
X46350000Y-33000000D03*
%TO.P,D1,2*%
X49650000Y-33000000D03*
%TD*%
D11*
%TO.P,J5,1*%
%TO.N,Net-(J2-Pin_18)*%
X6130000Y-49000000D03*
D12*
%TO.P,J5,2*%
%TO.N,Net-(J2-Pin_16)*%
X8130000Y-49000000D03*
%TO.P,J5,3*%
%TO.N,Net-(J2-Pin_11)*%
X10130000Y-49000000D03*
%TD*%
D20*
%TO.N,Net-(D1-A)*%
X47063660Y-29237940D02*
X47063660Y-29522420D01*
X49651920Y-32999680D02*
X48930560Y-32999680D01*
X47640240Y-31709360D02*
X47071280Y-32278320D01*
X47063660Y-30236160D02*
X47063660Y-31132780D01*
X46349920Y-32999680D02*
X47071280Y-32999680D01*
X47063660Y-28950920D02*
X47063660Y-29237940D01*
X47071280Y-32278320D02*
X47071280Y-32999680D01*
X49651920Y-32999680D02*
X49651920Y-33870900D01*
X47640240Y-31709360D02*
X48930560Y-32999680D01*
X49590960Y-45537120D02*
X49590960Y-36890960D01*
X47063660Y-31132780D02*
X47640240Y-31709360D01*
X47063660Y-29550360D02*
X47063660Y-30236160D01*
X47063660Y-29522420D02*
X47063660Y-29550360D01*
X49590960Y-33931860D02*
X49651920Y-33870900D01*
X46128940Y-48999140D02*
X49590960Y-45537120D01*
X49590960Y-36890960D02*
X49590960Y-33931860D01*
%TO.N,Net-(J1-Pin_4)*%
X11490960Y-26624280D02*
X11087100Y-27028140D01*
X11490960Y-19110960D02*
X11490960Y-26624280D01*
X11087100Y-28000960D02*
X11087100Y-27028140D01*
%TO.N,Net-(J1-Pin_6)*%
X15999460Y-18539460D02*
X15999460Y-7000240D01*
X16088360Y-19593560D02*
X16570960Y-19110960D01*
X16570960Y-19110960D02*
X15999460Y-18539460D01*
X16088360Y-25001220D02*
X16088360Y-19593560D01*
%TO.N,Net-(J1-Pin_7)*%
X14881860Y-6118860D02*
X16840200Y-6118860D01*
X14000480Y-7000240D02*
X14881860Y-6118860D01*
X16840200Y-6118860D02*
X16880840Y-6159500D01*
X16880840Y-16880840D02*
X19110960Y-19110960D01*
X18087340Y-31000700D02*
X18872200Y-31000700D01*
X18872200Y-19349720D02*
X19110960Y-19110960D01*
X18872200Y-31000700D02*
X18872200Y-19349720D01*
X16880840Y-6159500D02*
X16880840Y-16880840D01*
%TO.N,Net-(J1-Pin_9)*%
X23088600Y-20213320D02*
X24190960Y-19110960D01*
X24190960Y-8026400D02*
X26697940Y-5519420D01*
X24190960Y-19110960D02*
X24190960Y-8026400D01*
X23088600Y-25001220D02*
X23088600Y-20213320D01*
X27518360Y-5519420D02*
X28999180Y-7000240D01*
X26697940Y-5519420D02*
X27518360Y-5519420D01*
%TO.N,Net-(J1-Pin_10)*%
X26088340Y-31000700D02*
X26088340Y-19753580D01*
X26730960Y-19110960D02*
X26730960Y-7269480D01*
X26088340Y-19753580D02*
X26730960Y-19110960D01*
X26730960Y-7269480D02*
X27000200Y-7000240D01*
%TO.N,Net-(J2-Pin_9)*%
X41937940Y-24028400D02*
X42125900Y-24216360D01*
X39047420Y-24028400D02*
X41937940Y-24028400D01*
X24190960Y-36890960D02*
X29072840Y-32009080D01*
X29072840Y-30043120D02*
X32072580Y-27043380D01*
X29072840Y-32009080D02*
X29072840Y-30043120D01*
X36032440Y-27043380D02*
X39047420Y-24028400D01*
X32072580Y-27043380D02*
X36032440Y-27043380D01*
X42910760Y-25001220D02*
X42125900Y-25001220D01*
X42125900Y-24216360D02*
X42125900Y-25001220D01*
%TO.N,Net-(J2-Pin_12)*%
X31810960Y-41318180D02*
X24130000Y-48999140D01*
X31810960Y-36890960D02*
X31810960Y-41318180D01*
%TO.N,Net-(J2-Pin_14)*%
X36890960Y-47759620D02*
X38130480Y-48999140D01*
X36890960Y-36890960D02*
X36890960Y-47759620D01*
%TO.N,Net-(J2-Pin_15)*%
X39430960Y-36890960D02*
X37823140Y-35283140D01*
X37823140Y-35283140D02*
X37823140Y-28000960D01*
X37050980Y-28000960D02*
X37823140Y-28000960D01*
%TO.N,Net-(Q1-G)*%
X41087040Y-27622500D02*
X47063660Y-27622500D01*
X41087040Y-28000960D02*
X41087040Y-27622500D01*
X47063660Y-27051000D02*
X47063660Y-27622500D01*
X41087040Y-31000700D02*
X41087040Y-28000960D01*
X41087040Y-27622500D02*
X41087040Y-25001220D01*
%TD*%
M02*
