M48
; DRILL file {KiCad 7.0.11+dfsg-1build4} date 2026年02月12日 16時36分10秒
; FORMAT={-:-/ absolute / metric / decimal}
; #@! TF.CreationDate,2026-02-12T16:36:10+09:00
; #@! TF.GenerationSoftware,Kicad,Pcbnew,7.0.11+dfsg-1build4
; #@! TF.FileFunction,MixedPlating,1,2
FMAT,2
METRIC
; #@! TA.AperFunction,Plated,PTH,ComponentDrill
T1C0.750
; #@! TA.AperFunction,Plated,PTH,ComponentDrill
T2C1.000
; #@! TA.AperFunction,Plated,PTH,ComponentDrill
T3C1.520
%
G90
G05
T1
X6.13Y-49.0
X8.13Y-49.0
X10.13Y-49.0
X14.0Y-7.0
X16.0Y-7.0
X18.0Y-7.0
X20.0Y-7.0
X20.13Y-49.0
X22.13Y-49.0
X24.13Y-49.0
X27.0Y-7.0
X29.0Y-7.0
X31.0Y-7.0
X33.0Y-7.0
X34.13Y-49.0
X36.13Y-49.0
X38.13Y-49.0
X42.0Y-7.0
X44.0Y-7.0
X46.0Y-7.0
T2
X3.87Y-19.11
X3.87Y-36.89
X6.41Y-19.11
X6.41Y-36.89
X8.95Y-19.11
X8.95Y-36.89
X11.49Y-19.11
X11.49Y-36.89
X14.03Y-19.11
X14.03Y-36.89
X16.57Y-19.11
X16.57Y-36.89
X19.11Y-19.11
X19.11Y-36.89
X21.65Y-19.11
X21.65Y-36.89
X24.19Y-19.11
X24.19Y-36.89
X26.73Y-19.11
X26.73Y-36.89
X29.27Y-19.11
X29.27Y-36.89
X31.81Y-19.11
X31.81Y-36.89
X34.35Y-19.11
X34.35Y-36.89
X36.89Y-19.11
X36.89Y-36.89
X39.43Y-19.11
X39.43Y-36.89
X41.97Y-19.11
X41.97Y-36.89
X44.51Y-19.11
X44.51Y-36.89
X47.05Y-19.11
X47.05Y-36.89
X49.59Y-19.11
X49.59Y-36.89
X52.13Y-19.11
X52.13Y-36.89
T3
X46.13Y-49.0
X51.21Y-49.0
M30
