%TF.GenerationSoftware,KiCad,Pcbnew,7.0.11+dfsg-1build4*%
%TF.CreationDate,2026-02-12T23:01:58+09:00*%
%TF.ProjectId,grove_shield_v3,67726f76-655f-4736-9869-656c645f7633,rev?*%
%TF.SameCoordinates,Original*%
%TF.FileFunction,AssemblyDrawing,Top*%
%FSLAX46Y46*%
G04 Gerber Fmt 4.6, Leading zero omitted, Abs format (unit mm)*
G04 Created by KiCad (PCBNEW 7.0.11+dfsg-1build4) date 2026-02-12 23:01:58*
%MOMM*%
%LPD*%
G01*
G04 APERTURE LIST*
%ADD10C,0.150000*%
%ADD11C,0.080000*%
%ADD12C,0.050000*%
%ADD13C,0.100000*%
G04 APERTURE END LIST*
D10*
X57200952Y-50454819D02*
X56629524Y-50454819D01*
X56915238Y-50454819D02*
X56915238Y-49454819D01*
X56915238Y-49454819D02*
X56820000Y-49597676D01*
X56820000Y-49597676D02*
X56724762Y-49692914D01*
X56724762Y-49692914D02*
X56629524Y-49740533D01*
X57820000Y-49454819D02*
X57915238Y-49454819D01*
X57915238Y-49454819D02*
X58010476Y-49502438D01*
X58010476Y-49502438D02*
X58058095Y-49550057D01*
X58058095Y-49550057D02*
X58105714Y-49645295D01*
X58105714Y-49645295D02*
X58153333Y-49835771D01*
X58153333Y-49835771D02*
X58153333Y-50073866D01*
X58153333Y-50073866D02*
X58105714Y-50264342D01*
X58105714Y-50264342D02*
X58058095Y-50359580D01*
X58058095Y-50359580D02*
X58010476Y-50407200D01*
X58010476Y-50407200D02*
X57915238Y-50454819D01*
X57915238Y-50454819D02*
X57820000Y-50454819D01*
X57820000Y-50454819D02*
X57724762Y-50407200D01*
X57724762Y-50407200D02*
X57677143Y-50359580D01*
X57677143Y-50359580D02*
X57629524Y-50264342D01*
X57629524Y-50264342D02*
X57581905Y-50073866D01*
X57581905Y-50073866D02*
X57581905Y-49835771D01*
X57581905Y-49835771D02*
X57629524Y-49645295D01*
X57629524Y-49645295D02*
X57677143Y-49550057D01*
X57677143Y-49550057D02*
X57724762Y-49502438D01*
X57724762Y-49502438D02*
X57820000Y-49454819D01*
X58772381Y-49454819D02*
X58867619Y-49454819D01*
X58867619Y-49454819D02*
X58962857Y-49502438D01*
X58962857Y-49502438D02*
X59010476Y-49550057D01*
X59010476Y-49550057D02*
X59058095Y-49645295D01*
X59058095Y-49645295D02*
X59105714Y-49835771D01*
X59105714Y-49835771D02*
X59105714Y-50073866D01*
X59105714Y-50073866D02*
X59058095Y-50264342D01*
X59058095Y-50264342D02*
X59010476Y-50359580D01*
X59010476Y-50359580D02*
X58962857Y-50407200D01*
X58962857Y-50407200D02*
X58867619Y-50454819D01*
X58867619Y-50454819D02*
X58772381Y-50454819D01*
X58772381Y-50454819D02*
X58677143Y-50407200D01*
X58677143Y-50407200D02*
X58629524Y-50359580D01*
X58629524Y-50359580D02*
X58581905Y-50264342D01*
X58581905Y-50264342D02*
X58534286Y-50073866D01*
X58534286Y-50073866D02*
X58534286Y-49835771D01*
X58534286Y-49835771D02*
X58581905Y-49645295D01*
X58581905Y-49645295D02*
X58629524Y-49550057D01*
X58629524Y-49550057D02*
X58677143Y-49502438D01*
X58677143Y-49502438D02*
X58772381Y-49454819D01*
X59534286Y-49788152D02*
X59534286Y-50454819D01*
X59534286Y-49883390D02*
X59581905Y-49835771D01*
X59581905Y-49835771D02*
X59677143Y-49788152D01*
X59677143Y-49788152D02*
X59820000Y-49788152D01*
X59820000Y-49788152D02*
X59915238Y-49835771D01*
X59915238Y-49835771D02*
X59962857Y-49931009D01*
X59962857Y-49931009D02*
X59962857Y-50454819D01*
D11*
X58236666Y-48499530D02*
X58212857Y-48523340D01*
X58212857Y-48523340D02*
X58141428Y-48547149D01*
X58141428Y-48547149D02*
X58093809Y-48547149D01*
X58093809Y-48547149D02*
X58022381Y-48523340D01*
X58022381Y-48523340D02*
X57974762Y-48475720D01*
X57974762Y-48475720D02*
X57950952Y-48428101D01*
X57950952Y-48428101D02*
X57927143Y-48332863D01*
X57927143Y-48332863D02*
X57927143Y-48261435D01*
X57927143Y-48261435D02*
X57950952Y-48166197D01*
X57950952Y-48166197D02*
X57974762Y-48118578D01*
X57974762Y-48118578D02*
X58022381Y-48070959D01*
X58022381Y-48070959D02*
X58093809Y-48047149D01*
X58093809Y-48047149D02*
X58141428Y-48047149D01*
X58141428Y-48047149D02*
X58212857Y-48070959D01*
X58212857Y-48070959D02*
X58236666Y-48094768D01*
X58403333Y-48047149D02*
X58712857Y-48047149D01*
X58712857Y-48047149D02*
X58546190Y-48237625D01*
X58546190Y-48237625D02*
X58617619Y-48237625D01*
X58617619Y-48237625D02*
X58665238Y-48261435D01*
X58665238Y-48261435D02*
X58689047Y-48285244D01*
X58689047Y-48285244D02*
X58712857Y-48332863D01*
X58712857Y-48332863D02*
X58712857Y-48451911D01*
X58712857Y-48451911D02*
X58689047Y-48499530D01*
X58689047Y-48499530D02*
X58665238Y-48523340D01*
X58665238Y-48523340D02*
X58617619Y-48547149D01*
X58617619Y-48547149D02*
X58474762Y-48547149D01*
X58474762Y-48547149D02*
X58427143Y-48523340D01*
X58427143Y-48523340D02*
X58403333Y-48499530D01*
D10*
X46659047Y-26362438D02*
X46563809Y-26314819D01*
X46563809Y-26314819D02*
X46420952Y-26314819D01*
X46420952Y-26314819D02*
X46278095Y-26362438D01*
X46278095Y-26362438D02*
X46182857Y-26457676D01*
X46182857Y-26457676D02*
X46135238Y-26552914D01*
X46135238Y-26552914D02*
X46087619Y-26743390D01*
X46087619Y-26743390D02*
X46087619Y-26886247D01*
X46087619Y-26886247D02*
X46135238Y-27076723D01*
X46135238Y-27076723D02*
X46182857Y-27171961D01*
X46182857Y-27171961D02*
X46278095Y-27267200D01*
X46278095Y-27267200D02*
X46420952Y-27314819D01*
X46420952Y-27314819D02*
X46516190Y-27314819D01*
X46516190Y-27314819D02*
X46659047Y-27267200D01*
X46659047Y-27267200D02*
X46706666Y-27219580D01*
X46706666Y-27219580D02*
X46706666Y-26886247D01*
X46706666Y-26886247D02*
X46516190Y-26886247D01*
X47135238Y-27314819D02*
X47135238Y-26648152D01*
X47135238Y-26838628D02*
X47182857Y-26743390D01*
X47182857Y-26743390D02*
X47230476Y-26695771D01*
X47230476Y-26695771D02*
X47325714Y-26648152D01*
X47325714Y-26648152D02*
X47420952Y-26648152D01*
X47897143Y-27314819D02*
X47801905Y-27267200D01*
X47801905Y-27267200D02*
X47754286Y-27219580D01*
X47754286Y-27219580D02*
X47706667Y-27124342D01*
X47706667Y-27124342D02*
X47706667Y-26838628D01*
X47706667Y-26838628D02*
X47754286Y-26743390D01*
X47754286Y-26743390D02*
X47801905Y-26695771D01*
X47801905Y-26695771D02*
X47897143Y-26648152D01*
X47897143Y-26648152D02*
X48040000Y-26648152D01*
X48040000Y-26648152D02*
X48135238Y-26695771D01*
X48135238Y-26695771D02*
X48182857Y-26743390D01*
X48182857Y-26743390D02*
X48230476Y-26838628D01*
X48230476Y-26838628D02*
X48230476Y-27124342D01*
X48230476Y-27124342D02*
X48182857Y-27219580D01*
X48182857Y-27219580D02*
X48135238Y-27267200D01*
X48135238Y-27267200D02*
X48040000Y-27314819D01*
X48040000Y-27314819D02*
X47897143Y-27314819D01*
X48563810Y-26648152D02*
X48801905Y-27314819D01*
X48801905Y-27314819D02*
X49040000Y-26648152D01*
X49801905Y-27267200D02*
X49706667Y-27314819D01*
X49706667Y-27314819D02*
X49516191Y-27314819D01*
X49516191Y-27314819D02*
X49420953Y-27267200D01*
X49420953Y-27267200D02*
X49373334Y-27171961D01*
X49373334Y-27171961D02*
X49373334Y-26791009D01*
X49373334Y-26791009D02*
X49420953Y-26695771D01*
X49420953Y-26695771D02*
X49516191Y-26648152D01*
X49516191Y-26648152D02*
X49706667Y-26648152D01*
X49706667Y-26648152D02*
X49801905Y-26695771D01*
X49801905Y-26695771D02*
X49849524Y-26791009D01*
X49849524Y-26791009D02*
X49849524Y-26886247D01*
X49849524Y-26886247D02*
X49373334Y-26981485D01*
X50040001Y-27410057D02*
X50801905Y-27410057D01*
X51040001Y-27314819D02*
X51040001Y-26314819D01*
X51468572Y-26410057D02*
X51516191Y-26362438D01*
X51516191Y-26362438D02*
X51611429Y-26314819D01*
X51611429Y-26314819D02*
X51849524Y-26314819D01*
X51849524Y-26314819D02*
X51944762Y-26362438D01*
X51944762Y-26362438D02*
X51992381Y-26410057D01*
X51992381Y-26410057D02*
X52040000Y-26505295D01*
X52040000Y-26505295D02*
X52040000Y-26600533D01*
X52040000Y-26600533D02*
X51992381Y-26743390D01*
X51992381Y-26743390D02*
X51420953Y-27314819D01*
X51420953Y-27314819D02*
X52040000Y-27314819D01*
X53040000Y-27219580D02*
X52992381Y-27267200D01*
X52992381Y-27267200D02*
X52849524Y-27314819D01*
X52849524Y-27314819D02*
X52754286Y-27314819D01*
X52754286Y-27314819D02*
X52611429Y-27267200D01*
X52611429Y-27267200D02*
X52516191Y-27171961D01*
X52516191Y-27171961D02*
X52468572Y-27076723D01*
X52468572Y-27076723D02*
X52420953Y-26886247D01*
X52420953Y-26886247D02*
X52420953Y-26743390D01*
X52420953Y-26743390D02*
X52468572Y-26552914D01*
X52468572Y-26552914D02*
X52516191Y-26457676D01*
X52516191Y-26457676D02*
X52611429Y-26362438D01*
X52611429Y-26362438D02*
X52754286Y-26314819D01*
X52754286Y-26314819D02*
X52849524Y-26314819D01*
X52849524Y-26314819D02*
X52992381Y-26362438D01*
X52992381Y-26362438D02*
X53040000Y-26410057D01*
X53992381Y-27314819D02*
X53420953Y-27314819D01*
X53706667Y-27314819D02*
X53706667Y-26314819D01*
X53706667Y-26314819D02*
X53611429Y-26457676D01*
X53611429Y-26457676D02*
X53516191Y-26552914D01*
X53516191Y-26552914D02*
X53420953Y-26600533D01*
X49706666Y-23814819D02*
X49706666Y-24529104D01*
X49706666Y-24529104D02*
X49659047Y-24671961D01*
X49659047Y-24671961D02*
X49563809Y-24767200D01*
X49563809Y-24767200D02*
X49420952Y-24814819D01*
X49420952Y-24814819D02*
X49325714Y-24814819D01*
X50611428Y-24148152D02*
X50611428Y-24814819D01*
X50373333Y-23767200D02*
X50135238Y-24481485D01*
X50135238Y-24481485D02*
X50754285Y-24481485D01*
X36391428Y-46758152D02*
X36391428Y-47424819D01*
X36153333Y-46377200D02*
X35915238Y-47091485D01*
X35915238Y-47091485D02*
X36534285Y-47091485D01*
X36915238Y-47329580D02*
X36962857Y-47377200D01*
X36962857Y-47377200D02*
X36915238Y-47424819D01*
X36915238Y-47424819D02*
X36867619Y-47377200D01*
X36867619Y-47377200D02*
X36915238Y-47329580D01*
X36915238Y-47329580D02*
X36915238Y-47424819D01*
X37296190Y-46424819D02*
X37962856Y-46424819D01*
X37962856Y-46424819D02*
X37534285Y-47424819D01*
X38343809Y-47424819D02*
X38343809Y-46424819D01*
X38439047Y-47043866D02*
X38724761Y-47424819D01*
X38724761Y-46758152D02*
X38343809Y-47139104D01*
D11*
X37236666Y-45547149D02*
X37070000Y-45309054D01*
X36950952Y-45547149D02*
X36950952Y-45047149D01*
X36950952Y-45047149D02*
X37141428Y-45047149D01*
X37141428Y-45047149D02*
X37189047Y-45070959D01*
X37189047Y-45070959D02*
X37212857Y-45094768D01*
X37212857Y-45094768D02*
X37236666Y-45142387D01*
X37236666Y-45142387D02*
X37236666Y-45213816D01*
X37236666Y-45213816D02*
X37212857Y-45261435D01*
X37212857Y-45261435D02*
X37189047Y-45285244D01*
X37189047Y-45285244D02*
X37141428Y-45309054D01*
X37141428Y-45309054D02*
X36950952Y-45309054D01*
X37712857Y-45547149D02*
X37427143Y-45547149D01*
X37570000Y-45547149D02*
X37570000Y-45047149D01*
X37570000Y-45047149D02*
X37522381Y-45118578D01*
X37522381Y-45118578D02*
X37474762Y-45166197D01*
X37474762Y-45166197D02*
X37427143Y-45190006D01*
D10*
X33659047Y-26362438D02*
X33563809Y-26314819D01*
X33563809Y-26314819D02*
X33420952Y-26314819D01*
X33420952Y-26314819D02*
X33278095Y-26362438D01*
X33278095Y-26362438D02*
X33182857Y-26457676D01*
X33182857Y-26457676D02*
X33135238Y-26552914D01*
X33135238Y-26552914D02*
X33087619Y-26743390D01*
X33087619Y-26743390D02*
X33087619Y-26886247D01*
X33087619Y-26886247D02*
X33135238Y-27076723D01*
X33135238Y-27076723D02*
X33182857Y-27171961D01*
X33182857Y-27171961D02*
X33278095Y-27267200D01*
X33278095Y-27267200D02*
X33420952Y-27314819D01*
X33420952Y-27314819D02*
X33516190Y-27314819D01*
X33516190Y-27314819D02*
X33659047Y-27267200D01*
X33659047Y-27267200D02*
X33706666Y-27219580D01*
X33706666Y-27219580D02*
X33706666Y-26886247D01*
X33706666Y-26886247D02*
X33516190Y-26886247D01*
X34135238Y-27314819D02*
X34135238Y-26648152D01*
X34135238Y-26838628D02*
X34182857Y-26743390D01*
X34182857Y-26743390D02*
X34230476Y-26695771D01*
X34230476Y-26695771D02*
X34325714Y-26648152D01*
X34325714Y-26648152D02*
X34420952Y-26648152D01*
X34897143Y-27314819D02*
X34801905Y-27267200D01*
X34801905Y-27267200D02*
X34754286Y-27219580D01*
X34754286Y-27219580D02*
X34706667Y-27124342D01*
X34706667Y-27124342D02*
X34706667Y-26838628D01*
X34706667Y-26838628D02*
X34754286Y-26743390D01*
X34754286Y-26743390D02*
X34801905Y-26695771D01*
X34801905Y-26695771D02*
X34897143Y-26648152D01*
X34897143Y-26648152D02*
X35040000Y-26648152D01*
X35040000Y-26648152D02*
X35135238Y-26695771D01*
X35135238Y-26695771D02*
X35182857Y-26743390D01*
X35182857Y-26743390D02*
X35230476Y-26838628D01*
X35230476Y-26838628D02*
X35230476Y-27124342D01*
X35230476Y-27124342D02*
X35182857Y-27219580D01*
X35182857Y-27219580D02*
X35135238Y-27267200D01*
X35135238Y-27267200D02*
X35040000Y-27314819D01*
X35040000Y-27314819D02*
X34897143Y-27314819D01*
X35563810Y-26648152D02*
X35801905Y-27314819D01*
X35801905Y-27314819D02*
X36040000Y-26648152D01*
X36801905Y-27267200D02*
X36706667Y-27314819D01*
X36706667Y-27314819D02*
X36516191Y-27314819D01*
X36516191Y-27314819D02*
X36420953Y-27267200D01*
X36420953Y-27267200D02*
X36373334Y-27171961D01*
X36373334Y-27171961D02*
X36373334Y-26791009D01*
X36373334Y-26791009D02*
X36420953Y-26695771D01*
X36420953Y-26695771D02*
X36516191Y-26648152D01*
X36516191Y-26648152D02*
X36706667Y-26648152D01*
X36706667Y-26648152D02*
X36801905Y-26695771D01*
X36801905Y-26695771D02*
X36849524Y-26791009D01*
X36849524Y-26791009D02*
X36849524Y-26886247D01*
X36849524Y-26886247D02*
X36373334Y-26981485D01*
X37040001Y-27410057D02*
X37801905Y-27410057D01*
X38040001Y-27314819D02*
X38040001Y-26314819D01*
X38468572Y-26410057D02*
X38516191Y-26362438D01*
X38516191Y-26362438D02*
X38611429Y-26314819D01*
X38611429Y-26314819D02*
X38849524Y-26314819D01*
X38849524Y-26314819D02*
X38944762Y-26362438D01*
X38944762Y-26362438D02*
X38992381Y-26410057D01*
X38992381Y-26410057D02*
X39040000Y-26505295D01*
X39040000Y-26505295D02*
X39040000Y-26600533D01*
X39040000Y-26600533D02*
X38992381Y-26743390D01*
X38992381Y-26743390D02*
X38420953Y-27314819D01*
X38420953Y-27314819D02*
X39040000Y-27314819D01*
X40040000Y-27219580D02*
X39992381Y-27267200D01*
X39992381Y-27267200D02*
X39849524Y-27314819D01*
X39849524Y-27314819D02*
X39754286Y-27314819D01*
X39754286Y-27314819D02*
X39611429Y-27267200D01*
X39611429Y-27267200D02*
X39516191Y-27171961D01*
X39516191Y-27171961D02*
X39468572Y-27076723D01*
X39468572Y-27076723D02*
X39420953Y-26886247D01*
X39420953Y-26886247D02*
X39420953Y-26743390D01*
X39420953Y-26743390D02*
X39468572Y-26552914D01*
X39468572Y-26552914D02*
X39516191Y-26457676D01*
X39516191Y-26457676D02*
X39611429Y-26362438D01*
X39611429Y-26362438D02*
X39754286Y-26314819D01*
X39754286Y-26314819D02*
X39849524Y-26314819D01*
X39849524Y-26314819D02*
X39992381Y-26362438D01*
X39992381Y-26362438D02*
X40040000Y-26410057D01*
X40659048Y-26314819D02*
X40754286Y-26314819D01*
X40754286Y-26314819D02*
X40849524Y-26362438D01*
X40849524Y-26362438D02*
X40897143Y-26410057D01*
X40897143Y-26410057D02*
X40944762Y-26505295D01*
X40944762Y-26505295D02*
X40992381Y-26695771D01*
X40992381Y-26695771D02*
X40992381Y-26933866D01*
X40992381Y-26933866D02*
X40944762Y-27124342D01*
X40944762Y-27124342D02*
X40897143Y-27219580D01*
X40897143Y-27219580D02*
X40849524Y-27267200D01*
X40849524Y-27267200D02*
X40754286Y-27314819D01*
X40754286Y-27314819D02*
X40659048Y-27314819D01*
X40659048Y-27314819D02*
X40563810Y-27267200D01*
X40563810Y-27267200D02*
X40516191Y-27219580D01*
X40516191Y-27219580D02*
X40468572Y-27124342D01*
X40468572Y-27124342D02*
X40420953Y-26933866D01*
X40420953Y-26933866D02*
X40420953Y-26695771D01*
X40420953Y-26695771D02*
X40468572Y-26505295D01*
X40468572Y-26505295D02*
X40516191Y-26410057D01*
X40516191Y-26410057D02*
X40563810Y-26362438D01*
X40563810Y-26362438D02*
X40659048Y-26314819D01*
X36706666Y-23814819D02*
X36706666Y-24529104D01*
X36706666Y-24529104D02*
X36659047Y-24671961D01*
X36659047Y-24671961D02*
X36563809Y-24767200D01*
X36563809Y-24767200D02*
X36420952Y-24814819D01*
X36420952Y-24814819D02*
X36325714Y-24814819D01*
X37087619Y-23814819D02*
X37706666Y-23814819D01*
X37706666Y-23814819D02*
X37373333Y-24195771D01*
X37373333Y-24195771D02*
X37516190Y-24195771D01*
X37516190Y-24195771D02*
X37611428Y-24243390D01*
X37611428Y-24243390D02*
X37659047Y-24291009D01*
X37659047Y-24291009D02*
X37706666Y-24386247D01*
X37706666Y-24386247D02*
X37706666Y-24624342D01*
X37706666Y-24624342D02*
X37659047Y-24719580D01*
X37659047Y-24719580D02*
X37611428Y-24767200D01*
X37611428Y-24767200D02*
X37516190Y-24814819D01*
X37516190Y-24814819D02*
X37230476Y-24814819D01*
X37230476Y-24814819D02*
X37135238Y-24767200D01*
X37135238Y-24767200D02*
X37087619Y-24719580D01*
X61724761Y-53424819D02*
X61153333Y-53424819D01*
X61439047Y-53424819D02*
X61439047Y-52424819D01*
X61439047Y-52424819D02*
X61343809Y-52567676D01*
X61343809Y-52567676D02*
X61248571Y-52662914D01*
X61248571Y-52662914D02*
X61153333Y-52710533D01*
X62343809Y-52424819D02*
X62439047Y-52424819D01*
X62439047Y-52424819D02*
X62534285Y-52472438D01*
X62534285Y-52472438D02*
X62581904Y-52520057D01*
X62581904Y-52520057D02*
X62629523Y-52615295D01*
X62629523Y-52615295D02*
X62677142Y-52805771D01*
X62677142Y-52805771D02*
X62677142Y-53043866D01*
X62677142Y-53043866D02*
X62629523Y-53234342D01*
X62629523Y-53234342D02*
X62581904Y-53329580D01*
X62581904Y-53329580D02*
X62534285Y-53377200D01*
X62534285Y-53377200D02*
X62439047Y-53424819D01*
X62439047Y-53424819D02*
X62343809Y-53424819D01*
X62343809Y-53424819D02*
X62248571Y-53377200D01*
X62248571Y-53377200D02*
X62200952Y-53329580D01*
X62200952Y-53329580D02*
X62153333Y-53234342D01*
X62153333Y-53234342D02*
X62105714Y-53043866D01*
X62105714Y-53043866D02*
X62105714Y-52805771D01*
X62105714Y-52805771D02*
X62153333Y-52615295D01*
X62153333Y-52615295D02*
X62200952Y-52520057D01*
X62200952Y-52520057D02*
X62248571Y-52472438D01*
X62248571Y-52472438D02*
X62343809Y-52424819D01*
X63105714Y-53424819D02*
X63105714Y-52424819D01*
X63200952Y-53043866D02*
X63486666Y-53424819D01*
X63486666Y-52758152D02*
X63105714Y-53139104D01*
D11*
X62236666Y-51547149D02*
X62070000Y-51309054D01*
X61950952Y-51547149D02*
X61950952Y-51047149D01*
X61950952Y-51047149D02*
X62141428Y-51047149D01*
X62141428Y-51047149D02*
X62189047Y-51070959D01*
X62189047Y-51070959D02*
X62212857Y-51094768D01*
X62212857Y-51094768D02*
X62236666Y-51142387D01*
X62236666Y-51142387D02*
X62236666Y-51213816D01*
X62236666Y-51213816D02*
X62212857Y-51261435D01*
X62212857Y-51261435D02*
X62189047Y-51285244D01*
X62189047Y-51285244D02*
X62141428Y-51309054D01*
X62141428Y-51309054D02*
X61950952Y-51309054D01*
X62403333Y-51047149D02*
X62736666Y-51047149D01*
X62736666Y-51047149D02*
X62522381Y-51547149D01*
D10*
X61653333Y-47424819D02*
X61081905Y-47424819D01*
X61367619Y-47424819D02*
X61367619Y-46424819D01*
X61367619Y-46424819D02*
X61272381Y-46567676D01*
X61272381Y-46567676D02*
X61177143Y-46662914D01*
X61177143Y-46662914D02*
X61081905Y-46710533D01*
X62272381Y-46424819D02*
X62367619Y-46424819D01*
X62367619Y-46424819D02*
X62462857Y-46472438D01*
X62462857Y-46472438D02*
X62510476Y-46520057D01*
X62510476Y-46520057D02*
X62558095Y-46615295D01*
X62558095Y-46615295D02*
X62605714Y-46805771D01*
X62605714Y-46805771D02*
X62605714Y-47043866D01*
X62605714Y-47043866D02*
X62558095Y-47234342D01*
X62558095Y-47234342D02*
X62510476Y-47329580D01*
X62510476Y-47329580D02*
X62462857Y-47377200D01*
X62462857Y-47377200D02*
X62367619Y-47424819D01*
X62367619Y-47424819D02*
X62272381Y-47424819D01*
X62272381Y-47424819D02*
X62177143Y-47377200D01*
X62177143Y-47377200D02*
X62129524Y-47329580D01*
X62129524Y-47329580D02*
X62081905Y-47234342D01*
X62081905Y-47234342D02*
X62034286Y-47043866D01*
X62034286Y-47043866D02*
X62034286Y-46805771D01*
X62034286Y-46805771D02*
X62081905Y-46615295D01*
X62081905Y-46615295D02*
X62129524Y-46520057D01*
X62129524Y-46520057D02*
X62177143Y-46472438D01*
X62177143Y-46472438D02*
X62272381Y-46424819D01*
X63224762Y-46424819D02*
X63320000Y-46424819D01*
X63320000Y-46424819D02*
X63415238Y-46472438D01*
X63415238Y-46472438D02*
X63462857Y-46520057D01*
X63462857Y-46520057D02*
X63510476Y-46615295D01*
X63510476Y-46615295D02*
X63558095Y-46805771D01*
X63558095Y-46805771D02*
X63558095Y-47043866D01*
X63558095Y-47043866D02*
X63510476Y-47234342D01*
X63510476Y-47234342D02*
X63462857Y-47329580D01*
X63462857Y-47329580D02*
X63415238Y-47377200D01*
X63415238Y-47377200D02*
X63320000Y-47424819D01*
X63320000Y-47424819D02*
X63224762Y-47424819D01*
X63224762Y-47424819D02*
X63129524Y-47377200D01*
X63129524Y-47377200D02*
X63081905Y-47329580D01*
X63081905Y-47329580D02*
X63034286Y-47234342D01*
X63034286Y-47234342D02*
X62986667Y-47043866D01*
X62986667Y-47043866D02*
X62986667Y-46805771D01*
X62986667Y-46805771D02*
X63034286Y-46615295D01*
X63034286Y-46615295D02*
X63081905Y-46520057D01*
X63081905Y-46520057D02*
X63129524Y-46472438D01*
X63129524Y-46472438D02*
X63224762Y-46424819D01*
D11*
X62236666Y-45547149D02*
X62070000Y-45309054D01*
X61950952Y-45547149D02*
X61950952Y-45047149D01*
X61950952Y-45047149D02*
X62141428Y-45047149D01*
X62141428Y-45047149D02*
X62189047Y-45070959D01*
X62189047Y-45070959D02*
X62212857Y-45094768D01*
X62212857Y-45094768D02*
X62236666Y-45142387D01*
X62236666Y-45142387D02*
X62236666Y-45213816D01*
X62236666Y-45213816D02*
X62212857Y-45261435D01*
X62212857Y-45261435D02*
X62189047Y-45285244D01*
X62189047Y-45285244D02*
X62141428Y-45309054D01*
X62141428Y-45309054D02*
X61950952Y-45309054D01*
X62665238Y-45047149D02*
X62570000Y-45047149D01*
X62570000Y-45047149D02*
X62522381Y-45070959D01*
X62522381Y-45070959D02*
X62498571Y-45094768D01*
X62498571Y-45094768D02*
X62450952Y-45166197D01*
X62450952Y-45166197D02*
X62427143Y-45261435D01*
X62427143Y-45261435D02*
X62427143Y-45451911D01*
X62427143Y-45451911D02*
X62450952Y-45499530D01*
X62450952Y-45499530D02*
X62474762Y-45523340D01*
X62474762Y-45523340D02*
X62522381Y-45547149D01*
X62522381Y-45547149D02*
X62617619Y-45547149D01*
X62617619Y-45547149D02*
X62665238Y-45523340D01*
X62665238Y-45523340D02*
X62689047Y-45499530D01*
X62689047Y-45499530D02*
X62712857Y-45451911D01*
X62712857Y-45451911D02*
X62712857Y-45332863D01*
X62712857Y-45332863D02*
X62689047Y-45285244D01*
X62689047Y-45285244D02*
X62665238Y-45261435D01*
X62665238Y-45261435D02*
X62617619Y-45237625D01*
X62617619Y-45237625D02*
X62522381Y-45237625D01*
X62522381Y-45237625D02*
X62474762Y-45261435D01*
X62474762Y-45261435D02*
X62450952Y-45285244D01*
X62450952Y-45285244D02*
X62427143Y-45332863D01*
D10*
X31391428Y-49758152D02*
X31391428Y-50424819D01*
X31153333Y-49377200D02*
X30915238Y-50091485D01*
X30915238Y-50091485D02*
X31534285Y-50091485D01*
X31915238Y-50329580D02*
X31962857Y-50377200D01*
X31962857Y-50377200D02*
X31915238Y-50424819D01*
X31915238Y-50424819D02*
X31867619Y-50377200D01*
X31867619Y-50377200D02*
X31915238Y-50329580D01*
X31915238Y-50329580D02*
X31915238Y-50424819D01*
X32296190Y-49424819D02*
X32962856Y-49424819D01*
X32962856Y-49424819D02*
X32534285Y-50424819D01*
X33343809Y-50424819D02*
X33343809Y-49424819D01*
X33439047Y-50043866D02*
X33724761Y-50424819D01*
X33724761Y-49758152D02*
X33343809Y-50139104D01*
D11*
X32236666Y-48547149D02*
X32070000Y-48309054D01*
X31950952Y-48547149D02*
X31950952Y-48047149D01*
X31950952Y-48047149D02*
X32141428Y-48047149D01*
X32141428Y-48047149D02*
X32189047Y-48070959D01*
X32189047Y-48070959D02*
X32212857Y-48094768D01*
X32212857Y-48094768D02*
X32236666Y-48142387D01*
X32236666Y-48142387D02*
X32236666Y-48213816D01*
X32236666Y-48213816D02*
X32212857Y-48261435D01*
X32212857Y-48261435D02*
X32189047Y-48285244D01*
X32189047Y-48285244D02*
X32141428Y-48309054D01*
X32141428Y-48309054D02*
X31950952Y-48309054D01*
X32689047Y-48047149D02*
X32450952Y-48047149D01*
X32450952Y-48047149D02*
X32427143Y-48285244D01*
X32427143Y-48285244D02*
X32450952Y-48261435D01*
X32450952Y-48261435D02*
X32498571Y-48237625D01*
X32498571Y-48237625D02*
X32617619Y-48237625D01*
X32617619Y-48237625D02*
X32665238Y-48261435D01*
X32665238Y-48261435D02*
X32689047Y-48285244D01*
X32689047Y-48285244D02*
X32712857Y-48332863D01*
X32712857Y-48332863D02*
X32712857Y-48451911D01*
X32712857Y-48451911D02*
X32689047Y-48499530D01*
X32689047Y-48499530D02*
X32665238Y-48523340D01*
X32665238Y-48523340D02*
X32617619Y-48547149D01*
X32617619Y-48547149D02*
X32498571Y-48547149D01*
X32498571Y-48547149D02*
X32450952Y-48523340D01*
X32450952Y-48523340D02*
X32427143Y-48499530D01*
D10*
X46391428Y-52758152D02*
X46391428Y-53424819D01*
X46153333Y-52377200D02*
X45915238Y-53091485D01*
X45915238Y-53091485D02*
X46534285Y-53091485D01*
X46915238Y-53329580D02*
X46962857Y-53377200D01*
X46962857Y-53377200D02*
X46915238Y-53424819D01*
X46915238Y-53424819D02*
X46867619Y-53377200D01*
X46867619Y-53377200D02*
X46915238Y-53329580D01*
X46915238Y-53329580D02*
X46915238Y-53424819D01*
X47296190Y-52424819D02*
X47962856Y-52424819D01*
X47962856Y-52424819D02*
X47534285Y-53424819D01*
X48343809Y-53424819D02*
X48343809Y-52424819D01*
X48439047Y-53043866D02*
X48724761Y-53424819D01*
X48724761Y-52758152D02*
X48343809Y-53139104D01*
D11*
X47236666Y-51547149D02*
X47070000Y-51309054D01*
X46950952Y-51547149D02*
X46950952Y-51047149D01*
X46950952Y-51047149D02*
X47141428Y-51047149D01*
X47141428Y-51047149D02*
X47189047Y-51070959D01*
X47189047Y-51070959D02*
X47212857Y-51094768D01*
X47212857Y-51094768D02*
X47236666Y-51142387D01*
X47236666Y-51142387D02*
X47236666Y-51213816D01*
X47236666Y-51213816D02*
X47212857Y-51261435D01*
X47212857Y-51261435D02*
X47189047Y-51285244D01*
X47189047Y-51285244D02*
X47141428Y-51309054D01*
X47141428Y-51309054D02*
X46950952Y-51309054D01*
X47665238Y-51213816D02*
X47665238Y-51547149D01*
X47546190Y-51023340D02*
X47427143Y-51380482D01*
X47427143Y-51380482D02*
X47736666Y-51380482D01*
D10*
X75674819Y-42596666D02*
X74674819Y-42596666D01*
X74674819Y-42596666D02*
X74674819Y-42215714D01*
X74674819Y-42215714D02*
X74722438Y-42120476D01*
X74722438Y-42120476D02*
X74770057Y-42072857D01*
X74770057Y-42072857D02*
X74865295Y-42025238D01*
X74865295Y-42025238D02*
X75008152Y-42025238D01*
X75008152Y-42025238D02*
X75103390Y-42072857D01*
X75103390Y-42072857D02*
X75151009Y-42120476D01*
X75151009Y-42120476D02*
X75198628Y-42215714D01*
X75198628Y-42215714D02*
X75198628Y-42596666D01*
X75674819Y-41596666D02*
X75008152Y-41596666D01*
X74674819Y-41596666D02*
X74722438Y-41644285D01*
X74722438Y-41644285D02*
X74770057Y-41596666D01*
X74770057Y-41596666D02*
X74722438Y-41549047D01*
X74722438Y-41549047D02*
X74674819Y-41596666D01*
X74674819Y-41596666D02*
X74770057Y-41596666D01*
X75627200Y-40691905D02*
X75674819Y-40787143D01*
X75674819Y-40787143D02*
X75674819Y-40977619D01*
X75674819Y-40977619D02*
X75627200Y-41072857D01*
X75627200Y-41072857D02*
X75579580Y-41120476D01*
X75579580Y-41120476D02*
X75484342Y-41168095D01*
X75484342Y-41168095D02*
X75198628Y-41168095D01*
X75198628Y-41168095D02*
X75103390Y-41120476D01*
X75103390Y-41120476D02*
X75055771Y-41072857D01*
X75055771Y-41072857D02*
X75008152Y-40977619D01*
X75008152Y-40977619D02*
X75008152Y-40787143D01*
X75008152Y-40787143D02*
X75055771Y-40691905D01*
X75674819Y-40120476D02*
X75627200Y-40215714D01*
X75627200Y-40215714D02*
X75579580Y-40263333D01*
X75579580Y-40263333D02*
X75484342Y-40310952D01*
X75484342Y-40310952D02*
X75198628Y-40310952D01*
X75198628Y-40310952D02*
X75103390Y-40263333D01*
X75103390Y-40263333D02*
X75055771Y-40215714D01*
X75055771Y-40215714D02*
X75008152Y-40120476D01*
X75008152Y-40120476D02*
X75008152Y-39977619D01*
X75008152Y-39977619D02*
X75055771Y-39882381D01*
X75055771Y-39882381D02*
X75103390Y-39834762D01*
X75103390Y-39834762D02*
X75198628Y-39787143D01*
X75198628Y-39787143D02*
X75484342Y-39787143D01*
X75484342Y-39787143D02*
X75579580Y-39834762D01*
X75579580Y-39834762D02*
X75627200Y-39882381D01*
X75627200Y-39882381D02*
X75674819Y-39977619D01*
X75674819Y-39977619D02*
X75674819Y-40120476D01*
X75770057Y-39596667D02*
X75770057Y-38834762D01*
X75674819Y-38120476D02*
X75674819Y-38596666D01*
X75674819Y-38596666D02*
X74674819Y-38596666D01*
X75627200Y-37406190D02*
X75674819Y-37501428D01*
X75674819Y-37501428D02*
X75674819Y-37691904D01*
X75674819Y-37691904D02*
X75627200Y-37787142D01*
X75627200Y-37787142D02*
X75531961Y-37834761D01*
X75531961Y-37834761D02*
X75151009Y-37834761D01*
X75151009Y-37834761D02*
X75055771Y-37787142D01*
X75055771Y-37787142D02*
X75008152Y-37691904D01*
X75008152Y-37691904D02*
X75008152Y-37501428D01*
X75008152Y-37501428D02*
X75055771Y-37406190D01*
X75055771Y-37406190D02*
X75151009Y-37358571D01*
X75151009Y-37358571D02*
X75246247Y-37358571D01*
X75246247Y-37358571D02*
X75341485Y-37834761D01*
X75008152Y-37072856D02*
X75008152Y-36691904D01*
X75674819Y-36929999D02*
X74817676Y-36929999D01*
X74817676Y-36929999D02*
X74722438Y-36882380D01*
X74722438Y-36882380D02*
X74674819Y-36787142D01*
X74674819Y-36787142D02*
X74674819Y-36691904D01*
X75008152Y-36501427D02*
X75008152Y-36120475D01*
X74674819Y-36358570D02*
X75531961Y-36358570D01*
X75531961Y-36358570D02*
X75627200Y-36310951D01*
X75627200Y-36310951D02*
X75674819Y-36215713D01*
X75674819Y-36215713D02*
X75674819Y-36120475D01*
X47986666Y-38884819D02*
X47986666Y-39599104D01*
X47986666Y-39599104D02*
X47939047Y-39741961D01*
X47939047Y-39741961D02*
X47843809Y-39837200D01*
X47843809Y-39837200D02*
X47700952Y-39884819D01*
X47700952Y-39884819D02*
X47605714Y-39884819D01*
X48986666Y-39884819D02*
X48415238Y-39884819D01*
X48700952Y-39884819D02*
X48700952Y-38884819D01*
X48700952Y-38884819D02*
X48605714Y-39027676D01*
X48605714Y-39027676D02*
X48510476Y-39122914D01*
X48510476Y-39122914D02*
X48415238Y-39170533D01*
X43391428Y-46758152D02*
X43391428Y-47424819D01*
X43153333Y-46377200D02*
X42915238Y-47091485D01*
X42915238Y-47091485D02*
X43534285Y-47091485D01*
X43915238Y-47329580D02*
X43962857Y-47377200D01*
X43962857Y-47377200D02*
X43915238Y-47424819D01*
X43915238Y-47424819D02*
X43867619Y-47377200D01*
X43867619Y-47377200D02*
X43915238Y-47329580D01*
X43915238Y-47329580D02*
X43915238Y-47424819D01*
X44296190Y-46424819D02*
X44962856Y-46424819D01*
X44962856Y-46424819D02*
X44534285Y-47424819D01*
X45343809Y-47424819D02*
X45343809Y-46424819D01*
X45439047Y-47043866D02*
X45724761Y-47424819D01*
X45724761Y-46758152D02*
X45343809Y-47139104D01*
D11*
X44236666Y-45547149D02*
X44070000Y-45309054D01*
X43950952Y-45547149D02*
X43950952Y-45047149D01*
X43950952Y-45047149D02*
X44141428Y-45047149D01*
X44141428Y-45047149D02*
X44189047Y-45070959D01*
X44189047Y-45070959D02*
X44212857Y-45094768D01*
X44212857Y-45094768D02*
X44236666Y-45142387D01*
X44236666Y-45142387D02*
X44236666Y-45213816D01*
X44236666Y-45213816D02*
X44212857Y-45261435D01*
X44212857Y-45261435D02*
X44189047Y-45285244D01*
X44189047Y-45285244D02*
X44141428Y-45309054D01*
X44141428Y-45309054D02*
X43950952Y-45309054D01*
X44403333Y-45047149D02*
X44712857Y-45047149D01*
X44712857Y-45047149D02*
X44546190Y-45237625D01*
X44546190Y-45237625D02*
X44617619Y-45237625D01*
X44617619Y-45237625D02*
X44665238Y-45261435D01*
X44665238Y-45261435D02*
X44689047Y-45285244D01*
X44689047Y-45285244D02*
X44712857Y-45332863D01*
X44712857Y-45332863D02*
X44712857Y-45451911D01*
X44712857Y-45451911D02*
X44689047Y-45499530D01*
X44689047Y-45499530D02*
X44665238Y-45523340D01*
X44665238Y-45523340D02*
X44617619Y-45547149D01*
X44617619Y-45547149D02*
X44474762Y-45547149D01*
X44474762Y-45547149D02*
X44427143Y-45523340D01*
X44427143Y-45523340D02*
X44403333Y-45499530D01*
D10*
X65605714Y-50270057D02*
X65653333Y-50222438D01*
X65653333Y-50222438D02*
X65748571Y-50174819D01*
X65748571Y-50174819D02*
X65986666Y-50174819D01*
X65986666Y-50174819D02*
X66081904Y-50222438D01*
X66081904Y-50222438D02*
X66129523Y-50270057D01*
X66129523Y-50270057D02*
X66177142Y-50365295D01*
X66177142Y-50365295D02*
X66177142Y-50460533D01*
X66177142Y-50460533D02*
X66129523Y-50603390D01*
X66129523Y-50603390D02*
X65558095Y-51174819D01*
X65558095Y-51174819D02*
X66177142Y-51174819D01*
X66605714Y-51174819D02*
X66605714Y-50174819D01*
X66605714Y-50174819D02*
X67177142Y-51174819D01*
X67177142Y-51174819D02*
X67177142Y-50174819D01*
X67558095Y-50174819D02*
X68224761Y-50174819D01*
X68224761Y-50174819D02*
X67796190Y-51174819D01*
X68796190Y-50174819D02*
X68891428Y-50174819D01*
X68891428Y-50174819D02*
X68986666Y-50222438D01*
X68986666Y-50222438D02*
X69034285Y-50270057D01*
X69034285Y-50270057D02*
X69081904Y-50365295D01*
X69081904Y-50365295D02*
X69129523Y-50555771D01*
X69129523Y-50555771D02*
X69129523Y-50793866D01*
X69129523Y-50793866D02*
X69081904Y-50984342D01*
X69081904Y-50984342D02*
X69034285Y-51079580D01*
X69034285Y-51079580D02*
X68986666Y-51127200D01*
X68986666Y-51127200D02*
X68891428Y-51174819D01*
X68891428Y-51174819D02*
X68796190Y-51174819D01*
X68796190Y-51174819D02*
X68700952Y-51127200D01*
X68700952Y-51127200D02*
X68653333Y-51079580D01*
X68653333Y-51079580D02*
X68605714Y-50984342D01*
X68605714Y-50984342D02*
X68558095Y-50793866D01*
X68558095Y-50793866D02*
X68558095Y-50555771D01*
X68558095Y-50555771D02*
X68605714Y-50365295D01*
X68605714Y-50365295D02*
X68653333Y-50270057D01*
X68653333Y-50270057D02*
X68700952Y-50222438D01*
X68700952Y-50222438D02*
X68796190Y-50174819D01*
X69748571Y-50174819D02*
X69843809Y-50174819D01*
X69843809Y-50174819D02*
X69939047Y-50222438D01*
X69939047Y-50222438D02*
X69986666Y-50270057D01*
X69986666Y-50270057D02*
X70034285Y-50365295D01*
X70034285Y-50365295D02*
X70081904Y-50555771D01*
X70081904Y-50555771D02*
X70081904Y-50793866D01*
X70081904Y-50793866D02*
X70034285Y-50984342D01*
X70034285Y-50984342D02*
X69986666Y-51079580D01*
X69986666Y-51079580D02*
X69939047Y-51127200D01*
X69939047Y-51127200D02*
X69843809Y-51174819D01*
X69843809Y-51174819D02*
X69748571Y-51174819D01*
X69748571Y-51174819D02*
X69653333Y-51127200D01*
X69653333Y-51127200D02*
X69605714Y-51079580D01*
X69605714Y-51079580D02*
X69558095Y-50984342D01*
X69558095Y-50984342D02*
X69510476Y-50793866D01*
X69510476Y-50793866D02*
X69510476Y-50555771D01*
X69510476Y-50555771D02*
X69558095Y-50365295D01*
X69558095Y-50365295D02*
X69605714Y-50270057D01*
X69605714Y-50270057D02*
X69653333Y-50222438D01*
X69653333Y-50222438D02*
X69748571Y-50174819D01*
X70462857Y-50270057D02*
X70510476Y-50222438D01*
X70510476Y-50222438D02*
X70605714Y-50174819D01*
X70605714Y-50174819D02*
X70843809Y-50174819D01*
X70843809Y-50174819D02*
X70939047Y-50222438D01*
X70939047Y-50222438D02*
X70986666Y-50270057D01*
X70986666Y-50270057D02*
X71034285Y-50365295D01*
X71034285Y-50365295D02*
X71034285Y-50460533D01*
X71034285Y-50460533D02*
X70986666Y-50603390D01*
X70986666Y-50603390D02*
X70415238Y-51174819D01*
X70415238Y-51174819D02*
X71034285Y-51174819D01*
D12*
X68289523Y-48495914D02*
X68259047Y-48480676D01*
X68259047Y-48480676D02*
X68228571Y-48450200D01*
X68228571Y-48450200D02*
X68182857Y-48404485D01*
X68182857Y-48404485D02*
X68152380Y-48389247D01*
X68152380Y-48389247D02*
X68121904Y-48389247D01*
X68137142Y-48465438D02*
X68106666Y-48450200D01*
X68106666Y-48450200D02*
X68076190Y-48419723D01*
X68076190Y-48419723D02*
X68060952Y-48358771D01*
X68060952Y-48358771D02*
X68060952Y-48252104D01*
X68060952Y-48252104D02*
X68076190Y-48191152D01*
X68076190Y-48191152D02*
X68106666Y-48160676D01*
X68106666Y-48160676D02*
X68137142Y-48145438D01*
X68137142Y-48145438D02*
X68198095Y-48145438D01*
X68198095Y-48145438D02*
X68228571Y-48160676D01*
X68228571Y-48160676D02*
X68259047Y-48191152D01*
X68259047Y-48191152D02*
X68274285Y-48252104D01*
X68274285Y-48252104D02*
X68274285Y-48358771D01*
X68274285Y-48358771D02*
X68259047Y-48419723D01*
X68259047Y-48419723D02*
X68228571Y-48450200D01*
X68228571Y-48450200D02*
X68198095Y-48465438D01*
X68198095Y-48465438D02*
X68137142Y-48465438D01*
X68579047Y-48465438D02*
X68396190Y-48465438D01*
X68487618Y-48465438D02*
X68487618Y-48145438D01*
X68487618Y-48145438D02*
X68457142Y-48191152D01*
X68457142Y-48191152D02*
X68426666Y-48221628D01*
X68426666Y-48221628D02*
X68396190Y-48236866D01*
D10*
X68228095Y-74331009D02*
X67894762Y-74331009D01*
X67894762Y-74854819D02*
X67894762Y-73854819D01*
X67894762Y-73854819D02*
X68370952Y-73854819D01*
X69180476Y-74854819D02*
X69180476Y-74331009D01*
X69180476Y-74331009D02*
X69132857Y-74235771D01*
X69132857Y-74235771D02*
X69037619Y-74188152D01*
X69037619Y-74188152D02*
X68847143Y-74188152D01*
X68847143Y-74188152D02*
X68751905Y-74235771D01*
X69180476Y-74807200D02*
X69085238Y-74854819D01*
X69085238Y-74854819D02*
X68847143Y-74854819D01*
X68847143Y-74854819D02*
X68751905Y-74807200D01*
X68751905Y-74807200D02*
X68704286Y-74711961D01*
X68704286Y-74711961D02*
X68704286Y-74616723D01*
X68704286Y-74616723D02*
X68751905Y-74521485D01*
X68751905Y-74521485D02*
X68847143Y-74473866D01*
X68847143Y-74473866D02*
X69085238Y-74473866D01*
X69085238Y-74473866D02*
X69180476Y-74426247D01*
X69656667Y-74188152D02*
X69656667Y-74854819D01*
X69656667Y-74283390D02*
X69704286Y-74235771D01*
X69704286Y-74235771D02*
X69799524Y-74188152D01*
X69799524Y-74188152D02*
X69942381Y-74188152D01*
X69942381Y-74188152D02*
X70037619Y-74235771D01*
X70037619Y-74235771D02*
X70085238Y-74331009D01*
X70085238Y-74331009D02*
X70085238Y-74854819D01*
X68656666Y-68774819D02*
X68656666Y-69489104D01*
X68656666Y-69489104D02*
X68609047Y-69631961D01*
X68609047Y-69631961D02*
X68513809Y-69727200D01*
X68513809Y-69727200D02*
X68370952Y-69774819D01*
X68370952Y-69774819D02*
X68275714Y-69774819D01*
X69180476Y-69774819D02*
X69370952Y-69774819D01*
X69370952Y-69774819D02*
X69466190Y-69727200D01*
X69466190Y-69727200D02*
X69513809Y-69679580D01*
X69513809Y-69679580D02*
X69609047Y-69536723D01*
X69609047Y-69536723D02*
X69656666Y-69346247D01*
X69656666Y-69346247D02*
X69656666Y-68965295D01*
X69656666Y-68965295D02*
X69609047Y-68870057D01*
X69609047Y-68870057D02*
X69561428Y-68822438D01*
X69561428Y-68822438D02*
X69466190Y-68774819D01*
X69466190Y-68774819D02*
X69275714Y-68774819D01*
X69275714Y-68774819D02*
X69180476Y-68822438D01*
X69180476Y-68822438D02*
X69132857Y-68870057D01*
X69132857Y-68870057D02*
X69085238Y-68965295D01*
X69085238Y-68965295D02*
X69085238Y-69203390D01*
X69085238Y-69203390D02*
X69132857Y-69298628D01*
X69132857Y-69298628D02*
X69180476Y-69346247D01*
X69180476Y-69346247D02*
X69275714Y-69393866D01*
X69275714Y-69393866D02*
X69466190Y-69393866D01*
X69466190Y-69393866D02*
X69561428Y-69346247D01*
X69561428Y-69346247D02*
X69609047Y-69298628D01*
X69609047Y-69298628D02*
X69656666Y-69203390D01*
X54735714Y-73489104D02*
X55211904Y-73489104D01*
X54640476Y-73774819D02*
X54973809Y-72774819D01*
X54973809Y-72774819D02*
X55307142Y-73774819D01*
X55640476Y-73774819D02*
X55640476Y-72774819D01*
X55640476Y-72774819D02*
X55878571Y-72774819D01*
X55878571Y-72774819D02*
X56021428Y-72822438D01*
X56021428Y-72822438D02*
X56116666Y-72917676D01*
X56116666Y-72917676D02*
X56164285Y-73012914D01*
X56164285Y-73012914D02*
X56211904Y-73203390D01*
X56211904Y-73203390D02*
X56211904Y-73346247D01*
X56211904Y-73346247D02*
X56164285Y-73536723D01*
X56164285Y-73536723D02*
X56116666Y-73631961D01*
X56116666Y-73631961D02*
X56021428Y-73727200D01*
X56021428Y-73727200D02*
X55878571Y-73774819D01*
X55878571Y-73774819D02*
X55640476Y-73774819D01*
X57211904Y-73679580D02*
X57164285Y-73727200D01*
X57164285Y-73727200D02*
X57021428Y-73774819D01*
X57021428Y-73774819D02*
X56926190Y-73774819D01*
X56926190Y-73774819D02*
X56783333Y-73727200D01*
X56783333Y-73727200D02*
X56688095Y-73631961D01*
X56688095Y-73631961D02*
X56640476Y-73536723D01*
X56640476Y-73536723D02*
X56592857Y-73346247D01*
X56592857Y-73346247D02*
X56592857Y-73203390D01*
X56592857Y-73203390D02*
X56640476Y-73012914D01*
X56640476Y-73012914D02*
X56688095Y-72917676D01*
X56688095Y-72917676D02*
X56783333Y-72822438D01*
X56783333Y-72822438D02*
X56926190Y-72774819D01*
X56926190Y-72774819D02*
X57021428Y-72774819D01*
X57021428Y-72774819D02*
X57164285Y-72822438D01*
X57164285Y-72822438D02*
X57211904Y-72870057D01*
X57592857Y-72870057D02*
X57640476Y-72822438D01*
X57640476Y-72822438D02*
X57735714Y-72774819D01*
X57735714Y-72774819D02*
X57973809Y-72774819D01*
X57973809Y-72774819D02*
X58069047Y-72822438D01*
X58069047Y-72822438D02*
X58116666Y-72870057D01*
X58116666Y-72870057D02*
X58164285Y-72965295D01*
X58164285Y-72965295D02*
X58164285Y-73060533D01*
X58164285Y-73060533D02*
X58116666Y-73203390D01*
X58116666Y-73203390D02*
X57545238Y-73774819D01*
X57545238Y-73774819D02*
X58164285Y-73774819D01*
X56116666Y-70274819D02*
X56116666Y-70989104D01*
X56116666Y-70989104D02*
X56069047Y-71131961D01*
X56069047Y-71131961D02*
X55973809Y-71227200D01*
X55973809Y-71227200D02*
X55830952Y-71274819D01*
X55830952Y-71274819D02*
X55735714Y-71274819D01*
X56497619Y-70274819D02*
X57164285Y-70274819D01*
X57164285Y-70274819D02*
X56735714Y-71274819D01*
X38391428Y-52758152D02*
X38391428Y-53424819D01*
X38153333Y-52377200D02*
X37915238Y-53091485D01*
X37915238Y-53091485D02*
X38534285Y-53091485D01*
X38915238Y-53329580D02*
X38962857Y-53377200D01*
X38962857Y-53377200D02*
X38915238Y-53424819D01*
X38915238Y-53424819D02*
X38867619Y-53377200D01*
X38867619Y-53377200D02*
X38915238Y-53329580D01*
X38915238Y-53329580D02*
X38915238Y-53424819D01*
X39296190Y-52424819D02*
X39962856Y-52424819D01*
X39962856Y-52424819D02*
X39534285Y-53424819D01*
X40343809Y-53424819D02*
X40343809Y-52424819D01*
X40439047Y-53043866D02*
X40724761Y-53424819D01*
X40724761Y-52758152D02*
X40343809Y-53139104D01*
D11*
X39236666Y-51547149D02*
X39070000Y-51309054D01*
X38950952Y-51547149D02*
X38950952Y-51047149D01*
X38950952Y-51047149D02*
X39141428Y-51047149D01*
X39141428Y-51047149D02*
X39189047Y-51070959D01*
X39189047Y-51070959D02*
X39212857Y-51094768D01*
X39212857Y-51094768D02*
X39236666Y-51142387D01*
X39236666Y-51142387D02*
X39236666Y-51213816D01*
X39236666Y-51213816D02*
X39212857Y-51261435D01*
X39212857Y-51261435D02*
X39189047Y-51285244D01*
X39189047Y-51285244D02*
X39141428Y-51309054D01*
X39141428Y-51309054D02*
X38950952Y-51309054D01*
X39427143Y-51094768D02*
X39450952Y-51070959D01*
X39450952Y-51070959D02*
X39498571Y-51047149D01*
X39498571Y-51047149D02*
X39617619Y-51047149D01*
X39617619Y-51047149D02*
X39665238Y-51070959D01*
X39665238Y-51070959D02*
X39689047Y-51094768D01*
X39689047Y-51094768D02*
X39712857Y-51142387D01*
X39712857Y-51142387D02*
X39712857Y-51190006D01*
X39712857Y-51190006D02*
X39689047Y-51261435D01*
X39689047Y-51261435D02*
X39403333Y-51547149D01*
X39403333Y-51547149D02*
X39712857Y-51547149D01*
D10*
X75674819Y-60900475D02*
X74674819Y-60900475D01*
X74674819Y-60900475D02*
X74674819Y-60519523D01*
X74674819Y-60519523D02*
X74722438Y-60424285D01*
X74722438Y-60424285D02*
X74770057Y-60376666D01*
X74770057Y-60376666D02*
X74865295Y-60329047D01*
X74865295Y-60329047D02*
X75008152Y-60329047D01*
X75008152Y-60329047D02*
X75103390Y-60376666D01*
X75103390Y-60376666D02*
X75151009Y-60424285D01*
X75151009Y-60424285D02*
X75198628Y-60519523D01*
X75198628Y-60519523D02*
X75198628Y-60900475D01*
X75674819Y-59900475D02*
X75008152Y-59900475D01*
X74674819Y-59900475D02*
X74722438Y-59948094D01*
X74722438Y-59948094D02*
X74770057Y-59900475D01*
X74770057Y-59900475D02*
X74722438Y-59852856D01*
X74722438Y-59852856D02*
X74674819Y-59900475D01*
X74674819Y-59900475D02*
X74770057Y-59900475D01*
X75627200Y-58995714D02*
X75674819Y-59090952D01*
X75674819Y-59090952D02*
X75674819Y-59281428D01*
X75674819Y-59281428D02*
X75627200Y-59376666D01*
X75627200Y-59376666D02*
X75579580Y-59424285D01*
X75579580Y-59424285D02*
X75484342Y-59471904D01*
X75484342Y-59471904D02*
X75198628Y-59471904D01*
X75198628Y-59471904D02*
X75103390Y-59424285D01*
X75103390Y-59424285D02*
X75055771Y-59376666D01*
X75055771Y-59376666D02*
X75008152Y-59281428D01*
X75008152Y-59281428D02*
X75008152Y-59090952D01*
X75008152Y-59090952D02*
X75055771Y-58995714D01*
X75674819Y-58424285D02*
X75627200Y-58519523D01*
X75627200Y-58519523D02*
X75579580Y-58567142D01*
X75579580Y-58567142D02*
X75484342Y-58614761D01*
X75484342Y-58614761D02*
X75198628Y-58614761D01*
X75198628Y-58614761D02*
X75103390Y-58567142D01*
X75103390Y-58567142D02*
X75055771Y-58519523D01*
X75055771Y-58519523D02*
X75008152Y-58424285D01*
X75008152Y-58424285D02*
X75008152Y-58281428D01*
X75008152Y-58281428D02*
X75055771Y-58186190D01*
X75055771Y-58186190D02*
X75103390Y-58138571D01*
X75103390Y-58138571D02*
X75198628Y-58090952D01*
X75198628Y-58090952D02*
X75484342Y-58090952D01*
X75484342Y-58090952D02*
X75579580Y-58138571D01*
X75579580Y-58138571D02*
X75627200Y-58186190D01*
X75627200Y-58186190D02*
X75674819Y-58281428D01*
X75674819Y-58281428D02*
X75674819Y-58424285D01*
X75770057Y-57900476D02*
X75770057Y-57138571D01*
X75674819Y-56329047D02*
X75198628Y-56662380D01*
X75674819Y-56900475D02*
X74674819Y-56900475D01*
X74674819Y-56900475D02*
X74674819Y-56519523D01*
X74674819Y-56519523D02*
X74722438Y-56424285D01*
X74722438Y-56424285D02*
X74770057Y-56376666D01*
X74770057Y-56376666D02*
X74865295Y-56329047D01*
X74865295Y-56329047D02*
X75008152Y-56329047D01*
X75008152Y-56329047D02*
X75103390Y-56376666D01*
X75103390Y-56376666D02*
X75151009Y-56424285D01*
X75151009Y-56424285D02*
X75198628Y-56519523D01*
X75198628Y-56519523D02*
X75198628Y-56900475D01*
X75674819Y-55900475D02*
X75008152Y-55900475D01*
X74674819Y-55900475D02*
X74722438Y-55948094D01*
X74722438Y-55948094D02*
X74770057Y-55900475D01*
X74770057Y-55900475D02*
X74722438Y-55852856D01*
X74722438Y-55852856D02*
X74674819Y-55900475D01*
X74674819Y-55900475D02*
X74770057Y-55900475D01*
X75008152Y-54995714D02*
X75817676Y-54995714D01*
X75817676Y-54995714D02*
X75912914Y-55043333D01*
X75912914Y-55043333D02*
X75960533Y-55090952D01*
X75960533Y-55090952D02*
X76008152Y-55186190D01*
X76008152Y-55186190D02*
X76008152Y-55329047D01*
X76008152Y-55329047D02*
X75960533Y-55424285D01*
X75627200Y-54995714D02*
X75674819Y-55090952D01*
X75674819Y-55090952D02*
X75674819Y-55281428D01*
X75674819Y-55281428D02*
X75627200Y-55376666D01*
X75627200Y-55376666D02*
X75579580Y-55424285D01*
X75579580Y-55424285D02*
X75484342Y-55471904D01*
X75484342Y-55471904D02*
X75198628Y-55471904D01*
X75198628Y-55471904D02*
X75103390Y-55424285D01*
X75103390Y-55424285D02*
X75055771Y-55376666D01*
X75055771Y-55376666D02*
X75008152Y-55281428D01*
X75008152Y-55281428D02*
X75008152Y-55090952D01*
X75008152Y-55090952D02*
X75055771Y-54995714D01*
X75674819Y-54519523D02*
X74674819Y-54519523D01*
X75674819Y-54090952D02*
X75151009Y-54090952D01*
X75151009Y-54090952D02*
X75055771Y-54138571D01*
X75055771Y-54138571D02*
X75008152Y-54233809D01*
X75008152Y-54233809D02*
X75008152Y-54376666D01*
X75008152Y-54376666D02*
X75055771Y-54471904D01*
X75055771Y-54471904D02*
X75103390Y-54519523D01*
X75008152Y-53757618D02*
X75008152Y-53376666D01*
X74674819Y-53614761D02*
X75531961Y-53614761D01*
X75531961Y-53614761D02*
X75627200Y-53567142D01*
X75627200Y-53567142D02*
X75674819Y-53471904D01*
X75674819Y-53471904D02*
X75674819Y-53376666D01*
X47986666Y-56664819D02*
X47986666Y-57379104D01*
X47986666Y-57379104D02*
X47939047Y-57521961D01*
X47939047Y-57521961D02*
X47843809Y-57617200D01*
X47843809Y-57617200D02*
X47700952Y-57664819D01*
X47700952Y-57664819D02*
X47605714Y-57664819D01*
X48415238Y-56760057D02*
X48462857Y-56712438D01*
X48462857Y-56712438D02*
X48558095Y-56664819D01*
X48558095Y-56664819D02*
X48796190Y-56664819D01*
X48796190Y-56664819D02*
X48891428Y-56712438D01*
X48891428Y-56712438D02*
X48939047Y-56760057D01*
X48939047Y-56760057D02*
X48986666Y-56855295D01*
X48986666Y-56855295D02*
X48986666Y-56950533D01*
X48986666Y-56950533D02*
X48939047Y-57093390D01*
X48939047Y-57093390D02*
X48367619Y-57664819D01*
X48367619Y-57664819D02*
X48986666Y-57664819D01*
X62159047Y-27314819D02*
X61587619Y-27314819D01*
X61873333Y-27314819D02*
X61873333Y-26314819D01*
X61873333Y-26314819D02*
X61778095Y-26457676D01*
X61778095Y-26457676D02*
X61682857Y-26552914D01*
X61682857Y-26552914D02*
X61587619Y-26600533D01*
X62587619Y-26933866D02*
X63349524Y-26933866D01*
X63730476Y-26314819D02*
X63968571Y-27314819D01*
X63968571Y-27314819D02*
X64159047Y-26600533D01*
X64159047Y-26600533D02*
X64349523Y-27314819D01*
X64349523Y-27314819D02*
X64587619Y-26314819D01*
X64968571Y-27314819D02*
X64968571Y-26648152D01*
X64968571Y-26314819D02*
X64920952Y-26362438D01*
X64920952Y-26362438D02*
X64968571Y-26410057D01*
X64968571Y-26410057D02*
X65016190Y-26362438D01*
X65016190Y-26362438D02*
X64968571Y-26314819D01*
X64968571Y-26314819D02*
X64968571Y-26410057D01*
X65444761Y-27314819D02*
X65444761Y-26648152D01*
X65444761Y-26838628D02*
X65492380Y-26743390D01*
X65492380Y-26743390D02*
X65539999Y-26695771D01*
X65539999Y-26695771D02*
X65635237Y-26648152D01*
X65635237Y-26648152D02*
X65730475Y-26648152D01*
X66444761Y-27267200D02*
X66349523Y-27314819D01*
X66349523Y-27314819D02*
X66159047Y-27314819D01*
X66159047Y-27314819D02*
X66063809Y-27267200D01*
X66063809Y-27267200D02*
X66016190Y-27171961D01*
X66016190Y-27171961D02*
X66016190Y-26791009D01*
X66016190Y-26791009D02*
X66063809Y-26695771D01*
X66063809Y-26695771D02*
X66159047Y-26648152D01*
X66159047Y-26648152D02*
X66349523Y-26648152D01*
X66349523Y-26648152D02*
X66444761Y-26695771D01*
X66444761Y-26695771D02*
X66492380Y-26791009D01*
X66492380Y-26791009D02*
X66492380Y-26886247D01*
X66492380Y-26886247D02*
X66016190Y-26981485D01*
X63706666Y-23814819D02*
X63706666Y-24529104D01*
X63706666Y-24529104D02*
X63659047Y-24671961D01*
X63659047Y-24671961D02*
X63563809Y-24767200D01*
X63563809Y-24767200D02*
X63420952Y-24814819D01*
X63420952Y-24814819D02*
X63325714Y-24814819D01*
X64325714Y-24243390D02*
X64230476Y-24195771D01*
X64230476Y-24195771D02*
X64182857Y-24148152D01*
X64182857Y-24148152D02*
X64135238Y-24052914D01*
X64135238Y-24052914D02*
X64135238Y-24005295D01*
X64135238Y-24005295D02*
X64182857Y-23910057D01*
X64182857Y-23910057D02*
X64230476Y-23862438D01*
X64230476Y-23862438D02*
X64325714Y-23814819D01*
X64325714Y-23814819D02*
X64516190Y-23814819D01*
X64516190Y-23814819D02*
X64611428Y-23862438D01*
X64611428Y-23862438D02*
X64659047Y-23910057D01*
X64659047Y-23910057D02*
X64706666Y-24005295D01*
X64706666Y-24005295D02*
X64706666Y-24052914D01*
X64706666Y-24052914D02*
X64659047Y-24148152D01*
X64659047Y-24148152D02*
X64611428Y-24195771D01*
X64611428Y-24195771D02*
X64516190Y-24243390D01*
X64516190Y-24243390D02*
X64325714Y-24243390D01*
X64325714Y-24243390D02*
X64230476Y-24291009D01*
X64230476Y-24291009D02*
X64182857Y-24338628D01*
X64182857Y-24338628D02*
X64135238Y-24433866D01*
X64135238Y-24433866D02*
X64135238Y-24624342D01*
X64135238Y-24624342D02*
X64182857Y-24719580D01*
X64182857Y-24719580D02*
X64230476Y-24767200D01*
X64230476Y-24767200D02*
X64325714Y-24814819D01*
X64325714Y-24814819D02*
X64516190Y-24814819D01*
X64516190Y-24814819D02*
X64611428Y-24767200D01*
X64611428Y-24767200D02*
X64659047Y-24719580D01*
X64659047Y-24719580D02*
X64706666Y-24624342D01*
X64706666Y-24624342D02*
X64706666Y-24433866D01*
X64706666Y-24433866D02*
X64659047Y-24338628D01*
X64659047Y-24338628D02*
X64611428Y-24291009D01*
X64611428Y-24291009D02*
X64516190Y-24243390D01*
X51200952Y-37694819D02*
X50629524Y-37694819D01*
X50915238Y-37694819D02*
X50915238Y-36694819D01*
X50915238Y-36694819D02*
X50820000Y-36837676D01*
X50820000Y-36837676D02*
X50724762Y-36932914D01*
X50724762Y-36932914D02*
X50629524Y-36980533D01*
X51820000Y-36694819D02*
X51915238Y-36694819D01*
X51915238Y-36694819D02*
X52010476Y-36742438D01*
X52010476Y-36742438D02*
X52058095Y-36790057D01*
X52058095Y-36790057D02*
X52105714Y-36885295D01*
X52105714Y-36885295D02*
X52153333Y-37075771D01*
X52153333Y-37075771D02*
X52153333Y-37313866D01*
X52153333Y-37313866D02*
X52105714Y-37504342D01*
X52105714Y-37504342D02*
X52058095Y-37599580D01*
X52058095Y-37599580D02*
X52010476Y-37647200D01*
X52010476Y-37647200D02*
X51915238Y-37694819D01*
X51915238Y-37694819D02*
X51820000Y-37694819D01*
X51820000Y-37694819D02*
X51724762Y-37647200D01*
X51724762Y-37647200D02*
X51677143Y-37599580D01*
X51677143Y-37599580D02*
X51629524Y-37504342D01*
X51629524Y-37504342D02*
X51581905Y-37313866D01*
X51581905Y-37313866D02*
X51581905Y-37075771D01*
X51581905Y-37075771D02*
X51629524Y-36885295D01*
X51629524Y-36885295D02*
X51677143Y-36790057D01*
X51677143Y-36790057D02*
X51724762Y-36742438D01*
X51724762Y-36742438D02*
X51820000Y-36694819D01*
X52772381Y-36694819D02*
X52867619Y-36694819D01*
X52867619Y-36694819D02*
X52962857Y-36742438D01*
X52962857Y-36742438D02*
X53010476Y-36790057D01*
X53010476Y-36790057D02*
X53058095Y-36885295D01*
X53058095Y-36885295D02*
X53105714Y-37075771D01*
X53105714Y-37075771D02*
X53105714Y-37313866D01*
X53105714Y-37313866D02*
X53058095Y-37504342D01*
X53058095Y-37504342D02*
X53010476Y-37599580D01*
X53010476Y-37599580D02*
X52962857Y-37647200D01*
X52962857Y-37647200D02*
X52867619Y-37694819D01*
X52867619Y-37694819D02*
X52772381Y-37694819D01*
X52772381Y-37694819D02*
X52677143Y-37647200D01*
X52677143Y-37647200D02*
X52629524Y-37599580D01*
X52629524Y-37599580D02*
X52581905Y-37504342D01*
X52581905Y-37504342D02*
X52534286Y-37313866D01*
X52534286Y-37313866D02*
X52534286Y-37075771D01*
X52534286Y-37075771D02*
X52581905Y-36885295D01*
X52581905Y-36885295D02*
X52629524Y-36790057D01*
X52629524Y-36790057D02*
X52677143Y-36742438D01*
X52677143Y-36742438D02*
X52772381Y-36694819D01*
X53534286Y-37028152D02*
X53534286Y-37694819D01*
X53534286Y-37123390D02*
X53581905Y-37075771D01*
X53581905Y-37075771D02*
X53677143Y-37028152D01*
X53677143Y-37028152D02*
X53820000Y-37028152D01*
X53820000Y-37028152D02*
X53915238Y-37075771D01*
X53915238Y-37075771D02*
X53962857Y-37171009D01*
X53962857Y-37171009D02*
X53962857Y-37694819D01*
D11*
X52236666Y-35739530D02*
X52212857Y-35763340D01*
X52212857Y-35763340D02*
X52141428Y-35787149D01*
X52141428Y-35787149D02*
X52093809Y-35787149D01*
X52093809Y-35787149D02*
X52022381Y-35763340D01*
X52022381Y-35763340D02*
X51974762Y-35715720D01*
X51974762Y-35715720D02*
X51950952Y-35668101D01*
X51950952Y-35668101D02*
X51927143Y-35572863D01*
X51927143Y-35572863D02*
X51927143Y-35501435D01*
X51927143Y-35501435D02*
X51950952Y-35406197D01*
X51950952Y-35406197D02*
X51974762Y-35358578D01*
X51974762Y-35358578D02*
X52022381Y-35310959D01*
X52022381Y-35310959D02*
X52093809Y-35287149D01*
X52093809Y-35287149D02*
X52141428Y-35287149D01*
X52141428Y-35287149D02*
X52212857Y-35310959D01*
X52212857Y-35310959D02*
X52236666Y-35334768D01*
X52712857Y-35787149D02*
X52427143Y-35787149D01*
X52570000Y-35787149D02*
X52570000Y-35287149D01*
X52570000Y-35287149D02*
X52522381Y-35358578D01*
X52522381Y-35358578D02*
X52474762Y-35406197D01*
X52474762Y-35406197D02*
X52427143Y-35430006D01*
D10*
X51200952Y-53454819D02*
X50629524Y-53454819D01*
X50915238Y-53454819D02*
X50915238Y-52454819D01*
X50915238Y-52454819D02*
X50820000Y-52597676D01*
X50820000Y-52597676D02*
X50724762Y-52692914D01*
X50724762Y-52692914D02*
X50629524Y-52740533D01*
X51820000Y-52454819D02*
X51915238Y-52454819D01*
X51915238Y-52454819D02*
X52010476Y-52502438D01*
X52010476Y-52502438D02*
X52058095Y-52550057D01*
X52058095Y-52550057D02*
X52105714Y-52645295D01*
X52105714Y-52645295D02*
X52153333Y-52835771D01*
X52153333Y-52835771D02*
X52153333Y-53073866D01*
X52153333Y-53073866D02*
X52105714Y-53264342D01*
X52105714Y-53264342D02*
X52058095Y-53359580D01*
X52058095Y-53359580D02*
X52010476Y-53407200D01*
X52010476Y-53407200D02*
X51915238Y-53454819D01*
X51915238Y-53454819D02*
X51820000Y-53454819D01*
X51820000Y-53454819D02*
X51724762Y-53407200D01*
X51724762Y-53407200D02*
X51677143Y-53359580D01*
X51677143Y-53359580D02*
X51629524Y-53264342D01*
X51629524Y-53264342D02*
X51581905Y-53073866D01*
X51581905Y-53073866D02*
X51581905Y-52835771D01*
X51581905Y-52835771D02*
X51629524Y-52645295D01*
X51629524Y-52645295D02*
X51677143Y-52550057D01*
X51677143Y-52550057D02*
X51724762Y-52502438D01*
X51724762Y-52502438D02*
X51820000Y-52454819D01*
X52772381Y-52454819D02*
X52867619Y-52454819D01*
X52867619Y-52454819D02*
X52962857Y-52502438D01*
X52962857Y-52502438D02*
X53010476Y-52550057D01*
X53010476Y-52550057D02*
X53058095Y-52645295D01*
X53058095Y-52645295D02*
X53105714Y-52835771D01*
X53105714Y-52835771D02*
X53105714Y-53073866D01*
X53105714Y-53073866D02*
X53058095Y-53264342D01*
X53058095Y-53264342D02*
X53010476Y-53359580D01*
X53010476Y-53359580D02*
X52962857Y-53407200D01*
X52962857Y-53407200D02*
X52867619Y-53454819D01*
X52867619Y-53454819D02*
X52772381Y-53454819D01*
X52772381Y-53454819D02*
X52677143Y-53407200D01*
X52677143Y-53407200D02*
X52629524Y-53359580D01*
X52629524Y-53359580D02*
X52581905Y-53264342D01*
X52581905Y-53264342D02*
X52534286Y-53073866D01*
X52534286Y-53073866D02*
X52534286Y-52835771D01*
X52534286Y-52835771D02*
X52581905Y-52645295D01*
X52581905Y-52645295D02*
X52629524Y-52550057D01*
X52629524Y-52550057D02*
X52677143Y-52502438D01*
X52677143Y-52502438D02*
X52772381Y-52454819D01*
X53534286Y-52788152D02*
X53534286Y-53454819D01*
X53534286Y-52883390D02*
X53581905Y-52835771D01*
X53581905Y-52835771D02*
X53677143Y-52788152D01*
X53677143Y-52788152D02*
X53820000Y-52788152D01*
X53820000Y-52788152D02*
X53915238Y-52835771D01*
X53915238Y-52835771D02*
X53962857Y-52931009D01*
X53962857Y-52931009D02*
X53962857Y-53454819D01*
D11*
X52236666Y-51499530D02*
X52212857Y-51523340D01*
X52212857Y-51523340D02*
X52141428Y-51547149D01*
X52141428Y-51547149D02*
X52093809Y-51547149D01*
X52093809Y-51547149D02*
X52022381Y-51523340D01*
X52022381Y-51523340D02*
X51974762Y-51475720D01*
X51974762Y-51475720D02*
X51950952Y-51428101D01*
X51950952Y-51428101D02*
X51927143Y-51332863D01*
X51927143Y-51332863D02*
X51927143Y-51261435D01*
X51927143Y-51261435D02*
X51950952Y-51166197D01*
X51950952Y-51166197D02*
X51974762Y-51118578D01*
X51974762Y-51118578D02*
X52022381Y-51070959D01*
X52022381Y-51070959D02*
X52093809Y-51047149D01*
X52093809Y-51047149D02*
X52141428Y-51047149D01*
X52141428Y-51047149D02*
X52212857Y-51070959D01*
X52212857Y-51070959D02*
X52236666Y-51094768D01*
X52427143Y-51094768D02*
X52450952Y-51070959D01*
X52450952Y-51070959D02*
X52498571Y-51047149D01*
X52498571Y-51047149D02*
X52617619Y-51047149D01*
X52617619Y-51047149D02*
X52665238Y-51070959D01*
X52665238Y-51070959D02*
X52689047Y-51094768D01*
X52689047Y-51094768D02*
X52712857Y-51142387D01*
X52712857Y-51142387D02*
X52712857Y-51190006D01*
X52712857Y-51190006D02*
X52689047Y-51261435D01*
X52689047Y-51261435D02*
X52403333Y-51547149D01*
X52403333Y-51547149D02*
X52712857Y-51547149D01*
D10*
X40735714Y-73489104D02*
X41211904Y-73489104D01*
X40640476Y-73774819D02*
X40973809Y-72774819D01*
X40973809Y-72774819D02*
X41307142Y-73774819D01*
X41640476Y-73774819D02*
X41640476Y-72774819D01*
X41640476Y-72774819D02*
X41878571Y-72774819D01*
X41878571Y-72774819D02*
X42021428Y-72822438D01*
X42021428Y-72822438D02*
X42116666Y-72917676D01*
X42116666Y-72917676D02*
X42164285Y-73012914D01*
X42164285Y-73012914D02*
X42211904Y-73203390D01*
X42211904Y-73203390D02*
X42211904Y-73346247D01*
X42211904Y-73346247D02*
X42164285Y-73536723D01*
X42164285Y-73536723D02*
X42116666Y-73631961D01*
X42116666Y-73631961D02*
X42021428Y-73727200D01*
X42021428Y-73727200D02*
X41878571Y-73774819D01*
X41878571Y-73774819D02*
X41640476Y-73774819D01*
X43211904Y-73679580D02*
X43164285Y-73727200D01*
X43164285Y-73727200D02*
X43021428Y-73774819D01*
X43021428Y-73774819D02*
X42926190Y-73774819D01*
X42926190Y-73774819D02*
X42783333Y-73727200D01*
X42783333Y-73727200D02*
X42688095Y-73631961D01*
X42688095Y-73631961D02*
X42640476Y-73536723D01*
X42640476Y-73536723D02*
X42592857Y-73346247D01*
X42592857Y-73346247D02*
X42592857Y-73203390D01*
X42592857Y-73203390D02*
X42640476Y-73012914D01*
X42640476Y-73012914D02*
X42688095Y-72917676D01*
X42688095Y-72917676D02*
X42783333Y-72822438D01*
X42783333Y-72822438D02*
X42926190Y-72774819D01*
X42926190Y-72774819D02*
X43021428Y-72774819D01*
X43021428Y-72774819D02*
X43164285Y-72822438D01*
X43164285Y-72822438D02*
X43211904Y-72870057D01*
X44164285Y-73774819D02*
X43592857Y-73774819D01*
X43878571Y-73774819D02*
X43878571Y-72774819D01*
X43878571Y-72774819D02*
X43783333Y-72917676D01*
X43783333Y-72917676D02*
X43688095Y-73012914D01*
X43688095Y-73012914D02*
X43592857Y-73060533D01*
X42116666Y-70274819D02*
X42116666Y-70989104D01*
X42116666Y-70989104D02*
X42069047Y-71131961D01*
X42069047Y-71131961D02*
X41973809Y-71227200D01*
X41973809Y-71227200D02*
X41830952Y-71274819D01*
X41830952Y-71274819D02*
X41735714Y-71274819D01*
X43021428Y-70274819D02*
X42830952Y-70274819D01*
X42830952Y-70274819D02*
X42735714Y-70322438D01*
X42735714Y-70322438D02*
X42688095Y-70370057D01*
X42688095Y-70370057D02*
X42592857Y-70512914D01*
X42592857Y-70512914D02*
X42545238Y-70703390D01*
X42545238Y-70703390D02*
X42545238Y-71084342D01*
X42545238Y-71084342D02*
X42592857Y-71179580D01*
X42592857Y-71179580D02*
X42640476Y-71227200D01*
X42640476Y-71227200D02*
X42735714Y-71274819D01*
X42735714Y-71274819D02*
X42926190Y-71274819D01*
X42926190Y-71274819D02*
X43021428Y-71227200D01*
X43021428Y-71227200D02*
X43069047Y-71179580D01*
X43069047Y-71179580D02*
X43116666Y-71084342D01*
X43116666Y-71084342D02*
X43116666Y-70846247D01*
X43116666Y-70846247D02*
X43069047Y-70751009D01*
X43069047Y-70751009D02*
X43021428Y-70703390D01*
X43021428Y-70703390D02*
X42926190Y-70655771D01*
X42926190Y-70655771D02*
X42735714Y-70655771D01*
X42735714Y-70655771D02*
X42640476Y-70703390D01*
X42640476Y-70703390D02*
X42592857Y-70751009D01*
X42592857Y-70751009D02*
X42545238Y-70846247D01*
X66177142Y-55874819D02*
X65605714Y-55874819D01*
X65891428Y-55874819D02*
X65891428Y-54874819D01*
X65891428Y-54874819D02*
X65796190Y-55017676D01*
X65796190Y-55017676D02*
X65700952Y-55112914D01*
X65700952Y-55112914D02*
X65605714Y-55160533D01*
X66605714Y-55874819D02*
X66605714Y-54874819D01*
X66605714Y-54874819D02*
X67177142Y-55874819D01*
X67177142Y-55874819D02*
X67177142Y-54874819D01*
X68081904Y-55208152D02*
X68081904Y-55874819D01*
X67843809Y-54827200D02*
X67605714Y-55541485D01*
X67605714Y-55541485D02*
X68224761Y-55541485D01*
X69129523Y-55874819D02*
X68558095Y-55874819D01*
X68843809Y-55874819D02*
X68843809Y-54874819D01*
X68843809Y-54874819D02*
X68748571Y-55017676D01*
X68748571Y-55017676D02*
X68653333Y-55112914D01*
X68653333Y-55112914D02*
X68558095Y-55160533D01*
X69986666Y-55208152D02*
X69986666Y-55874819D01*
X69748571Y-54827200D02*
X69510476Y-55541485D01*
X69510476Y-55541485D02*
X70129523Y-55541485D01*
X70653333Y-55303390D02*
X70558095Y-55255771D01*
X70558095Y-55255771D02*
X70510476Y-55208152D01*
X70510476Y-55208152D02*
X70462857Y-55112914D01*
X70462857Y-55112914D02*
X70462857Y-55065295D01*
X70462857Y-55065295D02*
X70510476Y-54970057D01*
X70510476Y-54970057D02*
X70558095Y-54922438D01*
X70558095Y-54922438D02*
X70653333Y-54874819D01*
X70653333Y-54874819D02*
X70843809Y-54874819D01*
X70843809Y-54874819D02*
X70939047Y-54922438D01*
X70939047Y-54922438D02*
X70986666Y-54970057D01*
X70986666Y-54970057D02*
X71034285Y-55065295D01*
X71034285Y-55065295D02*
X71034285Y-55112914D01*
X71034285Y-55112914D02*
X70986666Y-55208152D01*
X70986666Y-55208152D02*
X70939047Y-55255771D01*
X70939047Y-55255771D02*
X70843809Y-55303390D01*
X70843809Y-55303390D02*
X70653333Y-55303390D01*
X70653333Y-55303390D02*
X70558095Y-55351009D01*
X70558095Y-55351009D02*
X70510476Y-55398628D01*
X70510476Y-55398628D02*
X70462857Y-55493866D01*
X70462857Y-55493866D02*
X70462857Y-55684342D01*
X70462857Y-55684342D02*
X70510476Y-55779580D01*
X70510476Y-55779580D02*
X70558095Y-55827200D01*
X70558095Y-55827200D02*
X70653333Y-55874819D01*
X70653333Y-55874819D02*
X70843809Y-55874819D01*
X70843809Y-55874819D02*
X70939047Y-55827200D01*
X70939047Y-55827200D02*
X70986666Y-55779580D01*
X70986666Y-55779580D02*
X71034285Y-55684342D01*
X71034285Y-55684342D02*
X71034285Y-55493866D01*
X71034285Y-55493866D02*
X70986666Y-55398628D01*
X70986666Y-55398628D02*
X70939047Y-55351009D01*
X70939047Y-55351009D02*
X70843809Y-55303390D01*
X67581905Y-51774819D02*
X67581905Y-50774819D01*
X67581905Y-50774819D02*
X67820000Y-50774819D01*
X67820000Y-50774819D02*
X67962857Y-50822438D01*
X67962857Y-50822438D02*
X68058095Y-50917676D01*
X68058095Y-50917676D02*
X68105714Y-51012914D01*
X68105714Y-51012914D02*
X68153333Y-51203390D01*
X68153333Y-51203390D02*
X68153333Y-51346247D01*
X68153333Y-51346247D02*
X68105714Y-51536723D01*
X68105714Y-51536723D02*
X68058095Y-51631961D01*
X68058095Y-51631961D02*
X67962857Y-51727200D01*
X67962857Y-51727200D02*
X67820000Y-51774819D01*
X67820000Y-51774819D02*
X67581905Y-51774819D01*
X69105714Y-51774819D02*
X68534286Y-51774819D01*
X68820000Y-51774819D02*
X68820000Y-50774819D01*
X68820000Y-50774819D02*
X68724762Y-50917676D01*
X68724762Y-50917676D02*
X68629524Y-51012914D01*
X68629524Y-51012914D02*
X68534286Y-51060533D01*
X26735714Y-73489104D02*
X27211904Y-73489104D01*
X26640476Y-73774819D02*
X26973809Y-72774819D01*
X26973809Y-72774819D02*
X27307142Y-73774819D01*
X27640476Y-73774819D02*
X27640476Y-72774819D01*
X27640476Y-72774819D02*
X27878571Y-72774819D01*
X27878571Y-72774819D02*
X28021428Y-72822438D01*
X28021428Y-72822438D02*
X28116666Y-72917676D01*
X28116666Y-72917676D02*
X28164285Y-73012914D01*
X28164285Y-73012914D02*
X28211904Y-73203390D01*
X28211904Y-73203390D02*
X28211904Y-73346247D01*
X28211904Y-73346247D02*
X28164285Y-73536723D01*
X28164285Y-73536723D02*
X28116666Y-73631961D01*
X28116666Y-73631961D02*
X28021428Y-73727200D01*
X28021428Y-73727200D02*
X27878571Y-73774819D01*
X27878571Y-73774819D02*
X27640476Y-73774819D01*
X29211904Y-73679580D02*
X29164285Y-73727200D01*
X29164285Y-73727200D02*
X29021428Y-73774819D01*
X29021428Y-73774819D02*
X28926190Y-73774819D01*
X28926190Y-73774819D02*
X28783333Y-73727200D01*
X28783333Y-73727200D02*
X28688095Y-73631961D01*
X28688095Y-73631961D02*
X28640476Y-73536723D01*
X28640476Y-73536723D02*
X28592857Y-73346247D01*
X28592857Y-73346247D02*
X28592857Y-73203390D01*
X28592857Y-73203390D02*
X28640476Y-73012914D01*
X28640476Y-73012914D02*
X28688095Y-72917676D01*
X28688095Y-72917676D02*
X28783333Y-72822438D01*
X28783333Y-72822438D02*
X28926190Y-72774819D01*
X28926190Y-72774819D02*
X29021428Y-72774819D01*
X29021428Y-72774819D02*
X29164285Y-72822438D01*
X29164285Y-72822438D02*
X29211904Y-72870057D01*
X29830952Y-72774819D02*
X29926190Y-72774819D01*
X29926190Y-72774819D02*
X30021428Y-72822438D01*
X30021428Y-72822438D02*
X30069047Y-72870057D01*
X30069047Y-72870057D02*
X30116666Y-72965295D01*
X30116666Y-72965295D02*
X30164285Y-73155771D01*
X30164285Y-73155771D02*
X30164285Y-73393866D01*
X30164285Y-73393866D02*
X30116666Y-73584342D01*
X30116666Y-73584342D02*
X30069047Y-73679580D01*
X30069047Y-73679580D02*
X30021428Y-73727200D01*
X30021428Y-73727200D02*
X29926190Y-73774819D01*
X29926190Y-73774819D02*
X29830952Y-73774819D01*
X29830952Y-73774819D02*
X29735714Y-73727200D01*
X29735714Y-73727200D02*
X29688095Y-73679580D01*
X29688095Y-73679580D02*
X29640476Y-73584342D01*
X29640476Y-73584342D02*
X29592857Y-73393866D01*
X29592857Y-73393866D02*
X29592857Y-73155771D01*
X29592857Y-73155771D02*
X29640476Y-72965295D01*
X29640476Y-72965295D02*
X29688095Y-72870057D01*
X29688095Y-72870057D02*
X29735714Y-72822438D01*
X29735714Y-72822438D02*
X29830952Y-72774819D01*
X28116666Y-70274819D02*
X28116666Y-70989104D01*
X28116666Y-70989104D02*
X28069047Y-71131961D01*
X28069047Y-71131961D02*
X27973809Y-71227200D01*
X27973809Y-71227200D02*
X27830952Y-71274819D01*
X27830952Y-71274819D02*
X27735714Y-71274819D01*
X29069047Y-70274819D02*
X28592857Y-70274819D01*
X28592857Y-70274819D02*
X28545238Y-70751009D01*
X28545238Y-70751009D02*
X28592857Y-70703390D01*
X28592857Y-70703390D02*
X28688095Y-70655771D01*
X28688095Y-70655771D02*
X28926190Y-70655771D01*
X28926190Y-70655771D02*
X29021428Y-70703390D01*
X29021428Y-70703390D02*
X29069047Y-70751009D01*
X29069047Y-70751009D02*
X29116666Y-70846247D01*
X29116666Y-70846247D02*
X29116666Y-71084342D01*
X29116666Y-71084342D02*
X29069047Y-71179580D01*
X29069047Y-71179580D02*
X29021428Y-71227200D01*
X29021428Y-71227200D02*
X28926190Y-71274819D01*
X28926190Y-71274819D02*
X28688095Y-71274819D01*
X28688095Y-71274819D02*
X28592857Y-71227200D01*
X28592857Y-71227200D02*
X28545238Y-71179580D01*
D13*
%TO.C,C3*%
X57320000Y-47695000D02*
X59320000Y-47695000D01*
X57320000Y-48945000D02*
X57320000Y-47695000D01*
X59320000Y-47695000D02*
X59320000Y-48945000D01*
X59320000Y-48945000D02*
X57320000Y-48945000D01*
%TO.C,J4*%
X44680000Y-20750000D02*
X44680000Y-22000000D01*
X45090000Y-21160000D02*
X45090000Y-25660000D01*
X45090000Y-25660000D02*
X54990000Y-25660000D01*
X45930000Y-20750000D02*
X44680000Y-20750000D01*
X54990000Y-21160000D02*
X45090000Y-21160000D01*
X54990000Y-25660000D02*
X54990000Y-21160000D01*
%TO.C,R1*%
X36320000Y-44695000D02*
X38320000Y-44695000D01*
X36320000Y-45945000D02*
X36320000Y-44695000D01*
X38320000Y-44695000D02*
X38320000Y-45945000D01*
X38320000Y-45945000D02*
X36320000Y-45945000D01*
%TO.C,J3*%
X31680000Y-20750000D02*
X31680000Y-22000000D01*
X32090000Y-21160000D02*
X32090000Y-25660000D01*
X32090000Y-25660000D02*
X41990000Y-25660000D01*
X32930000Y-20750000D02*
X31680000Y-20750000D01*
X41990000Y-21160000D02*
X32090000Y-21160000D01*
X41990000Y-25660000D02*
X41990000Y-21160000D01*
%TO.C,R7*%
X61320000Y-50695000D02*
X63320000Y-50695000D01*
X61320000Y-51945000D02*
X61320000Y-50695000D01*
X63320000Y-50695000D02*
X63320000Y-51945000D01*
X63320000Y-51945000D02*
X61320000Y-51945000D01*
%TO.C,R6*%
X61320000Y-44695000D02*
X63320000Y-44695000D01*
X61320000Y-45945000D02*
X61320000Y-44695000D01*
X63320000Y-44695000D02*
X63320000Y-45945000D01*
X63320000Y-45945000D02*
X61320000Y-45945000D01*
%TO.C,R5*%
X31320000Y-47695000D02*
X33320000Y-47695000D01*
X31320000Y-48945000D02*
X31320000Y-47695000D01*
X33320000Y-47695000D02*
X33320000Y-48945000D01*
X33320000Y-48945000D02*
X31320000Y-48945000D01*
%TO.C,R4*%
X46320000Y-50695000D02*
X48320000Y-50695000D01*
X46320000Y-51945000D02*
X46320000Y-50695000D01*
X48320000Y-50695000D02*
X48320000Y-51945000D01*
X48320000Y-51945000D02*
X46320000Y-51945000D01*
%TO.C,J1*%
X22920000Y-40700000D02*
X22920000Y-38795000D01*
X73720000Y-40700000D02*
X22920000Y-40700000D01*
X22920000Y-38795000D02*
X23555000Y-38160000D01*
X23555000Y-38160000D02*
X73720000Y-38160000D01*
X73720000Y-38160000D02*
X73720000Y-40700000D01*
%TO.C,R3*%
X43320000Y-44695000D02*
X45320000Y-44695000D01*
X43320000Y-45945000D02*
X43320000Y-44695000D01*
X45320000Y-44695000D02*
X45320000Y-45945000D01*
X45320000Y-45945000D02*
X43320000Y-45945000D01*
%TO.C,Q1*%
X67670000Y-47195000D02*
X67995000Y-46870000D01*
X67670000Y-49770000D02*
X67670000Y-47195000D01*
X67995000Y-46870000D02*
X68970000Y-46870000D01*
X68970000Y-46870000D02*
X68970000Y-49770000D01*
X68970000Y-49770000D02*
X67670000Y-49770000D01*
%TO.C,J9*%
X63990000Y-65570000D02*
X63990000Y-73070000D01*
X63990000Y-73070000D02*
X73990000Y-73070000D01*
X64040000Y-71870000D02*
X73940000Y-71870000D01*
X73990000Y-65570000D02*
X63990000Y-65570000D01*
X73990000Y-73070000D02*
X73990000Y-65570000D01*
%TO.C,J7*%
X52090000Y-67210000D02*
X52090000Y-68460000D01*
X52500000Y-67620000D02*
X52500000Y-72120000D01*
X52500000Y-72120000D02*
X60400000Y-72120000D01*
X53340000Y-67210000D02*
X52090000Y-67210000D01*
X60400000Y-67620000D02*
X52500000Y-67620000D01*
X60400000Y-72120000D02*
X60400000Y-67620000D01*
%TO.C,R2*%
X38320000Y-50695000D02*
X40320000Y-50695000D01*
X38320000Y-51945000D02*
X38320000Y-50695000D01*
X40320000Y-50695000D02*
X40320000Y-51945000D01*
X40320000Y-51945000D02*
X38320000Y-51945000D01*
%TO.C,J2*%
X22920000Y-58480000D02*
X22920000Y-56575000D01*
X73720000Y-58480000D02*
X22920000Y-58480000D01*
X22920000Y-56575000D02*
X23555000Y-55940000D01*
X23555000Y-55940000D02*
X73720000Y-55940000D01*
X73720000Y-55940000D02*
X73720000Y-58480000D01*
%TO.C,J8*%
X59680000Y-20750000D02*
X59680000Y-22000000D01*
X60090000Y-21160000D02*
X60090000Y-25660000D01*
X60090000Y-25660000D02*
X67990000Y-25660000D01*
X60930000Y-20750000D02*
X59680000Y-20750000D01*
X67990000Y-21160000D02*
X60090000Y-21160000D01*
X67990000Y-25660000D02*
X67990000Y-21160000D01*
%TO.C,C1*%
X51320000Y-34935000D02*
X53320000Y-34935000D01*
X51320000Y-36185000D02*
X51320000Y-34935000D01*
X53320000Y-34935000D02*
X53320000Y-36185000D01*
X53320000Y-36185000D02*
X51320000Y-36185000D01*
%TO.C,C2*%
X51320000Y-50695000D02*
X53320000Y-50695000D01*
X51320000Y-51945000D02*
X51320000Y-50695000D01*
X53320000Y-50695000D02*
X53320000Y-51945000D01*
X53320000Y-51945000D02*
X51320000Y-51945000D01*
%TO.C,J6*%
X38090000Y-67210000D02*
X38090000Y-68460000D01*
X38500000Y-67620000D02*
X38500000Y-72120000D01*
X38500000Y-72120000D02*
X46400000Y-72120000D01*
X39340000Y-67210000D02*
X38090000Y-67210000D01*
X46400000Y-67620000D02*
X38500000Y-67620000D01*
X46400000Y-72120000D02*
X46400000Y-67620000D01*
%TO.C,D1*%
X66920000Y-52420000D02*
X69720000Y-52420000D01*
X66920000Y-54220000D02*
X66920000Y-52420000D01*
X67570000Y-53320000D02*
X67970000Y-53320000D01*
X67970000Y-53320000D02*
X67970000Y-52770000D01*
X67970000Y-53320000D02*
X67970000Y-53870000D01*
X67970000Y-53320000D02*
X68570000Y-52920000D01*
X68570000Y-52920000D02*
X68570000Y-53720000D01*
X68570000Y-53320000D02*
X69070000Y-53320000D01*
X68570000Y-53720000D02*
X67970000Y-53320000D01*
X69720000Y-52420000D02*
X69720000Y-54220000D01*
X69720000Y-54220000D02*
X66920000Y-54220000D01*
%TO.C,J5*%
X24090000Y-67210000D02*
X24090000Y-68460000D01*
X24500000Y-67620000D02*
X24500000Y-72120000D01*
X24500000Y-72120000D02*
X32400000Y-72120000D01*
X25340000Y-67210000D02*
X24090000Y-67210000D01*
X32400000Y-67620000D02*
X24500000Y-67620000D01*
X32400000Y-72120000D02*
X32400000Y-67620000D01*
%TD*%
M02*
