%TF.GenerationSoftware,KiCad,Pcbnew,7.0.11+dfsg-1build4*%
%TF.CreationDate,2026-02-12T23:01:58+09:00*%
%TF.ProjectId,grove_shield_v3,67726f76-655f-4736-9869-656c645f7633,rev?*%
%TF.SameCoordinates,Original*%
%TF.FileFunction,Soldermask,Top*%
%TF.FilePolarity,Negative*%
%FSLAX46Y46*%
G04 Gerber Fmt 4.6, Leading zero omitted, Abs format (unit mm)*
G04 Created by KiCad (PCBNEW 7.0.11+dfsg-1build4) date 2026-02-12 23:01:58*
%MOMM*%
%LPD*%
G01*
G04 APERTURE LIST*
G04 Aperture macros list*
%AMRoundRect*
0 Rectangle with rounded corners*
0 $1 Rounding radius*
0 $2 $3 $4 $5 $6 $7 $8 $9 X,Y pos of 4 corners*
0 Add a 4 corners polygon primitive as box body*
4,1,4,$2,$3,$4,$5,$6,$7,$8,$9,$2,$3,0*
0 Add four circle primitives for the rounded corners*
1,1,$1+$1,$2,$3*
1,1,$1+$1,$4,$5*
1,1,$1+$1,$6,$7*
1,1,$1+$1,$8,$9*
0 Add four rect primitives between the rounded corners*
20,1,$1+$1,$2,$3,$4,$5,0*
20,1,$1+$1,$4,$5,$6,$7,0*
20,1,$1+$1,$6,$7,$8,$9,0*
20,1,$1+$1,$8,$9,$2,$3,0*%
G04 Aperture macros list end*
%ADD10RoundRect,0.250000X-0.250000X-0.475000X0.250000X-0.475000X0.250000X0.475000X-0.250000X0.475000X0*%
%ADD11RoundRect,0.250000X-0.350000X-0.625000X0.350000X-0.625000X0.350000X0.625000X-0.350000X0.625000X0*%
%ADD12O,1.200000X1.750000*%
%ADD13RoundRect,0.250000X-0.262500X-0.450000X0.262500X-0.450000X0.262500X0.450000X-0.262500X0.450000X0*%
%ADD14R,1.700000X1.700000*%
%ADD15O,1.700000X1.700000*%
%ADD16RoundRect,0.150000X-0.587500X-0.150000X0.587500X-0.150000X0.587500X0.150000X-0.587500X0.150000X0*%
%ADD17R,3.000000X3.000000*%
%ADD18C,3.000000*%
%ADD19RoundRect,0.225000X-0.225000X-0.375000X0.225000X-0.375000X0.225000X0.375000X-0.225000X0.375000X0*%
G04 APERTURE END LIST*
D10*
%TO.C,C3*%
X57370000Y-48320000D03*
X59270000Y-48320000D03*
%TD*%
D11*
%TO.C,J4*%
X47040000Y-22860000D03*
D12*
X49040000Y-22860000D03*
X51040000Y-22860000D03*
X53040000Y-22860000D03*
%TD*%
D13*
%TO.C,R1*%
X36407500Y-45320000D03*
X38232500Y-45320000D03*
%TD*%
D11*
%TO.C,J3*%
X34040000Y-22860000D03*
D12*
X36040000Y-22860000D03*
X38040000Y-22860000D03*
X40040000Y-22860000D03*
%TD*%
D13*
%TO.C,R7*%
X61407500Y-51320000D03*
X63232500Y-51320000D03*
%TD*%
%TO.C,R6*%
X61407500Y-45320000D03*
X63232500Y-45320000D03*
%TD*%
%TO.C,R5*%
X31407500Y-48320000D03*
X33232500Y-48320000D03*
%TD*%
%TO.C,R4*%
X46407500Y-51320000D03*
X48232500Y-51320000D03*
%TD*%
D14*
%TO.C,J1*%
X24190000Y-39430000D03*
D15*
X26730000Y-39430000D03*
X29270000Y-39430000D03*
X31810000Y-39430000D03*
X34350000Y-39430000D03*
X36890000Y-39430000D03*
X39430000Y-39430000D03*
X41970000Y-39430000D03*
X44510000Y-39430000D03*
X47050000Y-39430000D03*
X49590000Y-39430000D03*
X52130000Y-39430000D03*
X54670000Y-39430000D03*
X57210000Y-39430000D03*
X59750000Y-39430000D03*
X62290000Y-39430000D03*
X64830000Y-39430000D03*
X67370000Y-39430000D03*
X69910000Y-39430000D03*
X72450000Y-39430000D03*
%TD*%
D13*
%TO.C,R3*%
X43407500Y-45320000D03*
X45232500Y-45320000D03*
%TD*%
D16*
%TO.C,Q1*%
X67382500Y-47370000D03*
X67382500Y-49270000D03*
X69257500Y-48320000D03*
%TD*%
D17*
%TO.C,J9*%
X66450000Y-69320000D03*
D18*
X71530000Y-69320000D03*
%TD*%
D11*
%TO.C,J7*%
X54450000Y-69320000D03*
D12*
X56450000Y-69320000D03*
X58450000Y-69320000D03*
%TD*%
D13*
%TO.C,R2*%
X38407500Y-51320000D03*
X40232500Y-51320000D03*
%TD*%
D14*
%TO.C,J2*%
X24190000Y-57210000D03*
D15*
X26730000Y-57210000D03*
X29270000Y-57210000D03*
X31810000Y-57210000D03*
X34350000Y-57210000D03*
X36890000Y-57210000D03*
X39430000Y-57210000D03*
X41970000Y-57210000D03*
X44510000Y-57210000D03*
X47050000Y-57210000D03*
X49590000Y-57210000D03*
X52130000Y-57210000D03*
X54670000Y-57210000D03*
X57210000Y-57210000D03*
X59750000Y-57210000D03*
X62290000Y-57210000D03*
X64830000Y-57210000D03*
X67370000Y-57210000D03*
X69910000Y-57210000D03*
X72450000Y-57210000D03*
%TD*%
D11*
%TO.C,J8*%
X62040000Y-22860000D03*
D12*
X64040000Y-22860000D03*
X66040000Y-22860000D03*
%TD*%
D10*
%TO.C,C1*%
X51370000Y-35560000D03*
X53270000Y-35560000D03*
%TD*%
%TO.C,C2*%
X51370000Y-51320000D03*
X53270000Y-51320000D03*
%TD*%
D11*
%TO.C,J6*%
X40450000Y-69320000D03*
D12*
X42450000Y-69320000D03*
X44450000Y-69320000D03*
%TD*%
D19*
%TO.C,D1*%
X66670000Y-53320000D03*
X69970000Y-53320000D03*
%TD*%
D11*
%TO.C,J5*%
X26450000Y-69320000D03*
D12*
X28450000Y-69320000D03*
X30450000Y-69320000D03*
%TD*%
M02*
