%TF.GenerationSoftware,KiCad,Pcbnew,7.0.11+dfsg-1build4*%
%TF.CreationDate,2026-02-08T17:13:53+09:00*%
%TF.ProjectId,grove_shield_v3,67726f76-655f-4736-9869-656c645f7633,rev?*%
%TF.SameCoordinates,Original*%
%TF.FileFunction,Drillmap*%
%TF.FilePolarity,Positive*%
%FSLAX45Y45*%
G04 Gerber Fmt 4.5, Leading zero omitted, Abs format (unit mm)*
G04 Created by KiCad (PCBNEW 7.0.11+dfsg-1build4) date 2026-02-08 17:13:53*
%MOMM*%
%LPD*%
G01*
G04 APERTURE LIST*
%ADD10C,0.100000*%
%ADD11C,0.200000*%
%ADD12C,0.152000*%
G04 APERTURE END LIST*
D10*
X0Y0D02*
X5600000Y0D01*
X5600000Y-5600000D01*
X0Y-5600000D01*
X0Y0D01*
D11*
D10*
X1276250Y-2685000D02*
X1306250Y-2715000D01*
X1306250Y-2685000D02*
X1276250Y-2715000D01*
X1776250Y-2585000D02*
X1806250Y-2615000D01*
X1806250Y-2585000D02*
X1776250Y-2615000D01*
X1976250Y-2985000D02*
X2006250Y-3015000D01*
X2006250Y-2985000D02*
X1976250Y-3015000D01*
X2476250Y-2585000D02*
X2506250Y-2615000D01*
X2506250Y-2585000D02*
X2476250Y-2615000D01*
X2776250Y-2985000D02*
X2806250Y-3015000D01*
X2806250Y-2985000D02*
X2776250Y-3015000D01*
X3090000Y-2585000D02*
X3120000Y-2615000D01*
X3120000Y-2585000D02*
X3090000Y-2615000D01*
X3090000Y-2985000D02*
X3120000Y-3015000D01*
X3120000Y-2985000D02*
X3090000Y-3015000D01*
X3280000Y-2635000D02*
X3310000Y-2665000D01*
X3310000Y-2635000D02*
X3280000Y-2665000D01*
X3280000Y-2935000D02*
X3310000Y-2965000D01*
X3310000Y-2935000D02*
X3280000Y-2965000D01*
X3880000Y-2635000D02*
X3910000Y-2665000D01*
X3910000Y-2635000D02*
X3880000Y-2665000D01*
X4276250Y-2935000D02*
X4306250Y-2965000D01*
X4306250Y-2935000D02*
X4276250Y-2965000D01*
X5028750Y-2635000D02*
X5058750Y-2665000D01*
X5058750Y-2635000D02*
X5028750Y-2665000D01*
X650404Y-4900000D02*
G75*
G03*
X575404Y-4900000I-37500J0D01*
G01*
X575404Y-4900000D02*
G75*
G03*
X650404Y-4900000I37500J0D01*
G01*
X850404Y-4900000D02*
G75*
G03*
X775404Y-4900000I-37500J0D01*
G01*
X775404Y-4900000D02*
G75*
G03*
X850404Y-4900000I37500J0D01*
G01*
X1050404Y-4900000D02*
G75*
G03*
X975404Y-4900000I-37500J0D01*
G01*
X975404Y-4900000D02*
G75*
G03*
X1050404Y-4900000I37500J0D01*
G01*
X1437500Y-700000D02*
G75*
G03*
X1362500Y-700000I-37500J0D01*
G01*
X1362500Y-700000D02*
G75*
G03*
X1437500Y-700000I37500J0D01*
G01*
X1637500Y-700000D02*
G75*
G03*
X1562500Y-700000I-37500J0D01*
G01*
X1562500Y-700000D02*
G75*
G03*
X1637500Y-700000I37500J0D01*
G01*
X1837500Y-700000D02*
G75*
G03*
X1762500Y-700000I-37500J0D01*
G01*
X1762500Y-700000D02*
G75*
G03*
X1837500Y-700000I37500J0D01*
G01*
X2037500Y-700000D02*
G75*
G03*
X1962500Y-700000I-37500J0D01*
G01*
X1962500Y-700000D02*
G75*
G03*
X2037500Y-700000I37500J0D01*
G01*
X2050404Y-4900000D02*
G75*
G03*
X1975404Y-4900000I-37500J0D01*
G01*
X1975404Y-4900000D02*
G75*
G03*
X2050404Y-4900000I37500J0D01*
G01*
X2250404Y-4900000D02*
G75*
G03*
X2175404Y-4900000I-37500J0D01*
G01*
X2175404Y-4900000D02*
G75*
G03*
X2250404Y-4900000I37500J0D01*
G01*
X2450404Y-4900000D02*
G75*
G03*
X2375404Y-4900000I-37500J0D01*
G01*
X2375404Y-4900000D02*
G75*
G03*
X2450404Y-4900000I37500J0D01*
G01*
X2737500Y-700000D02*
G75*
G03*
X2662500Y-700000I-37500J0D01*
G01*
X2662500Y-700000D02*
G75*
G03*
X2737500Y-700000I37500J0D01*
G01*
X2937500Y-700000D02*
G75*
G03*
X2862500Y-700000I-37500J0D01*
G01*
X2862500Y-700000D02*
G75*
G03*
X2937500Y-700000I37500J0D01*
G01*
X3137500Y-700000D02*
G75*
G03*
X3062500Y-700000I-37500J0D01*
G01*
X3062500Y-700000D02*
G75*
G03*
X3137500Y-700000I37500J0D01*
G01*
X3337500Y-700000D02*
G75*
G03*
X3262500Y-700000I-37500J0D01*
G01*
X3262500Y-700000D02*
G75*
G03*
X3337500Y-700000I37500J0D01*
G01*
X3450404Y-4900000D02*
G75*
G03*
X3375404Y-4900000I-37500J0D01*
G01*
X3375404Y-4900000D02*
G75*
G03*
X3450404Y-4900000I37500J0D01*
G01*
X3650404Y-4900000D02*
G75*
G03*
X3575404Y-4900000I-37500J0D01*
G01*
X3575404Y-4900000D02*
G75*
G03*
X3650404Y-4900000I37500J0D01*
G01*
X3850404Y-4900000D02*
G75*
G03*
X3775404Y-4900000I-37500J0D01*
G01*
X3775404Y-4900000D02*
G75*
G03*
X3850404Y-4900000I37500J0D01*
G01*
X4237500Y-700000D02*
G75*
G03*
X4162500Y-700000I-37500J0D01*
G01*
X4162500Y-700000D02*
G75*
G03*
X4237500Y-700000I37500J0D01*
G01*
X4437500Y-700000D02*
G75*
G03*
X4362500Y-700000I-37500J0D01*
G01*
X4362500Y-700000D02*
G75*
G03*
X4437500Y-700000I37500J0D01*
G01*
X4637500Y-700000D02*
G75*
G03*
X4562500Y-700000I-37500J0D01*
G01*
X4562500Y-700000D02*
G75*
G03*
X4637500Y-700000I37500J0D01*
G01*
X387000Y-1861000D02*
X387000Y-1961000D01*
X337000Y-1911000D02*
X437000Y-1911000D01*
X387000Y-3639000D02*
X387000Y-3739000D01*
X337000Y-3689000D02*
X437000Y-3689000D01*
X641000Y-1861000D02*
X641000Y-1961000D01*
X591000Y-1911000D02*
X691000Y-1911000D01*
X641000Y-3639000D02*
X641000Y-3739000D01*
X591000Y-3689000D02*
X691000Y-3689000D01*
X895000Y-1861000D02*
X895000Y-1961000D01*
X845000Y-1911000D02*
X945000Y-1911000D01*
X895000Y-3639000D02*
X895000Y-3739000D01*
X845000Y-3689000D02*
X945000Y-3689000D01*
X1149000Y-1861000D02*
X1149000Y-1961000D01*
X1099000Y-1911000D02*
X1199000Y-1911000D01*
X1149000Y-3639000D02*
X1149000Y-3739000D01*
X1099000Y-3689000D02*
X1199000Y-3689000D01*
X1403000Y-1861000D02*
X1403000Y-1961000D01*
X1353000Y-1911000D02*
X1453000Y-1911000D01*
X1403000Y-3639000D02*
X1403000Y-3739000D01*
X1353000Y-3689000D02*
X1453000Y-3689000D01*
X1657000Y-1861000D02*
X1657000Y-1961000D01*
X1607000Y-1911000D02*
X1707000Y-1911000D01*
X1657000Y-3639000D02*
X1657000Y-3739000D01*
X1607000Y-3689000D02*
X1707000Y-3689000D01*
X1911000Y-1861000D02*
X1911000Y-1961000D01*
X1861000Y-1911000D02*
X1961000Y-1911000D01*
X1911000Y-3639000D02*
X1911000Y-3739000D01*
X1861000Y-3689000D02*
X1961000Y-3689000D01*
X2165000Y-1861000D02*
X2165000Y-1961000D01*
X2115000Y-1911000D02*
X2215000Y-1911000D01*
X2165000Y-3639000D02*
X2165000Y-3739000D01*
X2115000Y-3689000D02*
X2215000Y-3689000D01*
X2419000Y-1861000D02*
X2419000Y-1961000D01*
X2369000Y-1911000D02*
X2469000Y-1911000D01*
X2419000Y-3639000D02*
X2419000Y-3739000D01*
X2369000Y-3689000D02*
X2469000Y-3689000D01*
X2673000Y-1861000D02*
X2673000Y-1961000D01*
X2623000Y-1911000D02*
X2723000Y-1911000D01*
X2673000Y-3639000D02*
X2673000Y-3739000D01*
X2623000Y-3689000D02*
X2723000Y-3689000D01*
X2927000Y-1861000D02*
X2927000Y-1961000D01*
X2877000Y-1911000D02*
X2977000Y-1911000D01*
X2927000Y-3639000D02*
X2927000Y-3739000D01*
X2877000Y-3689000D02*
X2977000Y-3689000D01*
X3181000Y-1861000D02*
X3181000Y-1961000D01*
X3131000Y-1911000D02*
X3231000Y-1911000D01*
X3181000Y-3639000D02*
X3181000Y-3739000D01*
X3131000Y-3689000D02*
X3231000Y-3689000D01*
X3435000Y-1861000D02*
X3435000Y-1961000D01*
X3385000Y-1911000D02*
X3485000Y-1911000D01*
X3435000Y-3639000D02*
X3435000Y-3739000D01*
X3385000Y-3689000D02*
X3485000Y-3689000D01*
X3689000Y-1861000D02*
X3689000Y-1961000D01*
X3639000Y-1911000D02*
X3739000Y-1911000D01*
X3689000Y-3639000D02*
X3689000Y-3739000D01*
X3639000Y-3689000D02*
X3739000Y-3689000D01*
X3943000Y-1861000D02*
X3943000Y-1961000D01*
X3893000Y-1911000D02*
X3993000Y-1911000D01*
X3943000Y-3639000D02*
X3943000Y-3739000D01*
X3893000Y-3689000D02*
X3993000Y-3689000D01*
X4197000Y-1861000D02*
X4197000Y-1961000D01*
X4147000Y-1911000D02*
X4247000Y-1911000D01*
X4197000Y-3639000D02*
X4197000Y-3739000D01*
X4147000Y-3689000D02*
X4247000Y-3689000D01*
X4451000Y-1861000D02*
X4451000Y-1961000D01*
X4401000Y-1911000D02*
X4501000Y-1911000D01*
X4451000Y-3639000D02*
X4451000Y-3739000D01*
X4401000Y-3689000D02*
X4501000Y-3689000D01*
X4705000Y-1861000D02*
X4705000Y-1961000D01*
X4655000Y-1911000D02*
X4755000Y-1911000D01*
X4705000Y-3639000D02*
X4705000Y-3739000D01*
X4655000Y-3689000D02*
X4755000Y-3689000D01*
X4959000Y-1861000D02*
X4959000Y-1961000D01*
X4909000Y-1911000D02*
X5009000Y-1911000D01*
X4959000Y-3639000D02*
X4959000Y-3739000D01*
X4909000Y-3689000D02*
X5009000Y-3689000D01*
X5213000Y-1861000D02*
X5213000Y-1961000D01*
X5163000Y-1911000D02*
X5263000Y-1911000D01*
X5213000Y-3639000D02*
X5213000Y-3739000D01*
X5163000Y-3689000D02*
X5263000Y-3689000D01*
D12*
X4666645Y-4953741D02*
X4666645Y-4846259D01*
X4559163Y-4846259D01*
X4559163Y-4953741D01*
X4666645Y-4953741D01*
X5174645Y-4953741D02*
X5174645Y-4846259D01*
X5067163Y-4846259D01*
X5067163Y-4953741D01*
X5174645Y-4953741D01*
D11*
X255777Y-5916484D02*
X255777Y-5716484D01*
X255777Y-5716484D02*
X303396Y-5716484D01*
X303396Y-5716484D02*
X331967Y-5726008D01*
X331967Y-5726008D02*
X351015Y-5745055D01*
X351015Y-5745055D02*
X360539Y-5764103D01*
X360539Y-5764103D02*
X370062Y-5802198D01*
X370062Y-5802198D02*
X370062Y-5830769D01*
X370062Y-5830769D02*
X360539Y-5868865D01*
X360539Y-5868865D02*
X351015Y-5887912D01*
X351015Y-5887912D02*
X331967Y-5906960D01*
X331967Y-5906960D02*
X303396Y-5916484D01*
X303396Y-5916484D02*
X255777Y-5916484D01*
X455777Y-5916484D02*
X455777Y-5783150D01*
X455777Y-5821246D02*
X465301Y-5802198D01*
X465301Y-5802198D02*
X474824Y-5792674D01*
X474824Y-5792674D02*
X493872Y-5783150D01*
X493872Y-5783150D02*
X512920Y-5783150D01*
X579586Y-5916484D02*
X579586Y-5783150D01*
X579586Y-5716484D02*
X570063Y-5726008D01*
X570063Y-5726008D02*
X579586Y-5735531D01*
X579586Y-5735531D02*
X589110Y-5726008D01*
X589110Y-5726008D02*
X579586Y-5716484D01*
X579586Y-5716484D02*
X579586Y-5735531D01*
X703396Y-5916484D02*
X684348Y-5906960D01*
X684348Y-5906960D02*
X674824Y-5887912D01*
X674824Y-5887912D02*
X674824Y-5716484D01*
X808158Y-5916484D02*
X789110Y-5906960D01*
X789110Y-5906960D02*
X779586Y-5887912D01*
X779586Y-5887912D02*
X779586Y-5716484D01*
X1036729Y-5916484D02*
X1036729Y-5716484D01*
X1036729Y-5716484D02*
X1103396Y-5859341D01*
X1103396Y-5859341D02*
X1170063Y-5716484D01*
X1170063Y-5716484D02*
X1170063Y-5916484D01*
X1351015Y-5916484D02*
X1351015Y-5811722D01*
X1351015Y-5811722D02*
X1341491Y-5792674D01*
X1341491Y-5792674D02*
X1322444Y-5783150D01*
X1322444Y-5783150D02*
X1284348Y-5783150D01*
X1284348Y-5783150D02*
X1265301Y-5792674D01*
X1351015Y-5906960D02*
X1331967Y-5916484D01*
X1331967Y-5916484D02*
X1284348Y-5916484D01*
X1284348Y-5916484D02*
X1265301Y-5906960D01*
X1265301Y-5906960D02*
X1255777Y-5887912D01*
X1255777Y-5887912D02*
X1255777Y-5868865D01*
X1255777Y-5868865D02*
X1265301Y-5849817D01*
X1265301Y-5849817D02*
X1284348Y-5840293D01*
X1284348Y-5840293D02*
X1331967Y-5840293D01*
X1331967Y-5840293D02*
X1351015Y-5830769D01*
X1446253Y-5783150D02*
X1446253Y-5983150D01*
X1446253Y-5792674D02*
X1465301Y-5783150D01*
X1465301Y-5783150D02*
X1503396Y-5783150D01*
X1503396Y-5783150D02*
X1522443Y-5792674D01*
X1522443Y-5792674D02*
X1531967Y-5802198D01*
X1531967Y-5802198D02*
X1541491Y-5821246D01*
X1541491Y-5821246D02*
X1541491Y-5878388D01*
X1541491Y-5878388D02*
X1531967Y-5897436D01*
X1531967Y-5897436D02*
X1522443Y-5906960D01*
X1522443Y-5906960D02*
X1503396Y-5916484D01*
X1503396Y-5916484D02*
X1465301Y-5916484D01*
X1465301Y-5916484D02*
X1446253Y-5906960D01*
X1627205Y-5897436D02*
X1636729Y-5906960D01*
X1636729Y-5906960D02*
X1627205Y-5916484D01*
X1627205Y-5916484D02*
X1617682Y-5906960D01*
X1617682Y-5906960D02*
X1627205Y-5897436D01*
X1627205Y-5897436D02*
X1627205Y-5916484D01*
X1627205Y-5792674D02*
X1636729Y-5802198D01*
X1636729Y-5802198D02*
X1627205Y-5811722D01*
X1627205Y-5811722D02*
X1617682Y-5802198D01*
X1617682Y-5802198D02*
X1627205Y-5792674D01*
X1627205Y-5792674D02*
X1627205Y-5811722D01*
D10*
X-35000Y-6230000D02*
X-5000Y-6260000D01*
X-5000Y-6230000D02*
X-35000Y-6260000D01*
D11*
X293872Y-6136484D02*
X312920Y-6136484D01*
X312920Y-6136484D02*
X331967Y-6146008D01*
X331967Y-6146008D02*
X341491Y-6155531D01*
X341491Y-6155531D02*
X351015Y-6174579D01*
X351015Y-6174579D02*
X360539Y-6212674D01*
X360539Y-6212674D02*
X360539Y-6260293D01*
X360539Y-6260293D02*
X351015Y-6298388D01*
X351015Y-6298388D02*
X341491Y-6317436D01*
X341491Y-6317436D02*
X331967Y-6326960D01*
X331967Y-6326960D02*
X312920Y-6336484D01*
X312920Y-6336484D02*
X293872Y-6336484D01*
X293872Y-6336484D02*
X274824Y-6326960D01*
X274824Y-6326960D02*
X265301Y-6317436D01*
X265301Y-6317436D02*
X255777Y-6298388D01*
X255777Y-6298388D02*
X246253Y-6260293D01*
X246253Y-6260293D02*
X246253Y-6212674D01*
X246253Y-6212674D02*
X255777Y-6174579D01*
X255777Y-6174579D02*
X265301Y-6155531D01*
X265301Y-6155531D02*
X274824Y-6146008D01*
X274824Y-6146008D02*
X293872Y-6136484D01*
X446253Y-6317436D02*
X455777Y-6326960D01*
X455777Y-6326960D02*
X446253Y-6336484D01*
X446253Y-6336484D02*
X436729Y-6326960D01*
X436729Y-6326960D02*
X446253Y-6317436D01*
X446253Y-6317436D02*
X446253Y-6336484D01*
X522443Y-6136484D02*
X646253Y-6136484D01*
X646253Y-6136484D02*
X579586Y-6212674D01*
X579586Y-6212674D02*
X608158Y-6212674D01*
X608158Y-6212674D02*
X627205Y-6222198D01*
X627205Y-6222198D02*
X636729Y-6231722D01*
X636729Y-6231722D02*
X646253Y-6250769D01*
X646253Y-6250769D02*
X646253Y-6298388D01*
X646253Y-6298388D02*
X636729Y-6317436D01*
X636729Y-6317436D02*
X627205Y-6326960D01*
X627205Y-6326960D02*
X608158Y-6336484D01*
X608158Y-6336484D02*
X551015Y-6336484D01*
X551015Y-6336484D02*
X531967Y-6326960D01*
X531967Y-6326960D02*
X522443Y-6317436D01*
X770062Y-6136484D02*
X789110Y-6136484D01*
X789110Y-6136484D02*
X808158Y-6146008D01*
X808158Y-6146008D02*
X817682Y-6155531D01*
X817682Y-6155531D02*
X827205Y-6174579D01*
X827205Y-6174579D02*
X836729Y-6212674D01*
X836729Y-6212674D02*
X836729Y-6260293D01*
X836729Y-6260293D02*
X827205Y-6298388D01*
X827205Y-6298388D02*
X817682Y-6317436D01*
X817682Y-6317436D02*
X808158Y-6326960D01*
X808158Y-6326960D02*
X789110Y-6336484D01*
X789110Y-6336484D02*
X770062Y-6336484D01*
X770062Y-6336484D02*
X751015Y-6326960D01*
X751015Y-6326960D02*
X741491Y-6317436D01*
X741491Y-6317436D02*
X731967Y-6298388D01*
X731967Y-6298388D02*
X722443Y-6260293D01*
X722443Y-6260293D02*
X722443Y-6212674D01*
X722443Y-6212674D02*
X731967Y-6174579D01*
X731967Y-6174579D02*
X741491Y-6155531D01*
X741491Y-6155531D02*
X751015Y-6146008D01*
X751015Y-6146008D02*
X770062Y-6136484D01*
X960539Y-6136484D02*
X979586Y-6136484D01*
X979586Y-6136484D02*
X998634Y-6146008D01*
X998634Y-6146008D02*
X1008158Y-6155531D01*
X1008158Y-6155531D02*
X1017682Y-6174579D01*
X1017682Y-6174579D02*
X1027205Y-6212674D01*
X1027205Y-6212674D02*
X1027205Y-6260293D01*
X1027205Y-6260293D02*
X1017682Y-6298388D01*
X1017682Y-6298388D02*
X1008158Y-6317436D01*
X1008158Y-6317436D02*
X998634Y-6326960D01*
X998634Y-6326960D02*
X979586Y-6336484D01*
X979586Y-6336484D02*
X960539Y-6336484D01*
X960539Y-6336484D02*
X941491Y-6326960D01*
X941491Y-6326960D02*
X931967Y-6317436D01*
X931967Y-6317436D02*
X922443Y-6298388D01*
X922443Y-6298388D02*
X912920Y-6260293D01*
X912920Y-6260293D02*
X912920Y-6212674D01*
X912920Y-6212674D02*
X922443Y-6174579D01*
X922443Y-6174579D02*
X931967Y-6155531D01*
X931967Y-6155531D02*
X941491Y-6146008D01*
X941491Y-6146008D02*
X960539Y-6136484D01*
X1112920Y-6336484D02*
X1112920Y-6203150D01*
X1112920Y-6222198D02*
X1122444Y-6212674D01*
X1122444Y-6212674D02*
X1141491Y-6203150D01*
X1141491Y-6203150D02*
X1170063Y-6203150D01*
X1170063Y-6203150D02*
X1189110Y-6212674D01*
X1189110Y-6212674D02*
X1198634Y-6231722D01*
X1198634Y-6231722D02*
X1198634Y-6336484D01*
X1198634Y-6231722D02*
X1208158Y-6212674D01*
X1208158Y-6212674D02*
X1227205Y-6203150D01*
X1227205Y-6203150D02*
X1255777Y-6203150D01*
X1255777Y-6203150D02*
X1274825Y-6212674D01*
X1274825Y-6212674D02*
X1284348Y-6231722D01*
X1284348Y-6231722D02*
X1284348Y-6336484D01*
X1379586Y-6336484D02*
X1379586Y-6203150D01*
X1379586Y-6222198D02*
X1389110Y-6212674D01*
X1389110Y-6212674D02*
X1408158Y-6203150D01*
X1408158Y-6203150D02*
X1436729Y-6203150D01*
X1436729Y-6203150D02*
X1455777Y-6212674D01*
X1455777Y-6212674D02*
X1465301Y-6231722D01*
X1465301Y-6231722D02*
X1465301Y-6336484D01*
X1465301Y-6231722D02*
X1474824Y-6212674D01*
X1474824Y-6212674D02*
X1493872Y-6203150D01*
X1493872Y-6203150D02*
X1522443Y-6203150D01*
X1522443Y-6203150D02*
X1541491Y-6212674D01*
X1541491Y-6212674D02*
X1551015Y-6231722D01*
X1551015Y-6231722D02*
X1551015Y-6336484D01*
X1941491Y-6126960D02*
X1770063Y-6384103D01*
X2198634Y-6136484D02*
X2217682Y-6136484D01*
X2217682Y-6136484D02*
X2236729Y-6146008D01*
X2236729Y-6146008D02*
X2246253Y-6155531D01*
X2246253Y-6155531D02*
X2255777Y-6174579D01*
X2255777Y-6174579D02*
X2265301Y-6212674D01*
X2265301Y-6212674D02*
X2265301Y-6260293D01*
X2265301Y-6260293D02*
X2255777Y-6298388D01*
X2255777Y-6298388D02*
X2246253Y-6317436D01*
X2246253Y-6317436D02*
X2236729Y-6326960D01*
X2236729Y-6326960D02*
X2217682Y-6336484D01*
X2217682Y-6336484D02*
X2198634Y-6336484D01*
X2198634Y-6336484D02*
X2179587Y-6326960D01*
X2179587Y-6326960D02*
X2170063Y-6317436D01*
X2170063Y-6317436D02*
X2160539Y-6298388D01*
X2160539Y-6298388D02*
X2151015Y-6260293D01*
X2151015Y-6260293D02*
X2151015Y-6212674D01*
X2151015Y-6212674D02*
X2160539Y-6174579D01*
X2160539Y-6174579D02*
X2170063Y-6155531D01*
X2170063Y-6155531D02*
X2179587Y-6146008D01*
X2179587Y-6146008D02*
X2198634Y-6136484D01*
X2351015Y-6317436D02*
X2360539Y-6326960D01*
X2360539Y-6326960D02*
X2351015Y-6336484D01*
X2351015Y-6336484D02*
X2341491Y-6326960D01*
X2341491Y-6326960D02*
X2351015Y-6317436D01*
X2351015Y-6317436D02*
X2351015Y-6336484D01*
X2484348Y-6136484D02*
X2503396Y-6136484D01*
X2503396Y-6136484D02*
X2522444Y-6146008D01*
X2522444Y-6146008D02*
X2531968Y-6155531D01*
X2531968Y-6155531D02*
X2541491Y-6174579D01*
X2541491Y-6174579D02*
X2551015Y-6212674D01*
X2551015Y-6212674D02*
X2551015Y-6260293D01*
X2551015Y-6260293D02*
X2541491Y-6298388D01*
X2541491Y-6298388D02*
X2531968Y-6317436D01*
X2531968Y-6317436D02*
X2522444Y-6326960D01*
X2522444Y-6326960D02*
X2503396Y-6336484D01*
X2503396Y-6336484D02*
X2484348Y-6336484D01*
X2484348Y-6336484D02*
X2465301Y-6326960D01*
X2465301Y-6326960D02*
X2455777Y-6317436D01*
X2455777Y-6317436D02*
X2446253Y-6298388D01*
X2446253Y-6298388D02*
X2436729Y-6260293D01*
X2436729Y-6260293D02*
X2436729Y-6212674D01*
X2436729Y-6212674D02*
X2446253Y-6174579D01*
X2446253Y-6174579D02*
X2455777Y-6155531D01*
X2455777Y-6155531D02*
X2465301Y-6146008D01*
X2465301Y-6146008D02*
X2484348Y-6136484D01*
X2741491Y-6336484D02*
X2627206Y-6336484D01*
X2684348Y-6336484D02*
X2684348Y-6136484D01*
X2684348Y-6136484D02*
X2665301Y-6165055D01*
X2665301Y-6165055D02*
X2646253Y-6184103D01*
X2646253Y-6184103D02*
X2627206Y-6193627D01*
X2931967Y-6336484D02*
X2817682Y-6336484D01*
X2874825Y-6336484D02*
X2874825Y-6136484D01*
X2874825Y-6136484D02*
X2855777Y-6165055D01*
X2855777Y-6165055D02*
X2836729Y-6184103D01*
X2836729Y-6184103D02*
X2817682Y-6193627D01*
X3046253Y-6222198D02*
X3027206Y-6212674D01*
X3027206Y-6212674D02*
X3017682Y-6203150D01*
X3017682Y-6203150D02*
X3008158Y-6184103D01*
X3008158Y-6184103D02*
X3008158Y-6174579D01*
X3008158Y-6174579D02*
X3017682Y-6155531D01*
X3017682Y-6155531D02*
X3027206Y-6146008D01*
X3027206Y-6146008D02*
X3046253Y-6136484D01*
X3046253Y-6136484D02*
X3084348Y-6136484D01*
X3084348Y-6136484D02*
X3103396Y-6146008D01*
X3103396Y-6146008D02*
X3112920Y-6155531D01*
X3112920Y-6155531D02*
X3122444Y-6174579D01*
X3122444Y-6174579D02*
X3122444Y-6184103D01*
X3122444Y-6184103D02*
X3112920Y-6203150D01*
X3112920Y-6203150D02*
X3103396Y-6212674D01*
X3103396Y-6212674D02*
X3084348Y-6222198D01*
X3084348Y-6222198D02*
X3046253Y-6222198D01*
X3046253Y-6222198D02*
X3027206Y-6231722D01*
X3027206Y-6231722D02*
X3017682Y-6241246D01*
X3017682Y-6241246D02*
X3008158Y-6260293D01*
X3008158Y-6260293D02*
X3008158Y-6298388D01*
X3008158Y-6298388D02*
X3017682Y-6317436D01*
X3017682Y-6317436D02*
X3027206Y-6326960D01*
X3027206Y-6326960D02*
X3046253Y-6336484D01*
X3046253Y-6336484D02*
X3084348Y-6336484D01*
X3084348Y-6336484D02*
X3103396Y-6326960D01*
X3103396Y-6326960D02*
X3112920Y-6317436D01*
X3112920Y-6317436D02*
X3122444Y-6298388D01*
X3122444Y-6298388D02*
X3122444Y-6260293D01*
X3122444Y-6260293D02*
X3112920Y-6241246D01*
X3112920Y-6241246D02*
X3103396Y-6231722D01*
X3103396Y-6231722D02*
X3084348Y-6222198D01*
X3198634Y-6136484D02*
X3198634Y-6174579D01*
X3274825Y-6136484D02*
X3274825Y-6174579D01*
X3570063Y-6412674D02*
X3560539Y-6403150D01*
X3560539Y-6403150D02*
X3541491Y-6374579D01*
X3541491Y-6374579D02*
X3531968Y-6355531D01*
X3531968Y-6355531D02*
X3522444Y-6326960D01*
X3522444Y-6326960D02*
X3512920Y-6279341D01*
X3512920Y-6279341D02*
X3512920Y-6241246D01*
X3512920Y-6241246D02*
X3522444Y-6193627D01*
X3522444Y-6193627D02*
X3531968Y-6165055D01*
X3531968Y-6165055D02*
X3541491Y-6146008D01*
X3541491Y-6146008D02*
X3560539Y-6117436D01*
X3560539Y-6117436D02*
X3570063Y-6107912D01*
X3751015Y-6336484D02*
X3636729Y-6336484D01*
X3693872Y-6336484D02*
X3693872Y-6136484D01*
X3693872Y-6136484D02*
X3674825Y-6165055D01*
X3674825Y-6165055D02*
X3655777Y-6184103D01*
X3655777Y-6184103D02*
X3636729Y-6193627D01*
X3827206Y-6155531D02*
X3836729Y-6146008D01*
X3836729Y-6146008D02*
X3855777Y-6136484D01*
X3855777Y-6136484D02*
X3903396Y-6136484D01*
X3903396Y-6136484D02*
X3922444Y-6146008D01*
X3922444Y-6146008D02*
X3931968Y-6155531D01*
X3931968Y-6155531D02*
X3941491Y-6174579D01*
X3941491Y-6174579D02*
X3941491Y-6193627D01*
X3941491Y-6193627D02*
X3931968Y-6222198D01*
X3931968Y-6222198D02*
X3817682Y-6336484D01*
X3817682Y-6336484D02*
X3941491Y-6336484D01*
X4179587Y-6336484D02*
X4179587Y-6136484D01*
X4265301Y-6336484D02*
X4265301Y-6231722D01*
X4265301Y-6231722D02*
X4255777Y-6212674D01*
X4255777Y-6212674D02*
X4236730Y-6203150D01*
X4236730Y-6203150D02*
X4208158Y-6203150D01*
X4208158Y-6203150D02*
X4189110Y-6212674D01*
X4189110Y-6212674D02*
X4179587Y-6222198D01*
X4389111Y-6336484D02*
X4370063Y-6326960D01*
X4370063Y-6326960D02*
X4360539Y-6317436D01*
X4360539Y-6317436D02*
X4351015Y-6298388D01*
X4351015Y-6298388D02*
X4351015Y-6241246D01*
X4351015Y-6241246D02*
X4360539Y-6222198D01*
X4360539Y-6222198D02*
X4370063Y-6212674D01*
X4370063Y-6212674D02*
X4389111Y-6203150D01*
X4389111Y-6203150D02*
X4417682Y-6203150D01*
X4417682Y-6203150D02*
X4436730Y-6212674D01*
X4436730Y-6212674D02*
X4446253Y-6222198D01*
X4446253Y-6222198D02*
X4455777Y-6241246D01*
X4455777Y-6241246D02*
X4455777Y-6298388D01*
X4455777Y-6298388D02*
X4446253Y-6317436D01*
X4446253Y-6317436D02*
X4436730Y-6326960D01*
X4436730Y-6326960D02*
X4417682Y-6336484D01*
X4417682Y-6336484D02*
X4389111Y-6336484D01*
X4570063Y-6336484D02*
X4551015Y-6326960D01*
X4551015Y-6326960D02*
X4541492Y-6307912D01*
X4541492Y-6307912D02*
X4541492Y-6136484D01*
X4722444Y-6326960D02*
X4703396Y-6336484D01*
X4703396Y-6336484D02*
X4665301Y-6336484D01*
X4665301Y-6336484D02*
X4646253Y-6326960D01*
X4646253Y-6326960D02*
X4636730Y-6307912D01*
X4636730Y-6307912D02*
X4636730Y-6231722D01*
X4636730Y-6231722D02*
X4646253Y-6212674D01*
X4646253Y-6212674D02*
X4665301Y-6203150D01*
X4665301Y-6203150D02*
X4703396Y-6203150D01*
X4703396Y-6203150D02*
X4722444Y-6212674D01*
X4722444Y-6212674D02*
X4731968Y-6231722D01*
X4731968Y-6231722D02*
X4731968Y-6250769D01*
X4731968Y-6250769D02*
X4636730Y-6269817D01*
X4808158Y-6326960D02*
X4827206Y-6336484D01*
X4827206Y-6336484D02*
X4865301Y-6336484D01*
X4865301Y-6336484D02*
X4884349Y-6326960D01*
X4884349Y-6326960D02*
X4893873Y-6307912D01*
X4893873Y-6307912D02*
X4893873Y-6298388D01*
X4893873Y-6298388D02*
X4884349Y-6279341D01*
X4884349Y-6279341D02*
X4865301Y-6269817D01*
X4865301Y-6269817D02*
X4836730Y-6269817D01*
X4836730Y-6269817D02*
X4817682Y-6260293D01*
X4817682Y-6260293D02*
X4808158Y-6241246D01*
X4808158Y-6241246D02*
X4808158Y-6231722D01*
X4808158Y-6231722D02*
X4817682Y-6212674D01*
X4817682Y-6212674D02*
X4836730Y-6203150D01*
X4836730Y-6203150D02*
X4865301Y-6203150D01*
X4865301Y-6203150D02*
X4884349Y-6212674D01*
X4960539Y-6412674D02*
X4970063Y-6403150D01*
X4970063Y-6403150D02*
X4989111Y-6374579D01*
X4989111Y-6374579D02*
X4998634Y-6355531D01*
X4998634Y-6355531D02*
X5008158Y-6326960D01*
X5008158Y-6326960D02*
X5017682Y-6279341D01*
X5017682Y-6279341D02*
X5017682Y-6241246D01*
X5017682Y-6241246D02*
X5008158Y-6193627D01*
X5008158Y-6193627D02*
X4998634Y-6165055D01*
X4998634Y-6165055D02*
X4989111Y-6146008D01*
X4989111Y-6146008D02*
X4970063Y-6117436D01*
X4970063Y-6117436D02*
X4960539Y-6107912D01*
D10*
X-5000Y-6509000D02*
G75*
G03*
X-80000Y-6509000I-37500J0D01*
G01*
X-80000Y-6509000D02*
G75*
G03*
X-5000Y-6509000I37500J0D01*
G01*
D11*
X293872Y-6400484D02*
X312920Y-6400484D01*
X312920Y-6400484D02*
X331967Y-6410008D01*
X331967Y-6410008D02*
X341491Y-6419531D01*
X341491Y-6419531D02*
X351015Y-6438579D01*
X351015Y-6438579D02*
X360539Y-6476674D01*
X360539Y-6476674D02*
X360539Y-6524293D01*
X360539Y-6524293D02*
X351015Y-6562388D01*
X351015Y-6562388D02*
X341491Y-6581436D01*
X341491Y-6581436D02*
X331967Y-6590960D01*
X331967Y-6590960D02*
X312920Y-6600484D01*
X312920Y-6600484D02*
X293872Y-6600484D01*
X293872Y-6600484D02*
X274824Y-6590960D01*
X274824Y-6590960D02*
X265301Y-6581436D01*
X265301Y-6581436D02*
X255777Y-6562388D01*
X255777Y-6562388D02*
X246253Y-6524293D01*
X246253Y-6524293D02*
X246253Y-6476674D01*
X246253Y-6476674D02*
X255777Y-6438579D01*
X255777Y-6438579D02*
X265301Y-6419531D01*
X265301Y-6419531D02*
X274824Y-6410008D01*
X274824Y-6410008D02*
X293872Y-6400484D01*
X446253Y-6581436D02*
X455777Y-6590960D01*
X455777Y-6590960D02*
X446253Y-6600484D01*
X446253Y-6600484D02*
X436729Y-6590960D01*
X436729Y-6590960D02*
X446253Y-6581436D01*
X446253Y-6581436D02*
X446253Y-6600484D01*
X522443Y-6400484D02*
X655777Y-6400484D01*
X655777Y-6400484D02*
X570063Y-6600484D01*
X827205Y-6400484D02*
X731967Y-6400484D01*
X731967Y-6400484D02*
X722443Y-6495722D01*
X722443Y-6495722D02*
X731967Y-6486198D01*
X731967Y-6486198D02*
X751015Y-6476674D01*
X751015Y-6476674D02*
X798634Y-6476674D01*
X798634Y-6476674D02*
X817682Y-6486198D01*
X817682Y-6486198D02*
X827205Y-6495722D01*
X827205Y-6495722D02*
X836729Y-6514769D01*
X836729Y-6514769D02*
X836729Y-6562388D01*
X836729Y-6562388D02*
X827205Y-6581436D01*
X827205Y-6581436D02*
X817682Y-6590960D01*
X817682Y-6590960D02*
X798634Y-6600484D01*
X798634Y-6600484D02*
X751015Y-6600484D01*
X751015Y-6600484D02*
X731967Y-6590960D01*
X731967Y-6590960D02*
X722443Y-6581436D01*
X960539Y-6400484D02*
X979586Y-6400484D01*
X979586Y-6400484D02*
X998634Y-6410008D01*
X998634Y-6410008D02*
X1008158Y-6419531D01*
X1008158Y-6419531D02*
X1017682Y-6438579D01*
X1017682Y-6438579D02*
X1027205Y-6476674D01*
X1027205Y-6476674D02*
X1027205Y-6524293D01*
X1027205Y-6524293D02*
X1017682Y-6562388D01*
X1017682Y-6562388D02*
X1008158Y-6581436D01*
X1008158Y-6581436D02*
X998634Y-6590960D01*
X998634Y-6590960D02*
X979586Y-6600484D01*
X979586Y-6600484D02*
X960539Y-6600484D01*
X960539Y-6600484D02*
X941491Y-6590960D01*
X941491Y-6590960D02*
X931967Y-6581436D01*
X931967Y-6581436D02*
X922443Y-6562388D01*
X922443Y-6562388D02*
X912920Y-6524293D01*
X912920Y-6524293D02*
X912920Y-6476674D01*
X912920Y-6476674D02*
X922443Y-6438579D01*
X922443Y-6438579D02*
X931967Y-6419531D01*
X931967Y-6419531D02*
X941491Y-6410008D01*
X941491Y-6410008D02*
X960539Y-6400484D01*
X1112920Y-6600484D02*
X1112920Y-6467150D01*
X1112920Y-6486198D02*
X1122444Y-6476674D01*
X1122444Y-6476674D02*
X1141491Y-6467150D01*
X1141491Y-6467150D02*
X1170063Y-6467150D01*
X1170063Y-6467150D02*
X1189110Y-6476674D01*
X1189110Y-6476674D02*
X1198634Y-6495722D01*
X1198634Y-6495722D02*
X1198634Y-6600484D01*
X1198634Y-6495722D02*
X1208158Y-6476674D01*
X1208158Y-6476674D02*
X1227205Y-6467150D01*
X1227205Y-6467150D02*
X1255777Y-6467150D01*
X1255777Y-6467150D02*
X1274825Y-6476674D01*
X1274825Y-6476674D02*
X1284348Y-6495722D01*
X1284348Y-6495722D02*
X1284348Y-6600484D01*
X1379586Y-6600484D02*
X1379586Y-6467150D01*
X1379586Y-6486198D02*
X1389110Y-6476674D01*
X1389110Y-6476674D02*
X1408158Y-6467150D01*
X1408158Y-6467150D02*
X1436729Y-6467150D01*
X1436729Y-6467150D02*
X1455777Y-6476674D01*
X1455777Y-6476674D02*
X1465301Y-6495722D01*
X1465301Y-6495722D02*
X1465301Y-6600484D01*
X1465301Y-6495722D02*
X1474824Y-6476674D01*
X1474824Y-6476674D02*
X1493872Y-6467150D01*
X1493872Y-6467150D02*
X1522443Y-6467150D01*
X1522443Y-6467150D02*
X1541491Y-6476674D01*
X1541491Y-6476674D02*
X1551015Y-6495722D01*
X1551015Y-6495722D02*
X1551015Y-6600484D01*
X1941491Y-6390960D02*
X1770063Y-6648103D01*
X2198634Y-6400484D02*
X2217682Y-6400484D01*
X2217682Y-6400484D02*
X2236729Y-6410008D01*
X2236729Y-6410008D02*
X2246253Y-6419531D01*
X2246253Y-6419531D02*
X2255777Y-6438579D01*
X2255777Y-6438579D02*
X2265301Y-6476674D01*
X2265301Y-6476674D02*
X2265301Y-6524293D01*
X2265301Y-6524293D02*
X2255777Y-6562388D01*
X2255777Y-6562388D02*
X2246253Y-6581436D01*
X2246253Y-6581436D02*
X2236729Y-6590960D01*
X2236729Y-6590960D02*
X2217682Y-6600484D01*
X2217682Y-6600484D02*
X2198634Y-6600484D01*
X2198634Y-6600484D02*
X2179587Y-6590960D01*
X2179587Y-6590960D02*
X2170063Y-6581436D01*
X2170063Y-6581436D02*
X2160539Y-6562388D01*
X2160539Y-6562388D02*
X2151015Y-6524293D01*
X2151015Y-6524293D02*
X2151015Y-6476674D01*
X2151015Y-6476674D02*
X2160539Y-6438579D01*
X2160539Y-6438579D02*
X2170063Y-6419531D01*
X2170063Y-6419531D02*
X2179587Y-6410008D01*
X2179587Y-6410008D02*
X2198634Y-6400484D01*
X2351015Y-6581436D02*
X2360539Y-6590960D01*
X2360539Y-6590960D02*
X2351015Y-6600484D01*
X2351015Y-6600484D02*
X2341491Y-6590960D01*
X2341491Y-6590960D02*
X2351015Y-6581436D01*
X2351015Y-6581436D02*
X2351015Y-6600484D01*
X2484348Y-6400484D02*
X2503396Y-6400484D01*
X2503396Y-6400484D02*
X2522444Y-6410008D01*
X2522444Y-6410008D02*
X2531968Y-6419531D01*
X2531968Y-6419531D02*
X2541491Y-6438579D01*
X2541491Y-6438579D02*
X2551015Y-6476674D01*
X2551015Y-6476674D02*
X2551015Y-6524293D01*
X2551015Y-6524293D02*
X2541491Y-6562388D01*
X2541491Y-6562388D02*
X2531968Y-6581436D01*
X2531968Y-6581436D02*
X2522444Y-6590960D01*
X2522444Y-6590960D02*
X2503396Y-6600484D01*
X2503396Y-6600484D02*
X2484348Y-6600484D01*
X2484348Y-6600484D02*
X2465301Y-6590960D01*
X2465301Y-6590960D02*
X2455777Y-6581436D01*
X2455777Y-6581436D02*
X2446253Y-6562388D01*
X2446253Y-6562388D02*
X2436729Y-6524293D01*
X2436729Y-6524293D02*
X2436729Y-6476674D01*
X2436729Y-6476674D02*
X2446253Y-6438579D01*
X2446253Y-6438579D02*
X2455777Y-6419531D01*
X2455777Y-6419531D02*
X2465301Y-6410008D01*
X2465301Y-6410008D02*
X2484348Y-6400484D01*
X2627206Y-6419531D02*
X2636729Y-6410008D01*
X2636729Y-6410008D02*
X2655777Y-6400484D01*
X2655777Y-6400484D02*
X2703396Y-6400484D01*
X2703396Y-6400484D02*
X2722444Y-6410008D01*
X2722444Y-6410008D02*
X2731968Y-6419531D01*
X2731968Y-6419531D02*
X2741491Y-6438579D01*
X2741491Y-6438579D02*
X2741491Y-6457627D01*
X2741491Y-6457627D02*
X2731968Y-6486198D01*
X2731968Y-6486198D02*
X2617682Y-6600484D01*
X2617682Y-6600484D02*
X2741491Y-6600484D01*
X2836729Y-6600484D02*
X2874825Y-6600484D01*
X2874825Y-6600484D02*
X2893872Y-6590960D01*
X2893872Y-6590960D02*
X2903396Y-6581436D01*
X2903396Y-6581436D02*
X2922444Y-6552865D01*
X2922444Y-6552865D02*
X2931967Y-6514769D01*
X2931967Y-6514769D02*
X2931967Y-6438579D01*
X2931967Y-6438579D02*
X2922444Y-6419531D01*
X2922444Y-6419531D02*
X2912920Y-6410008D01*
X2912920Y-6410008D02*
X2893872Y-6400484D01*
X2893872Y-6400484D02*
X2855777Y-6400484D01*
X2855777Y-6400484D02*
X2836729Y-6410008D01*
X2836729Y-6410008D02*
X2827206Y-6419531D01*
X2827206Y-6419531D02*
X2817682Y-6438579D01*
X2817682Y-6438579D02*
X2817682Y-6486198D01*
X2817682Y-6486198D02*
X2827206Y-6505246D01*
X2827206Y-6505246D02*
X2836729Y-6514769D01*
X2836729Y-6514769D02*
X2855777Y-6524293D01*
X2855777Y-6524293D02*
X2893872Y-6524293D01*
X2893872Y-6524293D02*
X2912920Y-6514769D01*
X2912920Y-6514769D02*
X2922444Y-6505246D01*
X2922444Y-6505246D02*
X2931967Y-6486198D01*
X3112920Y-6400484D02*
X3017682Y-6400484D01*
X3017682Y-6400484D02*
X3008158Y-6495722D01*
X3008158Y-6495722D02*
X3017682Y-6486198D01*
X3017682Y-6486198D02*
X3036729Y-6476674D01*
X3036729Y-6476674D02*
X3084348Y-6476674D01*
X3084348Y-6476674D02*
X3103396Y-6486198D01*
X3103396Y-6486198D02*
X3112920Y-6495722D01*
X3112920Y-6495722D02*
X3122444Y-6514769D01*
X3122444Y-6514769D02*
X3122444Y-6562388D01*
X3122444Y-6562388D02*
X3112920Y-6581436D01*
X3112920Y-6581436D02*
X3103396Y-6590960D01*
X3103396Y-6590960D02*
X3084348Y-6600484D01*
X3084348Y-6600484D02*
X3036729Y-6600484D01*
X3036729Y-6600484D02*
X3017682Y-6590960D01*
X3017682Y-6590960D02*
X3008158Y-6581436D01*
X3198634Y-6400484D02*
X3198634Y-6438579D01*
X3274825Y-6400484D02*
X3274825Y-6438579D01*
X3570063Y-6676674D02*
X3560539Y-6667150D01*
X3560539Y-6667150D02*
X3541491Y-6638579D01*
X3541491Y-6638579D02*
X3531968Y-6619531D01*
X3531968Y-6619531D02*
X3522444Y-6590960D01*
X3522444Y-6590960D02*
X3512920Y-6543341D01*
X3512920Y-6543341D02*
X3512920Y-6505246D01*
X3512920Y-6505246D02*
X3522444Y-6457627D01*
X3522444Y-6457627D02*
X3531968Y-6429055D01*
X3531968Y-6429055D02*
X3541491Y-6410008D01*
X3541491Y-6410008D02*
X3560539Y-6381436D01*
X3560539Y-6381436D02*
X3570063Y-6371912D01*
X3636729Y-6419531D02*
X3646253Y-6410008D01*
X3646253Y-6410008D02*
X3665301Y-6400484D01*
X3665301Y-6400484D02*
X3712920Y-6400484D01*
X3712920Y-6400484D02*
X3731968Y-6410008D01*
X3731968Y-6410008D02*
X3741491Y-6419531D01*
X3741491Y-6419531D02*
X3751015Y-6438579D01*
X3751015Y-6438579D02*
X3751015Y-6457627D01*
X3751015Y-6457627D02*
X3741491Y-6486198D01*
X3741491Y-6486198D02*
X3627206Y-6600484D01*
X3627206Y-6600484D02*
X3751015Y-6600484D01*
X3874825Y-6400484D02*
X3893872Y-6400484D01*
X3893872Y-6400484D02*
X3912920Y-6410008D01*
X3912920Y-6410008D02*
X3922444Y-6419531D01*
X3922444Y-6419531D02*
X3931968Y-6438579D01*
X3931968Y-6438579D02*
X3941491Y-6476674D01*
X3941491Y-6476674D02*
X3941491Y-6524293D01*
X3941491Y-6524293D02*
X3931968Y-6562388D01*
X3931968Y-6562388D02*
X3922444Y-6581436D01*
X3922444Y-6581436D02*
X3912920Y-6590960D01*
X3912920Y-6590960D02*
X3893872Y-6600484D01*
X3893872Y-6600484D02*
X3874825Y-6600484D01*
X3874825Y-6600484D02*
X3855777Y-6590960D01*
X3855777Y-6590960D02*
X3846253Y-6581436D01*
X3846253Y-6581436D02*
X3836729Y-6562388D01*
X3836729Y-6562388D02*
X3827206Y-6524293D01*
X3827206Y-6524293D02*
X3827206Y-6476674D01*
X3827206Y-6476674D02*
X3836729Y-6438579D01*
X3836729Y-6438579D02*
X3846253Y-6419531D01*
X3846253Y-6419531D02*
X3855777Y-6410008D01*
X3855777Y-6410008D02*
X3874825Y-6400484D01*
X4179587Y-6600484D02*
X4179587Y-6400484D01*
X4265301Y-6600484D02*
X4265301Y-6495722D01*
X4265301Y-6495722D02*
X4255777Y-6476674D01*
X4255777Y-6476674D02*
X4236730Y-6467150D01*
X4236730Y-6467150D02*
X4208158Y-6467150D01*
X4208158Y-6467150D02*
X4189110Y-6476674D01*
X4189110Y-6476674D02*
X4179587Y-6486198D01*
X4389111Y-6600484D02*
X4370063Y-6590960D01*
X4370063Y-6590960D02*
X4360539Y-6581436D01*
X4360539Y-6581436D02*
X4351015Y-6562388D01*
X4351015Y-6562388D02*
X4351015Y-6505246D01*
X4351015Y-6505246D02*
X4360539Y-6486198D01*
X4360539Y-6486198D02*
X4370063Y-6476674D01*
X4370063Y-6476674D02*
X4389111Y-6467150D01*
X4389111Y-6467150D02*
X4417682Y-6467150D01*
X4417682Y-6467150D02*
X4436730Y-6476674D01*
X4436730Y-6476674D02*
X4446253Y-6486198D01*
X4446253Y-6486198D02*
X4455777Y-6505246D01*
X4455777Y-6505246D02*
X4455777Y-6562388D01*
X4455777Y-6562388D02*
X4446253Y-6581436D01*
X4446253Y-6581436D02*
X4436730Y-6590960D01*
X4436730Y-6590960D02*
X4417682Y-6600484D01*
X4417682Y-6600484D02*
X4389111Y-6600484D01*
X4570063Y-6600484D02*
X4551015Y-6590960D01*
X4551015Y-6590960D02*
X4541492Y-6571912D01*
X4541492Y-6571912D02*
X4541492Y-6400484D01*
X4722444Y-6590960D02*
X4703396Y-6600484D01*
X4703396Y-6600484D02*
X4665301Y-6600484D01*
X4665301Y-6600484D02*
X4646253Y-6590960D01*
X4646253Y-6590960D02*
X4636730Y-6571912D01*
X4636730Y-6571912D02*
X4636730Y-6495722D01*
X4636730Y-6495722D02*
X4646253Y-6476674D01*
X4646253Y-6476674D02*
X4665301Y-6467150D01*
X4665301Y-6467150D02*
X4703396Y-6467150D01*
X4703396Y-6467150D02*
X4722444Y-6476674D01*
X4722444Y-6476674D02*
X4731968Y-6495722D01*
X4731968Y-6495722D02*
X4731968Y-6514769D01*
X4731968Y-6514769D02*
X4636730Y-6533817D01*
X4808158Y-6590960D02*
X4827206Y-6600484D01*
X4827206Y-6600484D02*
X4865301Y-6600484D01*
X4865301Y-6600484D02*
X4884349Y-6590960D01*
X4884349Y-6590960D02*
X4893873Y-6571912D01*
X4893873Y-6571912D02*
X4893873Y-6562388D01*
X4893873Y-6562388D02*
X4884349Y-6543341D01*
X4884349Y-6543341D02*
X4865301Y-6533817D01*
X4865301Y-6533817D02*
X4836730Y-6533817D01*
X4836730Y-6533817D02*
X4817682Y-6524293D01*
X4817682Y-6524293D02*
X4808158Y-6505246D01*
X4808158Y-6505246D02*
X4808158Y-6495722D01*
X4808158Y-6495722D02*
X4817682Y-6476674D01*
X4817682Y-6476674D02*
X4836730Y-6467150D01*
X4836730Y-6467150D02*
X4865301Y-6467150D01*
X4865301Y-6467150D02*
X4884349Y-6476674D01*
X4960539Y-6676674D02*
X4970063Y-6667150D01*
X4970063Y-6667150D02*
X4989111Y-6638579D01*
X4989111Y-6638579D02*
X4998634Y-6619531D01*
X4998634Y-6619531D02*
X5008158Y-6590960D01*
X5008158Y-6590960D02*
X5017682Y-6543341D01*
X5017682Y-6543341D02*
X5017682Y-6505246D01*
X5017682Y-6505246D02*
X5008158Y-6457627D01*
X5008158Y-6457627D02*
X4998634Y-6429055D01*
X4998634Y-6429055D02*
X4989111Y-6410008D01*
X4989111Y-6410008D02*
X4970063Y-6381436D01*
X4970063Y-6381436D02*
X4960539Y-6371912D01*
D10*
X-55000Y-6723000D02*
X-55000Y-6823000D01*
X-105000Y-6773000D02*
X-5000Y-6773000D01*
D11*
X360539Y-6864484D02*
X246253Y-6864484D01*
X303396Y-6864484D02*
X303396Y-6664484D01*
X303396Y-6664484D02*
X284348Y-6693055D01*
X284348Y-6693055D02*
X265301Y-6712103D01*
X265301Y-6712103D02*
X246253Y-6721627D01*
X446253Y-6845436D02*
X455777Y-6854960D01*
X455777Y-6854960D02*
X446253Y-6864484D01*
X446253Y-6864484D02*
X436729Y-6854960D01*
X436729Y-6854960D02*
X446253Y-6845436D01*
X446253Y-6845436D02*
X446253Y-6864484D01*
X579586Y-6664484D02*
X598634Y-6664484D01*
X598634Y-6664484D02*
X617682Y-6674008D01*
X617682Y-6674008D02*
X627205Y-6683531D01*
X627205Y-6683531D02*
X636729Y-6702579D01*
X636729Y-6702579D02*
X646253Y-6740674D01*
X646253Y-6740674D02*
X646253Y-6788293D01*
X646253Y-6788293D02*
X636729Y-6826388D01*
X636729Y-6826388D02*
X627205Y-6845436D01*
X627205Y-6845436D02*
X617682Y-6854960D01*
X617682Y-6854960D02*
X598634Y-6864484D01*
X598634Y-6864484D02*
X579586Y-6864484D01*
X579586Y-6864484D02*
X560539Y-6854960D01*
X560539Y-6854960D02*
X551015Y-6845436D01*
X551015Y-6845436D02*
X541491Y-6826388D01*
X541491Y-6826388D02*
X531967Y-6788293D01*
X531967Y-6788293D02*
X531967Y-6740674D01*
X531967Y-6740674D02*
X541491Y-6702579D01*
X541491Y-6702579D02*
X551015Y-6683531D01*
X551015Y-6683531D02*
X560539Y-6674008D01*
X560539Y-6674008D02*
X579586Y-6664484D01*
X770062Y-6664484D02*
X789110Y-6664484D01*
X789110Y-6664484D02*
X808158Y-6674008D01*
X808158Y-6674008D02*
X817682Y-6683531D01*
X817682Y-6683531D02*
X827205Y-6702579D01*
X827205Y-6702579D02*
X836729Y-6740674D01*
X836729Y-6740674D02*
X836729Y-6788293D01*
X836729Y-6788293D02*
X827205Y-6826388D01*
X827205Y-6826388D02*
X817682Y-6845436D01*
X817682Y-6845436D02*
X808158Y-6854960D01*
X808158Y-6854960D02*
X789110Y-6864484D01*
X789110Y-6864484D02*
X770062Y-6864484D01*
X770062Y-6864484D02*
X751015Y-6854960D01*
X751015Y-6854960D02*
X741491Y-6845436D01*
X741491Y-6845436D02*
X731967Y-6826388D01*
X731967Y-6826388D02*
X722443Y-6788293D01*
X722443Y-6788293D02*
X722443Y-6740674D01*
X722443Y-6740674D02*
X731967Y-6702579D01*
X731967Y-6702579D02*
X741491Y-6683531D01*
X741491Y-6683531D02*
X751015Y-6674008D01*
X751015Y-6674008D02*
X770062Y-6664484D01*
X960539Y-6664484D02*
X979586Y-6664484D01*
X979586Y-6664484D02*
X998634Y-6674008D01*
X998634Y-6674008D02*
X1008158Y-6683531D01*
X1008158Y-6683531D02*
X1017682Y-6702579D01*
X1017682Y-6702579D02*
X1027205Y-6740674D01*
X1027205Y-6740674D02*
X1027205Y-6788293D01*
X1027205Y-6788293D02*
X1017682Y-6826388D01*
X1017682Y-6826388D02*
X1008158Y-6845436D01*
X1008158Y-6845436D02*
X998634Y-6854960D01*
X998634Y-6854960D02*
X979586Y-6864484D01*
X979586Y-6864484D02*
X960539Y-6864484D01*
X960539Y-6864484D02*
X941491Y-6854960D01*
X941491Y-6854960D02*
X931967Y-6845436D01*
X931967Y-6845436D02*
X922443Y-6826388D01*
X922443Y-6826388D02*
X912920Y-6788293D01*
X912920Y-6788293D02*
X912920Y-6740674D01*
X912920Y-6740674D02*
X922443Y-6702579D01*
X922443Y-6702579D02*
X931967Y-6683531D01*
X931967Y-6683531D02*
X941491Y-6674008D01*
X941491Y-6674008D02*
X960539Y-6664484D01*
X1112920Y-6864484D02*
X1112920Y-6731150D01*
X1112920Y-6750198D02*
X1122444Y-6740674D01*
X1122444Y-6740674D02*
X1141491Y-6731150D01*
X1141491Y-6731150D02*
X1170063Y-6731150D01*
X1170063Y-6731150D02*
X1189110Y-6740674D01*
X1189110Y-6740674D02*
X1198634Y-6759722D01*
X1198634Y-6759722D02*
X1198634Y-6864484D01*
X1198634Y-6759722D02*
X1208158Y-6740674D01*
X1208158Y-6740674D02*
X1227205Y-6731150D01*
X1227205Y-6731150D02*
X1255777Y-6731150D01*
X1255777Y-6731150D02*
X1274825Y-6740674D01*
X1274825Y-6740674D02*
X1284348Y-6759722D01*
X1284348Y-6759722D02*
X1284348Y-6864484D01*
X1379586Y-6864484D02*
X1379586Y-6731150D01*
X1379586Y-6750198D02*
X1389110Y-6740674D01*
X1389110Y-6740674D02*
X1408158Y-6731150D01*
X1408158Y-6731150D02*
X1436729Y-6731150D01*
X1436729Y-6731150D02*
X1455777Y-6740674D01*
X1455777Y-6740674D02*
X1465301Y-6759722D01*
X1465301Y-6759722D02*
X1465301Y-6864484D01*
X1465301Y-6759722D02*
X1474824Y-6740674D01*
X1474824Y-6740674D02*
X1493872Y-6731150D01*
X1493872Y-6731150D02*
X1522443Y-6731150D01*
X1522443Y-6731150D02*
X1541491Y-6740674D01*
X1541491Y-6740674D02*
X1551015Y-6759722D01*
X1551015Y-6759722D02*
X1551015Y-6864484D01*
X1941491Y-6654960D02*
X1770063Y-6912103D01*
X2198634Y-6664484D02*
X2217682Y-6664484D01*
X2217682Y-6664484D02*
X2236729Y-6674008D01*
X2236729Y-6674008D02*
X2246253Y-6683531D01*
X2246253Y-6683531D02*
X2255777Y-6702579D01*
X2255777Y-6702579D02*
X2265301Y-6740674D01*
X2265301Y-6740674D02*
X2265301Y-6788293D01*
X2265301Y-6788293D02*
X2255777Y-6826388D01*
X2255777Y-6826388D02*
X2246253Y-6845436D01*
X2246253Y-6845436D02*
X2236729Y-6854960D01*
X2236729Y-6854960D02*
X2217682Y-6864484D01*
X2217682Y-6864484D02*
X2198634Y-6864484D01*
X2198634Y-6864484D02*
X2179587Y-6854960D01*
X2179587Y-6854960D02*
X2170063Y-6845436D01*
X2170063Y-6845436D02*
X2160539Y-6826388D01*
X2160539Y-6826388D02*
X2151015Y-6788293D01*
X2151015Y-6788293D02*
X2151015Y-6740674D01*
X2151015Y-6740674D02*
X2160539Y-6702579D01*
X2160539Y-6702579D02*
X2170063Y-6683531D01*
X2170063Y-6683531D02*
X2179587Y-6674008D01*
X2179587Y-6674008D02*
X2198634Y-6664484D01*
X2351015Y-6845436D02*
X2360539Y-6854960D01*
X2360539Y-6854960D02*
X2351015Y-6864484D01*
X2351015Y-6864484D02*
X2341491Y-6854960D01*
X2341491Y-6854960D02*
X2351015Y-6845436D01*
X2351015Y-6845436D02*
X2351015Y-6864484D01*
X2484348Y-6664484D02*
X2503396Y-6664484D01*
X2503396Y-6664484D02*
X2522444Y-6674008D01*
X2522444Y-6674008D02*
X2531968Y-6683531D01*
X2531968Y-6683531D02*
X2541491Y-6702579D01*
X2541491Y-6702579D02*
X2551015Y-6740674D01*
X2551015Y-6740674D02*
X2551015Y-6788293D01*
X2551015Y-6788293D02*
X2541491Y-6826388D01*
X2541491Y-6826388D02*
X2531968Y-6845436D01*
X2531968Y-6845436D02*
X2522444Y-6854960D01*
X2522444Y-6854960D02*
X2503396Y-6864484D01*
X2503396Y-6864484D02*
X2484348Y-6864484D01*
X2484348Y-6864484D02*
X2465301Y-6854960D01*
X2465301Y-6854960D02*
X2455777Y-6845436D01*
X2455777Y-6845436D02*
X2446253Y-6826388D01*
X2446253Y-6826388D02*
X2436729Y-6788293D01*
X2436729Y-6788293D02*
X2436729Y-6740674D01*
X2436729Y-6740674D02*
X2446253Y-6702579D01*
X2446253Y-6702579D02*
X2455777Y-6683531D01*
X2455777Y-6683531D02*
X2465301Y-6674008D01*
X2465301Y-6674008D02*
X2484348Y-6664484D01*
X2617682Y-6664484D02*
X2741491Y-6664484D01*
X2741491Y-6664484D02*
X2674825Y-6740674D01*
X2674825Y-6740674D02*
X2703396Y-6740674D01*
X2703396Y-6740674D02*
X2722444Y-6750198D01*
X2722444Y-6750198D02*
X2731968Y-6759722D01*
X2731968Y-6759722D02*
X2741491Y-6778769D01*
X2741491Y-6778769D02*
X2741491Y-6826388D01*
X2741491Y-6826388D02*
X2731968Y-6845436D01*
X2731968Y-6845436D02*
X2722444Y-6854960D01*
X2722444Y-6854960D02*
X2703396Y-6864484D01*
X2703396Y-6864484D02*
X2646253Y-6864484D01*
X2646253Y-6864484D02*
X2627206Y-6854960D01*
X2627206Y-6854960D02*
X2617682Y-6845436D01*
X2836729Y-6864484D02*
X2874825Y-6864484D01*
X2874825Y-6864484D02*
X2893872Y-6854960D01*
X2893872Y-6854960D02*
X2903396Y-6845436D01*
X2903396Y-6845436D02*
X2922444Y-6816865D01*
X2922444Y-6816865D02*
X2931967Y-6778769D01*
X2931967Y-6778769D02*
X2931967Y-6702579D01*
X2931967Y-6702579D02*
X2922444Y-6683531D01*
X2922444Y-6683531D02*
X2912920Y-6674008D01*
X2912920Y-6674008D02*
X2893872Y-6664484D01*
X2893872Y-6664484D02*
X2855777Y-6664484D01*
X2855777Y-6664484D02*
X2836729Y-6674008D01*
X2836729Y-6674008D02*
X2827206Y-6683531D01*
X2827206Y-6683531D02*
X2817682Y-6702579D01*
X2817682Y-6702579D02*
X2817682Y-6750198D01*
X2817682Y-6750198D02*
X2827206Y-6769246D01*
X2827206Y-6769246D02*
X2836729Y-6778769D01*
X2836729Y-6778769D02*
X2855777Y-6788293D01*
X2855777Y-6788293D02*
X2893872Y-6788293D01*
X2893872Y-6788293D02*
X2912920Y-6778769D01*
X2912920Y-6778769D02*
X2922444Y-6769246D01*
X2922444Y-6769246D02*
X2931967Y-6750198D01*
X3103396Y-6731150D02*
X3103396Y-6864484D01*
X3055777Y-6654960D02*
X3008158Y-6797817D01*
X3008158Y-6797817D02*
X3131967Y-6797817D01*
X3198634Y-6664484D02*
X3198634Y-6702579D01*
X3274825Y-6664484D02*
X3274825Y-6702579D01*
X3570063Y-6940674D02*
X3560539Y-6931150D01*
X3560539Y-6931150D02*
X3541491Y-6902579D01*
X3541491Y-6902579D02*
X3531968Y-6883531D01*
X3531968Y-6883531D02*
X3522444Y-6854960D01*
X3522444Y-6854960D02*
X3512920Y-6807341D01*
X3512920Y-6807341D02*
X3512920Y-6769246D01*
X3512920Y-6769246D02*
X3522444Y-6721627D01*
X3522444Y-6721627D02*
X3531968Y-6693055D01*
X3531968Y-6693055D02*
X3541491Y-6674008D01*
X3541491Y-6674008D02*
X3560539Y-6645436D01*
X3560539Y-6645436D02*
X3570063Y-6635912D01*
X3731968Y-6731150D02*
X3731968Y-6864484D01*
X3684348Y-6654960D02*
X3636729Y-6797817D01*
X3636729Y-6797817D02*
X3760539Y-6797817D01*
X3874825Y-6664484D02*
X3893872Y-6664484D01*
X3893872Y-6664484D02*
X3912920Y-6674008D01*
X3912920Y-6674008D02*
X3922444Y-6683531D01*
X3922444Y-6683531D02*
X3931968Y-6702579D01*
X3931968Y-6702579D02*
X3941491Y-6740674D01*
X3941491Y-6740674D02*
X3941491Y-6788293D01*
X3941491Y-6788293D02*
X3931968Y-6826388D01*
X3931968Y-6826388D02*
X3922444Y-6845436D01*
X3922444Y-6845436D02*
X3912920Y-6854960D01*
X3912920Y-6854960D02*
X3893872Y-6864484D01*
X3893872Y-6864484D02*
X3874825Y-6864484D01*
X3874825Y-6864484D02*
X3855777Y-6854960D01*
X3855777Y-6854960D02*
X3846253Y-6845436D01*
X3846253Y-6845436D02*
X3836729Y-6826388D01*
X3836729Y-6826388D02*
X3827206Y-6788293D01*
X3827206Y-6788293D02*
X3827206Y-6740674D01*
X3827206Y-6740674D02*
X3836729Y-6702579D01*
X3836729Y-6702579D02*
X3846253Y-6683531D01*
X3846253Y-6683531D02*
X3855777Y-6674008D01*
X3855777Y-6674008D02*
X3874825Y-6664484D01*
X4179587Y-6864484D02*
X4179587Y-6664484D01*
X4265301Y-6864484D02*
X4265301Y-6759722D01*
X4265301Y-6759722D02*
X4255777Y-6740674D01*
X4255777Y-6740674D02*
X4236730Y-6731150D01*
X4236730Y-6731150D02*
X4208158Y-6731150D01*
X4208158Y-6731150D02*
X4189110Y-6740674D01*
X4189110Y-6740674D02*
X4179587Y-6750198D01*
X4389111Y-6864484D02*
X4370063Y-6854960D01*
X4370063Y-6854960D02*
X4360539Y-6845436D01*
X4360539Y-6845436D02*
X4351015Y-6826388D01*
X4351015Y-6826388D02*
X4351015Y-6769246D01*
X4351015Y-6769246D02*
X4360539Y-6750198D01*
X4360539Y-6750198D02*
X4370063Y-6740674D01*
X4370063Y-6740674D02*
X4389111Y-6731150D01*
X4389111Y-6731150D02*
X4417682Y-6731150D01*
X4417682Y-6731150D02*
X4436730Y-6740674D01*
X4436730Y-6740674D02*
X4446253Y-6750198D01*
X4446253Y-6750198D02*
X4455777Y-6769246D01*
X4455777Y-6769246D02*
X4455777Y-6826388D01*
X4455777Y-6826388D02*
X4446253Y-6845436D01*
X4446253Y-6845436D02*
X4436730Y-6854960D01*
X4436730Y-6854960D02*
X4417682Y-6864484D01*
X4417682Y-6864484D02*
X4389111Y-6864484D01*
X4570063Y-6864484D02*
X4551015Y-6854960D01*
X4551015Y-6854960D02*
X4541492Y-6835912D01*
X4541492Y-6835912D02*
X4541492Y-6664484D01*
X4722444Y-6854960D02*
X4703396Y-6864484D01*
X4703396Y-6864484D02*
X4665301Y-6864484D01*
X4665301Y-6864484D02*
X4646253Y-6854960D01*
X4646253Y-6854960D02*
X4636730Y-6835912D01*
X4636730Y-6835912D02*
X4636730Y-6759722D01*
X4636730Y-6759722D02*
X4646253Y-6740674D01*
X4646253Y-6740674D02*
X4665301Y-6731150D01*
X4665301Y-6731150D02*
X4703396Y-6731150D01*
X4703396Y-6731150D02*
X4722444Y-6740674D01*
X4722444Y-6740674D02*
X4731968Y-6759722D01*
X4731968Y-6759722D02*
X4731968Y-6778769D01*
X4731968Y-6778769D02*
X4636730Y-6797817D01*
X4808158Y-6854960D02*
X4827206Y-6864484D01*
X4827206Y-6864484D02*
X4865301Y-6864484D01*
X4865301Y-6864484D02*
X4884349Y-6854960D01*
X4884349Y-6854960D02*
X4893873Y-6835912D01*
X4893873Y-6835912D02*
X4893873Y-6826388D01*
X4893873Y-6826388D02*
X4884349Y-6807341D01*
X4884349Y-6807341D02*
X4865301Y-6797817D01*
X4865301Y-6797817D02*
X4836730Y-6797817D01*
X4836730Y-6797817D02*
X4817682Y-6788293D01*
X4817682Y-6788293D02*
X4808158Y-6769246D01*
X4808158Y-6769246D02*
X4808158Y-6759722D01*
X4808158Y-6759722D02*
X4817682Y-6740674D01*
X4817682Y-6740674D02*
X4836730Y-6731150D01*
X4836730Y-6731150D02*
X4865301Y-6731150D01*
X4865301Y-6731150D02*
X4884349Y-6740674D01*
X4960539Y-6940674D02*
X4970063Y-6931150D01*
X4970063Y-6931150D02*
X4989111Y-6902579D01*
X4989111Y-6902579D02*
X4998634Y-6883531D01*
X4998634Y-6883531D02*
X5008158Y-6854960D01*
X5008158Y-6854960D02*
X5017682Y-6807341D01*
X5017682Y-6807341D02*
X5017682Y-6769246D01*
X5017682Y-6769246D02*
X5008158Y-6721627D01*
X5008158Y-6721627D02*
X4998634Y-6693055D01*
X4998634Y-6693055D02*
X4989111Y-6674008D01*
X4989111Y-6674008D02*
X4970063Y-6645436D01*
X4970063Y-6645436D02*
X4960539Y-6635912D01*
D12*
X-27259Y-7090741D02*
X-27259Y-6983259D01*
X-134741Y-6983259D01*
X-134741Y-7090741D01*
X-27259Y-7090741D01*
D11*
X360539Y-7128484D02*
X246253Y-7128484D01*
X303396Y-7128484D02*
X303396Y-6928484D01*
X303396Y-6928484D02*
X284348Y-6957055D01*
X284348Y-6957055D02*
X265301Y-6976103D01*
X265301Y-6976103D02*
X246253Y-6985627D01*
X446253Y-7109436D02*
X455777Y-7118960D01*
X455777Y-7118960D02*
X446253Y-7128484D01*
X446253Y-7128484D02*
X436729Y-7118960D01*
X436729Y-7118960D02*
X446253Y-7109436D01*
X446253Y-7109436D02*
X446253Y-7128484D01*
X636729Y-6928484D02*
X541491Y-6928484D01*
X541491Y-6928484D02*
X531967Y-7023722D01*
X531967Y-7023722D02*
X541491Y-7014198D01*
X541491Y-7014198D02*
X560539Y-7004674D01*
X560539Y-7004674D02*
X608158Y-7004674D01*
X608158Y-7004674D02*
X627205Y-7014198D01*
X627205Y-7014198D02*
X636729Y-7023722D01*
X636729Y-7023722D02*
X646253Y-7042769D01*
X646253Y-7042769D02*
X646253Y-7090388D01*
X646253Y-7090388D02*
X636729Y-7109436D01*
X636729Y-7109436D02*
X627205Y-7118960D01*
X627205Y-7118960D02*
X608158Y-7128484D01*
X608158Y-7128484D02*
X560539Y-7128484D01*
X560539Y-7128484D02*
X541491Y-7118960D01*
X541491Y-7118960D02*
X531967Y-7109436D01*
X722443Y-6947531D02*
X731967Y-6938008D01*
X731967Y-6938008D02*
X751015Y-6928484D01*
X751015Y-6928484D02*
X798634Y-6928484D01*
X798634Y-6928484D02*
X817682Y-6938008D01*
X817682Y-6938008D02*
X827205Y-6947531D01*
X827205Y-6947531D02*
X836729Y-6966579D01*
X836729Y-6966579D02*
X836729Y-6985627D01*
X836729Y-6985627D02*
X827205Y-7014198D01*
X827205Y-7014198D02*
X712920Y-7128484D01*
X712920Y-7128484D02*
X836729Y-7128484D01*
X960539Y-6928484D02*
X979586Y-6928484D01*
X979586Y-6928484D02*
X998634Y-6938008D01*
X998634Y-6938008D02*
X1008158Y-6947531D01*
X1008158Y-6947531D02*
X1017682Y-6966579D01*
X1017682Y-6966579D02*
X1027205Y-7004674D01*
X1027205Y-7004674D02*
X1027205Y-7052293D01*
X1027205Y-7052293D02*
X1017682Y-7090388D01*
X1017682Y-7090388D02*
X1008158Y-7109436D01*
X1008158Y-7109436D02*
X998634Y-7118960D01*
X998634Y-7118960D02*
X979586Y-7128484D01*
X979586Y-7128484D02*
X960539Y-7128484D01*
X960539Y-7128484D02*
X941491Y-7118960D01*
X941491Y-7118960D02*
X931967Y-7109436D01*
X931967Y-7109436D02*
X922443Y-7090388D01*
X922443Y-7090388D02*
X912920Y-7052293D01*
X912920Y-7052293D02*
X912920Y-7004674D01*
X912920Y-7004674D02*
X922443Y-6966579D01*
X922443Y-6966579D02*
X931967Y-6947531D01*
X931967Y-6947531D02*
X941491Y-6938008D01*
X941491Y-6938008D02*
X960539Y-6928484D01*
X1112920Y-7128484D02*
X1112920Y-6995150D01*
X1112920Y-7014198D02*
X1122444Y-7004674D01*
X1122444Y-7004674D02*
X1141491Y-6995150D01*
X1141491Y-6995150D02*
X1170063Y-6995150D01*
X1170063Y-6995150D02*
X1189110Y-7004674D01*
X1189110Y-7004674D02*
X1198634Y-7023722D01*
X1198634Y-7023722D02*
X1198634Y-7128484D01*
X1198634Y-7023722D02*
X1208158Y-7004674D01*
X1208158Y-7004674D02*
X1227205Y-6995150D01*
X1227205Y-6995150D02*
X1255777Y-6995150D01*
X1255777Y-6995150D02*
X1274825Y-7004674D01*
X1274825Y-7004674D02*
X1284348Y-7023722D01*
X1284348Y-7023722D02*
X1284348Y-7128484D01*
X1379586Y-7128484D02*
X1379586Y-6995150D01*
X1379586Y-7014198D02*
X1389110Y-7004674D01*
X1389110Y-7004674D02*
X1408158Y-6995150D01*
X1408158Y-6995150D02*
X1436729Y-6995150D01*
X1436729Y-6995150D02*
X1455777Y-7004674D01*
X1455777Y-7004674D02*
X1465301Y-7023722D01*
X1465301Y-7023722D02*
X1465301Y-7128484D01*
X1465301Y-7023722D02*
X1474824Y-7004674D01*
X1474824Y-7004674D02*
X1493872Y-6995150D01*
X1493872Y-6995150D02*
X1522443Y-6995150D01*
X1522443Y-6995150D02*
X1541491Y-7004674D01*
X1541491Y-7004674D02*
X1551015Y-7023722D01*
X1551015Y-7023722D02*
X1551015Y-7128484D01*
X1941491Y-6918960D02*
X1770063Y-7176103D01*
X2198634Y-6928484D02*
X2217682Y-6928484D01*
X2217682Y-6928484D02*
X2236729Y-6938008D01*
X2236729Y-6938008D02*
X2246253Y-6947531D01*
X2246253Y-6947531D02*
X2255777Y-6966579D01*
X2255777Y-6966579D02*
X2265301Y-7004674D01*
X2265301Y-7004674D02*
X2265301Y-7052293D01*
X2265301Y-7052293D02*
X2255777Y-7090388D01*
X2255777Y-7090388D02*
X2246253Y-7109436D01*
X2246253Y-7109436D02*
X2236729Y-7118960D01*
X2236729Y-7118960D02*
X2217682Y-7128484D01*
X2217682Y-7128484D02*
X2198634Y-7128484D01*
X2198634Y-7128484D02*
X2179587Y-7118960D01*
X2179587Y-7118960D02*
X2170063Y-7109436D01*
X2170063Y-7109436D02*
X2160539Y-7090388D01*
X2160539Y-7090388D02*
X2151015Y-7052293D01*
X2151015Y-7052293D02*
X2151015Y-7004674D01*
X2151015Y-7004674D02*
X2160539Y-6966579D01*
X2160539Y-6966579D02*
X2170063Y-6947531D01*
X2170063Y-6947531D02*
X2179587Y-6938008D01*
X2179587Y-6938008D02*
X2198634Y-6928484D01*
X2351015Y-7109436D02*
X2360539Y-7118960D01*
X2360539Y-7118960D02*
X2351015Y-7128484D01*
X2351015Y-7128484D02*
X2341491Y-7118960D01*
X2341491Y-7118960D02*
X2351015Y-7109436D01*
X2351015Y-7109436D02*
X2351015Y-7128484D01*
X2484348Y-6928484D02*
X2503396Y-6928484D01*
X2503396Y-6928484D02*
X2522444Y-6938008D01*
X2522444Y-6938008D02*
X2531968Y-6947531D01*
X2531968Y-6947531D02*
X2541491Y-6966579D01*
X2541491Y-6966579D02*
X2551015Y-7004674D01*
X2551015Y-7004674D02*
X2551015Y-7052293D01*
X2551015Y-7052293D02*
X2541491Y-7090388D01*
X2541491Y-7090388D02*
X2531968Y-7109436D01*
X2531968Y-7109436D02*
X2522444Y-7118960D01*
X2522444Y-7118960D02*
X2503396Y-7128484D01*
X2503396Y-7128484D02*
X2484348Y-7128484D01*
X2484348Y-7128484D02*
X2465301Y-7118960D01*
X2465301Y-7118960D02*
X2455777Y-7109436D01*
X2455777Y-7109436D02*
X2446253Y-7090388D01*
X2446253Y-7090388D02*
X2436729Y-7052293D01*
X2436729Y-7052293D02*
X2436729Y-7004674D01*
X2436729Y-7004674D02*
X2446253Y-6966579D01*
X2446253Y-6966579D02*
X2455777Y-6947531D01*
X2455777Y-6947531D02*
X2465301Y-6938008D01*
X2465301Y-6938008D02*
X2484348Y-6928484D01*
X2731968Y-6928484D02*
X2636729Y-6928484D01*
X2636729Y-6928484D02*
X2627206Y-7023722D01*
X2627206Y-7023722D02*
X2636729Y-7014198D01*
X2636729Y-7014198D02*
X2655777Y-7004674D01*
X2655777Y-7004674D02*
X2703396Y-7004674D01*
X2703396Y-7004674D02*
X2722444Y-7014198D01*
X2722444Y-7014198D02*
X2731968Y-7023722D01*
X2731968Y-7023722D02*
X2741491Y-7042769D01*
X2741491Y-7042769D02*
X2741491Y-7090388D01*
X2741491Y-7090388D02*
X2731968Y-7109436D01*
X2731968Y-7109436D02*
X2722444Y-7118960D01*
X2722444Y-7118960D02*
X2703396Y-7128484D01*
X2703396Y-7128484D02*
X2655777Y-7128484D01*
X2655777Y-7128484D02*
X2636729Y-7118960D01*
X2636729Y-7118960D02*
X2627206Y-7109436D01*
X2836729Y-7128484D02*
X2874825Y-7128484D01*
X2874825Y-7128484D02*
X2893872Y-7118960D01*
X2893872Y-7118960D02*
X2903396Y-7109436D01*
X2903396Y-7109436D02*
X2922444Y-7080865D01*
X2922444Y-7080865D02*
X2931967Y-7042769D01*
X2931967Y-7042769D02*
X2931967Y-6966579D01*
X2931967Y-6966579D02*
X2922444Y-6947531D01*
X2922444Y-6947531D02*
X2912920Y-6938008D01*
X2912920Y-6938008D02*
X2893872Y-6928484D01*
X2893872Y-6928484D02*
X2855777Y-6928484D01*
X2855777Y-6928484D02*
X2836729Y-6938008D01*
X2836729Y-6938008D02*
X2827206Y-6947531D01*
X2827206Y-6947531D02*
X2817682Y-6966579D01*
X2817682Y-6966579D02*
X2817682Y-7014198D01*
X2817682Y-7014198D02*
X2827206Y-7033246D01*
X2827206Y-7033246D02*
X2836729Y-7042769D01*
X2836729Y-7042769D02*
X2855777Y-7052293D01*
X2855777Y-7052293D02*
X2893872Y-7052293D01*
X2893872Y-7052293D02*
X2912920Y-7042769D01*
X2912920Y-7042769D02*
X2922444Y-7033246D01*
X2922444Y-7033246D02*
X2931967Y-7014198D01*
X3046253Y-7014198D02*
X3027206Y-7004674D01*
X3027206Y-7004674D02*
X3017682Y-6995150D01*
X3017682Y-6995150D02*
X3008158Y-6976103D01*
X3008158Y-6976103D02*
X3008158Y-6966579D01*
X3008158Y-6966579D02*
X3017682Y-6947531D01*
X3017682Y-6947531D02*
X3027206Y-6938008D01*
X3027206Y-6938008D02*
X3046253Y-6928484D01*
X3046253Y-6928484D02*
X3084348Y-6928484D01*
X3084348Y-6928484D02*
X3103396Y-6938008D01*
X3103396Y-6938008D02*
X3112920Y-6947531D01*
X3112920Y-6947531D02*
X3122444Y-6966579D01*
X3122444Y-6966579D02*
X3122444Y-6976103D01*
X3122444Y-6976103D02*
X3112920Y-6995150D01*
X3112920Y-6995150D02*
X3103396Y-7004674D01*
X3103396Y-7004674D02*
X3084348Y-7014198D01*
X3084348Y-7014198D02*
X3046253Y-7014198D01*
X3046253Y-7014198D02*
X3027206Y-7023722D01*
X3027206Y-7023722D02*
X3017682Y-7033246D01*
X3017682Y-7033246D02*
X3008158Y-7052293D01*
X3008158Y-7052293D02*
X3008158Y-7090388D01*
X3008158Y-7090388D02*
X3017682Y-7109436D01*
X3017682Y-7109436D02*
X3027206Y-7118960D01*
X3027206Y-7118960D02*
X3046253Y-7128484D01*
X3046253Y-7128484D02*
X3084348Y-7128484D01*
X3084348Y-7128484D02*
X3103396Y-7118960D01*
X3103396Y-7118960D02*
X3112920Y-7109436D01*
X3112920Y-7109436D02*
X3122444Y-7090388D01*
X3122444Y-7090388D02*
X3122444Y-7052293D01*
X3122444Y-7052293D02*
X3112920Y-7033246D01*
X3112920Y-7033246D02*
X3103396Y-7023722D01*
X3103396Y-7023722D02*
X3084348Y-7014198D01*
X3198634Y-6928484D02*
X3198634Y-6966579D01*
X3274825Y-6928484D02*
X3274825Y-6966579D01*
X3570063Y-7204674D02*
X3560539Y-7195150D01*
X3560539Y-7195150D02*
X3541491Y-7166579D01*
X3541491Y-7166579D02*
X3531968Y-7147531D01*
X3531968Y-7147531D02*
X3522444Y-7118960D01*
X3522444Y-7118960D02*
X3512920Y-7071341D01*
X3512920Y-7071341D02*
X3512920Y-7033246D01*
X3512920Y-7033246D02*
X3522444Y-6985627D01*
X3522444Y-6985627D02*
X3531968Y-6957055D01*
X3531968Y-6957055D02*
X3541491Y-6938008D01*
X3541491Y-6938008D02*
X3560539Y-6909436D01*
X3560539Y-6909436D02*
X3570063Y-6899912D01*
X3636729Y-6947531D02*
X3646253Y-6938008D01*
X3646253Y-6938008D02*
X3665301Y-6928484D01*
X3665301Y-6928484D02*
X3712920Y-6928484D01*
X3712920Y-6928484D02*
X3731968Y-6938008D01*
X3731968Y-6938008D02*
X3741491Y-6947531D01*
X3741491Y-6947531D02*
X3751015Y-6966579D01*
X3751015Y-6966579D02*
X3751015Y-6985627D01*
X3751015Y-6985627D02*
X3741491Y-7014198D01*
X3741491Y-7014198D02*
X3627206Y-7128484D01*
X3627206Y-7128484D02*
X3751015Y-7128484D01*
X3989110Y-7128484D02*
X3989110Y-6928484D01*
X4074825Y-7128484D02*
X4074825Y-7023722D01*
X4074825Y-7023722D02*
X4065301Y-7004674D01*
X4065301Y-7004674D02*
X4046253Y-6995150D01*
X4046253Y-6995150D02*
X4017682Y-6995150D01*
X4017682Y-6995150D02*
X3998634Y-7004674D01*
X3998634Y-7004674D02*
X3989110Y-7014198D01*
X4198634Y-7128484D02*
X4179587Y-7118960D01*
X4179587Y-7118960D02*
X4170063Y-7109436D01*
X4170063Y-7109436D02*
X4160539Y-7090388D01*
X4160539Y-7090388D02*
X4160539Y-7033246D01*
X4160539Y-7033246D02*
X4170063Y-7014198D01*
X4170063Y-7014198D02*
X4179587Y-7004674D01*
X4179587Y-7004674D02*
X4198634Y-6995150D01*
X4198634Y-6995150D02*
X4227206Y-6995150D01*
X4227206Y-6995150D02*
X4246253Y-7004674D01*
X4246253Y-7004674D02*
X4255777Y-7014198D01*
X4255777Y-7014198D02*
X4265301Y-7033246D01*
X4265301Y-7033246D02*
X4265301Y-7090388D01*
X4265301Y-7090388D02*
X4255777Y-7109436D01*
X4255777Y-7109436D02*
X4246253Y-7118960D01*
X4246253Y-7118960D02*
X4227206Y-7128484D01*
X4227206Y-7128484D02*
X4198634Y-7128484D01*
X4379587Y-7128484D02*
X4360539Y-7118960D01*
X4360539Y-7118960D02*
X4351015Y-7099912D01*
X4351015Y-7099912D02*
X4351015Y-6928484D01*
X4531968Y-7118960D02*
X4512920Y-7128484D01*
X4512920Y-7128484D02*
X4474825Y-7128484D01*
X4474825Y-7128484D02*
X4455777Y-7118960D01*
X4455777Y-7118960D02*
X4446253Y-7099912D01*
X4446253Y-7099912D02*
X4446253Y-7023722D01*
X4446253Y-7023722D02*
X4455777Y-7004674D01*
X4455777Y-7004674D02*
X4474825Y-6995150D01*
X4474825Y-6995150D02*
X4512920Y-6995150D01*
X4512920Y-6995150D02*
X4531968Y-7004674D01*
X4531968Y-7004674D02*
X4541492Y-7023722D01*
X4541492Y-7023722D02*
X4541492Y-7042769D01*
X4541492Y-7042769D02*
X4446253Y-7061817D01*
X4617682Y-7118960D02*
X4636730Y-7128484D01*
X4636730Y-7128484D02*
X4674825Y-7128484D01*
X4674825Y-7128484D02*
X4693873Y-7118960D01*
X4693873Y-7118960D02*
X4703396Y-7099912D01*
X4703396Y-7099912D02*
X4703396Y-7090388D01*
X4703396Y-7090388D02*
X4693873Y-7071341D01*
X4693873Y-7071341D02*
X4674825Y-7061817D01*
X4674825Y-7061817D02*
X4646253Y-7061817D01*
X4646253Y-7061817D02*
X4627206Y-7052293D01*
X4627206Y-7052293D02*
X4617682Y-7033246D01*
X4617682Y-7033246D02*
X4617682Y-7023722D01*
X4617682Y-7023722D02*
X4627206Y-7004674D01*
X4627206Y-7004674D02*
X4646253Y-6995150D01*
X4646253Y-6995150D02*
X4674825Y-6995150D01*
X4674825Y-6995150D02*
X4693873Y-7004674D01*
X4770063Y-7204674D02*
X4779587Y-7195150D01*
X4779587Y-7195150D02*
X4798634Y-7166579D01*
X4798634Y-7166579D02*
X4808158Y-7147531D01*
X4808158Y-7147531D02*
X4817682Y-7118960D01*
X4817682Y-7118960D02*
X4827206Y-7071341D01*
X4827206Y-7071341D02*
X4827206Y-7033246D01*
X4827206Y-7033246D02*
X4817682Y-6985627D01*
X4817682Y-6985627D02*
X4808158Y-6957055D01*
X4808158Y-6957055D02*
X4798634Y-6938008D01*
X4798634Y-6938008D02*
X4779587Y-6909436D01*
X4779587Y-6909436D02*
X4770063Y-6899912D01*
M02*
