M48
; DRILL file {KiCad 7.0.11+dfsg-1build4} date 2026年02月12日 23時01分58秒
; FORMAT={-:-/ absolute / metric / decimal}
; #@! TF.CreationDate,2026-02-12T23:01:58+09:00
; #@! TF.GenerationSoftware,Kicad,Pcbnew,7.0.11+dfsg-1build4
; #@! TF.FileFunction,MixedPlating,1,2
FMAT,2
METRIC
; #@! TA.AperFunction,Plated,PTH,ViaDrill
T1C0.300
; #@! TA.AperFunction,Plated,PTH,ComponentDrill
T2C0.750
; #@! TA.AperFunction,Plated,PTH,ComponentDrill
T3C1.000
; #@! TA.AperFunction,Plated,PTH,ComponentDrill
T4C1.520
%
G90
G05
T1
X30.48Y-27.94
X30.48Y-27.94
X35.56Y-30.48
X35.56Y-30.48
X35.56Y-30.48
X43.18Y-53.34
X50.8Y-53.34
X58.42Y-53.34
T2
X26.45Y-69.32
X28.45Y-69.32
X30.45Y-69.32
X34.04Y-22.86
X36.04Y-22.86
X38.04Y-22.86
X40.04Y-22.86
X40.45Y-69.32
X42.45Y-69.32
X44.45Y-69.32
X47.04Y-22.86
X49.04Y-22.86
X51.04Y-22.86
X53.04Y-22.86
X54.45Y-69.32
X56.45Y-69.32
X58.45Y-69.32
X62.04Y-22.86
X64.04Y-22.86
X66.04Y-22.86
T3
X24.19Y-39.43
X24.19Y-57.21
X26.73Y-39.43
X26.73Y-57.21
X29.27Y-39.43
X29.27Y-57.21
X31.81Y-39.43
X31.81Y-57.21
X34.35Y-39.43
X34.35Y-57.21
X36.89Y-39.43
X36.89Y-57.21
X39.43Y-39.43
X39.43Y-57.21
X41.97Y-39.43
X41.97Y-57.21
X44.51Y-39.43
X44.51Y-57.21
X47.05Y-39.43
X47.05Y-57.21
X49.59Y-39.43
X49.59Y-57.21
X52.13Y-39.43
X52.13Y-57.21
X54.67Y-39.43
X54.67Y-57.21
X57.21Y-39.43
X57.21Y-57.21
X59.75Y-39.43
X59.75Y-57.21
X62.29Y-39.43
X62.29Y-57.21
X64.83Y-39.43
X64.83Y-57.21
X67.37Y-39.43
X67.37Y-57.21
X69.91Y-39.43
X69.91Y-57.21
X72.45Y-39.43
X72.45Y-57.21
T4
X66.45Y-69.32
X71.53Y-69.32
M30
