%TF.GenerationSoftware,KiCad,Pcbnew,7.0.11+dfsg-1build4*%
%TF.CreationDate,2026-02-12T23:01:58+09:00*%
%TF.ProjectId,grove_shield_v3,67726f76-655f-4736-9869-656c645f7633,rev?*%
%TF.SameCoordinates,Original*%
%TF.FileFunction,Other,User*%
%FSLAX46Y46*%
G04 Gerber Fmt 4.6, Leading zero omitted, Abs format (unit mm)*
G04 Created by KiCad (PCBNEW 7.0.11+dfsg-1build4) date 2026-02-12 23:01:58*
%MOMM*%
%LPD*%
G01*
G04 APERTURE LIST*
%ADD10C,0.050000*%
G04 APERTURE END LIST*
D10*
%TO.C,C3*%
X56620000Y-47340000D02*
X60020000Y-47340000D01*
X56620000Y-49300000D02*
X56620000Y-47340000D01*
X60020000Y-47340000D02*
X60020000Y-49300000D01*
X60020000Y-49300000D02*
X56620000Y-49300000D01*
%TO.C,J4*%
X44590000Y-20660000D02*
X44590000Y-26160000D01*
X44590000Y-26160000D02*
X55490000Y-26160000D01*
X55490000Y-20660000D02*
X44590000Y-20660000D01*
X55490000Y-26160000D02*
X55490000Y-20660000D01*
%TO.C,R1*%
X35640000Y-44370000D02*
X39000000Y-44370000D01*
X35640000Y-46270000D02*
X35640000Y-44370000D01*
X39000000Y-44370000D02*
X39000000Y-46270000D01*
X39000000Y-46270000D02*
X35640000Y-46270000D01*
%TO.C,J3*%
X31590000Y-20660000D02*
X31590000Y-26160000D01*
X31590000Y-26160000D02*
X42490000Y-26160000D01*
X42490000Y-20660000D02*
X31590000Y-20660000D01*
X42490000Y-26160000D02*
X42490000Y-20660000D01*
%TO.C,R7*%
X60640000Y-50370000D02*
X64000000Y-50370000D01*
X60640000Y-52270000D02*
X60640000Y-50370000D01*
X64000000Y-50370000D02*
X64000000Y-52270000D01*
X64000000Y-52270000D02*
X60640000Y-52270000D01*
%TO.C,R6*%
X60640000Y-44370000D02*
X64000000Y-44370000D01*
X60640000Y-46270000D02*
X60640000Y-44370000D01*
X64000000Y-44370000D02*
X64000000Y-46270000D01*
X64000000Y-46270000D02*
X60640000Y-46270000D01*
%TO.C,R5*%
X30640000Y-47370000D02*
X34000000Y-47370000D01*
X30640000Y-49270000D02*
X30640000Y-47370000D01*
X34000000Y-47370000D02*
X34000000Y-49270000D01*
X34000000Y-49270000D02*
X30640000Y-49270000D01*
%TO.C,R4*%
X45640000Y-50370000D02*
X49000000Y-50370000D01*
X45640000Y-52270000D02*
X45640000Y-50370000D01*
X49000000Y-50370000D02*
X49000000Y-52270000D01*
X49000000Y-52270000D02*
X45640000Y-52270000D01*
%TO.C,J1*%
X22390000Y-41230000D02*
X22390000Y-37680000D01*
X74190000Y-41230000D02*
X22390000Y-41230000D01*
X22390000Y-37680000D02*
X74190000Y-37680000D01*
X74190000Y-37680000D02*
X74190000Y-41230000D01*
%TO.C,R3*%
X42640000Y-44370000D02*
X46000000Y-44370000D01*
X42640000Y-46270000D02*
X42640000Y-44370000D01*
X46000000Y-44370000D02*
X46000000Y-46270000D01*
X46000000Y-46270000D02*
X42640000Y-46270000D01*
%TO.C,Q1*%
X66400000Y-46620000D02*
X66400000Y-50020000D01*
X66400000Y-50020000D02*
X70240000Y-50020000D01*
X70240000Y-46620000D02*
X66400000Y-46620000D01*
X70240000Y-50020000D02*
X70240000Y-46620000D01*
%TO.C,J9*%
X63740000Y-65320000D02*
X63740000Y-73320000D01*
X63740000Y-65320000D02*
X74240000Y-65320000D01*
X74240000Y-73320000D02*
X63740000Y-73320000D01*
X74240000Y-73320000D02*
X74240000Y-65320000D01*
%TO.C,J7*%
X52000000Y-67120000D02*
X52000000Y-72620000D01*
X52000000Y-72620000D02*
X60900000Y-72620000D01*
X60900000Y-67120000D02*
X52000000Y-67120000D01*
X60900000Y-72620000D02*
X60900000Y-67120000D01*
%TO.C,R2*%
X37640000Y-50370000D02*
X41000000Y-50370000D01*
X37640000Y-52270000D02*
X37640000Y-50370000D01*
X41000000Y-50370000D02*
X41000000Y-52270000D01*
X41000000Y-52270000D02*
X37640000Y-52270000D01*
%TO.C,J2*%
X22390000Y-59010000D02*
X22390000Y-55460000D01*
X74190000Y-59010000D02*
X22390000Y-59010000D01*
X22390000Y-55460000D02*
X74190000Y-55460000D01*
X74190000Y-55460000D02*
X74190000Y-59010000D01*
%TO.C,J8*%
X59590000Y-20660000D02*
X59590000Y-26160000D01*
X59590000Y-26160000D02*
X68490000Y-26160000D01*
X68490000Y-20660000D02*
X59590000Y-20660000D01*
X68490000Y-26160000D02*
X68490000Y-20660000D01*
%TO.C,C1*%
X50620000Y-34580000D02*
X54020000Y-34580000D01*
X50620000Y-36540000D02*
X50620000Y-34580000D01*
X54020000Y-34580000D02*
X54020000Y-36540000D01*
X54020000Y-36540000D02*
X50620000Y-36540000D01*
%TO.C,C2*%
X50620000Y-50340000D02*
X54020000Y-50340000D01*
X50620000Y-52300000D02*
X50620000Y-50340000D01*
X54020000Y-50340000D02*
X54020000Y-52300000D01*
X54020000Y-52300000D02*
X50620000Y-52300000D01*
%TO.C,J6*%
X38000000Y-67120000D02*
X38000000Y-72620000D01*
X38000000Y-72620000D02*
X46900000Y-72620000D01*
X46900000Y-67120000D02*
X38000000Y-67120000D01*
X46900000Y-72620000D02*
X46900000Y-67120000D01*
%TO.C,D1*%
X65970000Y-52170000D02*
X65970000Y-54470000D01*
X65970000Y-52170000D02*
X70670000Y-52170000D01*
X70670000Y-52170000D02*
X70670000Y-54470000D01*
X70670000Y-54470000D02*
X65970000Y-54470000D01*
%TO.C,J5*%
X24000000Y-67120000D02*
X24000000Y-72620000D01*
X24000000Y-72620000D02*
X32900000Y-72620000D01*
X32900000Y-67120000D02*
X24000000Y-67120000D01*
X32900000Y-72620000D02*
X32900000Y-67120000D01*
%TD*%
M02*
