%TF.GenerationSoftware,KiCad,Pcbnew,7.0.11+dfsg-1build4*%
%TF.CreationDate,2026-02-12T23:01:58+09:00*%
%TF.ProjectId,grove_shield_v3,67726f76-655f-4736-9869-656c645f7633,rev?*%
%TF.SameCoordinates,Original*%
%TF.FileFunction,Legend,Top*%
%TF.FilePolarity,Positive*%
%FSLAX46Y46*%
G04 Gerber Fmt 4.6, Leading zero omitted, Abs format (unit mm)*
G04 Created by KiCad (PCBNEW 7.0.11+dfsg-1build4) date 2026-02-12 23:01:58*
%MOMM*%
%LPD*%
G01*
G04 APERTURE LIST*
%ADD10C,0.150000*%
%ADD11C,0.120000*%
G04 APERTURE END LIST*
D10*
X58153333Y-46999580D02*
X58105714Y-47047200D01*
X58105714Y-47047200D02*
X57962857Y-47094819D01*
X57962857Y-47094819D02*
X57867619Y-47094819D01*
X57867619Y-47094819D02*
X57724762Y-47047200D01*
X57724762Y-47047200D02*
X57629524Y-46951961D01*
X57629524Y-46951961D02*
X57581905Y-46856723D01*
X57581905Y-46856723D02*
X57534286Y-46666247D01*
X57534286Y-46666247D02*
X57534286Y-46523390D01*
X57534286Y-46523390D02*
X57581905Y-46332914D01*
X57581905Y-46332914D02*
X57629524Y-46237676D01*
X57629524Y-46237676D02*
X57724762Y-46142438D01*
X57724762Y-46142438D02*
X57867619Y-46094819D01*
X57867619Y-46094819D02*
X57962857Y-46094819D01*
X57962857Y-46094819D02*
X58105714Y-46142438D01*
X58105714Y-46142438D02*
X58153333Y-46190057D01*
X58486667Y-46094819D02*
X59105714Y-46094819D01*
X59105714Y-46094819D02*
X58772381Y-46475771D01*
X58772381Y-46475771D02*
X58915238Y-46475771D01*
X58915238Y-46475771D02*
X59010476Y-46523390D01*
X59010476Y-46523390D02*
X59058095Y-46571009D01*
X59058095Y-46571009D02*
X59105714Y-46666247D01*
X59105714Y-46666247D02*
X59105714Y-46904342D01*
X59105714Y-46904342D02*
X59058095Y-46999580D01*
X59058095Y-46999580D02*
X59010476Y-47047200D01*
X59010476Y-47047200D02*
X58915238Y-47094819D01*
X58915238Y-47094819D02*
X58629524Y-47094819D01*
X58629524Y-47094819D02*
X58534286Y-47047200D01*
X58534286Y-47047200D02*
X58486667Y-46999580D01*
X49706666Y-19414819D02*
X49706666Y-20129104D01*
X49706666Y-20129104D02*
X49659047Y-20271961D01*
X49659047Y-20271961D02*
X49563809Y-20367200D01*
X49563809Y-20367200D02*
X49420952Y-20414819D01*
X49420952Y-20414819D02*
X49325714Y-20414819D01*
X50611428Y-19748152D02*
X50611428Y-20414819D01*
X50373333Y-19367200D02*
X50135238Y-20081485D01*
X50135238Y-20081485D02*
X50754285Y-20081485D01*
X37153333Y-44124819D02*
X36820000Y-43648628D01*
X36581905Y-44124819D02*
X36581905Y-43124819D01*
X36581905Y-43124819D02*
X36962857Y-43124819D01*
X36962857Y-43124819D02*
X37058095Y-43172438D01*
X37058095Y-43172438D02*
X37105714Y-43220057D01*
X37105714Y-43220057D02*
X37153333Y-43315295D01*
X37153333Y-43315295D02*
X37153333Y-43458152D01*
X37153333Y-43458152D02*
X37105714Y-43553390D01*
X37105714Y-43553390D02*
X37058095Y-43601009D01*
X37058095Y-43601009D02*
X36962857Y-43648628D01*
X36962857Y-43648628D02*
X36581905Y-43648628D01*
X38105714Y-44124819D02*
X37534286Y-44124819D01*
X37820000Y-44124819D02*
X37820000Y-43124819D01*
X37820000Y-43124819D02*
X37724762Y-43267676D01*
X37724762Y-43267676D02*
X37629524Y-43362914D01*
X37629524Y-43362914D02*
X37534286Y-43410533D01*
X36706666Y-19414819D02*
X36706666Y-20129104D01*
X36706666Y-20129104D02*
X36659047Y-20271961D01*
X36659047Y-20271961D02*
X36563809Y-20367200D01*
X36563809Y-20367200D02*
X36420952Y-20414819D01*
X36420952Y-20414819D02*
X36325714Y-20414819D01*
X37087619Y-19414819D02*
X37706666Y-19414819D01*
X37706666Y-19414819D02*
X37373333Y-19795771D01*
X37373333Y-19795771D02*
X37516190Y-19795771D01*
X37516190Y-19795771D02*
X37611428Y-19843390D01*
X37611428Y-19843390D02*
X37659047Y-19891009D01*
X37659047Y-19891009D02*
X37706666Y-19986247D01*
X37706666Y-19986247D02*
X37706666Y-20224342D01*
X37706666Y-20224342D02*
X37659047Y-20319580D01*
X37659047Y-20319580D02*
X37611428Y-20367200D01*
X37611428Y-20367200D02*
X37516190Y-20414819D01*
X37516190Y-20414819D02*
X37230476Y-20414819D01*
X37230476Y-20414819D02*
X37135238Y-20367200D01*
X37135238Y-20367200D02*
X37087619Y-20319580D01*
X62153333Y-50124819D02*
X61820000Y-49648628D01*
X61581905Y-50124819D02*
X61581905Y-49124819D01*
X61581905Y-49124819D02*
X61962857Y-49124819D01*
X61962857Y-49124819D02*
X62058095Y-49172438D01*
X62058095Y-49172438D02*
X62105714Y-49220057D01*
X62105714Y-49220057D02*
X62153333Y-49315295D01*
X62153333Y-49315295D02*
X62153333Y-49458152D01*
X62153333Y-49458152D02*
X62105714Y-49553390D01*
X62105714Y-49553390D02*
X62058095Y-49601009D01*
X62058095Y-49601009D02*
X61962857Y-49648628D01*
X61962857Y-49648628D02*
X61581905Y-49648628D01*
X62486667Y-49124819D02*
X63153333Y-49124819D01*
X63153333Y-49124819D02*
X62724762Y-50124819D01*
X62153333Y-44124819D02*
X61820000Y-43648628D01*
X61581905Y-44124819D02*
X61581905Y-43124819D01*
X61581905Y-43124819D02*
X61962857Y-43124819D01*
X61962857Y-43124819D02*
X62058095Y-43172438D01*
X62058095Y-43172438D02*
X62105714Y-43220057D01*
X62105714Y-43220057D02*
X62153333Y-43315295D01*
X62153333Y-43315295D02*
X62153333Y-43458152D01*
X62153333Y-43458152D02*
X62105714Y-43553390D01*
X62105714Y-43553390D02*
X62058095Y-43601009D01*
X62058095Y-43601009D02*
X61962857Y-43648628D01*
X61962857Y-43648628D02*
X61581905Y-43648628D01*
X63010476Y-43124819D02*
X62820000Y-43124819D01*
X62820000Y-43124819D02*
X62724762Y-43172438D01*
X62724762Y-43172438D02*
X62677143Y-43220057D01*
X62677143Y-43220057D02*
X62581905Y-43362914D01*
X62581905Y-43362914D02*
X62534286Y-43553390D01*
X62534286Y-43553390D02*
X62534286Y-43934342D01*
X62534286Y-43934342D02*
X62581905Y-44029580D01*
X62581905Y-44029580D02*
X62629524Y-44077200D01*
X62629524Y-44077200D02*
X62724762Y-44124819D01*
X62724762Y-44124819D02*
X62915238Y-44124819D01*
X62915238Y-44124819D02*
X63010476Y-44077200D01*
X63010476Y-44077200D02*
X63058095Y-44029580D01*
X63058095Y-44029580D02*
X63105714Y-43934342D01*
X63105714Y-43934342D02*
X63105714Y-43696247D01*
X63105714Y-43696247D02*
X63058095Y-43601009D01*
X63058095Y-43601009D02*
X63010476Y-43553390D01*
X63010476Y-43553390D02*
X62915238Y-43505771D01*
X62915238Y-43505771D02*
X62724762Y-43505771D01*
X62724762Y-43505771D02*
X62629524Y-43553390D01*
X62629524Y-43553390D02*
X62581905Y-43601009D01*
X62581905Y-43601009D02*
X62534286Y-43696247D01*
X32153333Y-47124819D02*
X31820000Y-46648628D01*
X31581905Y-47124819D02*
X31581905Y-46124819D01*
X31581905Y-46124819D02*
X31962857Y-46124819D01*
X31962857Y-46124819D02*
X32058095Y-46172438D01*
X32058095Y-46172438D02*
X32105714Y-46220057D01*
X32105714Y-46220057D02*
X32153333Y-46315295D01*
X32153333Y-46315295D02*
X32153333Y-46458152D01*
X32153333Y-46458152D02*
X32105714Y-46553390D01*
X32105714Y-46553390D02*
X32058095Y-46601009D01*
X32058095Y-46601009D02*
X31962857Y-46648628D01*
X31962857Y-46648628D02*
X31581905Y-46648628D01*
X33058095Y-46124819D02*
X32581905Y-46124819D01*
X32581905Y-46124819D02*
X32534286Y-46601009D01*
X32534286Y-46601009D02*
X32581905Y-46553390D01*
X32581905Y-46553390D02*
X32677143Y-46505771D01*
X32677143Y-46505771D02*
X32915238Y-46505771D01*
X32915238Y-46505771D02*
X33010476Y-46553390D01*
X33010476Y-46553390D02*
X33058095Y-46601009D01*
X33058095Y-46601009D02*
X33105714Y-46696247D01*
X33105714Y-46696247D02*
X33105714Y-46934342D01*
X33105714Y-46934342D02*
X33058095Y-47029580D01*
X33058095Y-47029580D02*
X33010476Y-47077200D01*
X33010476Y-47077200D02*
X32915238Y-47124819D01*
X32915238Y-47124819D02*
X32677143Y-47124819D01*
X32677143Y-47124819D02*
X32581905Y-47077200D01*
X32581905Y-47077200D02*
X32534286Y-47029580D01*
X47153333Y-50124819D02*
X46820000Y-49648628D01*
X46581905Y-50124819D02*
X46581905Y-49124819D01*
X46581905Y-49124819D02*
X46962857Y-49124819D01*
X46962857Y-49124819D02*
X47058095Y-49172438D01*
X47058095Y-49172438D02*
X47105714Y-49220057D01*
X47105714Y-49220057D02*
X47153333Y-49315295D01*
X47153333Y-49315295D02*
X47153333Y-49458152D01*
X47153333Y-49458152D02*
X47105714Y-49553390D01*
X47105714Y-49553390D02*
X47058095Y-49601009D01*
X47058095Y-49601009D02*
X46962857Y-49648628D01*
X46962857Y-49648628D02*
X46581905Y-49648628D01*
X48010476Y-49458152D02*
X48010476Y-50124819D01*
X47772381Y-49077200D02*
X47534286Y-49791485D01*
X47534286Y-49791485D02*
X48153333Y-49791485D01*
X20874819Y-39763333D02*
X21589104Y-39763333D01*
X21589104Y-39763333D02*
X21731961Y-39810952D01*
X21731961Y-39810952D02*
X21827200Y-39906190D01*
X21827200Y-39906190D02*
X21874819Y-40049047D01*
X21874819Y-40049047D02*
X21874819Y-40144285D01*
X21874819Y-38763333D02*
X21874819Y-39334761D01*
X21874819Y-39049047D02*
X20874819Y-39049047D01*
X20874819Y-39049047D02*
X21017676Y-39144285D01*
X21017676Y-39144285D02*
X21112914Y-39239523D01*
X21112914Y-39239523D02*
X21160533Y-39334761D01*
X44153333Y-44124819D02*
X43820000Y-43648628D01*
X43581905Y-44124819D02*
X43581905Y-43124819D01*
X43581905Y-43124819D02*
X43962857Y-43124819D01*
X43962857Y-43124819D02*
X44058095Y-43172438D01*
X44058095Y-43172438D02*
X44105714Y-43220057D01*
X44105714Y-43220057D02*
X44153333Y-43315295D01*
X44153333Y-43315295D02*
X44153333Y-43458152D01*
X44153333Y-43458152D02*
X44105714Y-43553390D01*
X44105714Y-43553390D02*
X44058095Y-43601009D01*
X44058095Y-43601009D02*
X43962857Y-43648628D01*
X43962857Y-43648628D02*
X43581905Y-43648628D01*
X44486667Y-43124819D02*
X45105714Y-43124819D01*
X45105714Y-43124819D02*
X44772381Y-43505771D01*
X44772381Y-43505771D02*
X44915238Y-43505771D01*
X44915238Y-43505771D02*
X45010476Y-43553390D01*
X45010476Y-43553390D02*
X45058095Y-43601009D01*
X45058095Y-43601009D02*
X45105714Y-43696247D01*
X45105714Y-43696247D02*
X45105714Y-43934342D01*
X45105714Y-43934342D02*
X45058095Y-44029580D01*
X45058095Y-44029580D02*
X45010476Y-44077200D01*
X45010476Y-44077200D02*
X44915238Y-44124819D01*
X44915238Y-44124819D02*
X44629524Y-44124819D01*
X44629524Y-44124819D02*
X44534286Y-44077200D01*
X44534286Y-44077200D02*
X44486667Y-44029580D01*
X68224761Y-46470057D02*
X68129523Y-46422438D01*
X68129523Y-46422438D02*
X68034285Y-46327200D01*
X68034285Y-46327200D02*
X67891428Y-46184342D01*
X67891428Y-46184342D02*
X67796190Y-46136723D01*
X67796190Y-46136723D02*
X67700952Y-46136723D01*
X67748571Y-46374819D02*
X67653333Y-46327200D01*
X67653333Y-46327200D02*
X67558095Y-46231961D01*
X67558095Y-46231961D02*
X67510476Y-46041485D01*
X67510476Y-46041485D02*
X67510476Y-45708152D01*
X67510476Y-45708152D02*
X67558095Y-45517676D01*
X67558095Y-45517676D02*
X67653333Y-45422438D01*
X67653333Y-45422438D02*
X67748571Y-45374819D01*
X67748571Y-45374819D02*
X67939047Y-45374819D01*
X67939047Y-45374819D02*
X68034285Y-45422438D01*
X68034285Y-45422438D02*
X68129523Y-45517676D01*
X68129523Y-45517676D02*
X68177142Y-45708152D01*
X68177142Y-45708152D02*
X68177142Y-46041485D01*
X68177142Y-46041485D02*
X68129523Y-46231961D01*
X68129523Y-46231961D02*
X68034285Y-46327200D01*
X68034285Y-46327200D02*
X67939047Y-46374819D01*
X67939047Y-46374819D02*
X67748571Y-46374819D01*
X69129523Y-46374819D02*
X68558095Y-46374819D01*
X68843809Y-46374819D02*
X68843809Y-45374819D01*
X68843809Y-45374819D02*
X68748571Y-45517676D01*
X68748571Y-45517676D02*
X68653333Y-45612914D01*
X68653333Y-45612914D02*
X68558095Y-45660533D01*
X68656666Y-63694819D02*
X68656666Y-64409104D01*
X68656666Y-64409104D02*
X68609047Y-64551961D01*
X68609047Y-64551961D02*
X68513809Y-64647200D01*
X68513809Y-64647200D02*
X68370952Y-64694819D01*
X68370952Y-64694819D02*
X68275714Y-64694819D01*
X69180476Y-64694819D02*
X69370952Y-64694819D01*
X69370952Y-64694819D02*
X69466190Y-64647200D01*
X69466190Y-64647200D02*
X69513809Y-64599580D01*
X69513809Y-64599580D02*
X69609047Y-64456723D01*
X69609047Y-64456723D02*
X69656666Y-64266247D01*
X69656666Y-64266247D02*
X69656666Y-63885295D01*
X69656666Y-63885295D02*
X69609047Y-63790057D01*
X69609047Y-63790057D02*
X69561428Y-63742438D01*
X69561428Y-63742438D02*
X69466190Y-63694819D01*
X69466190Y-63694819D02*
X69275714Y-63694819D01*
X69275714Y-63694819D02*
X69180476Y-63742438D01*
X69180476Y-63742438D02*
X69132857Y-63790057D01*
X69132857Y-63790057D02*
X69085238Y-63885295D01*
X69085238Y-63885295D02*
X69085238Y-64123390D01*
X69085238Y-64123390D02*
X69132857Y-64218628D01*
X69132857Y-64218628D02*
X69180476Y-64266247D01*
X69180476Y-64266247D02*
X69275714Y-64313866D01*
X69275714Y-64313866D02*
X69466190Y-64313866D01*
X69466190Y-64313866D02*
X69561428Y-64266247D01*
X69561428Y-64266247D02*
X69609047Y-64218628D01*
X69609047Y-64218628D02*
X69656666Y-64123390D01*
X56116666Y-65874819D02*
X56116666Y-66589104D01*
X56116666Y-66589104D02*
X56069047Y-66731961D01*
X56069047Y-66731961D02*
X55973809Y-66827200D01*
X55973809Y-66827200D02*
X55830952Y-66874819D01*
X55830952Y-66874819D02*
X55735714Y-66874819D01*
X56497619Y-65874819D02*
X57164285Y-65874819D01*
X57164285Y-65874819D02*
X56735714Y-66874819D01*
X39153333Y-50124819D02*
X38820000Y-49648628D01*
X38581905Y-50124819D02*
X38581905Y-49124819D01*
X38581905Y-49124819D02*
X38962857Y-49124819D01*
X38962857Y-49124819D02*
X39058095Y-49172438D01*
X39058095Y-49172438D02*
X39105714Y-49220057D01*
X39105714Y-49220057D02*
X39153333Y-49315295D01*
X39153333Y-49315295D02*
X39153333Y-49458152D01*
X39153333Y-49458152D02*
X39105714Y-49553390D01*
X39105714Y-49553390D02*
X39058095Y-49601009D01*
X39058095Y-49601009D02*
X38962857Y-49648628D01*
X38962857Y-49648628D02*
X38581905Y-49648628D01*
X39534286Y-49220057D02*
X39581905Y-49172438D01*
X39581905Y-49172438D02*
X39677143Y-49124819D01*
X39677143Y-49124819D02*
X39915238Y-49124819D01*
X39915238Y-49124819D02*
X40010476Y-49172438D01*
X40010476Y-49172438D02*
X40058095Y-49220057D01*
X40058095Y-49220057D02*
X40105714Y-49315295D01*
X40105714Y-49315295D02*
X40105714Y-49410533D01*
X40105714Y-49410533D02*
X40058095Y-49553390D01*
X40058095Y-49553390D02*
X39486667Y-50124819D01*
X39486667Y-50124819D02*
X40105714Y-50124819D01*
X20874819Y-57543333D02*
X21589104Y-57543333D01*
X21589104Y-57543333D02*
X21731961Y-57590952D01*
X21731961Y-57590952D02*
X21827200Y-57686190D01*
X21827200Y-57686190D02*
X21874819Y-57829047D01*
X21874819Y-57829047D02*
X21874819Y-57924285D01*
X20970057Y-57114761D02*
X20922438Y-57067142D01*
X20922438Y-57067142D02*
X20874819Y-56971904D01*
X20874819Y-56971904D02*
X20874819Y-56733809D01*
X20874819Y-56733809D02*
X20922438Y-56638571D01*
X20922438Y-56638571D02*
X20970057Y-56590952D01*
X20970057Y-56590952D02*
X21065295Y-56543333D01*
X21065295Y-56543333D02*
X21160533Y-56543333D01*
X21160533Y-56543333D02*
X21303390Y-56590952D01*
X21303390Y-56590952D02*
X21874819Y-57162380D01*
X21874819Y-57162380D02*
X21874819Y-56543333D01*
X63706666Y-19414819D02*
X63706666Y-20129104D01*
X63706666Y-20129104D02*
X63659047Y-20271961D01*
X63659047Y-20271961D02*
X63563809Y-20367200D01*
X63563809Y-20367200D02*
X63420952Y-20414819D01*
X63420952Y-20414819D02*
X63325714Y-20414819D01*
X64325714Y-19843390D02*
X64230476Y-19795771D01*
X64230476Y-19795771D02*
X64182857Y-19748152D01*
X64182857Y-19748152D02*
X64135238Y-19652914D01*
X64135238Y-19652914D02*
X64135238Y-19605295D01*
X64135238Y-19605295D02*
X64182857Y-19510057D01*
X64182857Y-19510057D02*
X64230476Y-19462438D01*
X64230476Y-19462438D02*
X64325714Y-19414819D01*
X64325714Y-19414819D02*
X64516190Y-19414819D01*
X64516190Y-19414819D02*
X64611428Y-19462438D01*
X64611428Y-19462438D02*
X64659047Y-19510057D01*
X64659047Y-19510057D02*
X64706666Y-19605295D01*
X64706666Y-19605295D02*
X64706666Y-19652914D01*
X64706666Y-19652914D02*
X64659047Y-19748152D01*
X64659047Y-19748152D02*
X64611428Y-19795771D01*
X64611428Y-19795771D02*
X64516190Y-19843390D01*
X64516190Y-19843390D02*
X64325714Y-19843390D01*
X64325714Y-19843390D02*
X64230476Y-19891009D01*
X64230476Y-19891009D02*
X64182857Y-19938628D01*
X64182857Y-19938628D02*
X64135238Y-20033866D01*
X64135238Y-20033866D02*
X64135238Y-20224342D01*
X64135238Y-20224342D02*
X64182857Y-20319580D01*
X64182857Y-20319580D02*
X64230476Y-20367200D01*
X64230476Y-20367200D02*
X64325714Y-20414819D01*
X64325714Y-20414819D02*
X64516190Y-20414819D01*
X64516190Y-20414819D02*
X64611428Y-20367200D01*
X64611428Y-20367200D02*
X64659047Y-20319580D01*
X64659047Y-20319580D02*
X64706666Y-20224342D01*
X64706666Y-20224342D02*
X64706666Y-20033866D01*
X64706666Y-20033866D02*
X64659047Y-19938628D01*
X64659047Y-19938628D02*
X64611428Y-19891009D01*
X64611428Y-19891009D02*
X64516190Y-19843390D01*
X52153333Y-34239580D02*
X52105714Y-34287200D01*
X52105714Y-34287200D02*
X51962857Y-34334819D01*
X51962857Y-34334819D02*
X51867619Y-34334819D01*
X51867619Y-34334819D02*
X51724762Y-34287200D01*
X51724762Y-34287200D02*
X51629524Y-34191961D01*
X51629524Y-34191961D02*
X51581905Y-34096723D01*
X51581905Y-34096723D02*
X51534286Y-33906247D01*
X51534286Y-33906247D02*
X51534286Y-33763390D01*
X51534286Y-33763390D02*
X51581905Y-33572914D01*
X51581905Y-33572914D02*
X51629524Y-33477676D01*
X51629524Y-33477676D02*
X51724762Y-33382438D01*
X51724762Y-33382438D02*
X51867619Y-33334819D01*
X51867619Y-33334819D02*
X51962857Y-33334819D01*
X51962857Y-33334819D02*
X52105714Y-33382438D01*
X52105714Y-33382438D02*
X52153333Y-33430057D01*
X53105714Y-34334819D02*
X52534286Y-34334819D01*
X52820000Y-34334819D02*
X52820000Y-33334819D01*
X52820000Y-33334819D02*
X52724762Y-33477676D01*
X52724762Y-33477676D02*
X52629524Y-33572914D01*
X52629524Y-33572914D02*
X52534286Y-33620533D01*
X52153333Y-49999580D02*
X52105714Y-50047200D01*
X52105714Y-50047200D02*
X51962857Y-50094819D01*
X51962857Y-50094819D02*
X51867619Y-50094819D01*
X51867619Y-50094819D02*
X51724762Y-50047200D01*
X51724762Y-50047200D02*
X51629524Y-49951961D01*
X51629524Y-49951961D02*
X51581905Y-49856723D01*
X51581905Y-49856723D02*
X51534286Y-49666247D01*
X51534286Y-49666247D02*
X51534286Y-49523390D01*
X51534286Y-49523390D02*
X51581905Y-49332914D01*
X51581905Y-49332914D02*
X51629524Y-49237676D01*
X51629524Y-49237676D02*
X51724762Y-49142438D01*
X51724762Y-49142438D02*
X51867619Y-49094819D01*
X51867619Y-49094819D02*
X51962857Y-49094819D01*
X51962857Y-49094819D02*
X52105714Y-49142438D01*
X52105714Y-49142438D02*
X52153333Y-49190057D01*
X52534286Y-49190057D02*
X52581905Y-49142438D01*
X52581905Y-49142438D02*
X52677143Y-49094819D01*
X52677143Y-49094819D02*
X52915238Y-49094819D01*
X52915238Y-49094819D02*
X53010476Y-49142438D01*
X53010476Y-49142438D02*
X53058095Y-49190057D01*
X53058095Y-49190057D02*
X53105714Y-49285295D01*
X53105714Y-49285295D02*
X53105714Y-49380533D01*
X53105714Y-49380533D02*
X53058095Y-49523390D01*
X53058095Y-49523390D02*
X52486667Y-50094819D01*
X52486667Y-50094819D02*
X53105714Y-50094819D01*
X42116666Y-65874819D02*
X42116666Y-66589104D01*
X42116666Y-66589104D02*
X42069047Y-66731961D01*
X42069047Y-66731961D02*
X41973809Y-66827200D01*
X41973809Y-66827200D02*
X41830952Y-66874819D01*
X41830952Y-66874819D02*
X41735714Y-66874819D01*
X43021428Y-65874819D02*
X42830952Y-65874819D01*
X42830952Y-65874819D02*
X42735714Y-65922438D01*
X42735714Y-65922438D02*
X42688095Y-65970057D01*
X42688095Y-65970057D02*
X42592857Y-66112914D01*
X42592857Y-66112914D02*
X42545238Y-66303390D01*
X42545238Y-66303390D02*
X42545238Y-66684342D01*
X42545238Y-66684342D02*
X42592857Y-66779580D01*
X42592857Y-66779580D02*
X42640476Y-66827200D01*
X42640476Y-66827200D02*
X42735714Y-66874819D01*
X42735714Y-66874819D02*
X42926190Y-66874819D01*
X42926190Y-66874819D02*
X43021428Y-66827200D01*
X43021428Y-66827200D02*
X43069047Y-66779580D01*
X43069047Y-66779580D02*
X43116666Y-66684342D01*
X43116666Y-66684342D02*
X43116666Y-66446247D01*
X43116666Y-66446247D02*
X43069047Y-66351009D01*
X43069047Y-66351009D02*
X43021428Y-66303390D01*
X43021428Y-66303390D02*
X42926190Y-66255771D01*
X42926190Y-66255771D02*
X42735714Y-66255771D01*
X42735714Y-66255771D02*
X42640476Y-66303390D01*
X42640476Y-66303390D02*
X42592857Y-66351009D01*
X42592857Y-66351009D02*
X42545238Y-66446247D01*
X67581905Y-51774819D02*
X67581905Y-50774819D01*
X67581905Y-50774819D02*
X67820000Y-50774819D01*
X67820000Y-50774819D02*
X67962857Y-50822438D01*
X67962857Y-50822438D02*
X68058095Y-50917676D01*
X68058095Y-50917676D02*
X68105714Y-51012914D01*
X68105714Y-51012914D02*
X68153333Y-51203390D01*
X68153333Y-51203390D02*
X68153333Y-51346247D01*
X68153333Y-51346247D02*
X68105714Y-51536723D01*
X68105714Y-51536723D02*
X68058095Y-51631961D01*
X68058095Y-51631961D02*
X67962857Y-51727200D01*
X67962857Y-51727200D02*
X67820000Y-51774819D01*
X67820000Y-51774819D02*
X67581905Y-51774819D01*
X69105714Y-51774819D02*
X68534286Y-51774819D01*
X68820000Y-51774819D02*
X68820000Y-50774819D01*
X68820000Y-50774819D02*
X68724762Y-50917676D01*
X68724762Y-50917676D02*
X68629524Y-51012914D01*
X68629524Y-51012914D02*
X68534286Y-51060533D01*
X28116666Y-65874819D02*
X28116666Y-66589104D01*
X28116666Y-66589104D02*
X28069047Y-66731961D01*
X28069047Y-66731961D02*
X27973809Y-66827200D01*
X27973809Y-66827200D02*
X27830952Y-66874819D01*
X27830952Y-66874819D02*
X27735714Y-66874819D01*
X29069047Y-65874819D02*
X28592857Y-65874819D01*
X28592857Y-65874819D02*
X28545238Y-66351009D01*
X28545238Y-66351009D02*
X28592857Y-66303390D01*
X28592857Y-66303390D02*
X28688095Y-66255771D01*
X28688095Y-66255771D02*
X28926190Y-66255771D01*
X28926190Y-66255771D02*
X29021428Y-66303390D01*
X29021428Y-66303390D02*
X29069047Y-66351009D01*
X29069047Y-66351009D02*
X29116666Y-66446247D01*
X29116666Y-66446247D02*
X29116666Y-66684342D01*
X29116666Y-66684342D02*
X29069047Y-66779580D01*
X29069047Y-66779580D02*
X29021428Y-66827200D01*
X29021428Y-66827200D02*
X28926190Y-66874819D01*
X28926190Y-66874819D02*
X28688095Y-66874819D01*
X28688095Y-66874819D02*
X28592857Y-66827200D01*
X28592857Y-66827200D02*
X28545238Y-66779580D01*
D11*
%TO.C,C3*%
X58058748Y-47585000D02*
X58581252Y-47585000D01*
X58058748Y-49055000D02*
X58581252Y-49055000D01*
%TO.C,J4*%
X44680000Y-20750000D02*
X44680000Y-22000000D01*
X44980000Y-21050000D02*
X44980000Y-25770000D01*
X44980000Y-22360000D02*
X45590000Y-22360000D01*
X44980000Y-23660000D02*
X45590000Y-23660000D01*
X44980000Y-25770000D02*
X55100000Y-25770000D01*
X45590000Y-21660000D02*
X45590000Y-25160000D01*
X45590000Y-25160000D02*
X54490000Y-25160000D01*
X45930000Y-20750000D02*
X44680000Y-20750000D01*
X46440000Y-20850000D02*
X46440000Y-21050000D01*
X46740000Y-20850000D02*
X46440000Y-20850000D01*
X46740000Y-20950000D02*
X46440000Y-20950000D01*
X46740000Y-21050000D02*
X46740000Y-20850000D01*
X47540000Y-21050000D02*
X47540000Y-21660000D01*
X47540000Y-21660000D02*
X45590000Y-21660000D01*
X47940000Y-24660000D02*
X48140000Y-24660000D01*
X47940000Y-25160000D02*
X47940000Y-24660000D01*
X48040000Y-25160000D02*
X48040000Y-24660000D01*
X48140000Y-24660000D02*
X48140000Y-25160000D01*
X49940000Y-24660000D02*
X50140000Y-24660000D01*
X49940000Y-25160000D02*
X49940000Y-24660000D01*
X50040000Y-25160000D02*
X50040000Y-24660000D01*
X50140000Y-24660000D02*
X50140000Y-25160000D01*
X51940000Y-24660000D02*
X52140000Y-24660000D01*
X51940000Y-25160000D02*
X51940000Y-24660000D01*
X52040000Y-25160000D02*
X52040000Y-24660000D01*
X52140000Y-24660000D02*
X52140000Y-25160000D01*
X52540000Y-21660000D02*
X52540000Y-21050000D01*
X54490000Y-21660000D02*
X52540000Y-21660000D01*
X54490000Y-25160000D02*
X54490000Y-21660000D01*
X55100000Y-21050000D02*
X44980000Y-21050000D01*
X55100000Y-22360000D02*
X54490000Y-22360000D01*
X55100000Y-23660000D02*
X54490000Y-23660000D01*
X55100000Y-25770000D02*
X55100000Y-21050000D01*
%TO.C,R1*%
X37092936Y-44585000D02*
X37547064Y-44585000D01*
X37092936Y-46055000D02*
X37547064Y-46055000D01*
%TO.C,J3*%
X31680000Y-20750000D02*
X31680000Y-22000000D01*
X31980000Y-21050000D02*
X31980000Y-25770000D01*
X31980000Y-22360000D02*
X32590000Y-22360000D01*
X31980000Y-23660000D02*
X32590000Y-23660000D01*
X31980000Y-25770000D02*
X42100000Y-25770000D01*
X32590000Y-21660000D02*
X32590000Y-25160000D01*
X32590000Y-25160000D02*
X41490000Y-25160000D01*
X32930000Y-20750000D02*
X31680000Y-20750000D01*
X33440000Y-20850000D02*
X33440000Y-21050000D01*
X33740000Y-20850000D02*
X33440000Y-20850000D01*
X33740000Y-20950000D02*
X33440000Y-20950000D01*
X33740000Y-21050000D02*
X33740000Y-20850000D01*
X34540000Y-21050000D02*
X34540000Y-21660000D01*
X34540000Y-21660000D02*
X32590000Y-21660000D01*
X34940000Y-24660000D02*
X35140000Y-24660000D01*
X34940000Y-25160000D02*
X34940000Y-24660000D01*
X35040000Y-25160000D02*
X35040000Y-24660000D01*
X35140000Y-24660000D02*
X35140000Y-25160000D01*
X36940000Y-24660000D02*
X37140000Y-24660000D01*
X36940000Y-25160000D02*
X36940000Y-24660000D01*
X37040000Y-25160000D02*
X37040000Y-24660000D01*
X37140000Y-24660000D02*
X37140000Y-25160000D01*
X38940000Y-24660000D02*
X39140000Y-24660000D01*
X38940000Y-25160000D02*
X38940000Y-24660000D01*
X39040000Y-25160000D02*
X39040000Y-24660000D01*
X39140000Y-24660000D02*
X39140000Y-25160000D01*
X39540000Y-21660000D02*
X39540000Y-21050000D01*
X41490000Y-21660000D02*
X39540000Y-21660000D01*
X41490000Y-25160000D02*
X41490000Y-21660000D01*
X42100000Y-21050000D02*
X31980000Y-21050000D01*
X42100000Y-22360000D02*
X41490000Y-22360000D01*
X42100000Y-23660000D02*
X41490000Y-23660000D01*
X42100000Y-25770000D02*
X42100000Y-21050000D01*
%TO.C,R7*%
X62092936Y-50585000D02*
X62547064Y-50585000D01*
X62092936Y-52055000D02*
X62547064Y-52055000D01*
%TO.C,R6*%
X62092936Y-44585000D02*
X62547064Y-44585000D01*
X62092936Y-46055000D02*
X62547064Y-46055000D01*
%TO.C,R5*%
X32092936Y-47585000D02*
X32547064Y-47585000D01*
X32092936Y-49055000D02*
X32547064Y-49055000D01*
%TO.C,R4*%
X47092936Y-50585000D02*
X47547064Y-50585000D01*
X47092936Y-52055000D02*
X47547064Y-52055000D01*
%TO.C,J1*%
X25460000Y-40760000D02*
X73780000Y-40760000D01*
X25460000Y-40760000D02*
X25460000Y-38100000D01*
X73780000Y-40760000D02*
X73780000Y-38100000D01*
X22860000Y-39430000D02*
X22860000Y-38100000D01*
X22860000Y-38100000D02*
X24190000Y-38100000D01*
X25460000Y-38100000D02*
X73780000Y-38100000D01*
%TO.C,R3*%
X44092936Y-44585000D02*
X44547064Y-44585000D01*
X44092936Y-46055000D02*
X44547064Y-46055000D01*
%TO.C,Q1*%
X68320000Y-46760000D02*
X67670000Y-46760000D01*
X68320000Y-46760000D02*
X68970000Y-46760000D01*
X68320000Y-49880000D02*
X67670000Y-49880000D01*
X68320000Y-49880000D02*
X68970000Y-49880000D01*
X67157500Y-46810000D02*
X66917500Y-46480000D01*
X67397500Y-46480000D01*
X67157500Y-46810000D01*
G36*
X67157500Y-46810000D02*
G01*
X66917500Y-46480000D01*
X67397500Y-46480000D01*
X67157500Y-46810000D01*
G37*
%TO.C,J9*%
X63910000Y-65510000D02*
X63910000Y-73130000D01*
X63910000Y-73130000D02*
X74070000Y-73130000D01*
X74070000Y-65510000D02*
X63910000Y-65510000D01*
X74070000Y-71860000D02*
X63910000Y-71860000D01*
X74070000Y-73130000D02*
X74070000Y-65510000D01*
%TO.C,J7*%
X52090000Y-67210000D02*
X52090000Y-68460000D01*
X52390000Y-67510000D02*
X52390000Y-72230000D01*
X52390000Y-68820000D02*
X53000000Y-68820000D01*
X52390000Y-70120000D02*
X53000000Y-70120000D01*
X52390000Y-72230000D02*
X60510000Y-72230000D01*
X53000000Y-68120000D02*
X53000000Y-71620000D01*
X53000000Y-71620000D02*
X59900000Y-71620000D01*
X53340000Y-67210000D02*
X52090000Y-67210000D01*
X53850000Y-67310000D02*
X53850000Y-67510000D01*
X54150000Y-67310000D02*
X53850000Y-67310000D01*
X54150000Y-67410000D02*
X53850000Y-67410000D01*
X54150000Y-67510000D02*
X54150000Y-67310000D01*
X54950000Y-67510000D02*
X54950000Y-68120000D01*
X54950000Y-68120000D02*
X53000000Y-68120000D01*
X55350000Y-71120000D02*
X55550000Y-71120000D01*
X55350000Y-71620000D02*
X55350000Y-71120000D01*
X55450000Y-71620000D02*
X55450000Y-71120000D01*
X55550000Y-71120000D02*
X55550000Y-71620000D01*
X57350000Y-71120000D02*
X57550000Y-71120000D01*
X57350000Y-71620000D02*
X57350000Y-71120000D01*
X57450000Y-71620000D02*
X57450000Y-71120000D01*
X57550000Y-71120000D02*
X57550000Y-71620000D01*
X57950000Y-68120000D02*
X57950000Y-67510000D01*
X59900000Y-68120000D02*
X57950000Y-68120000D01*
X59900000Y-71620000D02*
X59900000Y-68120000D01*
X60510000Y-67510000D02*
X52390000Y-67510000D01*
X60510000Y-68820000D02*
X59900000Y-68820000D01*
X60510000Y-70120000D02*
X59900000Y-70120000D01*
X60510000Y-72230000D02*
X60510000Y-67510000D01*
%TO.C,R2*%
X39092936Y-50585000D02*
X39547064Y-50585000D01*
X39092936Y-52055000D02*
X39547064Y-52055000D01*
%TO.C,J2*%
X25460000Y-58540000D02*
X73780000Y-58540000D01*
X25460000Y-58540000D02*
X25460000Y-55880000D01*
X73780000Y-58540000D02*
X73780000Y-55880000D01*
X22860000Y-57210000D02*
X22860000Y-55880000D01*
X22860000Y-55880000D02*
X24190000Y-55880000D01*
X25460000Y-55880000D02*
X73780000Y-55880000D01*
%TO.C,J8*%
X59680000Y-20750000D02*
X59680000Y-22000000D01*
X59980000Y-21050000D02*
X59980000Y-25770000D01*
X59980000Y-22360000D02*
X60590000Y-22360000D01*
X59980000Y-23660000D02*
X60590000Y-23660000D01*
X59980000Y-25770000D02*
X68100000Y-25770000D01*
X60590000Y-21660000D02*
X60590000Y-25160000D01*
X60590000Y-25160000D02*
X67490000Y-25160000D01*
X60930000Y-20750000D02*
X59680000Y-20750000D01*
X61440000Y-20850000D02*
X61440000Y-21050000D01*
X61740000Y-20850000D02*
X61440000Y-20850000D01*
X61740000Y-20950000D02*
X61440000Y-20950000D01*
X61740000Y-21050000D02*
X61740000Y-20850000D01*
X62540000Y-21050000D02*
X62540000Y-21660000D01*
X62540000Y-21660000D02*
X60590000Y-21660000D01*
X62940000Y-24660000D02*
X63140000Y-24660000D01*
X62940000Y-25160000D02*
X62940000Y-24660000D01*
X63040000Y-25160000D02*
X63040000Y-24660000D01*
X63140000Y-24660000D02*
X63140000Y-25160000D01*
X64940000Y-24660000D02*
X65140000Y-24660000D01*
X64940000Y-25160000D02*
X64940000Y-24660000D01*
X65040000Y-25160000D02*
X65040000Y-24660000D01*
X65140000Y-24660000D02*
X65140000Y-25160000D01*
X65540000Y-21660000D02*
X65540000Y-21050000D01*
X67490000Y-21660000D02*
X65540000Y-21660000D01*
X67490000Y-25160000D02*
X67490000Y-21660000D01*
X68100000Y-21050000D02*
X59980000Y-21050000D01*
X68100000Y-22360000D02*
X67490000Y-22360000D01*
X68100000Y-23660000D02*
X67490000Y-23660000D01*
X68100000Y-25770000D02*
X68100000Y-21050000D01*
%TO.C,C1*%
X52058748Y-34825000D02*
X52581252Y-34825000D01*
X52058748Y-36295000D02*
X52581252Y-36295000D01*
%TO.C,C2*%
X52058748Y-50585000D02*
X52581252Y-50585000D01*
X52058748Y-52055000D02*
X52581252Y-52055000D01*
%TO.C,J6*%
X38090000Y-67210000D02*
X38090000Y-68460000D01*
X38390000Y-67510000D02*
X38390000Y-72230000D01*
X38390000Y-68820000D02*
X39000000Y-68820000D01*
X38390000Y-70120000D02*
X39000000Y-70120000D01*
X38390000Y-72230000D02*
X46510000Y-72230000D01*
X39000000Y-68120000D02*
X39000000Y-71620000D01*
X39000000Y-71620000D02*
X45900000Y-71620000D01*
X39340000Y-67210000D02*
X38090000Y-67210000D01*
X39850000Y-67310000D02*
X39850000Y-67510000D01*
X40150000Y-67310000D02*
X39850000Y-67310000D01*
X40150000Y-67410000D02*
X39850000Y-67410000D01*
X40150000Y-67510000D02*
X40150000Y-67310000D01*
X40950000Y-67510000D02*
X40950000Y-68120000D01*
X40950000Y-68120000D02*
X39000000Y-68120000D01*
X41350000Y-71120000D02*
X41550000Y-71120000D01*
X41350000Y-71620000D02*
X41350000Y-71120000D01*
X41450000Y-71620000D02*
X41450000Y-71120000D01*
X41550000Y-71120000D02*
X41550000Y-71620000D01*
X43350000Y-71120000D02*
X43550000Y-71120000D01*
X43350000Y-71620000D02*
X43350000Y-71120000D01*
X43450000Y-71620000D02*
X43450000Y-71120000D01*
X43550000Y-71120000D02*
X43550000Y-71620000D01*
X43950000Y-68120000D02*
X43950000Y-67510000D01*
X45900000Y-68120000D02*
X43950000Y-68120000D01*
X45900000Y-71620000D02*
X45900000Y-68120000D01*
X46510000Y-67510000D02*
X38390000Y-67510000D01*
X46510000Y-68820000D02*
X45900000Y-68820000D01*
X46510000Y-70120000D02*
X45900000Y-70120000D01*
X46510000Y-72230000D02*
X46510000Y-67510000D01*
%TO.C,D1*%
X65960000Y-52320000D02*
X65960000Y-54320000D01*
X65960000Y-52320000D02*
X69970000Y-52320000D01*
X65960000Y-54320000D02*
X69970000Y-54320000D01*
%TO.C,J5*%
X24090000Y-67210000D02*
X24090000Y-68460000D01*
X24390000Y-67510000D02*
X24390000Y-72230000D01*
X24390000Y-68820000D02*
X25000000Y-68820000D01*
X24390000Y-70120000D02*
X25000000Y-70120000D01*
X24390000Y-72230000D02*
X32510000Y-72230000D01*
X25000000Y-68120000D02*
X25000000Y-71620000D01*
X25000000Y-71620000D02*
X31900000Y-71620000D01*
X25340000Y-67210000D02*
X24090000Y-67210000D01*
X25850000Y-67310000D02*
X25850000Y-67510000D01*
X26150000Y-67310000D02*
X25850000Y-67310000D01*
X26150000Y-67410000D02*
X25850000Y-67410000D01*
X26150000Y-67510000D02*
X26150000Y-67310000D01*
X26950000Y-67510000D02*
X26950000Y-68120000D01*
X26950000Y-68120000D02*
X25000000Y-68120000D01*
X27350000Y-71120000D02*
X27550000Y-71120000D01*
X27350000Y-71620000D02*
X27350000Y-71120000D01*
X27450000Y-71620000D02*
X27450000Y-71120000D01*
X27550000Y-71120000D02*
X27550000Y-71620000D01*
X29350000Y-71120000D02*
X29550000Y-71120000D01*
X29350000Y-71620000D02*
X29350000Y-71120000D01*
X29450000Y-71620000D02*
X29450000Y-71120000D01*
X29550000Y-71120000D02*
X29550000Y-71620000D01*
X29950000Y-68120000D02*
X29950000Y-67510000D01*
X31900000Y-68120000D02*
X29950000Y-68120000D01*
X31900000Y-71620000D02*
X31900000Y-68120000D01*
X32510000Y-67510000D02*
X24390000Y-67510000D01*
X32510000Y-68820000D02*
X31900000Y-68820000D01*
X32510000Y-70120000D02*
X31900000Y-70120000D01*
X32510000Y-72230000D02*
X32510000Y-67510000D01*
%TD*%
M02*
