M48
; DRILL file {KiCad 7.0.11+dfsg-1build4} date 2026年02月08日 17時13分53秒
; FORMAT={-:-/ absolute / metric / decimal}
; #@! TF.CreationDate,2026-02-08T17:13:53+09:00
; #@! TF.GenerationSoftware,Kicad,Pcbnew,7.0.11+dfsg-1build4
; #@! TF.FileFunction,Plated,1,2,PTH
FMAT,2
METRIC
; #@! TA.AperFunction,Plated,PTH,ViaDrill
T1C0.300
; #@! TA.AperFunction,Plated,PTH,ComponentDrill
T2C0.750
; #@! TA.AperFunction,Plated,PTH,ComponentDrill
T3C1.000
; #@! TA.AperFunction,Plated,PTH,ComponentDrill
T4C1.520
%
G90
G05
T1
X12.912Y-27.0
X17.912Y-26.0
X19.912Y-30.0
X24.912Y-26.0
X27.912Y-30.0
X31.05Y-26.0
X31.05Y-30.0
X32.95Y-26.5
X32.95Y-29.5
X38.95Y-26.5
X42.913Y-29.5
X50.438Y-26.5
T2
X6.129Y-49.0
X8.129Y-49.0
X10.129Y-49.0
X14.0Y-7.0
X16.0Y-7.0
X18.0Y-7.0
X20.0Y-7.0
X20.129Y-49.0
X22.129Y-49.0
X24.129Y-49.0
X27.0Y-7.0
X29.0Y-7.0
X31.0Y-7.0
X33.0Y-7.0
X34.129Y-49.0
X36.129Y-49.0
X38.129Y-49.0
X42.0Y-7.0
X44.0Y-7.0
X46.0Y-7.0
T3
X3.87Y-19.11
X3.87Y-36.89
X6.41Y-19.11
X6.41Y-36.89
X8.95Y-19.11
X8.95Y-36.89
X11.49Y-19.11
X11.49Y-36.89
X14.03Y-19.11
X14.03Y-36.89
X16.57Y-19.11
X16.57Y-36.89
X19.11Y-19.11
X19.11Y-36.89
X21.65Y-19.11
X21.65Y-36.89
X24.19Y-19.11
X24.19Y-36.89
X26.73Y-19.11
X26.73Y-36.89
X29.27Y-19.11
X29.27Y-36.89
X31.81Y-19.11
X31.81Y-36.89
X34.35Y-19.11
X34.35Y-36.89
X36.89Y-19.11
X36.89Y-36.89
X39.43Y-19.11
X39.43Y-36.89
X41.97Y-19.11
X41.97Y-36.89
X44.51Y-19.11
X44.51Y-36.89
X47.05Y-19.11
X47.05Y-36.89
X49.59Y-19.11
X49.59Y-36.89
X52.13Y-19.11
X52.13Y-36.89
T4
X46.129Y-49.0
X51.209Y-49.0
M30
