%TF.GenerationSoftware,KiCad,Pcbnew,7.0.11+dfsg-1build4*%
%TF.CreationDate,2026-02-12T23:01:58+09:00*%
%TF.ProjectId,grove_shield_v3,67726f76-655f-4736-9869-656c645f7633,rev?*%
%TF.SameCoordinates,Original*%
%TF.FileFunction,Copper,L1,Top*%
%TF.FilePolarity,Positive*%
%FSLAX46Y46*%
G04 Gerber Fmt 4.6, Leading zero omitted, Abs format (unit mm)*
G04 Created by KiCad (PCBNEW 7.0.11+dfsg-1build4) date 2026-02-12 23:01:58*
%MOMM*%
%LPD*%
G01*
G04 APERTURE LIST*
G04 Aperture macros list*
%AMRoundRect*
0 Rectangle with rounded corners*
0 $1 Rounding radius*
0 $2 $3 $4 $5 $6 $7 $8 $9 X,Y pos of 4 corners*
0 Add a 4 corners polygon primitive as box body*
4,1,4,$2,$3,$4,$5,$6,$7,$8,$9,$2,$3,0*
0 Add four circle primitives for the rounded corners*
1,1,$1+$1,$2,$3*
1,1,$1+$1,$4,$5*
1,1,$1+$1,$6,$7*
1,1,$1+$1,$8,$9*
0 Add four rect primitives between the rounded corners*
20,1,$1+$1,$2,$3,$4,$5,0*
20,1,$1+$1,$4,$5,$6,$7,0*
20,1,$1+$1,$6,$7,$8,$9,0*
20,1,$1+$1,$8,$9,$2,$3,0*%
G04 Aperture macros list end*
%TA.AperFunction,SMDPad,CuDef*%
%ADD10RoundRect,0.250000X-0.250000X-0.475000X0.250000X-0.475000X0.250000X0.475000X-0.250000X0.475000X0*%
%TD*%
%TA.AperFunction,ComponentPad*%
%ADD11RoundRect,0.250000X-0.350000X-0.625000X0.350000X-0.625000X0.350000X0.625000X-0.350000X0.625000X0*%
%TD*%
%TA.AperFunction,ComponentPad*%
%ADD12O,1.200000X1.750000*%
%TD*%
%TA.AperFunction,SMDPad,CuDef*%
%ADD13RoundRect,0.250000X-0.262500X-0.450000X0.262500X-0.450000X0.262500X0.450000X-0.262500X0.450000X0*%
%TD*%
%TA.AperFunction,ComponentPad*%
%ADD14R,1.700000X1.700000*%
%TD*%
%TA.AperFunction,ComponentPad*%
%ADD15O,1.700000X1.700000*%
%TD*%
%TA.AperFunction,SMDPad,CuDef*%
%ADD16RoundRect,0.150000X-0.587500X-0.150000X0.587500X-0.150000X0.587500X0.150000X-0.587500X0.150000X0*%
%TD*%
%TA.AperFunction,ComponentPad*%
%ADD17R,3.000000X3.000000*%
%TD*%
%TA.AperFunction,ComponentPad*%
%ADD18C,3.000000*%
%TD*%
%TA.AperFunction,SMDPad,CuDef*%
%ADD19RoundRect,0.225000X-0.225000X-0.375000X0.225000X-0.375000X0.225000X0.375000X-0.225000X0.375000X0*%
%TD*%
%TA.AperFunction,ViaPad*%
%ADD20C,0.600000*%
%TD*%
%TA.AperFunction,Conductor*%
%ADD21C,0.152400*%
%TD*%
%TA.AperFunction,Conductor*%
%ADD22C,0.200000*%
%TD*%
G04 APERTURE END LIST*
D10*
%TO.P,C3,1*%
%TO.N,Net-(J2-Pin_15)*%
X57370000Y-48320000D03*
%TO.P,C3,2*%
%TO.N,Net-(J2-Pin_18)*%
X59270000Y-48320000D03*
%TD*%
D11*
%TO.P,J4,1*%
%TO.N,Net-(J1-Pin_10)*%
X47040000Y-22860000D03*
D12*
%TO.P,J4,2*%
%TO.N,Net-(J1-Pin_9)*%
X49040000Y-22860000D03*
%TO.P,J4,3*%
%TO.N,Net-(J2-Pin_16)*%
X51040000Y-22860000D03*
%TO.P,J4,4*%
%TO.N,Net-(J2-Pin_18)*%
X53040000Y-22860000D03*
%TD*%
D13*
%TO.P,R1,1*%
%TO.N,Net-(J1-Pin_6)*%
X36407500Y-45320000D03*
%TO.P,R1,2*%
%TO.N,Net-(J2-Pin_16)*%
X38232500Y-45320000D03*
%TD*%
D11*
%TO.P,J3,1*%
%TO.N,Net-(J1-Pin_7)*%
X34040000Y-22860000D03*
D12*
%TO.P,J3,2*%
%TO.N,Net-(J1-Pin_6)*%
X36040000Y-22860000D03*
%TO.P,J3,3*%
%TO.N,Net-(J2-Pin_16)*%
X38040000Y-22860000D03*
%TO.P,J3,4*%
%TO.N,Net-(J2-Pin_18)*%
X40040000Y-22860000D03*
%TD*%
D13*
%TO.P,R7,1*%
%TO.N,Net-(Q1-G)*%
X61407500Y-51320000D03*
%TO.P,R7,2*%
%TO.N,Net-(J2-Pin_18)*%
X63232500Y-51320000D03*
%TD*%
%TO.P,R6,1*%
%TO.N,Net-(Q1-G)*%
X61407500Y-45320000D03*
%TO.P,R6,2*%
%TO.N,Net-(J2-Pin_9)*%
X63232500Y-45320000D03*
%TD*%
%TO.P,R5,1*%
%TO.N,Net-(J1-Pin_4)*%
X31407500Y-48320000D03*
%TO.P,R5,2*%
%TO.N,Net-(J2-Pin_16)*%
X33232500Y-48320000D03*
%TD*%
%TO.P,R4,1*%
%TO.N,Net-(J1-Pin_10)*%
X46407500Y-51320000D03*
%TO.P,R4,2*%
%TO.N,Net-(J2-Pin_16)*%
X48232500Y-51320000D03*
%TD*%
D14*
%TO.P,J1,1*%
%TO.N,N/C*%
X24190000Y-39430000D03*
D15*
%TO.P,J1,2*%
X26730000Y-39430000D03*
%TO.P,J1,3*%
X29270000Y-39430000D03*
%TO.P,J1,4*%
%TO.N,Net-(J1-Pin_4)*%
X31810000Y-39430000D03*
%TO.P,J1,5*%
%TO.N,N/C*%
X34350000Y-39430000D03*
%TO.P,J1,6*%
%TO.N,Net-(J1-Pin_6)*%
X36890000Y-39430000D03*
%TO.P,J1,7*%
%TO.N,Net-(J1-Pin_7)*%
X39430000Y-39430000D03*
%TO.P,J1,8*%
%TO.N,N/C*%
X41970000Y-39430000D03*
%TO.P,J1,9*%
%TO.N,Net-(J1-Pin_9)*%
X44510000Y-39430000D03*
%TO.P,J1,10*%
%TO.N,Net-(J1-Pin_10)*%
X47050000Y-39430000D03*
%TO.P,J1,11*%
%TO.N,N/C*%
X49590000Y-39430000D03*
%TO.P,J1,12*%
X52130000Y-39430000D03*
%TO.P,J1,13*%
X54670000Y-39430000D03*
%TO.P,J1,14*%
X57210000Y-39430000D03*
%TO.P,J1,15*%
X59750000Y-39430000D03*
%TO.P,J1,16*%
X62290000Y-39430000D03*
%TO.P,J1,17*%
X64830000Y-39430000D03*
%TO.P,J1,18*%
X67370000Y-39430000D03*
%TO.P,J1,19*%
X69910000Y-39430000D03*
%TO.P,J1,20*%
X72450000Y-39430000D03*
%TD*%
D13*
%TO.P,R3,1*%
%TO.N,Net-(J1-Pin_9)*%
X43407500Y-45320000D03*
%TO.P,R3,2*%
%TO.N,Net-(J2-Pin_16)*%
X45232500Y-45320000D03*
%TD*%
D16*
%TO.P,Q1,1*%
%TO.N,Net-(Q1-G)*%
X67382500Y-47370000D03*
%TO.P,Q1,2*%
%TO.N,Net-(D1-A)*%
X67382500Y-49270000D03*
%TO.P,Q1,3*%
%TO.N,Net-(J2-Pin_18)*%
X69257500Y-48320000D03*
%TD*%
D17*
%TO.P,J9,1*%
%TO.N,Net-(D1-A)*%
X66450000Y-69320000D03*
D18*
%TO.P,J9,2*%
%TO.N,Net-(J2-Pin_18)*%
X71530000Y-69320000D03*
%TD*%
D11*
%TO.P,J7,1*%
%TO.N,Net-(J2-Pin_18)*%
X54450000Y-69320000D03*
D12*
%TO.P,J7,2*%
%TO.N,Net-(J2-Pin_16)*%
X56450000Y-69320000D03*
%TO.P,J7,3*%
%TO.N,Net-(J2-Pin_14)*%
X58450000Y-69320000D03*
%TD*%
D13*
%TO.P,R2,1*%
%TO.N,Net-(J1-Pin_7)*%
X38407500Y-51320000D03*
%TO.P,R2,2*%
%TO.N,Net-(J2-Pin_16)*%
X40232500Y-51320000D03*
%TD*%
D14*
%TO.P,J2,1*%
%TO.N,N/C*%
X24190000Y-57210000D03*
D15*
%TO.P,J2,2*%
X26730000Y-57210000D03*
%TO.P,J2,3*%
X29270000Y-57210000D03*
%TO.P,J2,4*%
X31810000Y-57210000D03*
%TO.P,J2,5*%
X34350000Y-57210000D03*
%TO.P,J2,6*%
X36890000Y-57210000D03*
%TO.P,J2,7*%
X39430000Y-57210000D03*
%TO.P,J2,8*%
X41970000Y-57210000D03*
%TO.P,J2,9*%
%TO.N,Net-(J2-Pin_9)*%
X44510000Y-57210000D03*
%TO.P,J2,10*%
%TO.N,N/C*%
X47050000Y-57210000D03*
%TO.P,J2,11*%
%TO.N,Net-(J2-Pin_11)*%
X49590000Y-57210000D03*
%TO.P,J2,12*%
%TO.N,Net-(J2-Pin_12)*%
X52130000Y-57210000D03*
%TO.P,J2,13*%
%TO.N,N/C*%
X54670000Y-57210000D03*
%TO.P,J2,14*%
%TO.N,Net-(J2-Pin_14)*%
X57210000Y-57210000D03*
%TO.P,J2,15*%
%TO.N,Net-(J2-Pin_15)*%
X59750000Y-57210000D03*
%TO.P,J2,16*%
%TO.N,Net-(J2-Pin_16)*%
X62290000Y-57210000D03*
%TO.P,J2,17*%
%TO.N,N/C*%
X64830000Y-57210000D03*
%TO.P,J2,18*%
%TO.N,Net-(J2-Pin_18)*%
X67370000Y-57210000D03*
%TO.P,J2,19*%
%TO.N,Net-(D1-A)*%
X69910000Y-57210000D03*
%TO.P,J2,20*%
%TO.N,N/C*%
X72450000Y-57210000D03*
%TD*%
D11*
%TO.P,J8,1*%
%TO.N,Net-(J2-Pin_18)*%
X62040000Y-22860000D03*
D12*
%TO.P,J8,2*%
%TO.N,Net-(J1-Pin_4)*%
X64040000Y-22860000D03*
%TO.P,J8,3*%
%TO.N,Net-(J2-Pin_16)*%
X66040000Y-22860000D03*
%TD*%
D10*
%TO.P,C1,1*%
%TO.N,Net-(J2-Pin_16)*%
X51370000Y-35560000D03*
%TO.P,C1,2*%
%TO.N,Net-(J2-Pin_18)*%
X53270000Y-35560000D03*
%TD*%
%TO.P,C2,1*%
%TO.N,Net-(J2-Pin_16)*%
X51370000Y-51320000D03*
%TO.P,C2,2*%
%TO.N,Net-(J2-Pin_18)*%
X53270000Y-51320000D03*
%TD*%
D11*
%TO.P,J6,1*%
%TO.N,Net-(J2-Pin_18)*%
X40450000Y-69320000D03*
D12*
%TO.P,J6,2*%
%TO.N,Net-(J2-Pin_16)*%
X42450000Y-69320000D03*
%TO.P,J6,3*%
%TO.N,Net-(J2-Pin_12)*%
X44450000Y-69320000D03*
%TD*%
D19*
%TO.P,D1,1*%
%TO.N,Net-(D1-A)*%
X66670000Y-53320000D03*
%TO.P,D1,2*%
X69970000Y-53320000D03*
%TD*%
D11*
%TO.P,J5,1*%
%TO.N,Net-(J2-Pin_18)*%
X26450000Y-69320000D03*
D12*
%TO.P,J5,2*%
%TO.N,Net-(J2-Pin_16)*%
X28450000Y-69320000D03*
%TO.P,J5,3*%
%TO.N,Net-(J2-Pin_11)*%
X30450000Y-69320000D03*
%TD*%
D20*
%TO.N,Net-(J1-Pin_7)*%
X35560000Y-30480000D03*
X35560000Y-30480000D03*
X30480000Y-27940000D03*
X30480000Y-27940000D03*
X35560000Y-30480000D03*
%TO.N,Net-(J2-Pin_16)*%
X58420000Y-53340000D03*
X50800000Y-53340000D03*
X43180000Y-53340000D03*
%TD*%
D21*
%TO.N,Net-(D1-A)*%
X67383660Y-49557940D02*
X67383660Y-49842420D01*
X69971920Y-53319680D02*
X69250560Y-53319680D01*
X67960240Y-52029360D02*
X67391280Y-52598320D01*
X67383660Y-50556160D02*
X67383660Y-51452780D01*
X66669920Y-53319680D02*
X67391280Y-53319680D01*
X67383660Y-49270920D02*
X67383660Y-49557940D01*
X67391280Y-52598320D02*
X67391280Y-53319680D01*
X69971920Y-53319680D02*
X69971920Y-54190900D01*
X67960240Y-52029360D02*
X69250560Y-53319680D01*
X69910960Y-65857120D02*
X69910960Y-57210960D01*
X67383660Y-51452780D02*
X67960240Y-52029360D01*
X67383660Y-49870360D02*
X67383660Y-50556160D01*
X67383660Y-49842420D02*
X67383660Y-49870360D01*
X69910960Y-54251860D02*
X69971920Y-54190900D01*
X66448940Y-69319140D02*
X69910960Y-65857120D01*
X69910960Y-57210960D02*
X69910960Y-54251860D01*
%TO.N,Net-(J1-Pin_4)*%
X31810960Y-46944280D02*
X31407100Y-47348140D01*
X31810960Y-39430960D02*
X31810960Y-46944280D01*
X31407100Y-48320960D02*
X31407100Y-47348140D01*
%TO.N,Net-(J1-Pin_6)*%
X33020000Y-27940000D02*
X33020000Y-35560000D01*
X33020000Y-35560000D02*
X36890000Y-39430000D01*
X36408360Y-39913560D02*
X36890960Y-39430960D01*
X36040000Y-24920000D02*
X33020000Y-27940000D01*
X36890960Y-39430960D02*
X36319460Y-38859460D01*
X36040000Y-22860000D02*
X36040000Y-24920000D01*
X36408360Y-45321220D02*
X36408360Y-39913560D01*
D22*
%TO.N,Net-(J1-Pin_7)*%
X34040000Y-24380000D02*
X34040000Y-22860000D01*
D21*
X38407340Y-51320700D02*
X39192200Y-51320700D01*
D22*
X39430000Y-39430000D02*
X39430000Y-34350000D01*
X39430000Y-34350000D02*
X35560000Y-30480000D01*
D21*
X39192200Y-39669720D02*
X39430960Y-39430960D01*
X39192200Y-51320700D02*
X39192200Y-39669720D01*
D22*
X30480000Y-27940000D02*
X34040000Y-24380000D01*
D21*
%TO.N,Net-(J1-Pin_9)*%
X44510960Y-39430960D02*
X43408600Y-40533320D01*
X43408600Y-40533320D02*
X43408600Y-45321220D01*
X44230960Y-23886400D02*
X44510960Y-24166400D01*
X46737940Y-21379420D02*
X44230960Y-23886400D01*
X44510960Y-24166400D02*
X44510960Y-39430960D01*
X49039180Y-22860240D02*
X47558360Y-21379420D01*
X47558360Y-21379420D02*
X46737940Y-21379420D01*
%TO.N,Net-(J1-Pin_10)*%
X46408340Y-51320700D02*
X46408340Y-40073580D01*
D22*
X47040000Y-22860000D02*
X47040000Y-27578520D01*
D21*
X47050960Y-39430960D02*
X47050960Y-27589480D01*
X46408340Y-40073580D02*
X47050960Y-39430960D01*
D22*
X47040000Y-27578520D02*
X47050960Y-27589480D01*
D21*
X46770960Y-23129480D02*
X47040200Y-22860240D01*
%TO.N,Net-(J2-Pin_9)*%
X44510960Y-57210960D02*
X49392840Y-52329080D01*
X49392840Y-52329080D02*
X49392840Y-50363120D01*
X55407560Y-44348400D02*
X62257940Y-44348400D01*
X62445900Y-44536360D02*
X62445900Y-45321220D01*
X62445900Y-45321220D02*
X63230760Y-45321220D01*
X49392840Y-50363120D02*
X55407560Y-44348400D01*
X62257940Y-44348400D02*
X62445900Y-44536360D01*
%TO.N,Net-(J2-Pin_12)*%
X52130960Y-61638180D02*
X44450000Y-69319140D01*
X52130960Y-57210960D02*
X52130960Y-61638180D01*
%TO.N,Net-(J2-Pin_14)*%
X57210960Y-68079620D02*
X58450480Y-69319140D01*
X57210960Y-57210960D02*
X57210960Y-68079620D01*
%TO.N,Net-(J2-Pin_15)*%
X58420000Y-55880000D02*
X58143140Y-55603140D01*
X59750960Y-57210960D02*
X58420000Y-55880000D01*
X55940000Y-48320000D02*
X57370000Y-48320000D01*
X55880000Y-53340000D02*
X55880000Y-48260000D01*
X58420000Y-55880000D02*
X55880000Y-53340000D01*
X55880000Y-48260000D02*
X55940000Y-48320000D01*
D22*
%TO.N,Net-(J2-Pin_16)*%
X40232500Y-51320000D02*
X40232500Y-50320000D01*
X46212500Y-53340000D02*
X48232500Y-51320000D01*
X40232500Y-50320000D02*
X45232500Y-45320000D01*
X58197792Y-71067792D02*
X56450000Y-69320000D01*
X51370000Y-35560000D02*
X51370000Y-23190000D01*
X62290000Y-67027792D02*
X58250000Y-71067792D01*
X55880000Y-38100000D02*
X50800000Y-38100000D01*
X40640000Y-53340000D02*
X43180000Y-53340000D01*
X56450000Y-69320000D02*
X56450000Y-70550000D01*
X50800000Y-38100000D02*
X51370000Y-37530000D01*
X40640000Y-53340000D02*
X35560000Y-53340000D01*
X48232500Y-45747500D02*
X50715000Y-43265000D01*
X50715000Y-43265000D02*
X53425000Y-43265000D01*
X28450000Y-68070000D02*
X30480000Y-66040000D01*
X40232500Y-52932500D02*
X40640000Y-53340000D01*
X55880000Y-71120000D02*
X43180000Y-71120000D01*
X43180000Y-71120000D02*
X43180000Y-70050000D01*
X30480000Y-66040000D02*
X40640000Y-66040000D01*
X43180000Y-70050000D02*
X42450000Y-69320000D01*
X48232500Y-51320000D02*
X48232500Y-45747500D01*
X58420000Y-53340000D02*
X62290000Y-57210000D01*
X42450000Y-67850000D02*
X42450000Y-69320000D01*
X53425000Y-43265000D02*
X55880000Y-40810000D01*
X40232500Y-51320000D02*
X40232500Y-52932500D01*
X33232500Y-48320000D02*
X35232500Y-48320000D01*
X35500000Y-48320000D02*
X35232500Y-48320000D01*
X64865000Y-21685000D02*
X66040000Y-22860000D01*
X58250000Y-71067792D02*
X58197792Y-71067792D01*
X51370000Y-37530000D02*
X51370000Y-35560000D01*
X62290000Y-57210000D02*
X62290000Y-67027792D01*
X40640000Y-66040000D02*
X42450000Y-67850000D01*
X55880000Y-40810000D02*
X55880000Y-38100000D01*
X50800000Y-53340000D02*
X51370000Y-52770000D01*
X51370000Y-52770000D02*
X51370000Y-51320000D01*
X52215000Y-21685000D02*
X64865000Y-21685000D01*
X51370000Y-23190000D02*
X51040000Y-22860000D01*
X51040000Y-22860000D02*
X52215000Y-21685000D01*
X35232500Y-48320000D02*
X38232500Y-45320000D01*
X35560000Y-53340000D02*
X35560000Y-48260000D01*
X28450000Y-69320000D02*
X28450000Y-68070000D01*
X56450000Y-70550000D02*
X55880000Y-71120000D01*
X35560000Y-48260000D02*
X35500000Y-48320000D01*
X43180000Y-53340000D02*
X46212500Y-53340000D01*
%TO.N,Net-(J2-Pin_18)*%
X59270000Y-51650000D02*
X60960000Y-53340000D01*
X59270000Y-48320000D02*
X59270000Y-51650000D01*
X38100000Y-73660000D02*
X40450000Y-71310000D01*
X26450000Y-69320000D02*
X26450000Y-72170000D01*
X53270000Y-35560000D02*
X53270000Y-23090000D01*
X69257500Y-48320000D02*
X75720000Y-41857500D01*
X63232500Y-51320000D02*
X66232500Y-48320000D01*
X53270000Y-23090000D02*
X53040000Y-22860000D01*
X75720000Y-41857500D02*
X75720000Y-35560000D01*
X53340000Y-50267972D02*
X53340000Y-48260000D01*
X61212500Y-53340000D02*
X63232500Y-51320000D01*
X26450000Y-72170000D02*
X27940000Y-73660000D01*
X60960000Y-53340000D02*
X61212500Y-53340000D01*
X27940000Y-73660000D02*
X38100000Y-73660000D01*
X59270000Y-46570000D02*
X59270000Y-48320000D01*
X53270000Y-51320000D02*
X53270000Y-50337972D01*
X40450000Y-71310000D02*
X40450000Y-69320000D01*
X58420000Y-45720000D02*
X59270000Y-46570000D01*
X55880000Y-45720000D02*
X58420000Y-45720000D01*
X63232500Y-51320000D02*
X63232500Y-53072500D01*
X63232500Y-53072500D02*
X67370000Y-57210000D01*
X53340000Y-48260000D02*
X55880000Y-45720000D01*
X75720000Y-35560000D02*
X53270000Y-35560000D01*
X66232500Y-48320000D02*
X69257500Y-48320000D01*
X62040000Y-22860000D02*
X53040000Y-22860000D01*
X53270000Y-50337972D02*
X53340000Y-50267972D01*
D21*
%TO.N,Net-(Q1-G)*%
X61407040Y-47942500D02*
X67383660Y-47942500D01*
X61407040Y-48320960D02*
X61407040Y-47942500D01*
X67383660Y-47371000D02*
X67383660Y-47942500D01*
X61407040Y-51320700D02*
X61407040Y-48320960D01*
X61407040Y-47942500D02*
X61407040Y-45321220D01*
%TD*%
M02*
